M48
; DRILL file {KiCad 8.0.5} date 2024-10-26T12:14:09-0400
; FORMAT={-:-/ absolute / inch / decimal}
; #@! TF.CreationDate,2024-10-26T12:14:09-04:00
; #@! TF.GenerationSoftware,Kicad,Pcbnew,8.0.5
; #@! TF.FileFunction,Plated,1,2,PTH
FMAT,2
INCH
; #@! TA.AperFunction,Plated,PTH,ViaDrill
T1C0.0118
%
G90
G05
T1
X-3.1269Y-0.1599
X-3.0669Y-0.2913
X-3.0551Y-0.1026
X-3.034Y0.0906
X-3.0079Y-0.1575
X-3.0078Y-0.2815
X-2.9961Y0.1693
X-2.9803Y0.0748
X-2.9685Y-0.2008
X-2.9567Y-0.0354
X-2.9409Y0.185
X-2.937Y0.1535
X-2.9331Y-0.0903
X-2.9326Y-0.3466
X-2.9252Y-0.1732
X-2.9162Y-0.2343
X-2.9126Y0.0831
X-2.8887Y-0.445
X-2.8883Y-0.0171
X-2.8612Y-0.001
X-2.8504Y0.0748
X-2.8228Y0.1575
X-2.8154Y-0.4424
X-2.8059Y-0.4802
X-2.7913Y0.0472
X-2.7829Y-1.1656
X-2.7768Y-0.4054
X-2.7761Y-1.0414
X-2.7756Y-0.0197
X-2.7714Y-0.3218
X-2.7631Y-1.3875
X-2.7598Y-1.2835
X-2.756Y-0.4803
X-2.7369Y-0.4382
X-2.7362Y0.2402
X-2.7315Y-1.0908
X-2.7071Y0.0688
X-2.7049Y0.0328
X-2.704Y-0.1152
X-2.6878Y-0.4
X-2.6811Y-1.0984
X-2.6693Y-1.2205
X-2.6496Y-0.3465
X-2.6457Y-0.248
X-2.6419Y-1.3371
X-2.6417Y-0.9707
X-2.6339Y-0.4449
X-2.6304Y-0.4825
X-2.6299Y-1.0827
X-2.626Y-1.4803
X-2.6258Y0.2167
X-2.6103Y0.0638
X-2.6102Y-1.1535
X-2.5991Y-0.2048
X-2.5947Y-1.25
X-2.5915Y-1.4261
X-2.5701Y-0.8452
X-2.563Y-1.0354
X-2.5627Y0.1043
X-2.5591Y-0.4611
X-2.5524Y0.0072
X-2.5512Y-0.2638
X-2.5433Y-0.9646
X-2.529Y-0.3155
X-2.5197Y-1.0945
X-2.5197Y-1.5276
X-2.4909Y1.6597
X-2.4843Y1.5945
X-2.464Y1.7126
X-2.457Y-0.288
X-2.4548Y-0.086
X-2.4539Y-1.0289
X-2.4539Y-1.5864
X-2.4528Y1.7795
X-2.4422Y1.8322
X-2.4409Y-0.3543
X-2.4331Y1.9528
X-2.4331Y1.5512
X-2.4302Y1.8613
X-2.4291Y1.6732
X-2.4268Y-1.0804
X-2.4252Y-1.5236
X-2.4126Y-1.2353
X-2.3976Y1.4606
X-2.3883Y-0.07
X-2.3858Y-1.5827
X-2.3819Y1.811
X-2.3776Y-1.3998
X-2.3744Y-1.2558
X-2.374Y1.6063
X-2.3687Y1.5035
X-2.3662Y1.9951
X-2.3661Y0.7756
X-2.364Y1.4709
X-2.3608Y1.5696
X-2.3532Y-0.8855
X-2.3465Y0.6457
X-2.3465Y-0.4252
X-2.3442Y-1.4742
X-2.3386Y-1.5354
X-2.3346Y1.937
X-2.3288Y1.6443
X-2.3279Y1.8192
X-2.3228Y-0.4567
X-2.3189Y-1.122
X-2.315Y0.8071
X-2.311Y0.7559
X-2.311Y0.7205
X-2.311Y-0.9646
X-2.3042Y0.6546
X-2.3007Y1.8981
X-2.3003Y-0.1614
X-2.2981Y-1.8522
X-2.2926Y-1.4666
X-2.2913Y2.0
X-2.2859Y0.6265
X-2.2835Y-0.4173
X-2.2835Y-1.2087
X-2.2795Y-1.7362
X-2.2677Y-0.122
X-2.2638Y0.4488
X-2.2553Y-1.7957
X-2.2531Y-0.3492
X-2.248Y1.9724
X-2.248Y-1.9409
X-2.2444Y0.7519
X-2.2402Y2.0118
X-2.2402Y0.4724
X-2.2372Y0.5175
X-2.2365Y0.6258
X-2.2355Y-2.1153
X-2.2354Y-0.5178
X-2.2283Y-1.0236
X-2.2244Y1.8688
X-2.2205Y-0.0551
X-2.2205Y-1.0906
X-2.2165Y-0.1092
X-2.2165Y-1.4843
X-2.2121Y0.7555
X-2.2102Y-2.0535
X-2.2101Y0.6802
X-2.2047Y1.9016
X-2.2013Y-1.9955
X-2.2008Y-1.5197
X-2.1937Y0.4377
X-2.1929Y1.3937
X-2.1929Y0.6339
X-2.1894Y0.4988
X-2.1873Y-0.3973
X-2.1868Y0.7014
X-2.185Y0.5433
X-2.1772Y-1.8189
X-2.1768Y-0.4481
X-2.1732Y-0.2953
X-2.1732Y-0.563
X-2.1716Y-0.213
X-2.1694Y0.4177
X-2.1693Y-1.0079
X-2.1693Y-1.6693
X-2.1654Y-1.7485
X-2.1593Y-0.184
X-2.1586Y0.3881
X-2.1535Y-0.1063
X-2.1531Y2.0409
X-2.1496Y-2.2008
X-2.1479Y1.5726
X-2.1457Y-1.9291
X-2.1442Y0.9316
X-2.1405Y-1.3726
X-2.1392Y1.5184
X-2.1302Y1.6684
X-2.1299Y-1.5551
X-2.1258Y-0.3372
X-2.122Y-0.6024
X-2.1142Y-1.0
X-2.1142Y-2.0472
X-2.1112Y-0.2007
X-2.1077Y0.5197
X-2.1006Y0.7377
X-2.0945Y-2.1417
X-2.0915Y-1.8958
X-2.0906Y0.4173
X-2.09Y-1.1516
X-2.0874Y-0.6517
X-2.0866Y1.8543
X-2.0866Y-0.1063
X-2.0827Y-1.7087
X-2.0827Y-1.815
X-2.0799Y-0.2048
X-2.0784Y-1.9378
X-2.072Y2.0402
X-2.0709Y-1.248
X-2.0709Y-1.6378
X-2.0667Y0.4488
X-2.063Y0.9409
X-2.063Y-1.3307
X-2.0595Y0.0097
X-2.0591Y1.9606
X-2.059Y1.7986
X-2.0433Y-0.6181
X-2.0375Y-1.7639
X-2.0374Y1.9089
X-2.0354Y-2.0197
X-2.0278Y1.8033
X-2.0276Y-0.6732
X-2.0276Y-2.1693
X-2.0229Y0.7186
X-2.0185Y2.0449
X-2.0142Y0.0103
X-2.0075Y-0.1637
X-2.0045Y0.9356
X-2.0039Y0.8543
X-2.0039Y0.3662
X-1.9967Y1.7632
X-1.9961Y-2.0709
X-1.9921Y0.9646
X-1.9908Y-1.4834
X-1.9882Y-1.7181
X-1.9843Y1.689
X-1.9731Y-1.6135
X-1.9685Y-0.626
X-1.9654Y-1.103
X-1.9633Y-0.6571
X-1.9581Y-0.4459
X-1.9564Y1.4787
X-1.9548Y-1.3529
X-1.9533Y-1.0187
X-1.9488Y-0.4022
X-1.9429Y-0.5519
X-1.9418Y0.6377
X-1.9331Y1.9134
X-1.9291Y1.752
X-1.9137Y1.4387
X-1.912Y-1.8382
X-1.9094Y-0.6063
X-1.9053Y0.5855
X-1.9013Y1.646
X-1.8899Y-1.0079
X-1.8859Y-2.2265
X-1.8858Y-0.878
X-1.881Y0.5433
X-1.8795Y-0.1999
X-1.8771Y0.0468
X-1.8701Y1.7913
X-1.8695Y-2.0608
X-1.8661Y-1.0354
X-1.8645Y-1.2666
X-1.8644Y1.6828
X-1.8622Y0.378
X-1.8622Y-1.4488
X-1.8583Y0.7953
X-1.8559Y1.7167
X-1.8543Y-0.5984
X-1.8543Y-1.6103
X-1.8404Y-0.2467
X-1.8395Y-1.1738
X-1.8356Y-2.1345
X-1.8353Y0.5617
X-1.8307Y1.8976
X-1.8268Y2.3386
X-1.8268Y0.7165
X-1.8189Y-1.3031
X-1.815Y2.2283
X-1.8071Y0.8583
X-1.8071Y0.4646
X-1.8031Y-1.0787
X-1.8031Y0.8101
X-1.8009Y-0.2852
X-1.7874Y1.7835
X-1.7874Y-2.1064
X-1.787Y-1.2212
X-1.7835Y0.8346
X-1.7819Y-1.9199
X-1.7803Y-1.4165
X-1.7756Y1.689
X-1.7598Y-1.3465
X-1.7598Y-2.0512
X-1.7582Y-0.8009
X-1.752Y0.622
X-1.7515Y1.7708
X-1.7475Y2.2648
X-1.7471Y2.0674
X-1.7441Y1.3937
X-1.7441Y0.7008
X-1.7392Y2.3445
X-1.7364Y-0.5529
X-1.7356Y1.425
X-1.7323Y-1.2835
X-1.7299Y-1.6865
X-1.7289Y-1.851
X-1.7267Y0.4042
X-1.7253Y-1.066
X-1.7191Y1.472
X-1.7165Y0.7598
X-1.7165Y-1.4528
X-1.7008Y2.4331
X-1.7008Y1.3465
X-1.7006Y-0.3911
X-1.6895Y-0.5804
X-1.685Y-2.122
X-1.681Y1.2114
X-1.6772Y1.437
X-1.6698Y2.1307
X-1.6654Y-1.4134
X-1.6646Y1.9336
X-1.6614Y0.4249
X-1.6575Y0.3071
X-1.655Y-1.5081
X-1.6485Y2.4922
X-1.6467Y1.5685
X-1.6417Y-0.4606
X-1.6417Y-0.9528
X-1.6403Y-0.2076
X-1.6393Y1.7082
X-1.6391Y1.3407
X-1.6334Y0.6382
X-1.6332Y1.1539
X-1.6315Y1.305
X-1.6281Y-1.4908
X-1.6242Y-1.9431
X-1.6203Y1.9948
X-1.6172Y-2.0593
X-1.6149Y-0.2675
X-1.614Y-0.1724
X-1.6089Y2.2643
X-1.6059Y0.7261
X-1.6043Y1.387
X-1.5965Y-1.3219
X-1.5787Y0.2126
X-1.5709Y-1.437
X-1.5574Y-1.6435
X-1.5522Y0.3537
X-1.552Y2.4095
X-1.5468Y0.4729
X-1.5462Y1.6216
X-1.5461Y-1.7219
X-1.5456Y-1.3766
X-1.5437Y1.584
X-1.5433Y-2.4331
X-1.5401Y0.1371
X-1.5383Y2.5797
X-1.5378Y1.6805
X-1.5374Y-1.5929
X-1.5354Y-2.5
X-1.5353Y-1.1532
X-1.5327Y-0.5534
X-1.5315Y0.7165
X-1.5284Y0.6512
X-1.5236Y-0.8228
X-1.5197Y-0.9921
X-1.5188Y-2.5389
X-1.5185Y-1.4799
X-1.5131Y-1.6129
X-1.5118Y0.2126
X-1.5118Y-1.7756
X-1.5027Y-0.2903
X-1.5009Y-2.4998
X-1.4992Y2.4806
X-1.4936Y-1.1022
X-1.4913Y-0.5025
X-1.4848Y-2.2248
X-1.4843Y1.5709
X-1.4841Y-2.4143
X-1.4837Y-2.554
X-1.4836Y0.7489
X-1.4824Y-0.2207
X-1.4738Y-1.7351
X-1.4628Y0.0779
X-1.4567Y-1.5512
X-1.4528Y-2.3346
X-1.4409Y-1.9567
X-1.437Y-1.7756
X-1.437Y-2.4567
X-1.4331Y1.3858
X-1.4309Y2.1737
X-1.4291Y-1.6181
X-1.4275Y2.2336
X-1.4252Y0.752
X-1.4213Y1.5827
X-1.4201Y-0.6468
X-1.4173Y1.6457
X-1.4173Y0.1181
X-1.4152Y1.3365
X-1.4107Y1.1523
X-1.4102Y2.1368
X-1.4102Y0.1666
X-1.4094Y1.2562
X-1.409Y0.2628
X-1.4081Y-0.2227
X-1.4055Y0.7194
X-1.4055Y-2.6535
X-1.4006Y-0.51
X-1.3983Y0.5143
X-1.3898Y-1.1378
X-1.3893Y1.908
X-1.3858Y-0.0945
X-1.3858Y-0.4213
X-1.3819Y-0.311
X-1.3788Y1.7737
X-1.378Y-1.752
X-1.3778Y-0.4716
X-1.377Y-1.8446
X-1.3751Y1.2996
X-1.3744Y-0.5691
X-1.374Y0.7824
X-1.374Y-2.1392
X-1.371Y0.1867
X-1.3702Y2.0562
X-1.3687Y2.0877
X-1.3676Y-2.7406
X-1.3661Y1.2047
X-1.3661Y-1.0748
X-1.3661Y-1.5197
X-1.3643Y-1.3277
X-1.3575Y-1.8198
X-1.3543Y-1.4606
X-1.3543Y-2.4803
X-1.3465Y-2.0315
X-1.3425Y1.6417
X-1.3386Y-2.5669
X-1.3356Y-1.9528
X-1.3346Y-1.8661
X-1.3336Y-0.3334
X-1.3316Y0.485
X-1.3302Y-1.0405
X-1.3299Y-1.5001
X-1.325Y-2.3929
X-1.3228Y2.0591
X-1.3228Y-2.685
X-1.3219Y1.2274
X-1.3201Y-2.6232
X-1.3189Y-1.6772
X-1.3186Y-2.7561
X-1.316Y-1.2451
X-1.316Y-2.2472
X-1.3123Y1.5779
X-1.3071Y1.3465
X-1.3071Y-1.7638
X-1.3036Y-0.299
X-1.3031Y1.9724
X-1.3014Y2.5985
X-1.3006Y2.4202
X-1.3002Y-0.9774
X-1.2978Y-2.2877
X-1.2953Y1.1339
X-1.2953Y0.0984
X-1.2874Y-0.4646
X-1.2874Y-1.9173
X-1.2835Y0.8307
X-1.2835Y-1.2559
X-1.2795Y-1.0866
X-1.2795Y-2.1339
X-1.2793Y1.9096
X-1.2765Y-2.566
X-1.2756Y-2.2472
X-1.2756Y-2.5984
X-1.2732Y1.6735
X-1.2677Y0.7638
X-1.2677Y-2.5
X-1.2652Y1.0821
X-1.2637Y2.2471
X-1.2632Y-0.765
X-1.2626Y-2.1795
X-1.262Y0.4113
X-1.2603Y1.4432
X-1.2599Y1.9612
X-1.2559Y0.6732
X-1.2559Y-1.8819
X-1.2553Y-0.0557
X-1.2521Y1.4736
X-1.252Y0.7953
X-1.252Y-1.4094
X-1.2505Y2.2873
X-1.248Y1.311
X-1.2195Y-1.6939
X-1.2087Y1.3858
X-1.2087Y-1.4449
X-1.2055Y2.3019
X-1.2047Y-1.6063
X-1.1997Y-2.6563
X-1.1975Y2.5856
X-1.1969Y-1.9276
X-1.1901Y-2.739
X-1.189Y-1.0551
X-1.189Y-2.2047
X-1.1838Y-0.2303
X-1.1772Y0.2559
X-1.1732Y2.1142
X-1.1732Y-0.9764
X-1.1686Y-0.6217
X-1.1661Y-1.9599
X-1.1627Y1.1472
X-1.1616Y-2.1163
X-1.1583Y0.5858
X-1.1575Y2.0079
X-1.1555Y-1.1428
X-1.1535Y1.2008
X-1.1523Y-0.7406
X-1.1496Y-1.2362
X-1.1483Y0.2868
X-1.1457Y1.6811
X-1.1449Y-0.3193
X-1.1425Y-1.3344
X-1.1409Y-0.4466
X-1.1402Y-1.2694
X-1.1401Y-2.4033
X-1.1397Y-0.285
X-1.1381Y-1.8245
X-1.1378Y0.2165
X-1.1378Y-0.9449
X-1.1378Y-1.9843
X-1.1339Y2.1732
X-1.1339Y-1.4724
X-1.126Y1.4646
X-1.126Y-1.6417
X-1.126Y-1.7126
X-1.126Y-2.0157
X-1.1235Y-1.2125
X-1.1181Y-1.1024
X-1.1142Y-1.937
X-1.1128Y0.3768
X-1.1102Y0.5354
X-1.1063Y2.5079
X-1.1024Y0.4606
X-1.0966Y-1.0176
X-1.0927Y-0.6934
X-1.0906Y0.2126
X-1.0871Y1.8261
X-1.0866Y-2.3218
X-1.0831Y-1.3592
X-1.0802Y1.3169
X-1.0787Y0.6496
X-1.0787Y-2.0118
X-1.0709Y0.6137
X-1.07Y1.5559
X-1.0692Y1.8521
X-1.0669Y0.5787
X-1.0669Y-1.9291
X-1.0651Y-2.5264
X-1.0643Y2.6259
X-1.0633Y-1.8358
X-1.0625Y1.0028
X-1.0543Y-2.1713
X-1.0512Y1.3937
X-1.0472Y-0.3583
X-1.0464Y-0.9819
X-1.0433Y-2.5866
X-1.0428Y1.0669
X-1.0428Y1.0669
X-1.0427Y0.1294
X-1.0421Y-0.4419
X-1.0394Y1.6417
X-1.0354Y0.9528
X-1.0315Y-1.626
X-1.0276Y0.2047
X-1.0276Y-1.7717
X-1.0276Y-1.8937
X-1.0247Y-0.4002
X-1.0242Y2.6555
X-1.0236Y-1.9449
X-1.0212Y-2.1399
X-1.0197Y1.761
X-1.0197Y1.4528
X-1.0197Y-0.311
X-1.0197Y-0.7795
X-1.0158Y-0.1115
X-1.0157Y2.5906
X-1.0157Y0.8228
X-1.0157Y0.4449
X-1.0144Y-2.7356
X-1.0115Y0.1339
X-1.0107Y2.2304
X-1.0086Y2.6864
X-1.0079Y1.6535
X-1.0079Y-2.3898
X-1.0039Y2.4606
X-1.0Y1.5827
X-0.9961Y-2.315
X-0.9961Y-2.5512
X-0.9844Y0.1074
X-0.9843Y0.8425
X-0.9814Y-0.2257
X-0.9803Y-2.1378
X-0.9718Y1.7374
X-0.9707Y0.7638
X-0.9672Y-1.7909
X-0.9625Y-2.6827
X-0.9567Y1.7677
X-0.954Y0.9675
X-0.9528Y0.8543
X-0.9528Y-1.6969
X-0.9506Y-0.8211
X-0.9488Y2.5551
X-0.9488Y1.5315
X-0.9488Y-1.6496
X-0.947Y-1.1695
X-0.9437Y-0.6487
X-0.9436Y0.1995
X-0.938Y2.0329
X-0.937Y0.1299
X-0.9357Y-0.7048
X-0.9344Y-1.8865
X-0.9252Y1.2157
X-0.9252Y-0.315
X-0.9252Y1.8332
X-0.9229Y-1.4148
X-0.9215Y-2.2038
X-0.9213Y-2.4252
X-0.9213Y-2.5315
X-0.9208Y2.8142
X-0.9207Y-0.8929
X-0.9187Y1.3407
X-0.9173Y-1.2362
X-0.9155Y-1.4671
X-0.9134Y-0.8071
X-0.9134Y-2.0433
X-0.9133Y-1.3819
X-0.9098Y2.5787
X-0.9078Y-1.3223
X-0.9068Y0.3851
X-0.9055Y-2.6378
X-0.9037Y0.0425
X-0.9022Y-1.9824
X-0.9016Y0.878
X-0.9002Y-2.3009
X-0.9001Y2.1655
X-0.8996Y1.3657
X-0.8985Y-2.0977
X-0.8966Y1.1839
X-0.8937Y-0.4921
X-0.8927Y-1.7598
X-0.8907Y-1.218
X-0.8898Y-2.7047
X-0.8858Y1.6299
X-0.8819Y0.1732
X-0.8806Y-0.6957
X-0.874Y1.5394
X-0.874Y-2.2835
X-0.8724Y-1.9975
X-0.8701Y-0.2835
X-0.8698Y1.0012
X-0.8666Y-2.0832
X-0.8661Y-1.9331
X-0.8626Y1.4898
X-0.861Y2.6445
X-0.86Y-1.9686
X-0.8591Y2.8427
X-0.8547Y0.4318
X-0.8543Y1.811
X-0.8543Y-2.3504
X-0.8536Y2.0064
X-0.8504Y2.4055
X-0.8504Y1.5866
X-0.8488Y0.0703
X-0.8447Y0.483
X-0.8388Y-1.3751
X-0.8386Y-0.0197
X-0.8384Y2.2955
X-0.8346Y2.3268
X-0.8307Y-1.6216
X-0.8307Y-2.5394
X-0.8268Y1.2795
X-0.8268Y-0.7874
X-0.8268Y-2.311
X-0.8261Y1.2199
X-0.8222Y-0.5359
X-0.8204Y0.7038
X-0.815Y0.1732
X-0.8113Y-0.4071
X-0.8112Y-1.1075
X-0.8102Y2.0366
X-0.8066Y0.6755
X-0.806Y-0.3761
X-0.8055Y1.5322
X-0.805Y1.3558
X-0.8031Y0.2717
X-0.8031Y-1.4685
X-0.8009Y2.8202
X-0.8009Y0.1451
X-0.7992Y2.6181
X-0.7953Y-0.3019
X-0.7915Y1.6841
X-0.7874Y-2.0118
X-0.7869Y2.968
X-0.7868Y1.2399
X-0.7851Y-1.9418
X-0.7848Y0.4214
X-0.7835Y0.7126
X-0.7795Y1.2835
X-0.7795Y-0.8307
X-0.7795Y-2.6457
X-0.7756Y1.5591
X-0.7717Y-0.6378
X-0.7717Y0.815
X-0.7677Y0.0709
X-0.7642Y-0.6964
X-0.7638Y2.3858
X-0.7559Y-1.9646
X-0.752Y1.6299
X-0.748Y-1.6732
X-0.7441Y-0.3701
X-0.7441Y-0.4213
X-0.7402Y-0.6378
X-0.738Y2.8748
X-0.7375Y1.9683
X-0.7372Y-1.8623
X-0.7362Y-0.5551
X-0.7354Y-2.4959
X-0.734Y0.8402
X-0.7337Y-1.5832
X-0.7315Y0.8088
X-0.7305Y-2.2104
X-0.7305Y2.4814
X-0.7301Y0.481
X-0.7295Y-2.0579
X-0.7293Y2.4233
X-0.7287Y-1.9179
X-0.7283Y-0.1024
X-0.7215Y2.8382
X-0.7203Y-2.7889
X-0.7186Y1.1546
X-0.7176Y1.7599
X-0.7166Y-2.2635
X-0.7154Y-2.1701
X-0.7126Y2.1575
X-0.7087Y-0.4252
X-0.7033Y-1.7979
X-0.7014Y-1.0048
X-0.7013Y-2.8656
X-0.7013Y-1.6424
X-0.7008Y2.7835
X-0.7008Y-0.8583
X-0.6969Y-2.3976
X-0.6963Y-2.7433
X-0.6955Y-1.0358
X-0.6955Y-1.2458
X-0.6951Y0.9647
X-0.6929Y-0.4606
X-0.6889Y1.8667
X-0.6841Y-0.7313
X-0.6811Y-1.4291
X-0.679Y0.764
X-0.6732Y1.5039
X-0.6729Y2.759
X-0.6716Y-2.0752
X-0.6693Y2.6969
X-0.6693Y2.2874
X-0.6693Y2.1181
X-0.6672Y1.1002
X-0.6654Y-2.0394
X-0.6614Y3.0157
X-0.6614Y0.0153
X-0.6575Y-1.374
X-0.6436Y-0.2974
X-0.6378Y-0.5984
X-0.6339Y2.1854
X-0.6331Y-1.6022
X-0.6297Y2.2787
X-0.6285Y1.1038
X-0.622Y-1.437
X-0.6216Y-1.7854
X-0.6109Y2.6183
X-0.6102Y-0.0197
X-0.6102Y-0.7087
X-0.6102Y-0.9764
X-0.6102Y-1.0354
X-0.6063Y2.655
X-0.6024Y-1.7343
X-0.5985Y-1.2641
X-0.5984Y2.1614
X-0.5984Y1.6969
X-0.5984Y-1.5394
X-0.5982Y-1.4173
X-0.5975Y-0.7788
X-0.5945Y2.0551
X-0.5945Y0.5472
X-0.5911Y-0.3656
X-0.5906Y2.9449
X-0.5906Y1.5079
X-0.5906Y0.248
X-0.5906Y-2.3661
X-0.5857Y-2.759
X-0.584Y-1.3177
X-0.5827Y-2.5039
X-0.5822Y-0.9504
X-0.5817Y2.0919
X-0.5787Y0.8189
X-0.5781Y2.5434
X-0.575Y-2.2034
X-0.5748Y2.7283
X-0.5698Y0.3087
X-0.5694Y-2.1217
X-0.5666Y-2.6693
X-0.5661Y1.3485
X-0.563Y-3.0551
X-0.5581Y-1.7357
X-0.5551Y-1.0354
X-0.554Y1.3113
X-0.5539Y2.2959
X-0.5512Y-1.311
X-0.5498Y-2.5641
X-0.5487Y-2.3687
X-0.5483Y-1.9175
X-0.5481Y2.495
X-0.5472Y-0.8465
X-0.5447Y-2.9897
X-0.5443Y-0.095
X-0.5427Y1.6811
X-0.5401Y0.4298
X-0.5394Y-1.6457
X-0.5354Y-0.1252
X-0.5354Y-1.5866
X-0.5334Y0.4605
X-0.5315Y1.5157
X-0.5276Y-0.7795
X-0.5276Y-3.0984
X-0.5236Y1.966
X-0.5236Y0.9213
X-0.5197Y-1.3661
X-0.5197Y-2.5039
X-0.5119Y-0.6791
X-0.5039Y0.563
X-0.5039Y-3.063
X-0.5034Y2.4087
X-0.5025Y2.9667
X-0.5Y1.7638
X-0.5Y0.689
X-0.4982Y0.1228
X-0.4961Y0.5039
X-0.4921Y-1.2008
X-0.492Y1.7074
X-0.4915Y-2.8593
X-0.4914Y-1.5785
X-0.4882Y0.0039
X-0.4882Y-3.0079
X-0.4826Y2.8668
X-0.4803Y2.6181
X-0.4803Y2.5354
X-0.48Y-1.7201
X-0.4764Y1.5906
X-0.4764Y-2.5472
X-0.4735Y1.8023
X-0.4724Y-1.0591
X-0.4718Y0.5243
X-0.4685Y0.3976
X-0.4667Y2.8396
X-0.4666Y1.1983
X-0.4646Y2.9252
X-0.4646Y-1.6535
X-0.4646Y-2.6102
X-0.4646Y-3.0669
X-0.4626Y2.3917
X-0.4606Y1.0394
X-0.4606Y-2.9252
X-0.4582Y1.8965
X-0.4569Y-1.968
X-0.4567Y1.7717
X-0.4567Y0.8307
X-0.4567Y-0.1811
X-0.4523Y-0.0549
X-0.4488Y-2.3307
X-0.4444Y-0.455
X-0.4409Y1.6339
X-0.4409Y-0.8189
X-0.4407Y-0.3101
X-0.4395Y0.0833
X-0.4392Y-0.5337
X-0.437Y0.7638
X-0.437Y0.2047
X-0.437Y-0.2165
X-0.437Y-0.3425
X-0.437Y-0.6654
X-0.437Y-1.2953
X-0.437Y-2.1929
X-0.4355Y-0.9276
X-0.4331Y2.5635
X-0.433Y2.7584
X-0.4329Y0.3556
X-0.4268Y0.1198
X-0.4213Y-2.1378
X-0.4173Y-0.5906
X-0.4159Y0.0597
X-0.4134Y2.8858
X-0.4134Y-2.5709
X-0.4099Y0.937
X-0.4094Y-0.0787
X-0.4046Y-2.4932
X-0.4031Y-0.2132
X-0.4016Y0.6654
X-0.3976Y0.0079
X-0.3976Y-0.748
X-0.3972Y-1.1475
X-0.3937Y0.248
X-0.3895Y-1.6218
X-0.3854Y-2.9255
X-0.382Y-3.0218
X-0.3819Y-1.0394
X-0.3804Y2.6832
X-0.3803Y0.1991
X-0.378Y0.7441
X-0.378Y-1.3858
X-0.374Y1.0276
X-0.374Y-1.3031
X-0.3724Y1.5352
X-0.371Y2.6496
X-0.3701Y0.2975
X-0.3701Y-2.315
X-0.3693Y-0.006
X-0.3677Y-2.1791
X-0.3651Y2.6187
X-0.3622Y1.1772
X-0.3622Y-2.063
X-0.3583Y1.1142
X-0.3583Y-0.9291
X-0.3543Y1.0827
X-0.3504Y2.5591
X-0.3504Y-0.1693
X-0.3463Y-2.6598
X-0.3449Y0.3553
X-0.3425Y0.811
X-0.3418Y0.2417
X-0.3328Y0.968
X-0.3327Y-0.7876
X-0.3307Y-2.4213
X-0.3268Y-2.1457
X-0.3263Y-2.0605
X-0.3257Y0.596
X-0.3256Y-2.5495
X-0.3249Y-1.4574
X-0.3246Y-1.9833
X-0.3189Y-0.0945
X-0.3124Y1.4826
X-0.311Y-0.9803
X-0.311Y-1.2913
X-0.3071Y-0.0433
X-0.3071Y-3.0039
X-0.2992Y1.0669
X-0.2992Y0.2756
X-0.2953Y1.252
X-0.2953Y0.0512
X-0.2953Y-0.2165
X-0.2895Y-2.3527
X-0.288Y-2.5227
X-0.2874Y1.5512
X-0.2843Y2.268
X-0.2842Y-1.3183
X-0.2795Y-2.3228
X-0.2795Y-3.0354
X-0.2718Y0.9134
X-0.2685Y1.7343
X-0.2643Y-0.3469
X-0.2643Y0.9754
X-0.2598Y-2.4409
X-0.2592Y-0.9726
X-0.2559Y-0.5276
X-0.2559Y-0.6417
X-0.2499Y2.2349
X-0.2464Y-2.7992
X-0.2441Y1.5
X-0.2402Y1.7205
X-0.2402Y-0.5787
X-0.2402Y-1.3819
X-0.2362Y-0.1929
X-0.2353Y-0.1112
X-0.2325Y1.1411
X-0.2325Y0.1988
X-0.2323Y0.0363
X-0.2323Y-2.9252
X-0.2246Y-1.9842
X-0.2244Y1.5512
X-0.2233Y0.902
X-0.2217Y1.1839
X-0.2205Y-2.8307
X-0.2192Y0.1429
X-0.2183Y0.8429
X-0.2169Y0.3674
X-0.2165Y-2.374
X-0.2165Y1.8858
X-0.2139Y-0.1693
X-0.2117Y2.365
X-0.2117Y-1.1334
X-0.2115Y-1.8478
X-0.203Y0.1159
X-0.2008Y0.9685
X-0.1984Y-2.9856
X-0.1929Y1.9173
X-0.189Y-1.437
X-0.185Y-1.2559
X-0.1815Y-0.1686
X-0.1699Y-0.6276
X-0.1693Y1.4488
X-0.1654Y0.9291
X-0.1654Y-0.3071
X-0.1503Y1.265
X-0.1457Y-0.0945
X-0.1456Y1.7638
X-0.1445Y2.0209
X-0.1433Y-2.8418
X-0.1417Y0.252
X-0.1417Y-0.1496
X-0.1417Y-0.6417
X-0.1409Y-1.5236
X-0.1378Y0.2008
X-0.1378Y-1.3858
X-0.1339Y1.1024
X-0.1339Y-0.9055
X-0.1333Y1.5379
X-0.1286Y0.8004
X-0.1285Y0.0761
X-0.1235Y0.9739
X-0.1235Y1.3185
X-0.1231Y0.6065
X-0.1216Y-2.7638
X-0.1181Y0.3425
X-0.1172Y2.0614
X-0.1127Y-0.7655
X-0.1102Y-0.3504
X-0.1102Y-1.0551
X-0.1102Y-2.8858
X-0.1102Y-2.9331
X-0.1087Y2.2165
X-0.1085Y-0.5903
X-0.0984Y-0.8701
X-0.0957Y2.3465
X-0.0955Y-2.6382
X-0.0945Y2.3858
X-0.0906Y-1.6024
X-0.0864Y0.2263
X-0.0859Y2.3166
X-0.0787Y2.4606
X-0.0787Y1.8543
X-0.0787Y1.1024
X-0.0786Y2.2413
X-0.0748Y0.9724
X-0.0746Y0.3858
X-0.0738Y-2.5109
X-0.0726Y-1.4443
X-0.0665Y-2.0316
X-0.063Y-0.1063
X-0.0591Y-0.5512
X-0.0472Y1.9016
X-0.0472Y-0.4094
X-0.0433Y0.3431
X-0.0433Y-0.0748
X-0.0433Y-0.9173
X-0.0433Y-0.9685
X-0.0426Y-1.8649
X-0.0425Y2.0085
X-0.0394Y1.4921
X-0.0389Y-0.2874
X-0.0354Y2.4094
X-0.0316Y1.9719
X-0.0315Y-0.1142
X-0.0307Y-0.257
X-0.028Y0.6343
X-0.0276Y-1.7677
X-0.0265Y-0.4772
X-0.0264Y1.7068
X-0.0197Y2.0315
X-0.0197Y-0.1969
X-0.0197Y-2.7795
X-0.0118Y-0.9173
X0.0023Y-1.2299
X0.0041Y-2.6402
X0.0118Y2.0039
X0.0159Y-1.126
X0.0197Y-0.2677
X0.0249Y0.8985
X0.0273Y1.3037
X0.0276Y-1.4449
X0.0289Y0.4449
X0.0298Y-2.1056
X0.0315Y-0.4882
X0.0351Y-2.22
X0.0353Y-1.4883
X0.0355Y0.1673
X0.0363Y-1.5605
X0.0433Y2.4291
X0.0433Y-1.7165
X0.0439Y-0.2476
X0.0456Y1.1157
X0.0463Y0.0028
X0.0472Y-0.0315
X0.0472Y-0.9803
X0.0472Y-1.0354
X0.0512Y1.8583
X0.0574Y0.956
X0.063Y-0.3819
X0.0709Y-1.5591
X0.0827Y2.0039
X0.0835Y0.0633
X0.0855Y-0.1583
X0.0906Y-0.7244
X0.0939Y-0.2549
X0.0941Y1.5719
X0.0945Y-1.8346
X0.0945Y-2.2283
X0.0967Y0.6168
X0.0984Y2.1535
X0.0984Y-2.0591
X0.1009Y2.0301
X0.1035Y-0.5382
X0.1045Y-1.0192
X0.1063Y2.3661
X0.1063Y-0.1024
X0.1065Y-0.226
X0.1102Y1.3386
X0.1102Y1.2913
X0.1102Y1.1024
X0.1102Y-0.4988
X0.1102Y-0.6299
X0.1116Y2.0888
X0.1141Y-0.9264
X0.1142Y0.5906
X0.1142Y0.1181
X0.1142Y0.0847
X0.1142Y-0.3425
X0.1142Y-1.7126
X0.1181Y1.8543
X0.1181Y0.0157
X0.1192Y-1.3283
X0.1201Y0.8439
X0.1212Y-1.8986
X0.1299Y1.584
X0.1308Y2.0529
X0.1339Y1.4449
X0.1339Y-2.126
X0.1345Y2.2542
X0.1378Y2.1063
X0.1385Y1.6407
X0.1394Y0.7323
X0.1408Y2.8534
X0.144Y0.5293
X0.1481Y2.1859
X0.1496Y0.3492
X0.1509Y0.2053
X0.1528Y0.8776
X0.1535Y-1.5079
X0.1556Y2.821
X0.1614Y0.7756
X0.1627Y-0.1194
X0.164Y-1.8359
X0.1654Y1.4961
X0.1654Y1.4646
X0.1661Y1.8973
X0.1693Y0.6732
X0.1693Y-0.6457
X0.1735Y1.6828
X0.1747Y-0.3206
X0.1762Y1.4134
X0.1772Y-1.9803
X0.1772Y-2.1693
X0.1794Y1.7554
X0.1811Y1.2953
X0.1871Y1.8738
X0.1871Y1.8738
X0.1889Y1.134
X0.189Y-0.185
X0.189Y-0.8031
X0.1898Y2.3185
X0.1929Y-0.437
X0.1935Y2.192
X0.1983Y1.1039
X0.1984Y0.9175
X0.2028Y2.6143
X0.2102Y0.9698
X0.2111Y-0.0862
X0.212Y2.8326
X0.2126Y1.4882
X0.2126Y1.4213
X0.2165Y-0.7441
X0.2165Y-1.6417
X0.222Y-1.2836
X0.2244Y-1.4173
X0.2326Y2.1457
X0.2339Y-1.4724
X0.2396Y-1.349
X0.2402Y-0.5079
X0.2441Y0.6496
X0.2452Y-1.38
X0.2459Y-2.2252
X0.248Y2.2717
X0.248Y0.5236
X0.248Y-0.248
X0.248Y-0.3622
X0.249Y-0.1269
X0.249Y-0.5975
X0.252Y1.9843
X0.252Y-0.8071
X0.252Y-1.7874
X0.256Y-2.2762
X0.2606Y-0.0
X0.2638Y0.4134
X0.2652Y2.2308
X0.2672Y-0.0439
X0.2675Y-2.3516
X0.2675Y-1.6062
X0.271Y0.6283
X0.2717Y-2.1378
X0.2756Y-0.7638
X0.2795Y1.2165
X0.2816Y2.5243
X0.29Y-1.1327
X0.2953Y2.0984
X0.2953Y-0.2126
X0.2992Y0.2165
X0.3062Y0.7493
X0.3071Y0.3071
X0.3071Y-1.4213
X0.3074Y1.4334
X0.3104Y1.0029
X0.311Y2.1969
X0.311Y1.7756
X0.311Y0.1614
X0.3154Y-2.2164
X0.3189Y-1.6496
X0.3189Y-1.7047
X0.3228Y3.0157
X0.3241Y1.8762
X0.3244Y2.7223
X0.3268Y2.248
X0.3284Y1.5165
X0.3386Y-0.5433
X0.3417Y-1.1091
X0.3425Y0.6181
X0.3425Y-1.2638
X0.3429Y-1.2199
X0.3443Y1.9819
X0.3449Y-0.8079
X0.3465Y0.9331
X0.3465Y0.7018
X0.3504Y0.6693
X0.3507Y0.0571
X0.3512Y1.3362
X0.352Y-1.9354
X0.3537Y2.0774
X0.3543Y0.7835
X0.3583Y0.4055
X0.3583Y0.0039
X0.3589Y-2.1639
X0.3612Y-2.6073
X0.3627Y-1.6075
X0.3681Y2.4715
X0.3701Y-2.7362
X0.371Y0.2608
X0.3755Y1.2042
X0.378Y-0.1811
X0.378Y-1.8622
X0.3819Y0.3819
X0.3819Y-0.0669
X0.3822Y1.0666
X0.3822Y1.0666
X0.3855Y-1.6305
X0.3858Y0.7402
X0.3858Y-1.6693
X0.3858Y-1.7874
X0.3914Y-0.8172
X0.3923Y2.5012
X0.3924Y2.948
X0.3996Y-0.9075
X0.4016Y2.3937
X0.4016Y2.1299
X0.4016Y1.7598
X0.4016Y-2.4606
X0.4055Y2.5709
X0.4213Y2.9882
X0.4247Y0.7949
X0.4291Y-2.3386
X0.4311Y2.6862
X0.4311Y0.1199
X0.4331Y2.0512
X0.4331Y-0.4398
X0.437Y-1.7362
X0.4388Y-2.252
X0.4409Y1.2126
X0.4409Y0.4724
X0.4449Y1.9331
X0.4488Y-2.5433
X0.4495Y2.968
X0.4528Y1.6024
X0.4567Y-0.0669
X0.4612Y2.8603
X0.4614Y2.1945
X0.4646Y2.122
X0.4685Y-0.1024
X0.4693Y-2.8599
X0.4709Y-2.0455
X0.4719Y0.402
X0.4764Y-0.2924
X0.4787Y0.7112
X0.4803Y0.5197
X0.481Y-2.7779
X0.4843Y-0.2244
X0.4843Y-0.6811
X0.4848Y1.2207
X0.4875Y1.6339
X0.4875Y3.0676
X0.4882Y-0.1299
X0.4882Y-1.1575
X0.4888Y2.3071
X0.4905Y-1.0102
X0.4925Y3.0363
X0.4946Y2.4948
X0.4982Y2.5346
X0.503Y-0.8273
X0.5039Y-2.4764
X0.5079Y-0.9173
X0.5084Y1.285
X0.5118Y-0.1969
X0.5186Y2.0127
X0.5186Y2.0127
X0.5197Y-0.0236
X0.5236Y-2.2008
X0.5254Y0.2867
X0.5276Y0.4803
X0.5305Y0.0404
X0.5315Y-0.4488
X0.5343Y-0.8239
X0.5354Y-2.5787
X0.5391Y1.7126
X0.5433Y2.3858
X0.5433Y-2.9094
X0.5435Y-2.7361
X0.5472Y-0.3937
X0.5536Y-2.0375
X0.5557Y1.7692
X0.5589Y-2.5117
X0.5591Y-1.2008
X0.5592Y-1.1408
X0.5608Y2.9856
X0.5632Y-2.0816
X0.5648Y-2.4652
X0.5651Y0.5493
X0.5669Y3.0512
X0.5669Y-2.8071
X0.5673Y-2.1128
X0.5709Y-1.3937
X0.5729Y1.1978
X0.5827Y-0.0512
X0.5827Y-1.2992
X0.5827Y-2.4055
X0.5866Y-0.2677
X0.5866Y-2.6614
X0.5883Y0.9634
X0.589Y1.3571
X0.5906Y2.4724
X0.5906Y-2.2087
X0.5926Y-0.5559
X0.5928Y1.8879
X0.5945Y0.5118
X0.5945Y-2.1535
X0.5945Y-2.3211
X0.5947Y-2.0828
X0.6035Y2.5622
X0.606Y-1.9651
X0.6063Y3.0157
X0.6063Y2.4016
X0.6063Y-0.5945
X0.6063Y-2.9134
X0.6104Y0.1495
X0.6157Y-0.3117
X0.6165Y1.7078
X0.6258Y2.1618
X0.6316Y2.5765
X0.6339Y-1.0
X0.6345Y2.3427
X0.6378Y2.5354
X0.6378Y-0.2638
X0.6417Y-0.0236
X0.6457Y-0.0866
X0.6479Y-1.9684
X0.6482Y-1.8504
X0.6496Y-1.2874
X0.6575Y0.8433
X0.6575Y-2.8346
X0.6589Y-1.4044
X0.6614Y2.8187
X0.6666Y0.4999
X0.6669Y1.0449
X0.6693Y2.3504
X0.6732Y-1.4606
X0.6771Y-0.3846
X0.6804Y-0.5559
X0.685Y-0.6496
X0.6887Y2.7073
X0.689Y0.2244
X0.689Y-2.7638
X0.6929Y-0.1417
X0.6958Y2.9812
X0.6968Y0.765
X0.7022Y-0.0557
X0.7074Y2.852
X0.7085Y0.425
X0.7098Y0.1524
X0.7126Y0.374
X0.7126Y-0.8465
X0.7126Y-1.4409
X0.7165Y-0.7126
X0.7165Y-1.3465
X0.7171Y0.501
X0.7183Y-2.3355
X0.721Y-2.6154
X0.7219Y-2.8787
X0.7283Y2.0276
X0.7341Y2.0661
X0.7342Y-2.978
X0.7362Y-0.874
X0.7372Y0.9282
X0.738Y1.5557
X0.7392Y0.7025
X0.7396Y2.1099
X0.741Y2.4072
X0.7413Y1.2452
X0.7488Y0.5
X0.7559Y-0.126
X0.7611Y2.3826
X0.7638Y-1.4843
X0.7639Y-2.5631
X0.7677Y-0.622
X0.7677Y-2.437
X0.7732Y-2.879
X0.7733Y1.3583
X0.778Y1.7665
X0.7795Y-1.4331
X0.7833Y2.7086
X0.7835Y-0.9291
X0.7874Y2.0425
X0.7883Y-3.0092
X0.7913Y-0.8465
X0.7917Y1.813
X0.7942Y-0.9929
X0.7947Y-1.083
X0.7968Y2.2246
X0.797Y-0.0485
X0.7992Y2.5079
X0.7992Y0.2717
X0.7992Y-0.3583
X0.7992Y-2.4173
X0.8031Y-2.3701
X0.8058Y-0.0952
X0.8069Y-1.1395
X0.8071Y0.3701
X0.8082Y2.7474
X0.811Y-0.437
X0.815Y1.9685
X0.8156Y-0.2737
X0.8189Y-2.5276
X0.8228Y0.9606
X0.8252Y-1.2419
X0.8268Y1.248
X0.8268Y-1.4843
X0.834Y-2.8388
X0.8346Y1.1221
X0.8346Y0.5039
X0.8362Y1.184
X0.837Y1.9063
X0.8425Y0.4055
X0.8425Y-0.6063
X0.8504Y2.626
X0.8504Y-0.5315
X0.8543Y1.0236
X0.8543Y-2.437
X0.8543Y-2.8701
X0.8599Y0.0477
X0.8627Y-2.5192
X0.8661Y1.9567
X0.8661Y1.1575
X0.8661Y-0.6811
X0.8675Y-0.7829
X0.8701Y0.8819
X0.8734Y2.3756
X0.8771Y-2.4873
X0.8858Y2.2953
X0.8858Y-2.9291
X0.8858Y-2.9921
X0.8904Y-1.4882
X0.8946Y-0.2645
X0.8976Y-2.8976
X0.9011Y0.4713
X0.9017Y1.312
X0.9221Y1.3508
X0.9288Y1.9067
X0.9409Y1.6929
X0.9409Y0.9921
X0.9409Y-2.4094
X0.9469Y-2.6717
X0.9509Y1.9597
X0.9536Y2.0413
X0.9549Y2.3855
X0.9567Y-1.6299
X0.9568Y0.1361
X0.9583Y0.2328
X0.9606Y1.0315
X0.9606Y0.7874
X0.9642Y-1.4725
X0.9646Y-1.752
X0.9653Y-1.0315
X0.9676Y2.2811
X0.9684Y-0.9318
X0.9685Y-0.8701
X0.9702Y2.5126
X0.9724Y-0.7333
X0.9882Y-0.3701
X0.9882Y-1.2835
X0.9891Y-1.0748
X0.9921Y-0.8386
X0.9961Y-1.5906
X1.0Y2.5472
X1.0039Y0.4724
X1.0116Y-2.4996
X1.0132Y1.0075
X1.0157Y2.6142
X1.0159Y1.8164
X1.0174Y-2.6191
X1.0197Y-0.4646
X1.0209Y1.0538
X1.025Y0.4202
X1.0255Y-1.7775
X1.0274Y-1.7422
X1.0276Y-1.0433
X1.0305Y1.3838
X1.0323Y-2.7298
X1.0354Y-0.0906
X1.0358Y-2.7825
X1.0394Y-0.3701
X1.0394Y-2.4567
X1.0394Y-2.5945
X1.0407Y1.4705
X1.0415Y1.0884
X1.043Y-0.5377
X1.047Y-1.947
X1.0472Y0.4803
X1.0514Y2.1075
X1.0516Y-0.3356
X1.0519Y2.7088
X1.0551Y-1.5315
X1.0579Y-0.6
X1.0591Y1.3268
X1.0591Y-0.5039
X1.0596Y-2.5686
X1.0669Y0.8937
X1.0751Y-1.9328
X1.0787Y-1.8937
X1.082Y-1.217
X1.0827Y0.2913
X1.0827Y-0.9173
X1.0907Y2.5293
X1.0945Y0.4803
X1.096Y-0.9881
X1.0984Y-0.811
X1.1063Y2.1732
X1.1136Y1.4485
X1.1142Y2.0551
X1.1142Y1.5945
X1.1142Y-1.9685
X1.1181Y0.1457
X1.122Y-0.7638
X1.126Y1.2205
X1.1265Y0.6525
X1.1283Y2.0833
X1.1308Y-0.3405
X1.1309Y-1.8877
X1.1311Y0.4262
X1.1339Y0.2283
X1.1339Y-0.9173
X1.1378Y2.248
X1.1445Y-1.2125
X1.149Y-0.4019
X1.1493Y-1.0155
X1.1506Y-0.125
X1.1535Y-1.4567
X1.1618Y-1.6535
X1.1654Y-2.0085
X1.1667Y-1.3418
X1.168Y-0.6782
X1.1714Y1.5897
X1.1737Y2.2526
X1.1811Y2.1378
X1.1811Y-0.0512
X1.1825Y-0.6482
X1.189Y0.6654
X1.1972Y2.3735
X1.2008Y1.6811
X1.2008Y-1.9409
X1.2022Y1.0999
X1.2033Y0.6934
X1.2038Y-0.7439
X1.2062Y2.4089
X1.2087Y0.2244
X1.2092Y1.1674
X1.2114Y0.1571
X1.2165Y0.126
X1.2165Y-1.4803
X1.2185Y0.7382
X1.2218Y-1.9867
X1.2244Y-1.9134
X1.2283Y-1.874
X1.2299Y0.7949
X1.2362Y-1.5984
X1.2409Y0.2047
X1.244Y-1.685
X1.2441Y-0.6535
X1.2475Y1.7417
X1.2488Y0.6365
X1.2559Y1.126
X1.2559Y0.1024
X1.2559Y-1.8465
X1.2661Y2.7092
X1.2686Y0.4006
X1.2692Y1.6181
X1.2699Y0.7575
X1.2717Y0.6693
X1.2722Y-0.7619
X1.2765Y2.262
X1.2796Y1.2359
X1.2874Y-1.5354
X1.2882Y2.6289
X1.2938Y0.6169
X1.2939Y-0.5615
X1.2996Y-0.2876
X1.3Y1.7615
X1.3031Y1.3101
X1.3031Y-0.0669
X1.3085Y-0.5893
X1.3127Y0.7751
X1.3136Y1.5088
X1.3139Y-0.7437
X1.3157Y0.4551
X1.3172Y-0.1969
X1.3189Y-0.9173
X1.3251Y0.4132
X1.3268Y1.6969
X1.3268Y-1.9291
X1.3279Y-1.8969
X1.3555Y-0.9848
X1.3583Y-1.7795
X1.3589Y2.5961
X1.3614Y-1.159
X1.3622Y1.4513
X1.3661Y-0.878
X1.3688Y-0.51
X1.3701Y1.7362
X1.3701Y-1.5236
X1.378Y1.1575
X1.3808Y1.2359
X1.3819Y2.3819
X1.3885Y2.2774
X1.3891Y-0.5447
X1.3929Y-0.4531
X1.3937Y2.0827
X1.3941Y-1.9882
X1.3953Y2.7436
X1.3967Y2.5694
X1.3976Y0.4921
X1.4016Y-1.6457
X1.4034Y-1.6022
X1.4076Y-1.571
X1.4094Y-1.7598
X1.4173Y0.7441
X1.4207Y2.3598
X1.4221Y0.2166
X1.4252Y1.3071
X1.4252Y-0.9606
X1.4291Y1.622
X1.4311Y-0.8287
X1.435Y2.4954
X1.4357Y-0.2112
X1.437Y2.4639
X1.4387Y1.0729
X1.4416Y-1.8773
X1.4444Y0.4073
X1.4567Y-1.5709
X1.4567Y-1.8268
X1.4646Y1.5827
X1.4685Y0.126
X1.473Y0.0948
X1.4757Y-1.3398
X1.4764Y-1.3071
X1.4764Y-1.6929
X1.4785Y-0.2696
X1.4793Y1.6478
X1.4912Y-0.222
X1.492Y0.6639
X1.4925Y1.2539
X1.4929Y2.5908
X1.4931Y1.6925
X1.4961Y-0.9213
X1.4961Y-0.9764
X1.498Y-1.185
X1.4995Y-0.4406
X1.5011Y0.5254
X1.5039Y-1.7362
X1.5101Y-0.5695
X1.5118Y2.4606
X1.5118Y-1.9094
X1.5134Y0.7231
X1.5136Y1.372
X1.5245Y0.5472
X1.5253Y-0.8277
X1.5276Y1.2677
X1.5315Y0.0827
X1.5315Y-1.0197
X1.5315Y-1.5709
X1.5354Y-1.6732
X1.5354Y0.1339
X1.5361Y0.5179
X1.5433Y-0.7244
X1.5481Y1.5409
X1.5484Y2.4596
X1.5551Y0.4449
X1.5553Y2.5836
X1.5591Y-1.0827
X1.5635Y0.5926
X1.5709Y1.3071
X1.5748Y-0.937
X1.586Y1.5185
X1.5906Y2.2283
X1.5906Y0.1378
X1.5945Y1.6811
X1.5979Y0.2408
X1.5984Y1.7402
X1.6061Y2.5231
X1.6063Y1.5748
X1.6093Y0.6589
X1.6142Y1.1732
X1.622Y-0.252
X1.626Y0.1732
X1.6338Y0.7022
X1.6339Y2.3465
X1.6339Y1.3976
X1.6365Y-0.1623
X1.6457Y1.3574
X1.6457Y-0.4843
X1.6462Y1.1743
X1.6529Y-0.7586
X1.6559Y-0.6657
X1.6575Y-0.2953
X1.6575Y-0.4213
X1.6575Y-1.1742
X1.6589Y0.3673
X1.6654Y1.7087
X1.6693Y1.6181
X1.6693Y-0.5709
X1.6732Y-0.1339
X1.6732Y-1.3307
X1.6812Y0.4682
X1.7008Y-1.2815
X1.7205Y-0.685
X1.7231Y0.382
X1.7274Y-0.9986
X1.7323Y0.689
X1.7428Y1.4505
X1.7598Y1.8071
X1.7638Y1.7205
X1.7677Y0.689
X1.7694Y-1.3934
X1.7717Y-0.622
X1.7755Y-1.8701
X1.7795Y-0.9528
X1.7835Y0.5276
X1.7873Y-0.8081
X1.7913Y-0.748
X1.8031Y-0.4449
X1.8034Y0.638
X1.8071Y-0.7165
X1.8124Y1.6811
X1.8137Y-1.2096
X1.815Y1.8346
X1.8158Y-1.0772
X1.8189Y-0.3513
X1.8254Y0.6654
X1.8346Y0.4606
X1.8346Y0.3937
X1.8346Y-1.4803
X1.8354Y0.8809
X1.8376Y1.563
X1.8386Y-1.9961
X1.8465Y-1.1526
X1.8504Y-0.4803
X1.8543Y-0.3228
X1.8563Y-1.5658
X1.8598Y-0.2203
X1.8649Y0.6489
X1.8661Y-0.3937
X1.8721Y0.831
X1.874Y-0.8701
X1.876Y-1.0295
X1.8828Y-1.8047
X1.8881Y1.7087
X1.8906Y-1.218
X1.8907Y1.9006
X1.9016Y0.4921
X1.9016Y-0.815
X1.9055Y-1.0866
X1.9093Y0.6298
X1.9134Y-0.685
X1.916Y-1.4496
X1.9173Y0.4173
X1.9196Y1.7087
X1.9252Y1.9134
X1.9252Y1.5512
X1.9312Y0.3798
X1.937Y-0.4961
X1.9419Y0.892
X1.9449Y-1.1299
X1.9452Y0.0
X1.9476Y-2.0869
X1.9565Y1.5002
X1.9606Y-0.8543
X1.964Y-0.9261
X1.9646Y0.3662
X1.965Y0.8706
X1.9678Y-1.8596
X1.9685Y0.9724
X1.9717Y-0.2738
X1.9724Y-0.4449
X1.9728Y0.6324
X1.9736Y0.9332
X1.9774Y-0.8912
X1.9793Y1.9273
X1.9805Y0.4606
X1.9872Y2.0069
X1.9882Y-0.527
X1.9907Y-1.2403
X1.9921Y-1.0827
X1.9921Y-2.0197
X1.9961Y1.7598
X1.9961Y-1.0157
X1.9961Y-1.5
X2.0005Y0.4172
X2.0036Y1.6887
X2.0088Y0.8234
X2.0118Y-0.1142
X2.0197Y-0.6693
X2.0204Y-1.8483
X2.0236Y1.5827
X2.0236Y0.9094
X2.024Y1.87
X2.0258Y-1.9711
X2.027Y-2.0314
X2.0276Y-0.0591
X2.0276Y-0.5945
X2.0276Y-2.0906
X2.0354Y-1.3583
X2.0433Y-1.9449
X2.0512Y-1.1299
X2.0591Y-1.6181
X2.0591Y-1.7165
X2.0652Y-0.093
X2.0705Y-1.5766
X2.0709Y1.5
X2.0709Y-1.8819
X2.0748Y-1.4449
X2.0753Y0.9327
X2.0787Y-2.0984
X2.0861Y2.0391
X2.0896Y-0.1873
X2.0945Y0.3976
X2.098Y-0.0977
X2.0986Y-2.0691
X2.0997Y1.695
X2.1052Y0.8991
X2.111Y-1.9284
X2.1132Y0.7387
X2.1142Y-0.5669
X2.116Y0.6427
X2.1226Y0.7907
X2.126Y-1.7047
X2.128Y-0.3974
X2.1281Y0.4768
X2.1391Y0.6196
X2.1417Y-1.8386
X2.1496Y-0.6496
X2.1496Y-0.7874
X2.1496Y-1.9646
X2.1522Y-0.9222
X2.1535Y0.878
X2.1693Y0.4134
X2.1709Y0.7716
X2.1737Y0.803
X2.1799Y-0.7961
X2.1811Y-0.5669
X2.1824Y-1.1205
X2.185Y-2.0433
X2.1855Y0.3864
X2.1929Y-1.8346
X2.1929Y-1.9094
X2.1999Y0.7855
X2.2047Y0.5866
X2.2047Y0.437
X2.2087Y-1.4528
X2.2097Y-0.4337
X2.2097Y-0.4337
X2.213Y-0.3572
X2.2173Y0.8366
X2.2202Y-1.5058
X2.2283Y1.3819
X2.2323Y1.8898
X2.2324Y0.4725
X2.2402Y1.7244
X2.2431Y-1.8605
X2.2431Y1.6309
X2.2433Y-1.6127
X2.2456Y-0.1605
X2.2479Y0.6694
X2.248Y-0.6732
X2.248Y-0.9764
X2.252Y-1.4055
X2.2573Y-1.5294
X2.2581Y-0.116
X2.2598Y-2.0
X2.2638Y0.4882
X2.2652Y0.8175
X2.2665Y0.7187
X2.2668Y1.5482
X2.2734Y-0.2894
X2.2756Y2.0039
X2.2756Y-1.4961
X2.2769Y1.8071
X2.2795Y0.8583
X2.2795Y-0.815
X2.3068Y0.7353
X2.3187Y-0.4429
X2.3268Y1.7126
X2.3268Y-0.5984
X2.3368Y-1.8032
X2.3374Y1.7896
X2.3395Y-1.9325
X2.3411Y1.626
X2.3425Y-1.2441
X2.3444Y-0.9083
X2.3472Y-0.3139
X2.3499Y-0.8063
X2.3598Y1.4095
X2.3618Y1.6023
X2.3631Y1.885
X2.3631Y-1.515
X2.3659Y-0.9679
X2.3661Y1.6772
X2.3688Y-1.5661
X2.3701Y1.5197
X2.3735Y-1.9697
X2.378Y-0.5472
X2.3796Y-1.6058
X2.4094Y-1.7165
X2.4167Y-0.0429
X2.4173Y-0.7441
X2.4247Y1.6024
X2.4292Y1.9943
X2.437Y1.8071
X2.437Y-0.3386
X2.4378Y-1.097
X2.4385Y0.0136
X2.4499Y-0.0663
X2.4528Y-0.8073
X2.4529Y1.6164
X2.4567Y-1.2992
X2.4594Y-0.4109
X2.4685Y-0.3543
X2.4709Y1.6762
X2.4724Y1.7402
X2.4724Y-0.7598
X2.475Y-0.6256
X2.4781Y0.0559
X2.4798Y-0.5306
X2.486Y-1.0489
X2.4882Y-0.2008
X2.4927Y-0.397
X2.4969Y-0.8928
X2.5354Y-1.1217
X2.5361Y-1.0716
X2.5812Y0.1629
X2.5868Y-1.2395
X2.5945Y-0.4651
X2.5974Y-0.2874
X2.5984Y-0.2047
X2.6048Y-0.6574
X2.6048Y-1.2779
X2.6063Y-1.1339
X2.6142Y-1.0354
X2.6181Y-0.9567
X2.6333Y-0.6441
X2.6457Y-0.248
X2.6509Y-0.7368
X2.6526Y-1.0722
X2.6654Y-0.6457
X2.6683Y-1.2402
X2.6711Y-1.0468
X2.6754Y0.0298
X2.6929Y-0.2756
X2.6981Y-0.0995
X2.7136Y-0.9778
X2.7165Y-0.5
X2.7174Y-0.9058
X2.752Y0.1654
X2.7756Y-0.3425
X2.7831Y-0.681
X2.7854Y0.1953
X2.7992Y0.2362
X2.8042Y-1.0394
X2.8193Y-0.9002
X2.8288Y0.035
X2.83Y0.1017
X2.8307Y-0.8228
X2.8313Y-0.4061
X2.839Y-0.283
X2.8465Y-0.4685
X2.8709Y-0.4069
X2.8858Y0.1772
X2.9409Y0.1693
X2.9442Y-0.151
X2.9445Y-0.4115
X2.9465Y-0.1006
X2.9601Y-0.2028
X2.9606Y-0.3504
X2.9843Y-0.0709
X3.0178Y0.1366
X3.0202Y-0.2147
X3.0276Y0.0118
X3.0394Y-0.1102
X3.0542Y-0.0477
X3.0906Y-0.0866
X3.1053Y-0.2063
X3.1339Y-0.0787
X4.7362Y-0.1378
X4.7671Y-0.144
X4.7742Y-0.1133
X4.8075Y-0.0083
X4.8504Y-0.0906
X4.8504Y-0.3858
X4.8661Y-0.1417
X4.8731Y0.8876
X4.9016Y-0.3346
X4.9055Y0.874
X4.9213Y-0.0945
X4.9291Y0.626
X4.9382Y0.5425
X4.9443Y0.9536
X4.963Y-0.1292
X4.9685Y0.8937
X4.9714Y-0.198
X4.9843Y0.6969
X4.988Y0.2036
X4.9882Y-0.3937
X4.9921Y-0.2835
X4.9992Y-0.2527
X5.0097Y0.162
X5.0157Y0.8465
X5.0236Y-0.3543
X5.0554Y0.9412
X5.0626Y-0.5372
X5.0669Y0.4291
X5.0755Y0.8076
X5.0827Y0.878
X5.0945Y-0.3307
X5.1088Y0.6638
X5.1138Y0.7904
X5.1142Y-0.0419
X5.1238Y-0.1142
X5.1278Y0.1515
X5.1299Y0.588
X5.1378Y0.189
X5.1457Y0.8701
X5.1457Y-0.0655
X5.1575Y0.0157
X5.1614Y-0.5354
X5.1732Y-0.3031
X5.1929Y0.4488
X5.1997Y-1.2885
X5.2008Y-1.5657
X5.2064Y1.7132
X5.2065Y1.3493
X5.2066Y1.0735
X5.2077Y-0.3937
X5.2085Y-1.6371
X5.2126Y0.1301
X5.2129Y0.0986
X5.2184Y1.281
X5.2189Y0.7953
X5.2268Y1.141
X5.2276Y-1.6764
X5.2297Y1.6921
X5.2339Y-1.2999
X5.2402Y-0.252
X5.252Y1.748
X5.2559Y-0.3346
X5.2756Y1.7087
X5.2795Y-0.2323
X5.2874Y-0.4667
X5.2877Y-1.3386
X5.295Y0.1177
X5.2953Y0.9882
X5.2984Y0.4541
X5.3031Y0.1811
X5.3071Y1.0512
X5.3091Y0.5562
X5.3091Y0.5562
X5.3189Y1.2165
X5.3228Y1.8031
X5.3255Y0.4283
X5.3307Y-0.2244
X5.3334Y0.0946
X5.3336Y1.6458
X5.3491Y0.5341
X5.3504Y1.2283
X5.3504Y0.6417
X5.3611Y0.4062
X5.3622Y-0.3031
X5.3645Y0.887
X5.3649Y1.6421
X5.369Y-0.1168
X5.374Y1.0315
X5.3858Y1.6772
X5.4038Y0.6733
X5.407Y-0.2254
X5.4094Y-1.1299
X5.4129Y-1.5504
X5.4135Y1.523
X5.4158Y1.467
X5.4177Y0.626
X5.4194Y0.4622
X5.4205Y0.9959
X5.4291Y1.7677
X5.4357Y-1.6214
X5.4357Y-1.6214
X5.4374Y1.3623
X5.4525Y-0.1891
X5.4549Y-1.3906
X5.4567Y-1.3228
X5.4604Y0.6555
X5.4713Y-1.3543
X5.4764Y0.1181
X5.4801Y0.9959
X5.4834Y0.2276
X5.4843Y-1.8228
X5.4886Y0.7556
X5.4933Y0.1969
X5.4961Y1.2638
X5.5Y-1.7598
X5.5039Y0.0669
X5.5118Y-0.7244
X5.5242Y-1.3137
X5.5253Y0.5849
X5.5315Y1.6811
X5.5315Y1.374
X5.5325Y-1.4135
X5.5325Y-0.6152
X5.5381Y-1.1789
X5.5385Y-1.2628
X5.5389Y0.9219
X5.5408Y1.2124
X5.5416Y-1.6516
X5.5433Y1.7402
X5.5433Y0.2323
X5.5433Y-1.5827
X5.5461Y-0.7445
X5.557Y0.3288
X5.5572Y-0.0796
X5.5573Y-0.7056
X5.5588Y1.3504
X5.56Y0.7619
X5.5613Y-0.0236
X5.5658Y1.9213
X5.5675Y-1.2319
X5.5709Y1.1772
X5.5748Y-1.2717
X5.5787Y1.2717
X5.5846Y0.6377
X5.5848Y1.5764
X5.5907Y1.8675
X5.5945Y1.689
X5.5945Y-1.7402
X5.6063Y0.185
X5.6063Y-0.1457
X5.6142Y1.815
X5.622Y1.7441
X5.622Y-1.8504
X5.626Y-1.2126
X5.6299Y-0.5551
X5.6315Y-0.6614
X5.6338Y-0.7071
X5.6354Y1.1753
X5.6373Y0.1989
X5.6476Y-0.3752
X5.6496Y0.2717
X5.6649Y-1.5464
X5.6694Y-1.6733
X5.6718Y1.4347
X5.6732Y1.3425
X5.6743Y-0.4621
X5.6811Y0.9646
X5.6814Y-0.7079
X5.6843Y1.222
X5.6849Y1.0534
X5.6887Y-1.4049
X5.6924Y0.125
X5.6929Y0.9173
X5.6948Y-0.7713
X5.7008Y-0.9252
X5.701Y-0.1727
X5.705Y0.0746
X5.7053Y1.6295
X5.7096Y-1.3475
X5.712Y1.0374
X5.7121Y1.4511
X5.7244Y0.3622
X5.7283Y-1.4921
X5.7323Y0.7244
X5.7337Y0.7846
X5.738Y-1.8009
X5.7393Y-1.4184
X5.7441Y0.4567
X5.7444Y-1.5869
X5.7472Y-1.9519
X5.7487Y-2.0892
X5.7508Y0.5314
X5.7509Y1.1223
X5.7559Y0.6378
X5.7638Y-1.685
X5.7692Y-0.0081
X5.7778Y0.4094
X5.7795Y-0.5512
X5.7822Y-0.3684
X5.7913Y-1.563
X5.7923Y1.64
X5.7953Y-1.9252
X5.7985Y1.6056
X5.7992Y1.8031
X5.8003Y-0.9993
X5.8074Y1.5439
X5.815Y1.0748
X5.8153Y-2.3551
X5.8189Y1.0118
X5.8268Y-0.5157
X5.8304Y-0.5959
X5.8307Y-0.1339
X5.8307Y-2.008
X5.8336Y1.7062
X5.8338Y-0.0064
X5.8425Y-2.1772
X5.8453Y-1.2766
X5.8504Y0.8937
X5.8522Y1.3627
X5.8592Y-2.3376
X5.8634Y-2.28
X5.8661Y0.5996
X5.8701Y-1.8677
X5.8744Y-1.571
X5.878Y-2.2362
X5.8799Y-0.8248
X5.881Y1.0442
X5.8841Y-0.4172
X5.8858Y-0.5315
X5.8859Y0.1855
X5.8863Y0.2352
X5.8898Y0.4606
X5.8905Y-1.4918
X5.8907Y-1.755
X5.8916Y0.7717
X5.8936Y-1.5292
X5.8937Y-1.9843
X5.9016Y-0.3898
X5.9094Y1.2638
X5.9134Y1.2047
X5.9176Y-0.0468
X5.9213Y0.752
X5.9213Y0.4173
X5.9291Y-2.1811
X5.9331Y-0.1393
X5.9331Y-2.2874
X5.937Y1.0276
X5.9403Y-0.9444
X5.9409Y-1.8268
X5.9443Y0.3508
X5.9449Y-0.0197
X5.9488Y-1.7795
X5.9528Y-0.3662
X5.9528Y-0.5315
X5.9545Y-1.2982
X5.9571Y0.4164
X5.9652Y-1.1807
X5.9685Y-0.4291
X5.9803Y0.0709
X5.9882Y0.7126
X5.9892Y0.993
X5.9902Y0.0069
X5.9921Y-0.7516
X5.9922Y-0.7835
X5.9937Y-2.2321
X6.0038Y-1.7256
X6.006Y-2.1852
X6.0065Y-1.4848
X6.0072Y-1.8888
X6.0079Y0.5512
X6.0082Y-0.4743
X6.0086Y-2.1068
X6.0121Y-0.1644
X6.0146Y1.2374
X6.0197Y0.374
X6.0201Y-0.5162
X6.0203Y-0.8539
X6.0235Y-1.7702
X6.0236Y-0.4134
X6.0262Y-0.7502
X6.0312Y-1.3153
X6.0354Y0.9606
X6.0361Y-0.4597
X6.037Y-2.2526
X6.0387Y-0.8809
X6.0465Y-1.2183
X6.0472Y-1.5
X6.0495Y0.0695
X6.0499Y1.2616
X6.0499Y-1.7036
X6.0512Y0.7913
X6.0512Y-1.0945
X6.0551Y-0.622
X6.0669Y0.6693
X6.0672Y-1.7604
X6.0709Y0.0079
X6.0787Y-0.0748
X6.0866Y-0.7795
X6.09Y0.4007
X6.0945Y-2.4252
X6.0984Y1.1417
X6.1063Y1.2441
X6.1102Y0.689
X6.114Y-1.6022
X6.1141Y0.0462
X6.1142Y0.5826
X6.1186Y0.322
X6.126Y0.752
X6.1265Y-0.3347
X6.1274Y1.162
X6.1299Y-0.0354
X6.1339Y-0.689
X6.1364Y-0.511
X6.1378Y-0.4409
X6.1394Y0.1743
X6.1396Y1.0519
X6.1457Y-1.4409
X6.1533Y1.1441
X6.1571Y-2.2844
X6.1575Y0.626
X6.1706Y-0.3633
X6.1732Y-1.3509
X6.1732Y0.8543
X6.1732Y-1.0394
X6.1771Y-1.5787
X6.1772Y-0.6063
X6.1838Y-1.0775
X6.1929Y-0.6614
X6.2008Y0.7795
X6.2018Y0.0147
X6.2047Y0.5898
X6.2119Y-0.9772
X6.2126Y-0.7244
X6.2186Y-1.1106
X6.2201Y0.8203
X6.2205Y0.0787
X6.2232Y1.1425
X6.2301Y-1.4903
X6.2305Y0.6379
X6.2323Y-0.2795
X6.2349Y-1.8565
X6.2401Y0.374
X6.2402Y-0.9596
X6.2441Y0.4567
X6.248Y-1.8071
X6.2504Y-2.1552
X6.252Y-1.9851
X6.2558Y-1.9073
X6.2565Y0.8795
X6.2638Y0.2992
X6.2638Y-0.5472
X6.2672Y-1.2884
X6.2677Y-0.7087
X6.2717Y-1.0276
X6.2735Y-0.1681
X6.2786Y1.1279
X6.2835Y-1.9449
X6.2874Y-1.6406
X6.2913Y0.3937
X6.2914Y1.6535
X6.2948Y1.0966
X6.2992Y0.5354
X6.2992Y-0.6102
X6.2992Y-2.0787
X6.3071Y-0.9882
X6.3135Y-2.0019
X6.315Y0.2008
X6.315Y0.1417
X6.3178Y1.7795
X6.3304Y-1.6675
X6.3386Y-1.4961
X6.3401Y-2.3779
X6.3425Y0.0472
X6.3443Y0.9766
X6.3465Y-2.185
X6.3504Y-2.1181
X6.3584Y-0.3289
X6.3638Y0.5632
X6.3643Y-1.8861
X6.3701Y1.5472
X6.3772Y0.8058
X6.3784Y-1.8082
X6.392Y-0.6455
X6.3937Y-1.5472
X6.3995Y-1.0681
X6.4016Y-2.2205
X6.4072Y-0.4291
X6.4094Y0.6575
X6.4101Y0.8226
X6.4291Y2.0236
X6.4291Y-2.1811
X6.43Y-1.3512
X6.4331Y1.6181
X6.4331Y-1.9567
X6.4363Y-1.2016
X6.4368Y-1.4644
X6.4409Y-1.6693
X6.4446Y0.4132
X6.4449Y-2.2913
X6.4452Y0.4479
X6.4453Y-1.1089
X6.4488Y-2.0472
X6.4558Y-0.5876
X6.457Y-1.1778
X6.4606Y-0.1457
X6.4645Y0.3642
X6.4646Y0.7165
X6.4664Y0.0175
X6.4685Y1.6732
X6.4685Y-2.1969
X6.474Y-2.1347
X6.4803Y1.4921
X6.4803Y-0.0945
X6.4825Y1.8296
X6.4827Y-2.5685
X6.488Y0.3122
X6.4882Y-0.1929
X6.4921Y-0.8386
X6.5Y-1.2047
X6.5Y-1.2835
X6.5142Y-2.57
X6.5183Y-1.1054
X6.5243Y-1.6169
X6.5276Y-0.1614
X6.5276Y-2.1693
X6.5315Y0.6929
X6.5389Y1.541
X6.5401Y-1.3782
X6.5404Y-2.684
X6.5431Y-1.7418
X6.5434Y1.6065
X6.5551Y-1.0116
X6.5551Y-1.4724
X6.5587Y-0.1659
X6.5709Y-1.3425
X6.5714Y-0.2899
X6.5716Y-0.8365
X6.5732Y-0.6457
X6.5736Y-0.5302
X6.5737Y-0.2265
X6.5787Y1.6457
X6.5836Y0.7114
X6.5866Y1.437
X6.5935Y-2.582
X6.5945Y-0.0276
X6.5946Y1.8507
X6.5949Y0.6025
X6.5984Y-2.6181
X6.601Y0.6851
X6.6181Y0.0354
X6.6207Y0.5623
X6.6209Y0.197
X6.6252Y-2.4631
X6.6254Y-1.6237
X6.628Y-0.1719
X6.6355Y-1.3356
X6.6378Y-1.9921
X6.64Y1.915
X6.6404Y0.5227
X6.641Y0.1694
X6.6417Y0.5866
X6.647Y-1.7719
X6.6478Y-1.2877
X6.6496Y-2.7559
X6.6513Y1.9761
X6.6525Y-2.4164
X6.6535Y0.1181
X6.6575Y-2.2913
X6.6575Y-2.3504
X6.6614Y1.6496
X6.6614Y-2.8858
X6.6617Y1.708
X6.6635Y-2.384
X6.6654Y1.2598
X6.6732Y-0.5591
X6.6748Y-1.6386
X6.6772Y-0.7677
X6.6772Y-1.8898
X6.6791Y-1.0138
X6.6797Y0.4012
X6.6827Y0.4357
X6.6831Y-0.4157
X6.6847Y-0.9247
X6.689Y-2.8701
X6.6892Y0.1189
X6.6897Y-0.4915
X6.6929Y1.5827
X6.6931Y-2.9531
X6.6955Y-0.5813
X6.6978Y-2.1103
X6.7047Y0.0866
X6.7047Y-1.0866
X6.7047Y-2.0551
X6.7068Y-2.9248
X6.7089Y-0.248
X6.7126Y1.185
X6.7165Y1.4528
X6.7182Y-1.63
X6.7205Y1.1102
X6.7244Y-2.2835
X6.7283Y-2.0984
X6.7283Y-2.4055
X6.7295Y-2.7528
X6.7324Y-0.0037
X6.7328Y-2.3297
X6.736Y-0.6169
X6.7386Y1.3362
X6.7402Y-1.1732
X6.7411Y-0.6479
X6.7434Y1.0192
X6.7437Y-2.7852
X6.7441Y-0.8937
X6.7441Y-1.5394
X6.7465Y1.8553
X6.7474Y0.984
X6.7482Y0.1812
X6.7512Y1.2194
X6.7533Y-2.8152
X6.7559Y1.9055
X6.7596Y-2.7437
X6.7667Y-1.9432
X6.7717Y-0.4033
X6.7717Y-0.5262
X6.7791Y-0.8189
X6.7795Y1.8583
X6.7804Y-2.0129
X6.7835Y1.1024
X6.7835Y0.0197
X6.7835Y-2.1575
X6.7838Y0.7143
X6.7841Y-0.9482
X6.7874Y1.6063
X6.7874Y1.3126
X6.7894Y2.685
X6.7913Y-1.4843
X6.7953Y-2.4528
X6.7977Y-1.5835
X6.7982Y2.5906
X6.7991Y1.9804
X6.7992Y-0.5709
X6.8031Y1.3661
X6.8031Y-1.689
X6.8098Y-0.8279
X6.811Y0.9409
X6.8183Y-1.3116
X6.8189Y-1.5315
X6.8189Y1.9414
X6.8215Y-1.9714
X6.8227Y-1.7552
X6.8256Y2.0148
X6.8268Y-0.1102
X6.8273Y-1.923
X6.8295Y-2.5684
X6.8307Y1.7362
X6.8307Y-0.4213
X6.8336Y0.3564
X6.8373Y-0.1928
X6.8386Y1.7795
X6.8386Y-0.9409
X6.8425Y1.315
X6.8425Y-2.1535
X6.8543Y1.4882
X6.8543Y-0.2559
X6.8549Y-1.4548
X6.8552Y0.5709
X6.8606Y-2.7933
X6.8627Y-0.8281
X6.8635Y-1.7519
X6.8661Y2.5591
X6.8684Y2.4952
X6.8782Y2.9103
X6.8786Y1.4062
X6.8805Y1.8728
X6.8819Y-0.0354
X6.8819Y-0.1732
X6.8873Y-2.7163
X6.8887Y-1.4953
X6.8897Y2.6141
X6.8898Y-1.3583
X6.8943Y-0.3784
X6.9074Y1.6336
X6.9094Y1.5236
X6.9134Y2.4252
X6.9137Y1.4044
X6.9203Y2.5293
X6.9213Y-0.3622
X6.9259Y-1.9744
X6.9281Y0.4537
X6.9298Y-0.7813
X6.9306Y-2.8765
X6.9307Y1.3617
X6.9341Y0.0111
X6.9341Y2.5576
X6.9372Y1.3161
X6.9409Y-2.361
X6.9409Y1.6299
X6.9473Y-1.113
X6.9487Y1.1816
X6.9488Y-2.1477
X6.9519Y1.2587
X6.9521Y2.7471
X6.9531Y0.6358
X6.9567Y1.5118
X6.9574Y-0.515
X6.964Y-0.8487
X6.9654Y-2.9388
X6.9683Y0.3078
X6.9685Y-1.374
X6.9715Y1.1056
X6.977Y0.9123
X6.9803Y0.2366
X6.9806Y-0.6488
X6.9832Y0.993
X6.9882Y-2.752
X6.9892Y-1.2134
X6.9892Y-1.2134
X6.9911Y-1.9746
X6.9911Y-1.9746
X6.9931Y0.8567
X6.9943Y-2.4685
X6.9987Y1.0278
X7.0Y0.4921
X7.0Y-2.5315
X7.0039Y1.4488
X7.0048Y-2.7117
X7.0079Y-0.4882
X7.0105Y-2.1688
X7.0157Y0.1024
X7.0157Y-1.8622
X7.0228Y-0.1591
X7.0236Y-2.5039
X7.0284Y-0.5525
X7.0315Y-2.6181
X7.0329Y0.8294
X7.0354Y-1.5039
X7.0354Y-2.752
X7.0384Y-1.9764
X7.039Y-1.0185
X7.0512Y2.4488
X7.0551Y0.1378
X7.0593Y-2.3288
X7.0599Y-2.3931
X7.0692Y2.8595
X7.0742Y-0.3457
X7.0748Y2.4134
X7.0768Y-1.884
X7.0775Y1.0028
X7.0816Y-2.1551
X7.0824Y-1.3694
X7.0825Y-1.8474
X7.0868Y-1.6992
X7.0889Y-1.6594
X7.0906Y-0.563
X7.0945Y1.5354
X7.0945Y-0.1496
X7.0945Y-0.2362
X7.0945Y-2.5551
X7.0995Y-2.6107
X7.1014Y0.5817
X7.1024Y1.4724
X7.1036Y3.0674
X7.1039Y0.7111
X7.1059Y0.955
X7.1064Y-1.3947
X7.1071Y1.329
X7.1102Y-0.0276
X7.126Y2.4843
X7.1299Y-2.6216
X7.1338Y0.1899
X7.134Y-1.8642
X7.1345Y0.7036
X7.1378Y0.0748
X7.1382Y0.1587
X7.1417Y-0.0945
X7.1492Y-2.063
X7.15Y1.1861
X7.1514Y-1.8163
X7.1534Y2.3868
X7.1566Y2.8083
X7.1586Y2.6178
X7.1601Y2.8602
X7.1614Y0.7756
X7.1654Y-1.9449
X7.1654Y-2.815
X7.1657Y-0.7354
X7.166Y-1.6358
X7.1673Y-0.3858
X7.1687Y-0.7872
X7.1696Y2.3308
X7.1709Y1.4014
X7.1729Y2.5105
X7.1732Y-1.2126
X7.1772Y0.5079
X7.1772Y-1.0
X7.1811Y1.1535
X7.1811Y-1.0827
X7.183Y-1.5486
X7.189Y2.6614
X7.189Y-0.0433
X7.1929Y1.2205
X7.1977Y-0.918
X7.2007Y0.3419
X7.2008Y2.7362
X7.201Y2.8393
X7.2027Y-2.568
X7.2077Y-1.8704
X7.2126Y0.0945
X7.2165Y2.622
X7.2165Y0.1732
X7.2181Y-0.5717
X7.2184Y-0.8907
X7.2192Y2.5461
X7.2194Y0.4499
X7.2205Y-1.3976
X7.2223Y-2.607
X7.2283Y0.8031
X7.2283Y0.0118
X7.2302Y-0.8488
X7.2323Y-2.7362
X7.2441Y0.5748
X7.2499Y1.8777
X7.252Y1.4803
X7.2541Y-0.0375
X7.2575Y-0.9276
X7.2607Y-0.1761
X7.2677Y-0.0827
X7.2687Y-0.5921
X7.2756Y1.8307
X7.2769Y-1.825
X7.2775Y2.7872
X7.2795Y2.1063
X7.2812Y1.8811
X7.2835Y2.9094
X7.2835Y2.2087
X7.2847Y-1.3175
X7.2874Y0.4252
X7.2925Y0.3092
X7.2949Y0.6697
X7.2957Y1.7765
X7.2989Y-0.2215
X7.2992Y2.5945
X7.3014Y1.2588
X7.3031Y2.8189
X7.3031Y2.5236
X7.3031Y-1.0394
X7.3065Y1.0346
X7.311Y2.4173
X7.311Y1.9843
X7.3116Y2.7594
X7.3124Y-0.7462
X7.3228Y2.499
X7.3228Y0.8937
X7.3307Y1.8425
X7.3373Y1.9409
X7.3386Y1.1614
X7.3386Y-1.1299
X7.3392Y-1.1868
X7.3405Y0.4495
X7.3431Y0.4887
X7.3436Y-0.3673
X7.3622Y2.2205
X7.3622Y2.0433
X7.3622Y1.2835
X7.3661Y-0.5945
X7.3692Y2.2908
X7.3701Y0.9252
X7.3701Y-0.8701
X7.374Y1.7717
X7.3819Y1.1181
X7.3855Y2.4748
X7.3898Y-0.9685
X7.39Y-1.0118
X7.3937Y1.8189
X7.3976Y2.1614
X7.4012Y-0.2681
X7.4016Y0.6654
X7.4016Y0.6654
X7.4094Y0.3819
X7.4153Y0.75
X7.4168Y2.3971
X7.4271Y0.0108
X7.4291Y2.5433
X7.437Y2.4213
X7.437Y-1.1181
X7.4443Y2.863
X7.4455Y2.271
X7.4488Y-0.4961
X7.4488Y-1.0
X7.4512Y2.3441
X7.4526Y0.9216
X7.4528Y1.7205
X7.4528Y0.4409
X7.4531Y0.2723
X7.454Y0.953
X7.4606Y2.2126
X7.4646Y-0.0984
X7.468Y0.3191
X7.4685Y0.8189
X7.4724Y0.0141
X7.4882Y-1.0827
X7.4891Y1.7905
X7.4961Y0.374
X7.4961Y-0.0787
X7.4961Y-1.4361
X7.4973Y0.8972
X7.4982Y-0.5798
X7.5039Y2.4803
X7.506Y0.7205
X7.5079Y1.6496
X7.508Y-1.5749
X7.5132Y1.8541
X7.5192Y1.9154
X7.5197Y-0.4252
X7.5205Y2.016
X7.5216Y1.7509
X7.5266Y1.8141
X7.5276Y2.3009
X7.5315Y2.2126
X7.5345Y0.5508
X7.5354Y0.8071
X7.5394Y1.3819
X7.5467Y-0.3102
X7.5476Y-2.2321
X7.5483Y0.117
X7.5512Y1.7008
X7.5512Y0.0276
X7.552Y2.0578
X7.5575Y-1.5752
X7.5669Y-0.6772
X7.5669Y-0.6772
X7.5681Y1.4136
X7.569Y0.1408
X7.5709Y-0.8898
X7.5709Y-1.3504
X7.5748Y-0.0187
X7.5787Y1.6457
X7.5787Y-2.0969
X7.5827Y1.5118
X7.5945Y0.9016
X7.5984Y0.6654
X7.6016Y-0.4173
X7.6102Y1.2244
X7.6102Y-1.1811
X7.6181Y-0.8346
X7.6181Y-1.248
X7.6207Y2.1018
X7.6214Y1.824
X7.6233Y-2.2361
X7.625Y2.3848
X7.626Y0.0276
X7.626Y-0.0315
X7.626Y-1.2913
X7.6286Y-0.6461
X7.6299Y0.8071
X7.6299Y0.126
X7.6299Y-2.1138
X7.6315Y1.1315
X7.6332Y0.5959
X7.6378Y-0.616
X7.6378Y-1.9488
X7.6403Y-1.7796
X7.6417Y-0.2087
X7.6438Y0.5412
X7.6458Y-1.0206
X7.6461Y-0.4419
X7.6465Y0.4506
X7.6493Y1.7168
X7.6505Y-0.9688
X7.6519Y1.2651
X7.6524Y0.3503
X7.6535Y0.6772
X7.6575Y1.5669
X7.6575Y-2.0276
X7.6592Y0.4092
X7.6602Y-1.3346
X7.662Y-0.9395
X7.6684Y1.0635
X7.6693Y0.2008
X7.6697Y-0.9972
X7.6772Y-1.2602
X7.6802Y-2.0709
X7.6803Y2.1508
X7.6808Y-1.9761
X7.6813Y0.082
X7.689Y1.1811
X7.6893Y0.6153
X7.6897Y-0.6211
X7.6969Y-0.1693
X7.6969Y-0.2283
X7.7008Y-1.1795
X7.7047Y-0.6969
X7.705Y0.4255
X7.7087Y2.2008
X7.7087Y1.2323
X7.7087Y-0.8346
X7.7096Y1.5749
X7.7126Y-0.122
X7.7283Y-2.0394
X7.7291Y-1.5437
X7.7323Y-1.3071
X7.7323Y-1.3642
X7.7347Y-2.4176
X7.7351Y-1.919
X7.7357Y-0.8102
X7.7386Y-1.1839
X7.7395Y-0.3985
X7.7402Y-0.5197
X7.7441Y1.4269
X7.7441Y-1.0354
X7.7458Y-0.8597
X7.7498Y0.7106
X7.7539Y1.9577
X7.7562Y0.6798
X7.7598Y2.2402
X7.7598Y0.3465
X7.7598Y0.2795
X7.7598Y-1.8031
X7.7632Y1.0293
X7.7749Y-0.6067
X7.7756Y0.1732
X7.7756Y-0.8701
X7.7756Y-1.3307
X7.7763Y-2.0998
X7.7783Y1.1635
X7.7787Y0.2543
X7.7795Y0.4094
X7.7795Y-0.2717
X7.789Y1.2953
X7.7953Y0.4449
X7.7956Y1.6387
X7.7992Y0.7052
X7.7992Y2.185
X7.7992Y-0.2087
X7.7992Y-1.0512
X7.8005Y0.7541
X7.8031Y-0.4173
X7.8036Y1.8043
X7.8063Y0.1657
X7.8071Y1.9366
X7.811Y0.1969
X7.811Y-2.4567
X7.8127Y-0.8531
X7.815Y0.3858
X7.815Y-2.3313
X7.8189Y2.1575
X7.8228Y1.1181
X7.8241Y-0.6668
X7.8241Y-2.1369
X7.8268Y2.2756
X7.8268Y-1.8071
X7.8285Y-2.4305
X7.8307Y0.2756
X7.8326Y-0.2472
X7.8346Y0.1654
X7.8425Y0.4921
X7.8425Y-2.3031
X7.8451Y1.8585
X7.8465Y-2.3446
X7.8504Y1.2126
X7.8504Y-1.2913
X7.8533Y1.9777
X7.8543Y2.248
X7.8567Y1.8129
X7.8603Y1.1139
X7.8622Y1.5
X7.8636Y-2.4925
X7.8652Y-0.4439
X7.8656Y1.027
X7.8665Y-2.4611
X7.8701Y2.0118
X7.8705Y0.9464
X7.874Y1.6772
X7.8817Y1.1418
X7.8857Y0.3044
X7.8871Y0.3359
X7.8937Y2.0354
X7.8945Y-1.9339
X7.8989Y-1.2593
X7.9055Y2.1339
X7.9082Y-0.1278
X7.9129Y0.6667
X7.9134Y2.189
X7.9173Y0.2677
X7.9193Y-1.7815
X7.9213Y-0.2677
X7.9219Y-1.1766
X7.9236Y0.5472
X7.9242Y-2.3174
X7.9261Y-0.3439
X7.9291Y1.6339
X7.9291Y1.5748
X7.9331Y-0.2008
X7.9343Y-0.8429
X7.9352Y-1.043
X7.937Y0.7795
X7.9409Y0.0709
X7.9409Y-1.315
X7.9488Y-0.4961
X7.9488Y-1.8504
X7.9488Y-2.0
X7.958Y1.6872
X7.9583Y0.4255
X7.9592Y-2.2151
X7.9641Y-2.0792
X7.9646Y2.8937
X7.9651Y-1.6755
X7.9658Y-1.8085
X7.9691Y2.6153
X7.9701Y-2.2637
X7.9732Y2.5618
X7.9738Y1.4609
X7.9748Y1.6066
X7.9768Y-1.0484
X7.9773Y1.5095
X7.9803Y-0.0591
X7.9803Y-0.5512
X7.9813Y2.6516
X7.9818Y1.1078
X7.9843Y-0.185
X7.9862Y1.3184
X7.9878Y0.2285
X7.9944Y1.0272
X7.9956Y0.1265
X7.9959Y-1.3436
X7.9963Y2.7391
X8.0Y0.8228
X8.0015Y0.4704
X8.003Y0.0679
X8.0037Y-2.0081
X8.0039Y-1.5788
X8.0039Y1.5748
X8.0087Y2.9542
X8.0095Y-0.5949
X8.0157Y0.2598
X8.0217Y0.1681
X8.0217Y0.1681
X8.022Y-0.2382
X8.0236Y-0.0118
X8.0237Y2.8734
X8.0253Y-1.9272
X8.0315Y-1.2441
X8.0354Y1.5157
X8.0354Y-2.0354
X8.0356Y-0.8231
X8.0357Y-1.1856
X8.0412Y-1.4569
X8.0457Y-0.4335
X8.0472Y-1.7559
X8.0472Y-2.2283
X8.0472Y-2.315
X8.0506Y-1.8009
X8.0551Y2.9921
X8.0551Y-1.311
X8.0585Y-1.9925
X8.0616Y0.1746
X8.063Y-1.0116
X8.063Y-2.1496
X8.0635Y-1.9614
X8.064Y-1.9022
X8.0652Y0.8482
X8.0667Y-0.4571
X8.0709Y-1.2362
X8.0735Y-1.043
X8.0748Y-0.0945
X8.0827Y-2.3583
X8.0851Y-0.6628
X8.0854Y-0.5283
X8.088Y-1.1962
X8.0886Y-1.4293
X8.0906Y1.6142
X8.0906Y-1.9449
X8.0956Y1.2278
X8.1083Y0.5458
X8.1102Y1.9803
X8.1102Y0.1102
X8.1129Y0.6152
X8.1131Y-1.6234
X8.1142Y-2.0276
X8.1194Y0.6824
X8.1203Y0.0591
X8.1299Y-1.3031
X8.1378Y2.9906
X8.1417Y2.9367
X8.1443Y0.3349
X8.1457Y2.1299
X8.1469Y2.3994
X8.1487Y1.8508
X8.1535Y0.1654
X8.1575Y-0.4724
X8.1575Y-2.2728
X8.1654Y1.3701
X8.1699Y0.3004
X8.1738Y-2.1372
X8.1752Y1.0494
X8.1811Y0.9173
X8.1811Y-0.378
X8.1879Y-0.2658
X8.189Y1.4016
X8.1929Y2.2283
X8.1976Y2.9677
X8.2008Y0.2362
X8.201Y2.5064
X8.2038Y1.753
X8.2043Y2.5805
X8.2087Y-0.7992
X8.211Y1.1552
X8.2112Y1.249
X8.2164Y1.9208
X8.2167Y0.7763
X8.2175Y3.0182
X8.2205Y0.1732
X8.2238Y-0.3533
X8.2304Y2.6744
X8.2323Y1.2726
X8.2323Y0.9488
X8.236Y2.5245
X8.2402Y-1.374
X8.247Y-0.5809
X8.2509Y2.7822
X8.252Y3.1102
X8.2526Y0.2205
X8.2548Y1.2987
X8.2596Y-1.5544
X8.2627Y-0.1816
X8.2638Y1.3858
X8.2677Y2.2638
X8.271Y-1.5136
X8.2717Y3.0276
X8.2744Y1.8356
X8.2822Y0.3516
X8.2953Y2.9724
X8.2953Y0.0273
X8.3034Y-1.0641
X8.3071Y1.7874
X8.311Y3.0945
X8.315Y0.9563
X8.315Y0.9248
X8.318Y2.4345
X8.3219Y0.4683
X8.3224Y0.044
X8.3225Y1.4494
X8.3228Y-0.5394
X8.3268Y0.1929
X8.3297Y0.7228
X8.3346Y2.1055
X8.3386Y-0.4016
X8.3392Y2.2632
X8.3504Y1.9724
X8.3509Y-0.2724
X8.3533Y-1.0983
X8.3566Y-1.0313
X8.3578Y2.7962
X8.3598Y-0.5883
X8.3661Y-0.4961
X8.3701Y1.2008
X8.3701Y-0.0118
X8.3803Y-1.1506
X8.382Y1.5782
X8.3826Y1.6247
X8.3898Y1.3228
X8.3898Y0.9134
X8.3923Y0.6698
X8.3937Y1.6929
X8.3976Y1.0551
X8.4016Y0.0748
X8.4023Y0.4312
X8.4055Y0.3675
X8.4055Y-0.0079
X8.4055Y-0.4921
X8.4094Y0.1417
X8.4134Y0.3346
X8.4173Y0.4606
X8.4173Y-0.4409
X8.4262Y-0.0584
X8.4282Y-0.8847
X8.4307Y0.8555
X8.4331Y1.4528
X8.4331Y1.0197
X8.4331Y-0.3189
X8.4375Y-0.3501
X8.4381Y-1.1121
X8.4401Y-1.1816
X8.4436Y2.4519
X8.4523Y-0.7156
X8.4528Y1.1654
X8.4528Y0.3819
X8.4566Y-0.5849
X8.4567Y1.3898
X8.4595Y0.6469
X8.4627Y2.1475
X8.4672Y2.2676
X8.4685Y2.9016
X8.4685Y-1.7087
X8.4694Y2.6169
X8.4696Y-1.813
X8.4715Y-1.8485
X8.4781Y-0.2657
X8.4803Y1.0984
X8.4843Y2.9449
X8.4843Y1.6732
X8.4852Y-0.7617
X8.4921Y-1.3228
X8.4921Y-2.6732
X8.4922Y2.8525
X8.4934Y0.5854
X8.4961Y2.5827
X8.4961Y1.4528
X8.4983Y-0.9302
X8.5Y2.5118
X8.5004Y2.4426
X8.5015Y3.0463
X8.5018Y0.3111
X8.502Y-1.4075
X8.5031Y-0.5488
X8.5039Y1.7598
X8.5039Y-1.7874
X8.5118Y2.3189
X8.5118Y1.5748
X8.5131Y0.3635
X8.5157Y0.1496
X8.5236Y1.5079
X8.5264Y-1.6907
X8.5276Y-1.8543
X8.5291Y1.2795
X8.5348Y1.6439
X8.5354Y-1.9134
X8.5361Y-1.6607
X8.5408Y1.9584
X8.5433Y0.6732
X8.5472Y-1.7402
X8.5507Y1.0969
X8.5547Y2.478
X8.5551Y0.8031
X8.5551Y-1.2362
X8.5553Y-2.5634
X8.5553Y-2.5634
X8.5554Y0.2902
X8.558Y-0.0464
X8.5591Y1.3583
X8.5616Y-0.8479
X8.563Y2.5866
X8.5662Y1.0026
X8.5662Y1.0026
X8.5669Y2.7992
X8.5669Y2.189
X8.5669Y-2.0354
X8.5707Y2.0561
X8.5748Y1.6929
X8.5748Y-1.2992
X8.579Y-1.8878
X8.5828Y2.8971
X8.5841Y2.1099
X8.5858Y-0.0178
X8.5866Y-1.7047
X8.5885Y-1.5251
X8.59Y2.2945
X8.5906Y0.4252
X8.5906Y-1.4134
X8.5939Y-0.8656
X8.5957Y1.6162
X8.5984Y0.7717
X8.6066Y-2.9188
X8.6076Y1.2165
X8.6093Y-2.495
X8.6097Y2.3191
X8.6116Y1.8569
X8.6134Y2.9209
X8.6134Y2.6622
X8.6158Y-1.9893
X8.6164Y-1.8603
X8.6181Y1.3504
X8.6185Y-0.8218
X8.6214Y0.3649
X8.6218Y2.8712
X8.6225Y-0.4338
X8.6274Y0.6852
X8.6299Y-1.7362
X8.6299Y-2.8346
X8.6334Y2.2643
X8.6339Y1.689
X8.6339Y1.0906
X8.6378Y-0.3937
X8.6417Y-2.3228
X8.6448Y-0.4905
X8.6457Y-2.5361
X8.6457Y-2.6142
X8.6476Y1.0374
X8.648Y2.8887
X8.6535Y2.6496
X8.6575Y0.6181
X8.6575Y-2.3583
X8.6576Y-2.0934
X8.6614Y2.1417
X8.6614Y0.6969
X8.6678Y-1.0507
X8.6693Y-2.7402
X8.67Y2.2634
X8.6732Y-1.3937
X8.6732Y-1.6929
X8.6745Y-0.2929
X8.6772Y-1.5197
X8.6772Y-1.102
X8.6777Y-0.235
X8.6813Y-2.848
X8.6838Y0.8789
X8.685Y-0.4252
X8.689Y-2.6654
X8.689Y1.7561
X8.6929Y1.4016
X8.6929Y-0.5551
X8.6929Y-2.5866
X8.6946Y1.5122
X8.6969Y-1.6654
X8.7Y-0.1287
X8.7008Y1.6689
X8.7008Y0.5472
X8.7008Y-1.1772
X8.7008Y-1.5787
X8.7021Y1.324
X8.7031Y-0.6982
X8.7041Y1.8789
X8.7047Y1.5709
X8.7047Y-2.7835
X8.7048Y-2.2826
X8.7082Y-0.1721
X8.7126Y1.8307
X8.7165Y-1.122
X8.7296Y-2.717
X8.7306Y0.3208
X8.7332Y-1.1762
X8.7408Y0.0794
X8.7441Y1.7441
X8.748Y1.8937
X8.748Y-2.1693
X8.748Y-2.3622
X8.7562Y-1.6186
X8.7615Y2.4173
X8.7638Y-0.5039
X8.7638Y-0.7677
X8.7638Y-0.9213
X8.7677Y-1.3661
X8.7677Y-2.4016
X8.772Y-2.4466
X8.7756Y0.6374
X8.7756Y-2.2992
X8.7756Y-2.7362
X8.7788Y-1.8504
X8.7795Y1.5315
X8.7795Y-2.0984
X8.7795Y-2.3661
X8.7799Y0.5559
X8.7839Y-0.5281
X8.7874Y-1.0748
X8.7874Y-1.4921
X8.7889Y0.8697
X8.7913Y1.5669
X8.7923Y0.9816
X8.7939Y-2.6134
X8.795Y-0.7428
X8.7953Y-0.815
X8.8036Y0.9196
X8.8071Y-1.0079
X8.8071Y-1.2756
X8.8089Y2.4431
X8.8118Y2.0083
X8.8139Y0.6744
X8.815Y2.3583
X8.8172Y-0.6827
X8.8189Y-0.4449
X8.8211Y-1.4409
X8.8268Y-1.3583
X8.8271Y-1.9777
X8.8287Y2.3175
X8.8425Y-0.8858
X8.8425Y-2.4055
X8.8465Y1.5236
X8.8494Y-1.9181
X8.8504Y2.5394
X8.8543Y-0.3898
X8.8548Y1.6772
X8.8572Y1.3948
X8.8574Y0.2357
X8.8576Y1.1749
X8.8583Y2.6693
X8.8594Y0.9251
X8.8619Y-0.2659
X8.8622Y1.7874
X8.8622Y-0.1102
X8.8635Y-1.1142
X8.8635Y-1.1142
X8.8661Y-1.2283
X8.8661Y-1.5079
X8.874Y2.3425
X8.8802Y0.5457
X8.8819Y1.9055
X8.8829Y2.272
X8.8858Y1.4803
X8.8898Y0.4606
X8.8939Y-1.7085
X8.8976Y0.9331
X8.8976Y-0.9016
X8.9006Y-0.9951
X8.9016Y0.7677
X8.9016Y-1.2717
X8.9016Y-2.811
X8.9035Y0.5669
X8.9055Y2.4803
X8.9055Y-0.2126
X8.9094Y1.7441
X8.9094Y-1.5669
X8.9169Y1.5633
X8.9183Y0.6467
X8.9213Y-1.3307
X8.9213Y-1.878
X8.9252Y-1.626
X8.9279Y-2.384
X8.9284Y-0.1376
X8.9286Y0.3095
X8.9287Y-0.7328
X8.9291Y0.9094
X8.9291Y-1.9685
X8.9291Y-2.1575
X8.9323Y0.4569
X8.9323Y0.4569
X8.935Y-2.7828
X8.9371Y1.1244
X8.9404Y-0.511
X8.9409Y1.7008
X8.9445Y-2.2603
X8.9449Y2.0197
X8.9449Y-1.811
X8.9505Y2.4132
X8.9511Y-2.8119
X8.952Y-0.5893
X8.9535Y2.7686
X8.9601Y-2.452
X8.9606Y-2.1535
X8.9608Y-1.4998
X8.9632Y2.1686
X8.9646Y-0.2756
X8.9681Y-2.727
X8.9685Y-1.2008
X8.9685Y-2.9055
X8.9686Y-1.2598
X8.9719Y2.211
X8.9724Y1.9646
X8.973Y2.4927
X8.9764Y1.8425
X8.9764Y1.622
X8.9764Y-2.9528
X8.9803Y-2.0354
X8.9808Y1.4279
X8.9961Y1.0433
X8.9972Y-1.9145
X9.0026Y-2.4267
X9.0039Y2.0157
X9.0079Y1.1142
X9.0079Y0.9488
X9.0111Y2.5328
X9.0112Y-2.2762
X9.0157Y-2.0748
X9.0163Y-1.0747
X9.0183Y0.1171
X9.0184Y1.2895
X9.0186Y-0.8394
X9.0192Y2.5632
X9.0197Y2.4449
X9.0203Y-2.6255
X9.0236Y2.3189
X9.0236Y0.8071
X9.0236Y-2.1378
X9.0236Y-2.9252
X9.0284Y-2.3168
X9.0315Y0.5669
X9.0315Y-1.7953
X9.0354Y-0.3583
X9.0359Y1.6417
X9.0362Y-2.957
X9.0426Y-0.746
X9.0434Y-2.59
X9.0444Y1.7687
X9.0472Y-2.3565
X9.0496Y-0.6034
X9.0512Y1.0315
X9.0512Y-1.0236
X9.0561Y0.1005
X9.0591Y0.9646
X9.0623Y-2.5554
X9.0658Y2.6196
X9.0669Y-1.5354
X9.0676Y-0.1666
X9.0704Y0.6567
X9.0709Y-0.7244
X9.0779Y-1.3003
X9.0811Y-0.6498
X9.0814Y1.5035
X9.082Y2.772
X9.0824Y1.3215
X9.0866Y-0.9291
X9.0908Y1.1892
X9.0945Y2.0315
X9.1Y1.0394
X9.1063Y1.2756
X9.1097Y-0.663
X9.1102Y1.4606
X9.1142Y-0.3031
X9.1142Y-1.0866
X9.1178Y1.5433
X9.1181Y0.1299
X9.1234Y-0.5362
X9.1307Y-1.3628
X9.1351Y0.2123
X9.1394Y0.406
X9.1451Y-1.4138
X9.1457Y-2.3543
X9.1458Y2.5561
X9.1468Y2.1835
X9.1487Y1.8622
X9.1496Y-0.252
X9.1496Y-1.1299
X9.1496Y-1.1614
X9.1505Y-1.6522
X9.1518Y-1.8976
X9.1586Y2.6901
X9.1669Y0.4316
X9.1669Y0.4316
X9.1682Y1.915
X9.1693Y-0.0984
X9.1739Y2.1423
X9.1849Y1.7055
X9.189Y-2.7165
X9.1891Y-1.416
X9.1898Y1.6602
X9.1992Y-0.9988
X9.2008Y0.1535
X9.2008Y-1.1811
X9.2008Y-1.5512
X9.2033Y1.2566
X9.2079Y-2.4692
X9.2105Y-0.3379
X9.2126Y1.4331
X9.213Y2.0118
X9.2165Y0.2441
X9.2165Y-1.4528
X9.2173Y2.3864
X9.2296Y0.8061
X9.2308Y1.5691
X9.2323Y2.3543
X9.2351Y2.6113
X9.2362Y1.4803
X9.2365Y1.0828
X9.2429Y0.5736
X9.2434Y1.5212
X9.2441Y0.689
X9.2441Y0.1811
X9.2466Y-1.391
X9.2481Y1.0116
X9.25Y0.4123
X9.252Y2.0866
X9.257Y2.2598
X9.2584Y-1.0589
X9.2598Y2.0354
X9.2612Y1.3146
X9.2617Y-2.6123
X9.2638Y-0.8307
X9.2643Y-0.7169
X9.2645Y-0.309
X9.2652Y-1.2022
X9.2652Y-1.2022
X9.2655Y2.5572
X9.2677Y1.8203
X9.2747Y-2.1283
X9.2756Y1.9488
X9.276Y2.6098
X9.277Y-2.1659
X9.2795Y0.8976
X9.2839Y1.8473
X9.284Y-1.0103
X9.2867Y-1.0941
X9.2884Y-0.0797
X9.2903Y-0.2194
X9.2909Y1.0522
X9.2953Y1.1102
X9.2953Y-1.622
X9.2963Y-0.6117
X9.2992Y2.1575
X9.3018Y-0.5114
X9.311Y2.0866
X9.3132Y-2.1534
X9.3141Y2.397
X9.3144Y1.5747
X9.3189Y2.5787
X9.3229Y-1.0585
X9.3236Y-1.39
X9.3268Y1.9912
X9.3272Y0.2429
X9.3304Y1.9289
X9.3357Y0.1694
X9.3362Y1.2452
X9.3386Y2.7281
X9.3436Y0.9202
X9.3465Y2.0157
X9.3465Y0.9921
X9.3473Y1.1497
X9.3491Y2.6839
X9.3504Y0.5591
X9.351Y2.3524
X9.3543Y-1.0315
X9.3546Y1.9491
X9.367Y2.7479
X9.37Y-1.9724
X9.3735Y1.1129
X9.374Y1.378
X9.3741Y-1.3276
X9.3759Y-1.6746
X9.3765Y2.334
X9.3808Y2.1664
X9.381Y1.2326
X9.3819Y-0.2283
X9.3858Y1.6496
X9.3901Y0.1751
X9.3913Y-2.2385
X9.3927Y0.9694
X9.3962Y-1.7837
X9.3976Y1.7559
X9.3976Y1.063
X9.3976Y0.5866
X9.4016Y-2.2913
X9.4055Y1.1299
X9.4069Y-0.3349
X9.4094Y0.8858
X9.4112Y1.5942
X9.4116Y1.2638
X9.4193Y-0.3639
X9.4213Y0.3071
X9.4239Y2.3838
X9.424Y-1.6183
X9.4244Y-1.9754
X9.4259Y-0.082
X9.4284Y-2.1438
X9.4295Y0.2482
X9.4369Y1.4941
X9.437Y2.6378
X9.437Y2.4449
X9.438Y-1.8104
X9.4385Y1.7598
X9.4409Y-2.3228
X9.4455Y-2.2683
X9.4528Y0.9921
X9.4552Y2.0448
X9.4606Y0.5039
X9.4614Y1.6282
X9.4645Y2.3584
X9.4685Y0.5827
X9.4685Y-0.122
X9.473Y-0.7068
X9.4803Y1.9409
X9.4817Y-0.9712
X9.4843Y2.1654
X9.4849Y-2.4609
X9.4882Y-0.2717
X9.4921Y2.4213
X9.4928Y-1.9087
X9.4962Y-1.1468
X9.5115Y0.8672
X9.5143Y0.8012
X9.5157Y0.4567
X9.5186Y-1.0
X9.5186Y-1.0
X9.5197Y0.5118
X9.5208Y1.3489
X9.5214Y-0.4941
X9.5236Y-1.1102
X9.5267Y2.3873
X9.5315Y-1.4882
X9.5359Y-0.6644
X9.5394Y-1.9409
X9.5409Y-1.456
X9.5418Y0.2022
X9.542Y-1.039
X9.5434Y0.238
X9.5446Y-1.895
X9.5478Y0.4578
X9.5507Y-1.1993
X9.5515Y1.7079
X9.5586Y-1.4166
X9.5591Y-1.6228
X9.5603Y-1.342
X9.5694Y0.2715
X9.5709Y2.2559
X9.5748Y-0.6063
X9.5796Y-1.4709
X9.5827Y-1.5394
X9.5866Y1.9685
X9.5893Y1.8004
X9.5957Y1.127
X9.5984Y0.3228
X9.5984Y-0.374
X9.5984Y-1.0906
X9.5995Y0.4596
X9.6053Y1.0365
X9.6064Y0.8545
X9.6094Y0.2347
X9.6142Y0.563
X9.6142Y0.563
X9.6213Y-1.5543
X9.622Y-1.7588
X9.622Y1.9764
X9.626Y-0.4488
X9.6273Y2.0333
X9.6289Y-2.4517
X9.6312Y-1.8925
X9.6344Y0.2988
X9.6448Y-2.1785
X9.6457Y1.504
X9.6457Y-0.3937
X9.65Y-0.7087
X9.6535Y1.8749
X9.6575Y1.3338
X9.6575Y0.122
X9.6582Y1.2765
X9.6586Y1.8199
X9.6624Y-0.8221
X9.6627Y-1.8886
X9.6654Y-0.5
X9.6745Y0.9268
X9.6772Y1.9291
X9.6772Y-0.6772
X9.6811Y-1.5157
X9.6827Y0.4355
X9.685Y0.3504
X9.7008Y0.0984
X9.7008Y-1.5827
X9.7047Y-1.8119
X9.7067Y0.5452
X9.7069Y1.2601
X9.7087Y-0.7126
X9.7118Y2.1453
X9.7126Y-1.4331
X9.7136Y-0.5742
X9.7165Y-2.3543
X9.7212Y-0.8324
X9.7224Y-1.1122
X9.7238Y-2.2686
X9.7244Y0.9331
X9.7283Y1.8898
X9.7323Y0.2402
X9.733Y-1.8682
X9.7331Y-1.7416
X9.7362Y0.311
X9.7438Y-2.2443
X9.7439Y-1.7883
X9.7441Y-1.5039
X9.7519Y-0.8252
X9.752Y0.891
X9.752Y0.0512
X9.7577Y1.2441
X9.7581Y-0.4351
X9.7598Y1.3071
X9.7598Y-0.5433
X9.7641Y-2.113
X9.7677Y0.6024
X9.7677Y0.1811
X9.7681Y-1.3302
X9.7691Y-0.7732
X9.7731Y-1.8002
X9.7734Y-0.631
X9.7767Y2.0961
X9.7795Y0.437
X9.7795Y-0.9291
X9.7824Y-1.9793
X9.7871Y0.0117
X9.7875Y-2.0361
X9.7887Y-1.2147
X9.7908Y-0.4115
X9.7913Y-2.2717
X9.7951Y-1.3001
X9.7953Y2.3071
X9.7991Y-0.7496
X9.7992Y-0.4764
X9.8071Y0.0787
X9.8231Y-2.3484
X9.8247Y-0.5576
X9.8249Y2.0925
X9.8268Y1.315
X9.829Y1.0216
X9.8307Y1.1417
X9.8307Y-1.5276
X9.8307Y-1.8386
X9.8313Y0.0008
X9.8325Y2.2188
X9.8346Y0.4449
X9.836Y1.3714
X9.8386Y0.689
X9.8422Y1.6345
X9.845Y-0.5128
X9.8454Y1.9326
X9.8504Y-1.6575
X9.8543Y-1.5906
X9.8583Y1.3937
X9.8604Y-2.3663
X9.8614Y-0.4857
X9.8638Y-0.7415
X9.8678Y-2.3357
X9.8701Y-1.626
X9.8704Y-0.3757
X9.8731Y0.9826
X9.8758Y-0.4067
X9.878Y1.252
X9.8819Y1.3189
X9.8825Y-0.9902
X9.8858Y1.6614
X9.8864Y0.0417
X9.8881Y-1.5296
X9.9016Y1.1063
X9.9025Y-1.3518
X9.9029Y0.0685
X9.904Y2.1324
X9.9072Y0.113
X9.9118Y1.6259
X9.9134Y1.8228
X9.9164Y-0.9207
X9.9173Y-2.1339
X9.9213Y1.8858
X9.9331Y-1.2441
X9.9409Y0.5394
X9.9438Y-0.0088
X9.9459Y0.3108
X9.9488Y-1.6654
X9.9529Y-1.8768
X9.9548Y2.0849
X9.9567Y1.6063
X9.961Y1.7598
X9.9685Y1.6614
X9.9685Y-1.7717
X9.9724Y2.1417
X9.9741Y-2.1102
X9.9764Y-1.3898
X9.9783Y-0.5154
X9.9921Y1.2835
X9.9934Y2.0768
X9.999Y1.3998
X10.0Y-1.6654
X10.0037Y-1.7057
X10.0039Y1.7559
X10.0039Y-0.3666
X10.0191Y1.0399
X10.0236Y0.0512
X10.0276Y2.2244
X10.0315Y-0.8701
X10.0354Y2.1693
X10.0375Y1.7584
X10.0394Y0.3346
X10.0463Y1.4096
X10.0463Y0.4715
X10.0511Y1.1179
X10.0551Y2.0157
X10.0557Y2.1965
X10.0652Y-1.3428
X10.0669Y-1.6102
X10.0671Y-0.6479
X10.0709Y-1.2283
X10.0739Y-0.6829
X10.0802Y-0.7862
X10.0803Y0.6199
X10.086Y-0.7553
X10.0937Y-1.8777
X10.0986Y-1.3428
X10.1007Y1.3935
X10.1025Y1.3583
X10.1034Y0.1262
X10.1063Y0.3228
X10.1095Y1.1284
X10.111Y1.8495
X10.111Y-1.3718
X10.1142Y2.1063
X10.1197Y-1.5273
X10.1221Y-0.748
X10.1238Y-1.7784
X10.1306Y-0.391
X10.1346Y1.8167
X10.1457Y1.2087
X10.1496Y1.4764
X10.1496Y0.4252
X10.1496Y-1.6299
X10.1551Y0.0704
X10.1654Y1.8465
X10.1654Y0.9685
X10.1693Y0.3465
X10.1732Y1.2795
X10.1732Y-0.5276
X10.1811Y1.133
X10.185Y-0.8031
X10.1906Y1.0396
X10.1929Y1.1732
X10.199Y-1.2688
X10.2008Y0.4449
X10.204Y-1.3926
X10.2126Y-1.1575
X10.2148Y-0.7677
X10.2168Y1.6001
X10.2285Y1.3446
X10.2402Y-0.7886
X10.248Y-1.248
X10.2559Y0.3543
X10.2638Y0.4291
X10.2638Y-1.748
X10.2647Y-1.3416
X10.2677Y-1.189
X10.2979Y1.4016
X10.3025Y0.0851
X10.3189Y-1.6535
X10.3295Y0.8966
X10.3375Y-1.6195
X10.3417Y-1.2907
X10.3538Y-1.5451
X10.354Y-1.4526
X10.3597Y0.3133
X10.3651Y0.8762
X10.369Y-1.4045
X10.3701Y-1.3543
X10.3701Y-1.6431
X10.3819Y-1.1732
X10.3964Y1.2355
X10.4134Y0.3346
X10.4159Y1.0532
X10.4218Y0.4103
X10.4223Y-1.7213
X10.4235Y0.1196
X10.4332Y1.0117
X10.4381Y0.9417
X10.4488Y1.5827
X10.4488Y1.5157
X10.4562Y1.3987
X10.4592Y-1.2418
X10.4606Y0.1772
X10.4615Y-1.7559
X10.4618Y-0.044
X10.4662Y0.0986
X10.4769Y0.3922
X10.4773Y-1.7096
X10.4824Y1.2987
X10.4882Y0.2953
X10.5036Y0.135
X10.51Y0.2324
X10.5171Y-0.0612
X10.5236Y0.3425
X10.5283Y-0.1008
X10.5306Y-0.1521
X10.5307Y-0.1838
X10.5354Y0.4213
X10.537Y1.3407
X10.5427Y-1.4619
X10.5458Y0.9811
X10.553Y1.2988
X10.5554Y0.2664
X10.5669Y1.3661
X10.5787Y0.9567
X10.6024Y1.1693
X10.6063Y-0.2283
X10.6065Y1.0938
X10.6142Y0.3346
X10.6339Y0.5
X10.6495Y0.0808
X10.6571Y1.3878
X10.6575Y1.4409
X10.6614Y1.063
X10.6804Y-0.0169
X10.6912Y1.0348
X10.7022Y1.4543
X10.7043Y1.3869
X10.7127Y0.2339
X10.7205Y-0.0827
X10.7488Y0.3157
X10.7598Y0.0236
X10.7636Y0.5226
X10.7677Y-0.1417
X10.7756Y-0.0709
X10.815Y-0.1772
X10.8212Y0.207
X10.8228Y-0.0984
X10.8374Y0.1193
X10.8386Y0.3425
X10.8664Y-0.168
X10.8678Y0.1061
X10.9016Y0.1614
X10.9016Y0.0079
X10.9535Y-0.0779
X10.9715Y0.141
X10.9917Y0.1651
X11.0064Y0.193
X11.0411Y0.1785
M30
