%TF.GenerationSoftware,KiCad,Pcbnew,8.0.5*%
%TF.CreationDate,2024-10-26T12:13:46-04:00*%
%TF.ProjectId,orb_generated,6f72625f-6765-46e6-9572-617465642e6b,rev?*%
%TF.SameCoordinates,Original*%
%TF.FileFunction,Soldermask,Bot*%
%TF.FilePolarity,Negative*%
%FSLAX46Y46*%
G04 Gerber Fmt 4.6, Leading zero omitted, Abs format (unit mm)*
G04 Created by KiCad (PCBNEW 8.0.5) date 2024-10-26 12:13:46*
%MOMM*%
%LPD*%
G01*
G04 APERTURE LIST*
G04 Aperture macros list*
%AMFreePoly0*
4,1,18,-1.000000,0.540000,-0.940000,0.600000,0.400000,0.600000,0.555291,0.579555,0.700000,0.519615,0.824264,0.424264,0.919615,0.300000,0.979555,0.155291,1.000000,0.000001,0.979555,-0.155291,0.919615,-0.300000,0.824264,-0.424264,0.700000,-0.519615,0.555291,-0.579555,0.400000,-0.600000,-0.940000,-0.600000,-1.000000,-0.540000,-1.000000,0.540000,-1.000000,0.540000,$1*%
G04 Aperture macros list end*
%ADD10FreePoly0,358.000000*%
%ADD11FreePoly0,67.000000*%
%ADD12FreePoly0,55.000000*%
%ADD13FreePoly0,303.000000*%
%ADD14FreePoly0,234.000000*%
%ADD15FreePoly0,186.000000*%
%ADD16FreePoly0,226.000000*%
%ADD17FreePoly0,283.000000*%
%ADD18FreePoly0,326.000000*%
%ADD19FreePoly0,162.000000*%
%ADD20FreePoly0,142.000000*%
%ADD21FreePoly0,190.000000*%
%ADD22FreePoly0,214.000000*%
%ADD23FreePoly0,198.000000*%
%ADD24FreePoly0,194.000000*%
%ADD25FreePoly0,178.000000*%
%ADD26FreePoly0,54.000000*%
%ADD27FreePoly0,146.000000*%
%ADD28FreePoly0,263.000000*%
%ADD29FreePoly0,338.000000*%
%ADD30FreePoly0,350.000000*%
%ADD31FreePoly0,133.000000*%
%ADD32FreePoly0,254.000000*%
%ADD33FreePoly0,105.000000*%
%ADD34FreePoly0,209.000000*%
%ADD35FreePoly0,199.000000*%
%ADD36FreePoly0,241.000000*%
%ADD37FreePoly0,262.000000*%
%ADD38FreePoly0,342.000000*%
%ADD39FreePoly0,346.000000*%
%ADD40FreePoly0,30.000000*%
%ADD41FreePoly0,170.000000*%
%ADD42FreePoly0,154.000000*%
%ADD43FreePoly0,182.000000*%
%ADD44FreePoly0,75.000000*%
%ADD45FreePoly0,115.000000*%
%ADD46FreePoly0,173.000000*%
%ADD47FreePoly0,306.000000*%
%ADD48FreePoly0,62.000000*%
%ADD49FreePoly0,130.000000*%
%ADD50FreePoly0,18.000000*%
%ADD51FreePoly0,270.000000*%
%ADD52FreePoly0,314.000000*%
%ADD53FreePoly0,126.000000*%
%ADD54FreePoly0,38.000000*%
%ADD55FreePoly0,50.000000*%
%ADD56FreePoly0,90.000000*%
%ADD57FreePoly0,322.000000*%
%ADD58FreePoly0,82.000000*%
%ADD59FreePoly0,135.000000*%
%ADD60FreePoly0,222.000000*%
%ADD61FreePoly0,101.000000*%
%ADD62FreePoly0,53.000000*%
%ADD63FreePoly0,102.000000*%
%ADD64FreePoly0,3.000000*%
%ADD65FreePoly0,22.000000*%
%ADD66FreePoly0,26.000000*%
%ADD67FreePoly0,47.000000*%
%ADD68FreePoly0,343.000000*%
%ADD69FreePoly0,227.000000*%
%ADD70FreePoly0,113.000000*%
%ADD71FreePoly0,258.000000*%
%ADD72FreePoly0,99.000000*%
%ADD73FreePoly0,286.000000*%
%ADD74FreePoly0,158.000000*%
%ADD75FreePoly0,166.000000*%
%ADD76FreePoly0,123.000000*%
%ADD77FreePoly0,7.000000*%
%ADD78FreePoly0,110.000000*%
%ADD79FreePoly0,353.000000*%
%ADD80FreePoly0,6.000000*%
%ADD81FreePoly0,298.000000*%
%ADD82FreePoly0,250.000000*%
%ADD83FreePoly0,221.000000*%
%ADD84FreePoly0,183.000000*%
%ADD85FreePoly0,290.000000*%
%ADD86FreePoly0,103.000000*%
%ADD87FreePoly0,155.000000*%
%ADD88FreePoly0,95.000000*%
%ADD89FreePoly0,150.000000*%
%ADD90FreePoly0,14.000000*%
%ADD91FreePoly0,251.000000*%
%ADD92FreePoly0,63.000000*%
%ADD93FreePoly0,25.000000*%
%ADD94FreePoly0,333.000000*%
%ADD95FreePoly0,210.000000*%
%ADD96FreePoly0,29.000000*%
%ADD97FreePoly0,223.000000*%
%ADD98FreePoly0,242.000000*%
%ADD99FreePoly0,70.000000*%
%ADD100FreePoly0,163.000000*%
%ADD101FreePoly0,11.000000*%
%ADD102FreePoly0,58.000000*%
%ADD103FreePoly0,2.000000*%
%ADD104FreePoly0,246.000000*%
%ADD105FreePoly0,134.000000*%
%ADD106FreePoly0,302.000000*%
%ADD107FreePoly0,197.000000*%
%ADD108FreePoly0,106.000000*%
%ADD109FreePoly0,345.000000*%
%ADD110FreePoly0,253.000000*%
%ADD111FreePoly0,78.000000*%
%ADD112FreePoly0,49.000000*%
%ADD113FreePoly0,94.000000*%
%ADD114FreePoly0,305.000000*%
%ADD115FreePoly0,274.000000*%
%ADD116FreePoly0,295.000000*%
%ADD117FreePoly0,282.000000*%
%ADD118FreePoly0,137.000000*%
%ADD119FreePoly0,118.000000*%
%ADD120FreePoly0,247.000000*%
%ADD121FreePoly0,10.000000*%
%ADD122FreePoly0,34.000000*%
%ADD123FreePoly0,277.000000*%
%ADD124FreePoly0,319.000000*%
%ADD125FreePoly0,42.000000*%
%ADD126FreePoly0,259.000000*%
%ADD127FreePoly0,122.000000*%
%ADD128FreePoly0,175.000000*%
%ADD129FreePoly0,219.000000*%
%ADD130FreePoly0,187.000000*%
%ADD131FreePoly0,310.000000*%
%ADD132FreePoly0,239.000000*%
%ADD133FreePoly0,334.000000*%
%ADD134FreePoly0,213.000000*%
%ADD135FreePoly0,97.000000*%
%ADD136FreePoly0,191.000000*%
%ADD137FreePoly0,318.000000*%
%ADD138FreePoly0,218.000000*%
%ADD139FreePoly0,165.000000*%
%ADD140FreePoly0,307.000000*%
%ADD141FreePoly0,330.000000*%
%ADD142FreePoly0,285.000000*%
%ADD143FreePoly0,278.000000*%
%ADD144FreePoly0,293.000000*%
%ADD145FreePoly0,89.000000*%
%ADD146FreePoly0,161.000000*%
%ADD147FreePoly0,233.000000*%
%ADD148FreePoly0,174.000000*%
%ADD149FreePoly0,138.000000*%
%ADD150FreePoly0,238.000000*%
%ADD151FreePoly0,74.000000*%
%ADD152FreePoly0,114.000000*%
%ADD153FreePoly0,59.000000*%
%ADD154FreePoly0,79.000000*%
%ADD155FreePoly0,230.000000*%
%ADD156FreePoly0,86.000000*%
%ADD157FreePoly0,206.000000*%
%ADD158FreePoly0,202.000000*%
%ADD159FreePoly0,41.000000*%
%ADD160FreePoly0,66.000000*%
%ADD161FreePoly0,46.000000*%
%ADD162FreePoly0,225.000000*%
%ADD163FreePoly0,327.000000*%
%ADD164FreePoly0,91.000000*%
%ADD165FreePoly0,341.000000*%
%ADD166FreePoly0,98.000000*%
%ADD167FreePoly0,229.000000*%
%ADD168FreePoly0,339.000000*%
%ADD169FreePoly0,235.000000*%
%ADD170FreePoly0,13.000000*%
%ADD171FreePoly0,351.000000*%
%ADD172FreePoly0,321.000000*%
%ADD173FreePoly0,131.000000*%
%ADD174FreePoly0,266.000000*%
%ADD175FreePoly0,281.000000*%
%ADD176FreePoly0,329.000000*%
%ADD177FreePoly0,331.000000*%
%ADD178FreePoly0,77.000000*%
%ADD179FreePoly0,211.000000*%
%ADD180FreePoly0,243.000000*%
%ADD181FreePoly0,317.000000*%
%ADD182FreePoly0,45.000000*%
%ADD183FreePoly0,69.000000*%
%ADD184FreePoly0,355.000000*%
%ADD185FreePoly0,151.000000*%
G04 APERTURE END LIST*
D10*
%TO.C,PAD233-90*%
X184129330Y51064610D03*
%TD*%
D11*
%TO.C,PAD81-68*%
X27049805Y-19815444D03*
%TD*%
D12*
%TO.C,PAD172-91*%
X196042934Y24583067D03*
%TD*%
D13*
%TO.C,PAD58-47*%
X257039103Y38782462D03*
%TD*%
D14*
%TO.C,PAD153-57*%
X215403436Y21201081D03*
%TD*%
D15*
%TO.C,PAD230-50*%
X250908026Y30321018D03*
%TD*%
D16*
%TO.C,PAD76-4*%
X-29108124Y17796726D03*
%TD*%
D17*
%TO.C,PAD50-10*%
X15451446Y57497193D03*
%TD*%
D18*
%TO.C,PAD15-59*%
X123137941Y622887D03*
%TD*%
D19*
%TO.C,PAD79-7*%
X-8774162Y2850919D03*
%TD*%
D20*
%TO.C,PAD1-28*%
X190119188Y-11456772D03*
%TD*%
D21*
%TO.C,PAD121-83*%
X143174711Y20957987D03*
%TD*%
D22*
%TO.C,PAD136-6*%
X7843059Y41675887D03*
%TD*%
D23*
%TO.C,PAD253-14*%
X43165838Y14025081D03*
%TD*%
D24*
%TO.C,PAD34-61*%
X73607674Y-21628114D03*
%TD*%
D25*
%TO.C,PAD78-74*%
X8136670Y-33160610D03*
%TD*%
D26*
%TO.C,PAD119-36*%
X-26678436Y-36719081D03*
%TD*%
D27*
%TO.C,PAD98-59*%
X137287059Y-8764887D03*
%TD*%
D28*
%TO.C,PAD256-59*%
X131521943Y4588199D03*
%TD*%
D29*
%TO.C,PAD249-1*%
X-44173096Y40558933D03*
%TD*%
D30*
%TO.C,PAD247-34*%
X-19012711Y-12676013D03*
%TD*%
D31*
%TO.C,PAD77-83*%
X140219802Y11885489D03*
%TD*%
D32*
%TO.C,PAD150-28*%
X185272799Y3460612D03*
%TD*%
D33*
%TO.C,PAD8-75*%
X-8259701Y-78083481D03*
%TD*%
D34*
%TO.C,PAD232-13*%
X26386918Y31166710D03*
%TD*%
D35*
%TO.C,PAD269-30*%
X188751929Y-22214125D03*
%TD*%
D36*
%TO.C,PAD266-64*%
X58096710Y-36539082D03*
%TD*%
D37*
%TO.C,PAD147-27*%
X165990909Y-2711295D03*
%TD*%
D38*
%TO.C,PAD12-81*%
X161217162Y46354081D03*
%TD*%
D39*
%TO.C,PAD187-44*%
X261711325Y6316886D03*
%TD*%
D40*
%TO.C,PAD200-2*%
X-26548372Y42894000D03*
%TD*%
D26*
%TO.C,PAD189-51*%
X227971564Y38498919D03*
%TD*%
D41*
%TO.C,PAD238-57*%
X219012711Y12676013D03*
%TD*%
D42*
%TO.C,PAD105-5*%
X-9907673Y22394208D03*
%TD*%
D43*
%TO.C,PAD251-66*%
X30841670Y-29106389D03*
%TD*%
D44*
%TO.C,PAD27-58*%
X67995701Y-12005481D03*
%TD*%
D14*
%TO.C,PAD160-19*%
X204129436Y5684081D03*
%TD*%
D45*
%TO.C,PAD245-90*%
X196042120Y42717939D03*
%TD*%
D46*
%TO.C,PAD223-56*%
X239667199Y9704056D03*
%TD*%
D23*
%TO.C,PAD165-31*%
X184718838Y-42172919D03*
%TD*%
D47*
%TO.C,PAD67-43*%
X-67587435Y-23378918D03*
%TD*%
D48*
%TO.C,PAD196-79*%
X174079419Y22184242D03*
%TD*%
D49*
%TO.C,PAD3-68*%
X36088934Y-18549351D03*
%TD*%
D50*
%TO.C,PAD253-12*%
X45258162Y14704919D03*
%TD*%
D47*
%TO.C,PAD95-19*%
X195870564Y5684081D03*
%TD*%
D51*
%TO.C,PAD45-17*%
X200000000Y-28407000D03*
%TD*%
D52*
%TO.C,PAD23-28*%
X177168124Y919726D03*
%TD*%
D53*
%TO.C,PAD123-66*%
X26678436Y-36719081D03*
%TD*%
%TO.C,PAD199-51*%
X236230436Y38498919D03*
%TD*%
D54*
%TO.C,PAD174-22*%
X209880812Y-11456772D03*
%TD*%
D55*
%TO.C,PAD177-33*%
X-36088934Y-18549351D03*
%TD*%
D56*
%TO.C,PAD202-8*%
X0Y9226000D03*
%TD*%
D57*
%TO.C,PAD226-49*%
X241980812Y55639772D03*
%TD*%
D58*
%TO.C,PAD161-28*%
X182069091Y-14164705D03*
%TD*%
D59*
%TO.C,PAD82-42*%
X-44232817Y-54869182D03*
%TD*%
D60*
%TO.C,PAD163-23*%
X245209541Y-27142044D03*
%TD*%
D61*
%TO.C,PAD192-21*%
X221487110Y-34727210D03*
%TD*%
D62*
%TO.C,PAD91-56*%
X224601996Y3833500D03*
%TD*%
D52*
%TO.C,PAD265-61*%
X58292124Y-16445274D03*
%TD*%
D63*
%TO.C,PAD75-46*%
X-53066703Y36062962D03*
%TD*%
D39*
%TO.C,PAD92-32*%
X-59576675Y-6849114D03*
%TD*%
D56*
%TO.C,PAD52-12*%
X51940000Y9851000D03*
%TD*%
D23*
%TO.C,PAD56-49*%
X257024838Y52281081D03*
%TD*%
D19*
%TO.C,PAD103-24*%
X243165838Y-14025081D03*
%TD*%
D64*
%TO.C,PAD109-69*%
X9594493Y-68377431D03*
%TD*%
D53*
%TO.C,PAD152-47*%
X267587435Y23378918D03*
%TD*%
D65*
%TO.C,PAD158-30*%
X171205902Y-28590933D03*
%TD*%
D58*
%TO.C,PAD64-14*%
X34009091Y2711295D03*
%TD*%
D19*
%TO.C,PAD29-12*%
X58621838Y14704919D03*
%TD*%
D66*
%TO.C,PAD32-31*%
X168323673Y-49392792D03*
%TD*%
D24*
%TO.C,PAD141-78*%
X157765675Y5673886D03*
%TD*%
D38*
%TO.C,PAD40-7*%
X-24923838Y8098081D03*
%TD*%
D67*
%TO.C,PAD49-40*%
X252703199Y-43962512D03*
%TD*%
%TO.C,PAD229-46*%
X-61540802Y38002489D03*
%TD*%
D68*
%TO.C,PAD83-39*%
X235186935Y-49941609D03*
%TD*%
D66*
%TO.C,PAD224-6*%
X-7930327Y33183208D03*
%TD*%
D69*
%TO.C,PAD166-86*%
X18338801Y74678512D03*
%TD*%
D70*
%TO.C,PAD194-33*%
X-27049805Y-19815444D03*
%TD*%
D53*
%TO.C,PAD87-9*%
X4129436Y-5684081D03*
%TD*%
D50*
%TO.C,PAD168-28*%
X175076162Y-8098081D03*
%TD*%
D71*
%TO.C,PAD243-78*%
X151001297Y11994038D03*
%TD*%
D72*
%TO.C,PAD124-85*%
X33987922Y52725457D03*
%TD*%
D50*
%TO.C,PAD201-65*%
X25419162Y-46354081D03*
%TD*%
D73*
%TO.C,PAD140-39*%
X242053201Y-43316388D03*
%TD*%
D51*
%TO.C,PAD135-81*%
X167899000Y51209000D03*
%TD*%
D74*
%TO.C,PAD249-46*%
X-46212904Y41383067D03*
%TD*%
D75*
%TO.C,PAD214-89*%
X222947675Y47064114D03*
%TD*%
D76*
%TO.C,PAD154-43*%
X-57039103Y-38782462D03*
%TD*%
D56*
%TO.C,PAD211-1*%
X-35387000Y27565000D03*
%TD*%
D50*
%TO.C,PAD0-3*%
X-6681838Y52441919D03*
%TD*%
D77*
%TO.C,PAD2-60*%
X41850801Y-9435944D03*
%TD*%
D78*
%TO.C,PAD93-40*%
X261816778Y-45682338D03*
%TD*%
D79*
%TO.C,PAD88-33*%
X-39667199Y-9704056D03*
%TD*%
D40*
%TO.C,PAD34-59*%
X122732628Y-8626000D03*
%TD*%
D80*
%TO.C,PAD22-62*%
X132418974Y-38438018D03*
%TD*%
D81*
%TO.C,PAD167-74*%
X-5147581Y-23941242D03*
%TD*%
D82*
%TO.C,PAD106-67*%
X13948778Y-5856662D03*
%TD*%
D83*
%TO.C,PAD71-21*%
X227203819Y-19602665D03*
%TD*%
D32*
%TO.C,PAD37-14*%
X37212799Y20337612D03*
%TD*%
D84*
%TO.C,PAD133-47*%
X271709507Y31984431D03*
%TD*%
D19*
%TO.C,PAD221-0*%
X-45258162Y14704919D03*
%TD*%
D85*
%TO.C,PAD94-73*%
X-17398778Y-40393662D03*
%TD*%
D10*
%TO.C,PAD237-91*%
X191863330Y33160610D03*
%TD*%
D86*
%TO.C,PAD178-39*%
X246561554Y-61433193D03*
%TD*%
D87*
%TO.C,PAD18-71*%
X182874062Y-70272120D03*
%TD*%
D23*
%TO.C,PAD122-25*%
X258621838Y-14704919D03*
%TD*%
D88*
%TO.C,PAD16-10*%
X17514129Y39700814D03*
%TD*%
D89*
%TO.C,PAD146-38*%
X232530372Y-70232000D03*
%TD*%
D20*
%TO.C,PAD260-53*%
X-11042812Y62352228D03*
%TD*%
D90*
%TO.C,PAD39-29*%
X152300326Y-35453886D03*
%TD*%
D91*
%TO.C,PAD27-61*%
X67217875Y-14542071D03*
%TD*%
D27*
%TO.C,PAD110-8*%
X7843059Y12937113D03*
%TD*%
D38*
%TO.C,PAD79-9*%
X-6681838Y2171081D03*
%TD*%
%TO.C,PAD186-16*%
X193318162Y-52441919D03*
%TD*%
D20*
%TO.C,PAD54-14*%
X42060188Y5419228D03*
%TD*%
D47*
%TO.C,PAD250-37*%
X-36230436Y-38498919D03*
%TD*%
D92*
%TO.C,PAD63-47*%
X258487390Y22678107D03*
%TD*%
D67*
%TO.C,PAD264-86*%
X6702199Y62312488D03*
%TD*%
D93*
%TO.C,PAD198-53*%
X-25524061Y63708880D03*
%TD*%
D94*
%TO.C,PAD82-41*%
X-38515893Y-59023390D03*
%TD*%
D95*
%TO.C,PAD0-2*%
X-11842628Y51385000D03*
%TD*%
D96*
%TO.C,PAD232-11*%
X28311082Y32233290D03*
%TD*%
D27*
%TO.C,PAD184-13*%
X26074059Y22045112D03*
%TD*%
D42*
%TO.C,PAD148-6*%
X7930327Y33183208D03*
%TD*%
D71*
%TO.C,PAD261-53*%
X-15673702Y76151038D03*
%TD*%
D56*
%TO.C,PAD246-0*%
X-51940000Y9851000D03*
%TD*%
D20*
%TO.C,PAD267-30*%
X187091188Y-31609773D03*
%TD*%
D97*
%TO.C,PAD49-39*%
X250825511Y-45837198D03*
%TD*%
D26*
%TO.C,PAD99-9*%
X-4129436Y-5684081D03*
%TD*%
D98*
%TO.C,PAD81-66*%
X25920581Y-22184242D03*
%TD*%
D99*
%TO.C,PAD102-60*%
X47679223Y-16649338D03*
%TD*%
D90*
%TO.C,PAD17-58*%
X61711325Y-6316886D03*
%TD*%
D100*
%TO.C,PAD86-86*%
X20841065Y65765609D03*
%TD*%
D50*
%TO.C,PAD38-15*%
X8774162Y2850919D03*
%TD*%
D101*
%TO.C,PAD204-87*%
X172549790Y66917890D03*
%TD*%
D102*
%TO.C,PAD36-74*%
X-6489089Y-40055147D03*
%TD*%
D47*
%TO.C,PAD239-79*%
X173321564Y36719081D03*
%TD*%
D83*
%TO.C,PAD236-89*%
X221294819Y55598335D03*
%TD*%
D103*
%TO.C,PAD263-67*%
X1259330Y-15076611D03*
%TD*%
D104*
%TO.C,PAD195-69*%
X21734590Y-60366900D03*
%TD*%
D105*
%TO.C,PAD23-77*%
X175639876Y2502274D03*
%TD*%
D106*
%TO.C,PAD10-69*%
X13061911Y-60642853D03*
%TD*%
D74*
%TO.C,PAD90-10*%
X24890098Y45322068D03*
%TD*%
D78*
%TO.C,PAD209-57*%
X213948778Y5856662D03*
%TD*%
D107*
%TO.C,PAD32-70*%
X164813065Y-49941609D03*
%TD*%
D108*
%TO.C,PAD61-7*%
X-14727201Y-3460612D03*
%TD*%
D39*
%TO.C,PAD53-89*%
X206503325Y51296886D03*
%TD*%
D41*
%TO.C,PAD247-33*%
X-21179289Y-12293987D03*
%TD*%
D38*
%TO.C,PAD44-88*%
X201349162Y71504081D03*
%TD*%
D109*
%TO.C,PAD107-75*%
X-19257481Y-66232701D03*
%TD*%
D110*
%TO.C,PAD114-83*%
X137071391Y27745065D03*
%TD*%
D111*
%TO.C,PAD207-84*%
X53066703Y36062962D03*
%TD*%
D18*
%TO.C,PAD89-2*%
X-26378059Y52149888D03*
%TD*%
D50*
%TO.C,PAD255-0*%
X-58621838Y14704919D03*
%TD*%
D28*
%TO.C,PAD217-58*%
X72124943Y5427199D03*
%TD*%
D37*
%TO.C,PAD212-29*%
X162795910Y-23797294D03*
%TD*%
%TO.C,PAD124-11*%
X37186908Y45388705D03*
%TD*%
D112*
%TO.C,PAD41-89*%
X209166665Y42413181D03*
%TD*%
D63*
%TO.C,PAD228-73*%
X-13105703Y-57786037D03*
%TD*%
D85*
%TO.C,PAD234-40*%
X255888222Y-29770662D03*
%TD*%
D113*
%TO.C,PAD60-2*%
X-18446732Y38414321D03*
%TD*%
D114*
%TO.C,PAD6-62*%
X135450935Y-30522067D03*
%TD*%
D60*
%TO.C,PAD131-44*%
X276846540Y9235957D03*
%TD*%
D115*
%TO.C,PAD51-38*%
X225077732Y-56739320D03*
%TD*%
%TO.C,PAD60-5*%
X-18293268Y36219679D03*
%TD*%
D51*
%TO.C,PAD24-16*%
X200000000Y-47587000D03*
%TD*%
D74*
%TO.C,PAD213-44*%
X278525098Y131067D03*
%TD*%
D116*
%TO.C,PAD245-91*%
X196971880Y40724061D03*
%TD*%
D117*
%TO.C,PAD56-46*%
X-56742297Y52641038D03*
%TD*%
D42*
%TO.C,PAD57-18*%
X207930327Y-21429792D03*
%TD*%
D118*
%TO.C,PAD68-80*%
X160595511Y16965198D03*
%TD*%
D63*
%TO.C,PAD100-88*%
X212648297Y59937963D03*
%TD*%
D119*
%TO.C,PAD115-55*%
X225920581Y22184242D03*
%TD*%
D120*
%TO.C,PAD108-42*%
X-47156804Y-39458555D03*
%TD*%
D105*
%TO.C,PAD265-60*%
X56763876Y-14862726D03*
%TD*%
D121*
%TO.C,PAD251-63*%
X34129289Y-28028987D03*
%TD*%
D49*
%TO.C,PAD142-69*%
X24140934Y-74722351D03*
%TD*%
D64*
%TO.C,PAD213-43*%
X-71709507Y-31984431D03*
%TD*%
D53*
%TO.C,PAD5-16*%
X204129436Y-60297081D03*
%TD*%
D122*
%TO.C,PAD136-10*%
X9666941Y42906113D03*
%TD*%
D62*
%TO.C,PAD208-64*%
X48974997Y-51957501D03*
%TD*%
D38*
%TO.C,PAD205-20*%
X215281162Y-42172919D03*
%TD*%
D56*
%TO.C,PAD19-52*%
X232101000Y53409000D03*
%TD*%
D27*
%TO.C,PAD143-11*%
X42854059Y31983112D03*
%TD*%
D123*
%TO.C,PAD229-45*%
X-72124943Y5427199D03*
%TD*%
D124*
%TO.C,PAD4-30*%
X172796181Y-19602665D03*
%TD*%
D125*
%TO.C,PAD206-75*%
X-17014541Y-75505956D03*
%TD*%
D126*
%TO.C,PAD66-31*%
X178093110Y-36886790D03*
%TD*%
D14*
%TO.C,PAD132-36*%
X-16696564Y-22980919D03*
%TD*%
D127*
%TO.C,PAD101-63*%
X48458087Y-34409147D03*
%TD*%
D51*
%TO.C,PAD202-9*%
X0Y7026000D03*
%TD*%
D78*
%TO.C,PAD203-48*%
X253468777Y685662D03*
%TD*%
D23*
%TO.C,PAD258-51*%
X238782838Y46354081D03*
%TD*%
D122*
%TO.C,PAD165-17*%
X192156941Y-41675887D03*
%TD*%
D128*
%TO.C,PAD171-91*%
X210486186Y31849872D03*
%TD*%
D129*
%TO.C,PAD7-85*%
X39214140Y68025748D03*
%TD*%
D53*
%TO.C,PAD176-26*%
X152189436Y-22560081D03*
%TD*%
D105*
%TO.C,PAD175-15*%
X22831876Y-919726D03*
%TD*%
D130*
%TO.C,PAD2-68*%
X39667199Y-9704056D03*
%TD*%
D81*
%TO.C,PAD25-57*%
X206180419Y21998758D03*
%TD*%
D29*
%TO.C,PAD257-10*%
X9097902Y51563932D03*
%TD*%
D50*
%TO.C,PAD48-27*%
X156834162Y-14025081D03*
%TD*%
D53*
%TO.C,PAD42-79*%
X183303436Y22980919D03*
%TD*%
D131*
%TO.C,PAD55-83*%
X127737066Y25768351D03*
%TD*%
D11*
%TO.C,PAD108-35*%
X-46297196Y-37433445D03*
%TD*%
D86*
%TO.C,PAD50-86*%
X14956554Y59640807D03*
%TD*%
D82*
%TO.C,PAD222-62*%
X144111778Y-29770662D03*
%TD*%
D132*
%TO.C,PAD177-35*%
X-37504542Y-21823884D03*
%TD*%
D108*
%TO.C,PAD111-24*%
X237212799Y-20337612D03*
%TD*%
D133*
%TO.C,PAD267-17*%
X192069673Y-33183208D03*
%TD*%
D105*
%TO.C,PAD197-70*%
X162609876Y-58799726D03*
%TD*%
D134*
%TO.C,PAD191-38*%
X232429462Y-60958103D03*
%TD*%
D135*
%TO.C,PAD146-41*%
X-29059056Y-71196199D03*
%TD*%
D23*
%TO.C,PAD233-81*%
X174580838Y46354081D03*
%TD*%
D136*
%TO.C,PAD96-42*%
X-42047790Y-46472890D03*
%TD*%
D137*
%TO.C,PAD176-29*%
X154790459Y-27142044D03*
%TD*%
D138*
%TO.C,PAD144-24*%
X242060188Y-5419228D03*
%TD*%
D139*
%TO.C,PAD28-88*%
X219257481Y66232701D03*
%TD*%
D119*
%TO.C,PAD25-91*%
X205147581Y23941242D03*
%TD*%
D14*
%TO.C,PAD207-12*%
X56069436Y22560081D03*
%TD*%
D125*
%TO.C,PAD122-44*%
X264128460Y-2015957D03*
%TD*%
D131*
%TO.C,PAD127-80*%
X147776066Y29477351D03*
%TD*%
D53*
%TO.C,PAD239-81*%
X172028436Y38498919D03*
%TD*%
D140*
%TO.C,PAD175-68*%
X24601996Y-3833500D03*
%TD*%
D141*
%TO.C,PAD5-38*%
X217899628Y-61613000D03*
%TD*%
D142*
%TO.C,PAD118-88*%
X208259701Y78083481D03*
%TD*%
D26*
%TO.C,PAD144-48*%
X244831565Y1500918D03*
%TD*%
D104*
%TO.C,PAD164-47*%
X266552590Y39515100D03*
%TD*%
D136*
%TO.C,PAD208-69*%
X27450210Y-66917890D03*
%TD*%
D54*
%TO.C,PAD139-4*%
X-42060188Y5419228D03*
%TD*%
D57*
%TO.C,PAD219-27*%
X157939812Y-5419228D03*
%TD*%
D143*
%TO.C,PAD156-1*%
X-37186908Y45388705D03*
%TD*%
D116*
%TO.C,PAD262-72*%
X3957880Y-42717939D03*
%TD*%
D80*
%TO.C,PAD46-82*%
X132400974Y37697982D03*
%TD*%
D18*
%TO.C,PAD1-18*%
X192156941Y-12937113D03*
%TD*%
D144*
%TO.C,PAD115-56*%
X227049805Y19815444D03*
%TD*%
D122*
%TO.C,PAD9-8*%
X-7843059Y12937113D03*
%TD*%
D54*
%TO.C,PAD268-20*%
X217174812Y-50640772D03*
%TD*%
D143*
%TO.C,PAD193-24*%
X234009091Y-2711295D03*
%TD*%
D10*
%TO.C,PAD218-50*%
X233040330Y29029611D03*
%TD*%
D85*
%TO.C,PAD118-86*%
X9272222Y76628339D03*
%TD*%
D131*
%TO.C,PAD3-63*%
X37503066Y-20234649D03*
%TD*%
D27*
%TO.C,PAD89-54*%
X-28201941Y53380112D03*
%TD*%
D137*
%TO.C,PAD29-58*%
X64128460Y2015957D03*
%TD*%
D10*
%TO.C,PAD151-72*%
X-1100670Y-50491390D03*
%TD*%
D145*
%TO.C,PAD156-54*%
X-36624802Y48897832D03*
%TD*%
D146*
%TO.C,PAD107-41*%
X-21795071Y-65455875D03*
%TD*%
D48*
%TO.C,PAD13-67*%
X6180419Y-21998758D03*
%TD*%
D39*
%TO.C,PAD137-40*%
X249834326Y-35986114D03*
%TD*%
D147*
%TO.C,PAD227-33*%
X-24601996Y-3833500D03*
%TD*%
D148*
%TO.C,PAD43-40*%
X267581026Y-38438018D03*
%TD*%
D149*
%TO.C,PAD11-29*%
X167409541Y-38503956D03*
%TD*%
D105*
%TO.C,PAD219-78*%
X155913876Y-2615726D03*
%TD*%
D106*
%TO.C,PAD7-82*%
X136394911Y46049147D03*
%TD*%
D14*
%TO.C,PAD139-32*%
X-44831565Y-1500918D03*
%TD*%
D56*
%TO.C,PAD190-6*%
X0Y28407000D03*
%TD*%
D150*
%TO.C,PAD41-91*%
X206489089Y40055147D03*
%TD*%
D101*
%TO.C,PAD215-61*%
X55349790Y-25522110D03*
%TD*%
D151*
%TO.C,PAD242-49*%
X246828201Y40721388D03*
%TD*%
D66*
%TO.C,PAD125-13*%
X9907673Y22394208D03*
%TD*%
D78*
%TO.C,PAD84-89*%
X217398778Y40393662D03*
%TD*%
D99*
%TO.C,PAD73-62*%
X138183222Y-45682338D03*
%TD*%
D152*
%TO.C,PAD31-64*%
X57440590Y-52395100D03*
%TD*%
D47*
%TO.C,PAD143-12*%
X47810564Y22560081D03*
%TD*%
D131*
%TO.C,PAD134-87*%
X175859066Y74722351D03*
%TD*%
D82*
%TO.C,PAD64-68*%
X34051777Y-2508661D03*
%TD*%
D117*
%TO.C,PAD134-85*%
X30615702Y71087038D03*
%TD*%
D19*
%TO.C,PAD30-65*%
X38782838Y-46354081D03*
%TD*%
D123*
%TO.C,PAD170-41*%
X-31204944Y-54350801D03*
%TD*%
D104*
%TO.C,PAD102-63*%
X46690590Y-19096900D03*
%TD*%
D153*
%TO.C,PAD65-50*%
X237504542Y21823884D03*
%TD*%
D106*
%TO.C,PAD101-64*%
X49623913Y-36274853D03*
%TD*%
D38*
%TO.C,PAD103-25*%
X245258162Y-14704919D03*
%TD*%
D82*
%TO.C,PAD52-60*%
X53468777Y-685662D03*
%TD*%
D50*
%TO.C,PAD258-49*%
X240875162Y47033919D03*
%TD*%
D14*
%TO.C,PAD181-0*%
X-47810564Y22560081D03*
%TD*%
D75*
%TO.C,PAD137-23*%
X247699674Y-35453886D03*
%TD*%
D56*
%TO.C,PAD37-11*%
X35387000Y27565000D03*
%TD*%
D26*
%TO.C,PAD104-81*%
X163769564Y38498919D03*
%TD*%
D104*
%TO.C,PAD166-87*%
X185036590Y75940100D03*
%TD*%
D154*
%TO.C,PAD66-30*%
X178512890Y-34727210D03*
%TD*%
D16*
%TO.C,PAD63-48*%
X256763876Y14862726D03*
%TD*%
D34*
%TO.C,PAD198-54*%
X-27888082Y62502710D03*
%TD*%
D51*
%TO.C,PAD130-26*%
X148060000Y-9851000D03*
%TD*%
D56*
%TO.C,PAD24-17*%
X200000000Y-45387000D03*
%TD*%
D23*
%TO.C,PAD168-27*%
X172983838Y-8777919D03*
%TD*%
D90*
%TO.C,PAD141-77*%
X159900325Y6206114D03*
%TD*%
D151*
%TO.C,PAD106-15*%
X14727201Y-3460612D03*
%TD*%
D107*
%TO.C,PAD159-53*%
X-9080935Y70821391D03*
%TD*%
D98*
%TO.C,PAD117-90*%
X196594581Y58577758D03*
%TD*%
D29*
%TO.C,PAD133-45*%
X-78525098Y-131067D03*
%TD*%
D111*
%TO.C,PAD130-78*%
X147470703Y-4615038D03*
%TD*%
D155*
%TO.C,PAD65-56*%
X236088934Y18549351D03*
%TD*%
D125*
%TO.C,PAD74-85*%
X24998459Y55925044D03*
%TD*%
D75*
%TO.C,PAD151-73*%
X-6503325Y-51296886D03*
%TD*%
D45*
%TO.C,PAD262-74*%
X3028120Y-40724061D03*
%TD*%
D49*
%TO.C,PAD127-82*%
X146361934Y31162649D03*
%TD*%
D99*
%TO.C,PAD225-66*%
X18151222Y-38326338D03*
%TD*%
D39*
%TO.C,PAD35-73*%
X-22947675Y-47064114D03*
%TD*%
D14*
%TO.C,PAD119-37*%
X-27971564Y-38498919D03*
%TD*%
D20*
%TO.C,PAD186-31*%
X182825188Y-50640772D03*
%TD*%
D122*
%TO.C,PAD76-5*%
X-26074059Y22045112D03*
%TD*%
D25*
%TO.C,PAD263-34*%
X-1259330Y-15076611D03*
%TD*%
D127*
%TO.C,PAD10-72*%
X11896089Y-58777147D03*
%TD*%
D156*
%TO.C,PAD69-31*%
X175075732Y-54544680D03*
%TD*%
D157*
%TO.C,PAD112-52*%
X240031327Y65612792D03*
%TD*%
D145*
%TO.C,PAD179-13*%
X17650198Y17561832D03*
%TD*%
D158*
%TO.C,PAD162-11*%
X44173096Y40558933D03*
%TD*%
D159*
%TO.C,PAD183-73*%
X-21294819Y-55598335D03*
%TD*%
D16*
%TO.C,PAD91-22*%
X222831876Y919726D03*
%TD*%
D101*
%TO.C,PAD93-42*%
X-58731210Y-49637110D03*
%TD*%
D21*
%TO.C,PAD237-79*%
X186911711Y31506987D03*
%TD*%
D53*
%TO.C,PAD244-67*%
X15403436Y-21201081D03*
%TD*%
D47*
%TO.C,PAD54-60*%
X44831565Y-1500918D03*
%TD*%
D106*
%TO.C,PAD21-35*%
X-46777089Y-22035853D03*
%TD*%
D108*
%TO.C,PAD140-23*%
X241446799Y-41201612D03*
%TD*%
D26*
%TO.C,PAD153-55*%
X216696564Y22980919D03*
%TD*%
D39*
%TO.C,PAD164-46*%
X-63450675Y46261885D03*
%TD*%
D23*
%TO.C,PAD157-28*%
X191225838Y-2850919D03*
%TD*%
D107*
%TO.C,PAD59-77*%
X177843065Y11359391D03*
%TD*%
D47*
%TO.C,PAD75-0*%
X-56069436Y22560081D03*
%TD*%
D66*
%TO.C,PAD97-54*%
X-44367327Y53730208D03*
%TD*%
D18*
%TO.C,PAD145-6*%
X-7843059Y41675887D03*
%TD*%
D158*
%TO.C,PAD185-58*%
X78525098Y-131067D03*
%TD*%
D125*
%TO.C,PAD210-23*%
X232590459Y-38503956D03*
%TD*%
D90*
%TO.C,PAD31-70*%
X146870325Y-55095886D03*
%TD*%
D160*
%TO.C,PAD135-87*%
X178265410Y60366900D03*
%TD*%
D161*
%TO.C,PAD191-39*%
X237390124Y-58799726D03*
%TD*%
D162*
%TO.C,PAD126-75*%
X-3494817Y-62632818D03*
%TD*%
D149*
%TO.C,PAD15-58*%
X76846540Y-9235957D03*
%TD*%
D46*
%TO.C,PAD88-32*%
X-41850801Y-9435944D03*
%TD*%
D15*
%TO.C,PAD12-82*%
X149304026Y39325018D03*
%TD*%
D22*
%TO.C,PAD174-18*%
X207843059Y-12937113D03*
%TD*%
D163*
%TO.C,PAD197-71*%
X167570538Y-60958103D03*
%TD*%
D51*
%TO.C,PAD19-51*%
X232101000Y51209000D03*
%TD*%
D156*
%TO.C,PAD128-53*%
X-18825268Y58515321D03*
%TD*%
%TO.C,PAD206-38*%
X224390732Y-74640679D03*
%TD*%
D19*
%TO.C,PAD257-3*%
X6681838Y52441919D03*
%TD*%
D10*
%TO.C,PAD33-36*%
X-30841670Y-29106389D03*
%TD*%
D43*
%TO.C,PAD254-76*%
X198740670Y15076611D03*
%TD*%
D164*
%TO.C,PAD6-59*%
X129838802Y-13248168D03*
%TD*%
D38*
%TO.C,PAD221-4*%
X-43165838Y14025081D03*
%TD*%
D14*
%TO.C,PAD189-55*%
X226678436Y36719081D03*
%TD*%
D133*
%TO.C,PAD105-8*%
X-7930327Y21429792D03*
%TD*%
D27*
%TO.C,PAD226-52*%
X239943059Y57120113D03*
%TD*%
D60*
%TO.C,PAD255-45*%
X-64128460Y2015957D03*
%TD*%
D85*
%TO.C,PAD248-48*%
X247679223Y16649338D03*
%TD*%
D75*
%TO.C,PAD92-45*%
X-61711325Y-6316886D03*
%TD*%
D165*
%TO.C,PAD57-21*%
X211248071Y-22214125D03*
%TD*%
D43*
%TO.C,PAD215-63*%
X51992670Y-26686390D03*
%TD*%
D121*
%TO.C,PAD78-66*%
X13088289Y-31506987D03*
%TD*%
D166*
%TO.C,PAD47-22*%
X217930909Y-14164705D03*
%TD*%
D33*
%TO.C,PAD67-45*%
X-67995701Y-12005481D03*
%TD*%
D106*
%TO.C,PAD199-50*%
X237668911Y36368147D03*
%TD*%
D157*
%TO.C,PAD216-17*%
X207930327Y-33183208D03*
%TD*%
D167*
%TO.C,PAD36-73*%
X-9166665Y-42413181D03*
%TD*%
D85*
%TO.C,PAD62-33*%
X-34051777Y-2508661D03*
%TD*%
D32*
%TO.C,PAD196-77*%
X170976799Y17985612D03*
%TD*%
D29*
%TO.C,PAD80-23*%
X230833902Y-29415067D03*
%TD*%
D103*
%TO.C,PAD241-79*%
X169158330Y29106389D03*
%TD*%
D51*
%TO.C,PAD169-18*%
X200000000Y-9226000D03*
%TD*%
D168*
%TO.C,PAD86-85*%
X23349938Y64902795D03*
%TD*%
D42*
%TO.C,PAD145-2*%
X-11135673Y42737208D03*
%TD*%
D30*
%TO.C,PAD238-56*%
X221179289Y12293987D03*
%TD*%
D10*
%TO.C,PAD30-64*%
X45583330Y-43953389D03*
%TD*%
D169*
%TO.C,PAD149-40*%
X264549065Y-30522067D03*
%TD*%
D31*
%TO.C,PAD173-62*%
X147296801Y-43962512D03*
%TD*%
D21*
%TO.C,PAD14-67*%
X19012711Y-12676013D03*
%TD*%
D48*
%TO.C,PAD126-72*%
X3405419Y-58577758D03*
%TD*%
D98*
%TO.C,PAD172-76*%
X193819581Y21998758D03*
%TD*%
D42*
%TO.C,PAD83-20*%
X231676327Y-49392792D03*
%TD*%
D127*
%TO.C,PAD248-50*%
X246777089Y22035853D03*
%TD*%
D122*
%TO.C,PAD181-1*%
X-42854059Y31983112D03*
%TD*%
D127*
%TO.C,PAD120-87*%
X186938089Y60642853D03*
%TD*%
D65*
%TO.C,PAD231-78*%
X140570901Y645067D03*
%TD*%
D170*
%TO.C,PAD185-83*%
X124910807Y17089446D03*
%TD*%
D26*
%TO.C,PAD252-16*%
X195870564Y-60297081D03*
%TD*%
D47*
%TO.C,PAD260-3*%
X-4129436Y60297081D03*
%TD*%
D105*
%TO.C,PAD58-49*%
X254932876Y43263274D03*
%TD*%
D171*
%TO.C,PAD159-86*%
X3533457Y70389924D03*
%TD*%
D120*
%TO.C,PAD242-50*%
X246297196Y37433445D03*
%TD*%
D56*
%TO.C,PAD170-37*%
X-32101000Y-51209000D03*
%TD*%
D164*
%TO.C,PAD129-5*%
X-17650198Y17561832D03*
%TD*%
D172*
%TO.C,PAD180-84*%
X47953860Y49679748D03*
%TD*%
D19*
%TO.C,PAD40-4*%
X-27016162Y8777919D03*
%TD*%
D83*
%TO.C,PAD183-41*%
X-22955181Y-57041665D03*
%TD*%
D173*
%TO.C,PAD22-61*%
X70793336Y-30310819D03*
%TD*%
D31*
%TO.C,PAD217-84*%
X61540802Y38002489D03*
%TD*%
D174*
%TO.C,PAD69-71*%
X174922268Y-56739320D03*
%TD*%
D54*
%TO.C,PAD216-21*%
X212908812Y-31609773D03*
%TD*%
D23*
%TO.C,PAD38-9*%
X6681838Y2171081D03*
%TD*%
D22*
%TO.C,PAD200-1*%
X-28787941Y41494888D03*
%TD*%
D93*
%TO.C,PAD18-38*%
X217125938Y-70272120D03*
%TD*%
D56*
%TO.C,PAD169-19*%
X200000000Y-7026000D03*
%TD*%
D175*
%TO.C,PAD192-20*%
X221906890Y-36886790D03*
%TD*%
D36*
%TO.C,PAD204-82*%
X144839709Y46784919D03*
%TD*%
D160*
%TO.C,PAD70-69*%
X14963410Y-75940100D03*
%TD*%
D158*
%TO.C,PAD158-29*%
X169166098Y-29415067D03*
%TD*%
D41*
%TO.C,PAD116-36*%
X-13088289Y-31506987D03*
%TD*%
D133*
%TO.C,PAD28-52*%
X224170673Y65612792D03*
%TD*%
D47*
%TO.C,PAD42-76*%
X184596564Y21201081D03*
%TD*%
D65*
%TO.C,PAD162-84*%
X46212904Y41383067D03*
%TD*%
D127*
%TO.C,PAD250-35*%
X-37668911Y-36368147D03*
%TD*%
D176*
%TO.C,PAD138-54*%
X-44038116Y63266458D03*
%TD*%
D140*
%TO.C,PAD154-42*%
X-55517003Y-40955499D03*
%TD*%
D40*
%TO.C,PAD70-71*%
X167469628Y-70232000D03*
%TD*%
D151*
%TO.C,PAD266-61*%
X61461201Y-32301612D03*
%TD*%
D74*
%TO.C,PAD80-21*%
X228794098Y-28590933D03*
%TD*%
D47*
%TO.C,PAD123-65*%
X27971564Y-38498919D03*
%TD*%
D23*
%TO.C,PAD155-15*%
X24923838Y8098081D03*
%TD*%
D75*
%TO.C,PAD187-48*%
X259576675Y6849114D03*
%TD*%
D19*
%TO.C,PAD259-19*%
X206681838Y-2171081D03*
%TD*%
D161*
%TO.C,PAD227-7*%
X-22831876Y-919726D03*
%TD*%
D119*
%TO.C,PAD167-34*%
X-6180419Y-21998758D03*
%TD*%
D121*
%TO.C,PAD121-80*%
X145341289Y21340013D03*
%TD*%
D177*
%TO.C,PAD188-5*%
X-26386918Y31166710D03*
%TD*%
D121*
%TO.C,PAD59-76*%
X180987289Y12676013D03*
%TD*%
D73*
%TO.C,PAD211-4*%
X-37212799Y20337612D03*
%TD*%
D178*
%TO.C,PAD147-77*%
X166468446Y-131193D03*
%TD*%
D179*
%TO.C,PAD224-5*%
X-10236884Y31930458D03*
%TD*%
D26*
%TO.C,PAD163-25*%
X247810564Y-22560081D03*
%TD*%
D66*
%TO.C,PAD269-18*%
X192069673Y-21429792D03*
%TD*%
D50*
%TO.C,PAD155-14*%
X27016162Y8777919D03*
%TD*%
D122*
%TO.C,PAD236-52*%
X224257941Y57120113D03*
%TD*%
D166*
%TO.C,PAD62-4*%
X-34009091Y2711295D03*
%TD*%
D84*
%TO.C,PAD44-87*%
X190405507Y68377431D03*
%TD*%
D56*
%TO.C,PAD182-3*%
X0Y47587000D03*
%TD*%
D99*
%TO.C,PAD256-83*%
X131290222Y9993662D03*
%TD*%
%TO.C,PAD150-76*%
X186051222Y5856662D03*
%TD*%
D78*
%TO.C,PAD94-36*%
X-18151222Y-38326338D03*
%TD*%
D27*
%TO.C,PAD205-17*%
X207843059Y-41675887D03*
%TD*%
D122*
%TO.C,PAD178-41*%
X-37540059Y-67443888D03*
%TD*%
D52*
%TO.C,PAD184-14*%
X29108124Y17796726D03*
%TD*%
D78*
%TO.C,PAD21-32*%
X-47679223Y-16649338D03*
%TD*%
D14*
%TO.C,PAD85-65*%
X36230436Y-38498919D03*
%TD*%
D151*
%TO.C,PAD243-80*%
X151640201Y14556387D03*
%TD*%
D25*
%TO.C,PAD53-90*%
X201100670Y50491390D03*
%TD*%
D113*
%TO.C,PAD8-71*%
X175609268Y-74640679D03*
%TD*%
D26*
%TO.C,PAD132-34*%
X-15403436Y-21201081D03*
%TD*%
D143*
%TO.C,PAD111-23*%
X237204090Y-23797294D03*
%TD*%
D38*
%TO.C,PAD259-22*%
X208774162Y-2850919D03*
%TD*%
D19*
%TO.C,PAD180-85*%
X40937838Y58640919D03*
%TD*%
D37*
%TO.C,PAD138-49*%
X250030909Y58347705D03*
%TD*%
D85*
%TO.C,PAD246-32*%
X-53468777Y-685662D03*
%TD*%
D71*
%TO.C,PAD46-84*%
X56742297Y52641038D03*
%TD*%
D180*
%TO.C,PAD235-43*%
X-58487390Y-22678107D03*
%TD*%
D181*
%TO.C,PAD173-70*%
X149174489Y-45837198D03*
%TD*%
D117*
%TO.C,PAD228-75*%
X-12648297Y-59937963D03*
%TD*%
D79*
%TO.C,PAD223-48*%
X241850801Y9435944D03*
%TD*%
D143*
%TO.C,PAD129-7*%
X-17930909Y14164705D03*
%TD*%
D25*
%TO.C,PAD218-55*%
X230841670Y29106389D03*
%TD*%
D125*
%TO.C,PAD131-45*%
X-76846540Y-9235957D03*
%TD*%
D85*
%TO.C,PAD61-34*%
X-13948778Y-5856662D03*
%TD*%
D53*
%TO.C,PAD234-25*%
X256069436Y-22560081D03*
%TD*%
D57*
%TO.C,PAD72-53*%
X-24344188Y72907772D03*
%TD*%
D151*
%TO.C,PAD212-27*%
X162787201Y-20337612D03*
%TD*%
D38*
%TO.C,PAD20-24*%
X227016162Y-8777919D03*
%TD*%
D47*
%TO.C,PAD244-66*%
X16696564Y-22980919D03*
%TD*%
D78*
%TO.C,PAD193-56*%
X234051777Y2508661D03*
%TD*%
D23*
%TO.C,PAD268-16*%
X206681838Y-52441919D03*
%TD*%
D80*
%TO.C,PAD113-35*%
X-50908026Y-30321018D03*
%TD*%
D81*
%TO.C,PAD194-36*%
X-25920581Y-22184242D03*
%TD*%
D106*
%TO.C,PAD120-90*%
X188103911Y58777147D03*
%TD*%
D157*
%TO.C,PAD125-8*%
X7930327Y21429792D03*
%TD*%
D25*
%TO.C,PAD201-72*%
X15870670Y-51064610D03*
%TD*%
D82*
%TO.C,PAD220-79*%
X181848778Y38326338D03*
%TD*%
D73*
%TO.C,PAD209-22*%
X214727201Y3460612D03*
%TD*%
D182*
%TO.C,PAD117-88*%
X203494817Y62632818D03*
%TD*%
D38*
%TO.C,PAD214-51*%
X225419162Y46354081D03*
%TD*%
D19*
%TO.C,PAD109-75*%
X-1349162Y-71504081D03*
%TD*%
D51*
%TO.C,PAD190-8*%
X0Y26207000D03*
%TD*%
D135*
%TO.C,PAD149-44*%
X272124943Y-5427199D03*
%TD*%
D14*
%TO.C,PAD264-3*%
X4129436Y60297081D03*
%TD*%
D151*
%TO.C,PAD240-42*%
X-52541799Y-56543612D03*
%TD*%
D32*
%TO.C,PAD104-80*%
X156339799Y30873613D03*
%TD*%
D80*
%TO.C,PAD230-47*%
X253095974Y30550982D03*
%TD*%
D26*
%TO.C,PAD220-90*%
X187573563Y43100919D03*
%TD*%
D10*
%TO.C,PAD254-57*%
X201259330Y15076611D03*
%TD*%
D18*
%TO.C,PAD90-11*%
X28787941Y41494888D03*
%TD*%
D174*
%TO.C,PAD16-13*%
X18293268Y36219679D03*
%TD*%
D178*
%TO.C,PAD142-70*%
X153438446Y-61433193D03*
%TD*%
D23*
%TO.C,PAD48-26*%
X154741838Y-14704919D03*
%TD*%
D50*
%TO.C,PAD96-37*%
X-38782838Y-46354081D03*
%TD*%
D56*
%TO.C,PAD195-65*%
X32101000Y-51209000D03*
%TD*%
D37*
%TO.C,PAD161-30*%
X181762909Y-16343295D03*
%TD*%
D85*
%TO.C,PAD84-55*%
X218151222Y38326338D03*
%TD*%
D56*
%TO.C,PAD45-18*%
X200000000Y-26207000D03*
%TD*%
D174*
%TO.C,PAD112-54*%
X-35981732Y67555679D03*
%TD*%
D117*
%TO.C,PAD100-89*%
X213105703Y57786037D03*
%TD*%
D51*
%TO.C,PAD72-52*%
X232101000Y70389000D03*
%TD*%
D158*
%TO.C,PAD231-59*%
X138531099Y-179067D03*
%TD*%
D32*
%TO.C,PAD26-70*%
X157946799Y-43316388D03*
%TD*%
D37*
%TO.C,PAD179-15*%
X17930909Y14164705D03*
%TD*%
D160*
%TO.C,PAD43-43*%
X-66552590Y-39515100D03*
%TD*%
D50*
%TO.C,PAD157-19*%
X193318162Y-2171081D03*
%TD*%
D113*
%TO.C,PAD51-20*%
X224924268Y-54544680D03*
%TD*%
D30*
%TO.C,PAD171-55*%
X213088289Y31506987D03*
%TD*%
D57*
%TO.C,PAD11-31*%
X169431812Y-40201228D03*
%TD*%
D23*
%TO.C,PAD241-80*%
X162848838Y25137082D03*
%TD*%
D53*
%TO.C,PAD95-76*%
X194577436Y7463919D03*
%TD*%
D15*
%TO.C,PAD113-43*%
X-53095974Y-30550982D03*
%TD*%
D26*
%TO.C,PAD160-57*%
X205422564Y7463919D03*
%TD*%
%TO.C,PAD222-26*%
X143930564Y-22560081D03*
%TD*%
D105*
%TO.C,PAD4-27*%
X170891876Y-17796726D03*
%TD*%
D14*
%TO.C,PAD225-72*%
X12426437Y-43100919D03*
%TD*%
D25*
%TO.C,PAD73-64*%
X62549670Y-44674611D03*
%TD*%
D138*
%TO.C,PAD210-20*%
X230568188Y-40201228D03*
%TD*%
D14*
%TO.C,PAD99-34*%
X-5422564Y-7463919D03*
%TD*%
D57*
%TO.C,PAD77-78*%
X142250812Y8970773D03*
%TD*%
D60*
%TO.C,PAD261-88*%
X217014541Y75505956D03*
%TD*%
D183*
%TO.C,PAD114-82*%
X137933205Y30254940D03*
%TD*%
D25*
%TO.C,PAD33-35*%
X-33040330Y-29029611D03*
%TD*%
D19*
%TO.C,PAD20-22*%
X224923838Y-8098081D03*
%TD*%
D75*
%TO.C,PAD240-39*%
X253129675Y-55095886D03*
%TD*%
D142*
%TO.C,PAD152-44*%
X267995701Y12005481D03*
%TD*%
D176*
%TO.C,PAD148-13*%
X10236884Y31930458D03*
%TD*%
D51*
%TO.C,PAD182-6*%
X0Y45387000D03*
%TD*%
D169*
%TO.C,PAD13-74*%
X3957066Y-24583067D03*
%TD*%
D38*
%TO.C,PAD98-26*%
X141378162Y-14704919D03*
%TD*%
D161*
%TO.C,PAD235-32*%
X-56763876Y-14862726D03*
%TD*%
%TO.C,PAD71-24*%
X229108124Y-17796726D03*
%TD*%
D24*
%TO.C,PAD55-84*%
X63450675Y46261885D03*
%TD*%
%TO.C,PAD39-62*%
X150165674Y-35986114D03*
%TD*%
D184*
%TO.C,PAD116-74*%
X-10486186Y-31849872D03*
%TD*%
D138*
%TO.C,PAD9-7*%
X-9880812Y11456772D03*
%TD*%
D129*
%TO.C,PAD97-46*%
X-47953860Y49679748D03*
%TD*%
D60*
%TO.C,PAD74-10*%
X23363541Y54452956D03*
%TD*%
D57*
%TO.C,PAD110-15*%
X9880812Y11456772D03*
%TD*%
D160*
%TO.C,PAD85-63*%
X39784410Y-34610100D03*
%TD*%
D121*
%TO.C,PAD14-68*%
X21179289Y-12293987D03*
%TD*%
D95*
%TO.C,PAD252-71*%
X182100372Y-61613000D03*
%TD*%
D174*
%TO.C,PAD128-2*%
X-18978732Y56320679D03*
%TD*%
D47*
%TO.C,PAD87-67*%
X5422564Y-7463919D03*
%TD*%
D185*
%TO.C,PAD188-1*%
X-28311082Y32233290D03*
%TD*%
D143*
%TO.C,PAD47-21*%
X218237091Y-16343295D03*
%TD*%
D51*
%TO.C,PAD203-25*%
X251940000Y-9851000D03*
%TD*%
D151*
%TO.C,PAD26-29*%
X158553201Y-41201612D03*
%TD*%
D181*
%TO.C,PAD68-77*%
X162204489Y15464802D03*
%TD*%
D24*
%TO.C,PAD17-60*%
X59576675Y-6849114D03*
%TD*%
D19*
%TO.C,PAD35-37*%
X-25419162Y-46354081D03*
%TD*%
M02*
