%TF.GenerationSoftware,KiCad,Pcbnew,8.0.5*%
%TF.CreationDate,2024-10-26T12:13:46-04:00*%
%TF.ProjectId,orb_generated,6f72625f-6765-46e6-9572-617465642e6b,rev?*%
%TF.SameCoordinates,Original*%
%TF.FileFunction,Profile,NP*%
%FSLAX46Y46*%
G04 Gerber Fmt 4.6, Leading zero omitted, Abs format (unit mm)*
G04 Created by KiCad (PCBNEW 8.0.5) date 2024-10-26 12:13:46*
%MOMM*%
%LPD*%
G01*
G04 APERTURE LIST*
%TA.AperFunction,Profile*%
%ADD10C,0.050000*%
%TD*%
G04 APERTURE END LIST*
D10*
X224436000Y-14885000D02*
X231558000Y-22944000D01*
X42941000Y20321000D02*
X51445000Y26499000D01*
X238441000Y52790000D02*
X243866000Y59782000D01*
X-73922000Y-14118000D02*
G75*
G02*
X-72917000Y-14419000I392760J-516908D01*
G01*
X-26845000Y-52259000D02*
X-37356000Y-52259000D01*
X72917000Y-14419000D02*
G75*
G02*
X73922030Y-14117960I612300J-216000D01*
G01*
X42941000Y20321000D02*
G75*
G02*
X41751049Y20112990I-553600J-340700D01*
G01*
X188035000Y-16772000D02*
X191454000Y-26971000D01*
X142804000Y-8801000D02*
G75*
G02*
X142004018Y-9381926I-646500J49000D01*
G01*
X-26845000Y-52259000D02*
G75*
G02*
X-26044000Y-51677000I648198J-49904D01*
G01*
X24541000Y14784000D02*
X32217000Y22320000D01*
X67864000Y7037000D02*
G75*
G02*
X66835023Y6652030I-636000J132300D01*
G01*
X158595000Y41680000D02*
X161843000Y51677000D01*
X219724000Y5443000D02*
X227399000Y-2092000D01*
X218070000Y-74714000D02*
X214278000Y-66717000D01*
X226516000Y71439000D02*
X237685000Y71439000D01*
X199505000Y-64236000D02*
G75*
G02*
X200495000Y-64236000I495000J-420489D01*
G01*
X231183000Y23743000D02*
G75*
G02*
X232360958Y23705021I597800J254600D01*
G01*
X191265000Y-28045000D02*
G75*
G02*
X191453981Y-26970956I441300J476000D01*
G01*
X51506000Y54872000D02*
G75*
G02*
X50516007Y54525010I-621700J188000D01*
G01*
X151937000Y-41053000D02*
X144088000Y-48408000D01*
X168249000Y24647000D02*
X167970000Y33493000D01*
X-72561000Y-25684000D02*
G75*
G02*
X-73032000Y-26668000I-554241J-339432D01*
G01*
X27664000Y-62368000D02*
X29297000Y-71066000D01*
X31751000Y-24647000D02*
G75*
G02*
X31182983Y-23742993I28400J648300D01*
G01*
X178044000Y40812000D02*
G75*
G02*
X177204030Y41679928I-592300J267200D01*
G01*
X6340000Y8607000D02*
G75*
G02*
X6226999Y8689999I-438940J-479180D01*
G01*
X179000Y-20602000D02*
X8939000Y-26843000D01*
X228291000Y-207000D02*
X219649000Y6196000D01*
X162470000Y29666000D02*
X165225000Y21256000D01*
X-9402000Y75350000D02*
G75*
G02*
X-10193001Y76068000I-146075J633785D01*
G01*
X-50516000Y54525000D02*
G75*
G02*
X-51506000Y54872000I-368295J534992D01*
G01*
X160817000Y-879000D02*
G75*
G02*
X159826011Y-1276983I-633200J143900D01*
G01*
X227962000Y-35150000D02*
G75*
G02*
X228074007Y-35057006I-356800J543700D01*
G01*
X250788000Y38478000D02*
G75*
G02*
X251824034Y38739039I608400J-228200D01*
G01*
X-40782000Y27042000D02*
X-46668000Y35750000D01*
X51896000Y-55433000D02*
G75*
G02*
X52958025Y-55548986I490800J-426200D01*
G01*
X43606000Y63429000D02*
X40267000Y53205000D01*
X142581000Y27354000D02*
G75*
G02*
X142533000Y27213000I587300J-278600D01*
G01*
X-31265000Y47798000D02*
G75*
G02*
X-30250000Y47206000I647378J-56175D01*
G01*
X-41751000Y20113000D02*
G75*
G02*
X-42940999Y20321000I-636381J-132749D01*
G01*
X31574000Y-22923000D02*
G75*
G02*
X32311997Y-23855988I574300J-304100D01*
G01*
X57980000Y33903000D02*
G75*
G02*
X59038985Y34195983I622200J-188600D01*
G01*
X256297000Y57917000D02*
X259749000Y47294000D01*
X31574000Y-22923000D02*
X21707000Y-18640000D01*
X-38157000Y-51677000D02*
G75*
G02*
X-37356001Y-52259000I152800J-631906D01*
G01*
X-41567000Y-18143000D02*
X-32361000Y-23705000D01*
X169389000Y-75571000D02*
X163730000Y-65942000D01*
X19655000Y-79131000D02*
X9417000Y-74667000D01*
X208546000Y-26971000D02*
X211965000Y-16772000D01*
X61245000Y19379000D02*
G75*
G02*
X60938965Y20321022I246800J600900D01*
G01*
X23396000Y70608000D02*
G75*
G02*
X23123955Y71622037I233300J606100D01*
G01*
X192357000Y62065000D02*
X201817000Y56946000D01*
X57980000Y33903000D02*
X47716000Y36168000D01*
X63165000Y51733000D02*
G75*
G02*
X62413037Y52464995I-107600J641700D01*
G01*
X-47800000Y1941000D02*
X-40628000Y-3244000D01*
X244858000Y60180000D02*
G75*
G02*
X243865981Y59781972I-634600J146400D01*
G01*
X132225000Y30285000D02*
X142533000Y27213000D01*
X6605000Y27839000D02*
X12069000Y37104000D01*
X-65773000Y41298000D02*
X-63165000Y51733000D01*
X40628000Y-3244000D02*
X47800000Y1941000D01*
X190582000Y27824000D02*
X191046000Y38570000D01*
X188800000Y-16010000D02*
X193773000Y-8690000D01*
X32002000Y47139000D02*
X42664000Y45719000D01*
X55308000Y-31009000D02*
X53331000Y-20437000D01*
X188800000Y-16010000D02*
G75*
G02*
X188727975Y-17075958I-405700J-508000D01*
G01*
X239449000Y3403000D02*
G75*
G02*
X240628027Y3243984I624500J179900D01*
G01*
X199821000Y20602000D02*
G75*
G02*
X200350002Y19535965I498700J-416800D01*
G01*
X162644000Y52259000D02*
G75*
G02*
X161842999Y51676994I-648200J49900D01*
G01*
X212045000Y37112000D02*
X211020000Y26405000D01*
X144842000Y14814000D02*
X137028000Y7422000D01*
X250603000Y-30614000D02*
G75*
G02*
X249506995Y-30344995I-624900J-178800D01*
G01*
X193660000Y-8607000D02*
X188234000Y-15599000D01*
X225874000Y52873000D02*
G75*
G02*
X226044018Y51677075I323200J-564100D01*
G01*
X43759000Y46156000D02*
G75*
G02*
X42663987Y45719001I-445900J-473100D01*
G01*
X169702000Y-54704000D02*
G75*
G02*
X169625024Y-55879957I235300J-605900D01*
G01*
X206477000Y-27909000D02*
G75*
G02*
X206477000Y-26704000I-244000J602500D01*
G01*
X26044000Y-51677000D02*
G75*
G02*
X26844994Y-52259000I152800J-631900D01*
G01*
X9815000Y57945000D02*
X2157000Y65144000D01*
X-52049000Y-24137000D02*
X-42617000Y-18154000D01*
X9469000Y-39642000D02*
X16617000Y-44861000D01*
X40628000Y-3244000D02*
G75*
G02*
X39449030Y-3403009I-554500J-338900D01*
G01*
X-19030000Y-60720000D02*
X-22575000Y-70875000D01*
X6605000Y27839000D02*
G75*
G02*
X6476999Y27908997I-373900J-531700D01*
G01*
X12999000Y37598000D02*
X23735000Y36936000D01*
X-53597000Y-19326000D02*
X-61389000Y-11910000D01*
X33878000Y-32567000D02*
G75*
G02*
X34556081Y-33431029I65100J-647000D01*
G01*
X73364000Y-16147000D02*
X75890000Y-26602000D01*
X43759000Y46156000D02*
X50516000Y54525000D01*
X190695000Y-57116000D02*
X193944000Y-47119000D01*
X202795000Y77699000D02*
G75*
G02*
X202004015Y76946063I-640100J-119500D01*
G01*
X191181000Y73804000D02*
G75*
G02*
X190582996Y74667001I16900J650400D01*
G01*
X168442000Y-22944000D02*
G75*
G02*
X167326052Y-23359003I-466900J-452400D01*
G01*
X7643000Y-62065000D02*
X-1817000Y-56946000D01*
X261545000Y-27097000D02*
X268757000Y-32226000D01*
X163754000Y-64893000D02*
X169625000Y-55880000D01*
X7643000Y-62065000D02*
G75*
G02*
X8272001Y-63062006I546400J-352200D01*
G01*
X-47655000Y-59009000D02*
G75*
G02*
X-46621000Y-58739000I610504J-223087D01*
G01*
X154400000Y-8269000D02*
G75*
G02*
X153315056Y-8800996I-436900J-481300D01*
G01*
X-73922000Y-14118000D02*
X-81332000Y-5760000D01*
X-62799000Y-19294000D02*
G75*
G02*
X-63849001Y-19375000I-554249J338648D01*
G01*
X-25272000Y-51901000D02*
G75*
G02*
X-26118000Y-52647000I-209420J-615210D01*
G01*
X27399000Y2092000D02*
X19724000Y-5443000D01*
X57196000Y8801000D02*
G75*
G02*
X57995982Y9381926I646500J-49000D01*
G01*
X144771000Y-49084000D02*
X152043000Y-41158000D01*
X45600000Y8269000D02*
X40174000Y1277000D01*
X202339000Y56036000D02*
X201961000Y44873000D01*
X17098000Y-45848000D02*
X16742000Y-56353000D01*
X62777000Y-51159000D02*
G75*
G02*
X63366000Y-50291000I610900J219300D01*
G01*
X251953000Y36740000D02*
X260982000Y42585000D01*
X-62413000Y52465000D02*
X-51506000Y54872000D01*
X255493000Y-50142000D02*
X252805000Y-60557000D01*
X52810000Y-21277000D02*
G75*
G02*
X52219975Y-20408991I22600J649900D01*
G01*
X23010000Y16462000D02*
G75*
G02*
X23974002Y16974004I647500J-55600D01*
G01*
X152393000Y-6735000D02*
X142112000Y-4550000D01*
X235547000Y-43357000D02*
G75*
G02*
X235797004Y-44504983I396800J-514800D01*
G01*
X-29615000Y67693000D02*
X-24324000Y58329000D01*
X1303000Y-66712000D02*
X-2004000Y-76946000D01*
X159837000Y-308000D02*
G75*
G02*
X160982028Y12996I501700J413100D01*
G01*
X166748000Y-22581000D02*
X158249000Y-20113000D01*
X-35426000Y-72505000D02*
G75*
G02*
X-34471000Y-72941000I317676J-568073D01*
G01*
X-13561000Y56461000D02*
X-8306000Y47358000D01*
X154400000Y-8269000D02*
X159826000Y-1277000D01*
X131946000Y-43896000D02*
X130805000Y-33200000D01*
X252049000Y24137000D02*
G75*
G02*
X253222955Y24191019I574200J304700D01*
G01*
X131897000Y32029000D02*
G75*
G02*
X132533981Y31194006I12400J-651000D01*
G01*
X66331000Y-34831000D02*
X56013000Y-31791000D01*
X23010000Y16462000D02*
X12254000Y16562000D01*
X67864000Y7037000D02*
X76641000Y5903000D01*
X-19724000Y-5443000D02*
G75*
G02*
X-18688000Y-5704000I427241J-490755D01*
G01*
X147195000Y-60557000D02*
G75*
G02*
X147952070Y-61289010I113900J-639700D01*
G01*
X8819000Y-73804000D02*
X8272000Y-63062000D01*
X131243000Y-32226000D02*
X138455000Y-27097000D01*
X257996000Y-9382000D02*
X261245000Y-19379000D01*
X219160000Y59605000D02*
X225016000Y52969000D01*
X252048000Y-61289000D02*
X241548000Y-63623000D01*
X-76641000Y5903000D02*
G75*
G02*
X-77486000Y5249000I-650026J-33025D01*
G01*
X1303000Y-66712000D02*
G75*
G02*
X1056004Y-65688004I247020J601370D01*
G01*
X231183000Y23743000D02*
X221644000Y18772000D01*
X9305000Y57116000D02*
G75*
G02*
X8998937Y58057039I246000J600300D01*
G01*
X9469000Y-39642000D02*
G75*
G02*
X8954000Y-38570005I-493480J422630D01*
G01*
X189855000Y3370000D02*
X181528000Y6369000D01*
X158452000Y-63623000D02*
X147952000Y-61289000D01*
X238578000Y70887000D02*
X243373000Y61259000D01*
X-58769000Y-1492000D02*
G75*
G02*
X-59862000Y-1214000I-626132J-174087D01*
G01*
X21644000Y-18772000D02*
X31183000Y-23743000D01*
X24789000Y37455000D02*
X31045000Y46709000D01*
X171482000Y-2321000D02*
X160982000Y13000D01*
X235547000Y-43357000D02*
X228074000Y-35057000D01*
X-35426000Y-72505000D02*
X-41395000Y-63557000D01*
X-81510000Y-4726000D02*
X-77486000Y5249000D01*
X267410000Y-44724000D02*
G75*
G02*
X268054001Y-43895972I624300J178900D01*
G01*
X144842000Y14814000D02*
G75*
G02*
X145983983Y15091003I505500J408500D01*
G01*
X190695000Y-57116000D02*
G75*
G02*
X191001023Y-58057014I-246100J-600300D01*
G01*
X200070000Y10690000D02*
X200350000Y19536000D01*
X180844000Y7189000D02*
X179064000Y17797000D01*
X-28544000Y2464000D02*
G75*
G02*
X-27399000Y2092000I648178J46933D01*
G01*
X184360000Y-37637000D02*
X187075000Y-46060000D01*
X138755000Y-19379000D02*
X142004000Y-9382000D01*
X218472000Y6369000D02*
X210145000Y3370000D01*
X131279000Y44087000D02*
G75*
G02*
X130816005Y43145973I-574200J-301900D01*
G01*
X32596000Y-34560000D02*
X41099000Y-40739000D01*
X192357000Y62065000D02*
G75*
G02*
X191727999Y63062006I-546400J352200D01*
G01*
X252048000Y-61289000D02*
G75*
G02*
X252804987Y-60557074I643000J92400D01*
G01*
X232568000Y-54766000D02*
X235797000Y-44505000D01*
X184360000Y-37637000D02*
G75*
G02*
X184573007Y-36465989I-151300J632400D01*
G01*
X178044000Y40812000D02*
X186371000Y37814000D01*
X17344000Y-57308000D02*
G75*
G02*
X16741999Y-56352976I-574200J305300D01*
G01*
X242474000Y-22534000D02*
X249507000Y-30345000D01*
X-6227000Y8690000D02*
G75*
G02*
X-6340000Y8607000I325944J-562176D01*
G01*
X175459000Y-14784000D02*
G75*
G02*
X175563997Y-14885004I500300J415000D01*
G01*
X171482000Y-2321000D02*
G75*
G02*
X171456006Y-2464000I622400J-187000D01*
G01*
X190582000Y27824000D02*
G75*
G02*
X191060982Y26843011I-79200J-646100D01*
G01*
X46668000Y35750000D02*
G75*
G02*
X47715931Y36168010I404300J509000D01*
G01*
X-21657000Y-71157000D02*
X-18888000Y-60764000D01*
X125135000Y11622000D02*
X122641000Y22085000D01*
X-40359000Y-52485000D02*
G75*
G02*
X-40035000Y-51435000I494467J422410D01*
G01*
X52570000Y-19541000D02*
G75*
G02*
X53330990Y-20436964I592400J-268000D01*
G01*
X241567000Y18143000D02*
G75*
G02*
X242616972Y18153979I529000J-378400D01*
G01*
X119176000Y-3440000D02*
X125359000Y5861000D01*
X75566000Y-27604000D02*
G75*
G02*
X75890007Y-26602020I524100J383900D01*
G01*
X189855000Y3370000D02*
G75*
G02*
X189811002Y3235999I592000J-268600D01*
G01*
X-6561000Y-58093000D02*
X1056000Y-65688000D01*
X-42914000Y48456000D02*
G75*
G02*
X-42021000Y47898000I244568J-602164D01*
G01*
X29914000Y25941000D02*
X23974000Y16974000D01*
X52435000Y26499000D02*
G75*
G02*
X51445000Y26499000I-495000J420489D01*
G01*
X-70000Y-10690000D02*
G75*
G02*
X70000Y-10690000I70000J646110D01*
G01*
X206227000Y-8690000D02*
X211200000Y-16010000D01*
X44316000Y-49168000D02*
X44753000Y-38666000D01*
X156717000Y12002000D02*
G75*
G02*
X156681998Y11860000I609700J-225600D01*
G01*
X81332000Y-5760000D02*
X73922000Y-14118000D01*
X17098000Y-45848000D02*
G75*
G02*
X16617053Y-44861033I72100J645800D01*
G01*
X158558000Y-22156000D02*
X167326000Y-23359000D01*
X258769000Y1492000D02*
X248888000Y-2093000D01*
X-70000Y-10690000D02*
X-350000Y-19536000D01*
X11200000Y16010000D02*
X6227000Y8690000D01*
X181312000Y5704000D02*
X189811000Y3236000D01*
X206227000Y-8690000D02*
G75*
G02*
X206340007Y-8607008I-325900J562200D01*
G01*
X150493000Y-30345000D02*
G75*
G02*
X149397007Y-30614002I-471100J-447800D01*
G01*
X186884000Y-47142000D02*
G75*
G02*
X187074981Y-46059953I438400J480500D01*
G01*
X246685000Y-8801000D02*
X257196000Y-8801000D01*
X-32616000Y-22776000D02*
X-40913000Y-15931000D01*
X272485000Y37410000D02*
X273032000Y26668000D01*
X202795000Y77699000D02*
X213180000Y80497000D01*
X143059000Y-48615000D02*
G75*
G02*
X144087981Y-48408021I590000J-271900D01*
G01*
X158452000Y-63623000D02*
G75*
G02*
X159500962Y-63323043I621700J-190000D01*
G01*
X169702000Y-54704000D02*
X165058000Y-45002000D01*
X37356000Y-52259000D02*
X26845000Y-52259000D01*
X141067000Y-4976000D02*
X135248000Y-13729000D01*
X33252000Y22581000D02*
X41751000Y20113000D01*
X178356000Y18772000D02*
X168817000Y23743000D01*
X119176000Y-3440000D02*
G75*
G02*
X119142042Y-4489061I-401000J-512100D01*
G01*
X43606000Y63429000D02*
G75*
G02*
X43408991Y64502010I249500J600400D01*
G01*
X52435000Y26499000D02*
X60939000Y20321000D01*
X273922000Y14118000D02*
G75*
G02*
X272916989Y14418996I-392800J516800D01*
G01*
X171926000Y-35057000D02*
X164453000Y-43357000D01*
X276641000Y-5903000D02*
G75*
G02*
X277486021Y-5248933I650100J33000D01*
G01*
X260939000Y-20321000D02*
G75*
G02*
X261244996Y-19378991I552600J341200D01*
G01*
X199821000Y20602000D02*
X191061000Y26843000D01*
X182656000Y57308000D02*
X173021000Y61509000D01*
X244858000Y60180000D02*
X255496000Y58595000D01*
X138755000Y-19379000D02*
G75*
G02*
X139061035Y-20321022I-246800J-600900D01*
G01*
X18688000Y-5704000D02*
G75*
G02*
X19724031Y-5442965I608800J-229800D01*
G01*
X124505000Y-13812000D02*
X119142000Y-4489000D01*
X-47716000Y36168000D02*
G75*
G02*
X-46668000Y35750000I643658J91003D01*
G01*
X27664000Y-62368000D02*
G75*
G02*
X26979055Y-61509019I-70700J646200D01*
G01*
X222796000Y41680000D02*
G75*
G02*
X222661000Y41718997I-246800J-601200D01*
G01*
X-40174000Y1277000D02*
X-45600000Y8269000D01*
X-59039000Y34196000D02*
G75*
G02*
X-57980000Y33903000I436746J-481744D01*
G01*
X-6477000Y27909000D02*
G75*
G02*
X-6605000Y27839000I245901J-601675D01*
G01*
X164203000Y-44505000D02*
X167432000Y-54766000D01*
X159837000Y-308000D02*
X153450000Y-6434000D01*
X41405000Y-41680000D02*
X38157000Y-51677000D01*
X219579000Y-55432000D02*
X213116000Y-47142000D01*
X-6056000Y47119000D02*
X-9305000Y57116000D01*
X253597000Y19326000D02*
G75*
G02*
X252570013Y19541006I-435300J481000D01*
G01*
X171926000Y-35057000D02*
G75*
G02*
X172038005Y-35149992I468800J450700D01*
G01*
X-12045000Y-37112000D02*
X-11020000Y-26405000D01*
X215427000Y-36466000D02*
G75*
G02*
X215640003Y-37636987I364300J-538600D01*
G01*
X188035000Y-16772000D02*
G75*
G02*
X188233964Y-15599054I-158300J630200D01*
G01*
X262070000Y42669000D02*
G75*
G02*
X260981948Y42584960I-571200J309800D01*
G01*
X-76641000Y5903000D02*
X-67864000Y7037000D01*
X39183000Y879000D02*
X28544000Y2464000D01*
X-58719000Y-55324000D02*
G75*
G02*
X-58009001Y-56097000I71281J-647095D01*
G01*
X12757000Y15997000D02*
G75*
G02*
X11766014Y15599021I-634000J145900D01*
G01*
X6340000Y8607000D02*
X11766000Y15599000D01*
X10456000Y-25411000D02*
G75*
G02*
X11164990Y-26385960I551800J-344000D01*
G01*
X193773000Y-45923000D02*
G75*
G02*
X193944000Y-47119000I323300J-564000D01*
G01*
X-23391000Y-71535000D02*
X-34471000Y-72941000D01*
X-60430000Y-43372000D02*
X-51868000Y-36862000D01*
X14986000Y79272000D02*
X23124000Y71622000D01*
X-47716000Y36168000D02*
X-57980000Y33903000D01*
X180345000Y79131000D02*
X190583000Y74667000D01*
X-23974000Y16974000D02*
X-29914000Y25941000D01*
X262532000Y11620000D02*
X272917000Y14419000D01*
X-2339000Y-56036000D02*
G75*
G02*
X-1817001Y-56946000I-72141J-646098D01*
G01*
X26044000Y-51677000D02*
X22796000Y-41680000D01*
X-4097000Y-46141000D02*
G75*
G02*
X-4410001Y-45139000I209027J615182D01*
G01*
X-12545000Y-38103000D02*
X-4410000Y-45139000D01*
X180844000Y7189000D02*
G75*
G02*
X181527963Y6369010I58200J-646700D01*
G01*
X33252000Y22581000D02*
G75*
G02*
X32217028Y22320032I-607600J226900D01*
G01*
X222796000Y41680000D02*
X226044000Y51677000D01*
X211200000Y-38603000D02*
X206227000Y-45923000D01*
X12757000Y15997000D02*
X23396000Y14412000D01*
X218070000Y-74714000D02*
G75*
G02*
X218951991Y-75316000I232000J-607200D01*
G01*
X273922000Y14118000D02*
X281332000Y5760000D01*
X125135000Y11622000D02*
G75*
G02*
X125864014Y10809996I102200J-641500D01*
G01*
X211766000Y-15599000D02*
X206340000Y-8607000D01*
X17344000Y-57308000D02*
X26979000Y-61509000D01*
X188728000Y-37537000D02*
G75*
G02*
X188800044Y-38603055I-333500J-558000D01*
G01*
X65473000Y40273000D02*
G75*
G02*
X65773002Y41297993I506000J408300D01*
G01*
X139544000Y-26953000D02*
G75*
G02*
X138455018Y-27096985I-590000J272200D01*
G01*
X212925000Y-46060000D02*
X215640000Y-37637000D01*
X12944000Y-36994000D02*
G75*
G02*
X13629008Y-37814002I58800J-647000D01*
G01*
X187056000Y36994000D02*
X188835000Y26386000D01*
X257996000Y-9382000D02*
G75*
G02*
X257195958Y-8801003I-153400J630100D01*
G01*
X167404000Y34560000D02*
G75*
G02*
X167969995Y33493050I495400J-420800D01*
G01*
X-24191000Y58397000D02*
G75*
G02*
X-24324000Y58329000I227592J-609209D01*
G01*
X138077000Y5407000D02*
X144769000Y13828000D01*
X-30962000Y26505000D02*
X-39812000Y26526000D01*
X243301000Y60193000D02*
G75*
G02*
X243373025Y61258958I405700J508000D01*
G01*
X-42000000Y-41109000D02*
X-40035000Y-51435000D01*
X232568000Y-54766000D02*
G75*
G02*
X232823975Y-55786979I-240600J-602900D01*
G01*
X167176000Y-55787000D02*
X159501000Y-63323000D01*
X-18472000Y-6369000D02*
X-10145000Y-3370000D01*
X211766000Y-15599000D02*
G75*
G02*
X211964984Y-16772063I357300J-542800D01*
G01*
X147195000Y-60557000D02*
X144507000Y-50142000D01*
X188728000Y-37537000D02*
X193523000Y-27909000D01*
X151937000Y-41053000D02*
G75*
G02*
X152043007Y-41157991I507400J406300D01*
G01*
X-11766000Y15599000D02*
X-6340000Y8607000D01*
X193523000Y-26704000D02*
G75*
G02*
X193523000Y-27909000I244000J-602500D01*
G01*
X141466000Y49824000D02*
G75*
G02*
X140398049Y49792036I-545100J355700D01*
G01*
X202509000Y43833000D02*
X211583000Y38058000D01*
X180347000Y-56557000D02*
X185673000Y-65619000D01*
X168442000Y-22944000D02*
X175564000Y-14885000D01*
X241751000Y-20113000D02*
G75*
G02*
X242941042Y-20321026I636400J132700D01*
G01*
X259499000Y46275000D02*
X251824000Y38739000D01*
X228291000Y-207000D02*
G75*
G02*
X229371978Y-359010I491300J-425800D01*
G01*
X243301000Y60193000D02*
X238327000Y52873000D01*
X-2509000Y-43833000D02*
X-11583000Y-38058000D01*
X24541000Y14784000D02*
G75*
G02*
X23396049Y14411997I-497000J-418300D01*
G01*
X-41099000Y-40739000D02*
X-32596000Y-34560000D01*
X199650000Y19536000D02*
G75*
G02*
X199082070Y20439970I30100J649300D01*
G01*
X-28291000Y207000D02*
G75*
G02*
X-29372000Y359000I-491316J425789D01*
G01*
X-12254000Y16562000D02*
G75*
G02*
X-11200000Y16010000I648550J-43910D01*
G01*
X167176000Y-55787000D02*
G75*
G02*
X167432017Y-54766042I496800J418000D01*
G01*
X-58769000Y-1492000D02*
X-48888000Y2093000D01*
X202509000Y43833000D02*
G75*
G02*
X201961002Y44872953I-519900J390400D01*
G01*
X-23391000Y-71535000D02*
G75*
G02*
X-22575000Y-70875000I648949J32099D01*
G01*
X-23396000Y14412000D02*
G75*
G02*
X-24541000Y14784000I-647964J-46275D01*
G01*
X258769000Y1492000D02*
G75*
G02*
X259861957Y1214042I626100J174100D01*
G01*
X-2795000Y-77699000D02*
G75*
G02*
X-2004000Y-76946000I640184J119468D01*
G01*
X164203000Y-44505000D02*
G75*
G02*
X164453011Y-43356986I-146800J633200D01*
G01*
X198697000Y66712000D02*
G75*
G02*
X198944066Y65687943I-246900J-601400D01*
G01*
X-51953000Y-36740000D02*
X-60982000Y-42585000D01*
X135998000Y7205000D02*
G75*
G02*
X137027984Y7421982I593800J-265600D01*
G01*
X-28291000Y207000D02*
X-19649000Y-6196000D01*
X-41457000Y-62491000D02*
X-37445000Y-54602000D01*
X232674000Y-23359000D02*
X241442000Y-22156000D01*
X149839000Y44666000D02*
X150857000Y34204000D01*
X211272000Y-17076000D02*
G75*
G02*
X211199956Y-16009945I333500J558000D01*
G01*
X171063000Y72072000D02*
X179306000Y78981000D01*
X39465000Y52522000D02*
X28839000Y50855000D01*
X198697000Y66712000D02*
X202004000Y76946000D01*
X-62070000Y-42669000D02*
X-71890000Y-38279000D01*
X39465000Y52522000D02*
G75*
G02*
X40267004Y53205018I647900J51600D01*
G01*
X211200000Y-38603000D02*
G75*
G02*
X211272025Y-37537042I405700J508000D01*
G01*
X238441000Y52790000D02*
G75*
G02*
X238326996Y52872993I-437300J-480900D01*
G01*
X-65773000Y41298000D02*
G75*
G02*
X-65473001Y40273000I-205991J-616692D01*
G01*
X6189000Y47071000D02*
X10061000Y56843000D01*
X221657000Y71157000D02*
G75*
G02*
X221399972Y72218026I215300J613800D01*
G01*
X180345000Y79131000D02*
G75*
G02*
X179306018Y78981018I-574200J304000D01*
G01*
X181312000Y5704000D02*
G75*
G02*
X180462018Y6535954I-608100J228900D01*
G01*
X51506000Y54872000D02*
X62413000Y52465000D01*
X-24666000Y37533000D02*
X-30250000Y47206000D01*
X232616000Y22776000D02*
X240913000Y15931000D01*
X220829000Y61259000D02*
X225624000Y70887000D01*
X45600000Y8269000D02*
G75*
G02*
X46684944Y8800996I436900J481300D01*
G01*
X260939000Y-20321000D02*
X252435000Y-26499000D01*
X-28640000Y69177000D02*
G75*
G02*
X-28761000Y68134000I-442408J-477194D01*
G01*
X-39449000Y-3403000D02*
G75*
G02*
X-40628000Y-3244000I-624483J-179904D01*
G01*
X-2509000Y-43833000D02*
G75*
G02*
X-1961000Y-44873000I519937J-390410D01*
G01*
X272561000Y25684000D02*
G75*
G02*
X273032001Y26667995I554300J339400D01*
G01*
X225272000Y51901000D02*
X222661000Y41719000D01*
X39812000Y26526000D02*
G75*
G02*
X40781992Y27041985I648300J-49000D01*
G01*
X66331000Y-34831000D02*
G75*
G02*
X67397957Y-34602043I607400J-230000D01*
G01*
X-66835000Y6652000D02*
X-59862000Y-1214000D01*
X214190000Y80200000D02*
X221400000Y72218000D01*
X242071000Y15731000D02*
X252570000Y19541000D01*
X-21707000Y-18640000D02*
X-31574000Y-22923000D01*
X-39449000Y-3403000D02*
X-29372000Y359000D01*
X-19030000Y-60720000D02*
G75*
G02*
X-18888000Y-60764000I262200J595055D01*
G01*
X262532000Y11620000D02*
G75*
G02*
X261388946Y11910044I-638800J-120100D01*
G01*
X11272000Y37537000D02*
G75*
G02*
X12247024Y38200004I333700J557700D01*
G01*
X180347000Y-56557000D02*
G75*
G02*
X180420981Y-55432029I-285600J583700D01*
G01*
X193660000Y-8607000D02*
G75*
G02*
X193773005Y-8689991I438900J479200D01*
G01*
X11272000Y37537000D02*
X6477000Y27909000D01*
X-25272000Y-51901000D02*
X-22661000Y-41719000D01*
X160817000Y-879000D02*
X171456000Y-2464000D01*
X262070000Y42669000D02*
X271890000Y38279000D01*
X226516000Y71439000D02*
G75*
G02*
X225623998Y70886996I-648300J50900D01*
G01*
X131946000Y-43896000D02*
G75*
G02*
X132589973Y-44723992I19700J-649100D01*
G01*
X-46685000Y8801000D02*
G75*
G02*
X-45600000Y8269001I648042J-50749D01*
G01*
X8819000Y-73804000D02*
G75*
G02*
X9417004Y-74667001I-16900J-650400D01*
G01*
X-53597000Y-19326000D02*
G75*
G02*
X-52570000Y-19541000I435300J-481042D01*
G01*
X21644000Y-18772000D02*
G75*
G02*
X21707000Y-18640000I-551400J344200D01*
G01*
X126313000Y6299000D02*
X136986000Y4962000D01*
X28937000Y-72072000D02*
X20694000Y-78981000D01*
X177233000Y16796000D02*
X180462000Y6536000D01*
X206561000Y58093000D02*
X198944000Y65688000D01*
X225874000Y52873000D02*
X220901000Y60193000D01*
X219724000Y5443000D02*
G75*
G02*
X218688006Y5704002I-427200J490900D01*
G01*
X145757000Y14183000D02*
G75*
G02*
X144768983Y13827975I-623300J182300D01*
G01*
X63165000Y51733000D02*
X65773000Y41298000D01*
X48888000Y2093000D02*
G75*
G02*
X47800069Y1941059I-592200J269400D01*
G01*
X219160000Y59605000D02*
G75*
G02*
X218888007Y60764037I-390900J519700D01*
G01*
X221657000Y71157000D02*
X218888000Y60764000D01*
X44158000Y-37707000D02*
X34556000Y-33431000D01*
X255912000Y-48408000D02*
X248063000Y-41053000D01*
X156717000Y12002000D02*
X145984000Y15091000D01*
X241099000Y40739000D02*
X232596000Y34560000D01*
X-42071000Y-15731000D02*
G75*
G02*
X-40913000Y-15931000I626258J173624D01*
G01*
X-47670000Y59175000D02*
X-42206000Y68440000D01*
X281510000Y4726000D02*
G75*
G02*
X281331996Y5760004I287400J581800D01*
G01*
X208546000Y-26971000D02*
G75*
G02*
X208735040Y-28045043I-252500J-598100D01*
G01*
X14986000Y79272000D02*
G75*
G02*
X13956988Y79480994I-438200J480200D01*
G01*
X142804000Y-8801000D02*
X153315000Y-8801000D01*
X41405000Y-41680000D02*
G75*
G02*
X41098993Y-40738996I248600J601100D01*
G01*
X-32217000Y22320000D02*
X-24541000Y14784000D01*
X151578000Y33337000D02*
X161679000Y30429000D01*
X-11200000Y38603000D02*
X-6227000Y45923000D01*
X55308000Y-31009000D02*
G75*
G02*
X56012983Y-31790996I69300J-646300D01*
G01*
X25136000Y71004000D02*
X35660000Y73224000D01*
X39812000Y26526000D02*
X30962000Y26505000D01*
X-10189000Y-3236000D02*
G75*
G02*
X-10145000Y-3370000I635964J134600D01*
G01*
X-11200000Y38603000D02*
G75*
G02*
X-11272000Y37537000I-405595J-508037D01*
G01*
X173956000Y51677000D02*
G75*
G02*
X173155006Y52259000I-152800J631900D01*
G01*
X214190000Y80200000D02*
G75*
G02*
X213180014Y80497005I-397100J515400D01*
G01*
X-62532000Y-11620000D02*
X-72917000Y-14419000D01*
X191265000Y-28045000D02*
X184573000Y-36466000D01*
X65473000Y40273000D02*
X59039000Y34196000D01*
X185722000Y-66717000D02*
X181930000Y-74714000D01*
X199650000Y19536000D02*
X199930000Y10690000D01*
X178356000Y18772000D02*
G75*
G02*
X179063989Y17797043I551300J-344200D01*
G01*
X212925000Y-46060000D02*
G75*
G02*
X213116038Y-47142042I-247600J-601600D01*
G01*
X169389000Y-75571000D02*
G75*
G02*
X170318020Y-76059997I285600J-584400D01*
G01*
X-32675000Y-34444000D02*
G75*
G02*
X-32596000Y-34560000I573621J305755D01*
G01*
X27399000Y2092000D02*
G75*
G02*
X28543942Y2464004I496800J418900D01*
G01*
X-2795000Y-77699000D02*
X-13180000Y-80497000D01*
X-58719000Y-55324000D02*
X-60806000Y-44351000D01*
X27921000Y50121000D02*
X23807000Y39737000D01*
X251953000Y36740000D02*
G75*
G02*
X250767043Y36641985I-571400J-310100D01*
G01*
X232616000Y22776000D02*
G75*
G02*
X231574024Y22923013I-467600J451900D01*
G01*
X141067000Y-4976000D02*
G75*
G02*
X142111982Y-4549998I400600J512000D01*
G01*
X-31183000Y-23743000D02*
X-21644000Y-18772000D01*
X19655000Y-79131000D02*
G75*
G02*
X20693982Y-78981018I574200J-304000D01*
G01*
X52810000Y-21277000D02*
X53275000Y-32023000D01*
X21956000Y-40812000D02*
G75*
G02*
X22795970Y-41679928I592300J-267200D01*
G01*
X81332000Y-5760000D02*
G75*
G02*
X81510003Y-4726006I465400J452200D01*
G01*
X214327000Y-65619000D02*
G75*
G02*
X214277984Y-66716972I-371400J-533500D01*
G01*
X206056000Y-47119000D02*
X209305000Y-57116000D01*
X-8266000Y46260000D02*
X-12119000Y38293000D01*
X-12069000Y37104000D02*
G75*
G02*
X-12119000Y38293001I-286497J583504D01*
G01*
X-31265000Y47798000D02*
X-42021000Y47898000D01*
X1801000Y66184000D02*
X3191000Y74924000D01*
X-62413000Y52465000D02*
G75*
G02*
X-63165000Y51733000I-644384J-90283D01*
G01*
X-62799000Y-19294000D02*
X-53223000Y-24191000D01*
X227962000Y-35150000D02*
X234829000Y-43959000D01*
X208999000Y-58057000D02*
X200495000Y-64236000D01*
X276641000Y-5903000D02*
X267864000Y-7037000D01*
X-47670000Y59175000D02*
G75*
G02*
X-47709000Y58084000I-373064J-532861D01*
G01*
X-11165000Y-26386000D02*
G75*
G02*
X-11020000Y-26405000I156399J630781D01*
G01*
X495000Y64236000D02*
X8999000Y58057000D01*
X240174000Y-1277000D02*
X245600000Y-8269000D01*
X31751000Y-24647000D02*
X32030000Y-33493000D01*
X62487000Y-11762000D02*
X72632000Y-15337000D01*
X-32616000Y-22776000D02*
G75*
G02*
X-31574000Y-22923000I467638J-451754D01*
G01*
X212545000Y38103000D02*
G75*
G02*
X212944002Y36994020I457400J-461700D01*
G01*
X-9402000Y75350000D02*
X-6752000Y66906000D01*
X-40782000Y27042000D02*
G75*
G02*
X-39812000Y26526000I321675J-565026D01*
G01*
X240499000Y-63323000D02*
G75*
G02*
X241547989Y-63623003I427200J-490200D01*
G01*
X-81510000Y-4726000D02*
G75*
G02*
X-81332000Y-5760000I-287357J-581789D01*
G01*
X145757000Y14183000D02*
X156682000Y11860000D01*
X10145000Y-3370000D02*
X18472000Y-6369000D01*
X-50516000Y54525000D02*
X-43759000Y46156000D01*
X182902000Y45848000D02*
G75*
G02*
X183383076Y44860953I-72100J-645900D01*
G01*
X158558000Y-22156000D02*
G75*
G02*
X157526000Y-22534000I-635700J137800D01*
G01*
X52570000Y-19541000D02*
X42071000Y-15731000D01*
X-32217000Y22320000D02*
G75*
G02*
X-33252000Y22581000I-427366J487929D01*
G01*
X29372000Y359000D02*
X39449000Y-3403000D01*
X20436000Y60261000D02*
G75*
G02*
X20295001Y60309006I-278700J-587500D01*
G01*
X171063000Y72072000D02*
G75*
G02*
X170703002Y71065992I-529600J-377900D01*
G01*
X230375000Y-55880000D02*
G75*
G02*
X230298018Y-54703954I-312300J570100D01*
G01*
X6189000Y47071000D02*
G75*
G02*
X6056001Y47119003I-285800J-583600D01*
G01*
X-60939000Y20321000D02*
G75*
G02*
X-61245000Y19379000I-552654J-341176D01*
G01*
X-42071000Y-15731000D02*
X-52570000Y-19541000D01*
X191181000Y73804000D02*
X191728000Y63062000D01*
X-72485000Y-37410000D02*
X-73032000Y-26668000D01*
X251445000Y-26499000D02*
G75*
G02*
X252435000Y-26499000I495000J-420489D01*
G01*
X132225000Y30285000D02*
G75*
G02*
X131156957Y30058957I-607000J231800D01*
G01*
X131897000Y32029000D02*
X130816000Y43146000D01*
X51896000Y-55433000D02*
X44789000Y-50159000D01*
X-62532000Y-11620000D02*
G75*
G02*
X-61389000Y-11910000I638762J120106D01*
G01*
X-12045000Y-37112000D02*
G75*
G02*
X-11583000Y-38058000I-110428J-639744D01*
G01*
X247957000Y-41158000D02*
X255229000Y-49084000D01*
X12944000Y-36994000D02*
X11165000Y-26386000D01*
X9815000Y57945000D02*
G75*
G02*
X10061000Y56843001I437560J-480780D01*
G01*
X221707000Y18640000D02*
G75*
G02*
X221644000Y18772000I-614400J-212200D01*
G01*
X167404000Y34560000D02*
X158901000Y40739000D01*
X-21657000Y-71157000D02*
G75*
G02*
X-21400000Y-72218000I-215188J-613750D01*
G01*
X59862000Y-1214000D02*
G75*
G02*
X58768942Y-1491984I-466900J-452100D01*
G01*
X-14190000Y-80200000D02*
G75*
G02*
X-13179999Y-80497000I397105J-515417D01*
G01*
X219579000Y-55432000D02*
G75*
G02*
X219652985Y-56557031I359600J-541300D01*
G01*
X-4097000Y-46141000D02*
X-6872000Y-56960000D01*
X165171000Y-43959000D02*
X172038000Y-35150000D01*
X158595000Y41680000D02*
G75*
G02*
X158901007Y40738996I-248600J-601100D01*
G01*
X-12254000Y16562000D02*
X-23010000Y16462000D01*
X-38157000Y-51677000D02*
X-41405000Y-41680000D01*
X-31045000Y46709000D02*
X-24789000Y37455000D01*
X241099000Y40739000D02*
G75*
G02*
X242289039Y40945992I553900J339900D01*
G01*
X134282000Y-14253000D02*
G75*
G02*
X135248015Y-13728973I648900J-43800D01*
G01*
X190531000Y39642000D02*
G75*
G02*
X191045999Y38570038I493500J-422600D01*
G01*
X-21707000Y-18640000D02*
G75*
G02*
X-21644000Y-18772000I614354J212180D01*
G01*
X12999000Y37598000D02*
G75*
G02*
X12068992Y37103983I-642800J87700D01*
G01*
X131243000Y-32226000D02*
G75*
G02*
X130804995Y-33199972I-556300J-335300D01*
G01*
X18688000Y-5704000D02*
X10189000Y-3236000D01*
X-41276000Y68933000D02*
G75*
G02*
X-42206000Y68440000I-643307J89860D01*
G01*
X-28640000Y69177000D02*
X-21704000Y77932000D01*
X165171000Y-43959000D02*
G75*
G02*
X165057980Y-45001966I-438400J-480100D01*
G01*
X-42664000Y45719000D02*
G75*
G02*
X-43759000Y46156000I-649124J-36141D01*
G01*
X152393000Y-6735000D02*
G75*
G02*
X153450034Y-6433961I624100J-185100D01*
G01*
X252049000Y24137000D02*
X242617000Y18154000D01*
X-6952000Y65826000D02*
X-13479000Y57586000D01*
X63831000Y-39131000D02*
X63366000Y-50291000D01*
X-72485000Y-37410000D02*
G75*
G02*
X-71890000Y-38279000I-16447J-649458D01*
G01*
X269195000Y-33200000D02*
G75*
G02*
X268756976Y-32225985I118300J638700D01*
G01*
X-41276000Y68933000D02*
X-30540000Y68272000D01*
X9305000Y57116000D02*
X6056000Y47119000D01*
X-28544000Y2464000D02*
X-39183000Y879000D01*
X138077000Y5407000D02*
G75*
G02*
X136986034Y4961998I-442000J-476200D01*
G01*
X72917000Y-14419000D02*
X62532000Y-11620000D01*
X42016000Y-15866000D02*
G75*
G02*
X42070994Y-15730998I-570500J311100D01*
G01*
X238578000Y70887000D02*
G75*
G02*
X237685008Y71439001I-244300J603100D01*
G01*
X-13561000Y56461000D02*
G75*
G02*
X-13479000Y57586000I-280943J585966D01*
G01*
X29372000Y359000D02*
G75*
G02*
X28290982Y206984I-589700J273800D01*
G01*
X177233000Y16796000D02*
G75*
G02*
X176448996Y17555001I-146200J633400D01*
G01*
X-24666000Y37533000D02*
G75*
G02*
X-24789000Y37455000I284529J-584661D01*
G01*
X-72561000Y-25684000D02*
X-63849000Y-19375000D01*
X221707000Y18640000D02*
X231574000Y22923000D01*
X242474000Y-22534000D02*
G75*
G02*
X241442000Y-22156000I-396300J515800D01*
G01*
X3869000Y75750000D02*
X13957000Y79481000D01*
X-11766000Y15599000D02*
G75*
G02*
X-12757000Y15997000I-356985J543895D01*
G01*
X-46685000Y8801000D02*
X-57196000Y8801000D01*
X269195000Y-33200000D02*
X268054000Y-43896000D01*
X126313000Y6299000D02*
G75*
G02*
X125359018Y5861031I-637300J130200D01*
G01*
X163754000Y-64893000D02*
G75*
G02*
X163729989Y-65941984I-396100J-515700D01*
G01*
X185722000Y-66717000D02*
G75*
G02*
X185672982Y-65618974I322400J564500D01*
G01*
X204097000Y46141000D02*
G75*
G02*
X204410033Y45138975I-209000J-615200D01*
G01*
X193773000Y-45923000D02*
X188800000Y-38603000D01*
X199505000Y-64236000D02*
X191001000Y-58057000D01*
X218472000Y6369000D02*
G75*
G02*
X219648958Y6196027I626600J172900D01*
G01*
X234942000Y-45002000D02*
X230298000Y-54704000D01*
X250788000Y38478000D02*
X242289000Y40946000D01*
X-60430000Y-43372000D02*
G75*
G02*
X-60806000Y-44351000I-544752J-352484D01*
G01*
X-8999000Y58057000D02*
G75*
G02*
X-9305000Y57115999I-552056J-340733D01*
G01*
X122968000Y23086000D02*
G75*
G02*
X122640994Y22085020I-525900J-382100D01*
G01*
X19649000Y-6196000D02*
X28291000Y207000D01*
X144771000Y-49084000D02*
G75*
G02*
X144506994Y-50141982I-473800J-443700D01*
G01*
X242071000Y15731000D02*
G75*
G02*
X240912933Y15931047I-626300J-173600D01*
G01*
X166085000Y20434000D02*
G75*
G02*
X165225018Y21255957I-610900J221700D01*
G01*
X-57996000Y9382000D02*
G75*
G02*
X-57196001Y8801000I153449J-629984D01*
G01*
X242646000Y40160000D02*
X250767000Y36642000D01*
X232674000Y-23359000D02*
G75*
G02*
X231557962Y-22943964I-649100J-37400D01*
G01*
X250603000Y-30614000D02*
X260456000Y-26953000D01*
X-6477000Y27909000D02*
X-11272000Y37537000D01*
X-31045000Y46709000D02*
G75*
G02*
X-32002001Y47139000I-321130J565241D01*
G01*
X63831000Y-39131000D02*
G75*
G02*
X63315963Y-38215983I78600J646700D01*
G01*
X187056000Y36994000D02*
G75*
G02*
X186370992Y37814002I-58800J647000D01*
G01*
X350000Y-19536000D02*
G75*
G02*
X918002Y-20440001I-30090J-649350D01*
G01*
X149839000Y44666000D02*
G75*
G02*
X149232987Y45582006I-13100J649800D01*
G01*
X28937000Y-72072000D02*
G75*
G02*
X29296998Y-71065992I529600J377900D01*
G01*
X-52049000Y-24137000D02*
G75*
G02*
X-53223001Y-24191000I-574229J-304660D01*
G01*
X143059000Y-48615000D02*
X132590000Y-44724000D01*
X-6561000Y-58093000D02*
G75*
G02*
X-6872000Y-56960000I-423358J492975D01*
G01*
X-51953000Y-36740000D02*
G75*
G02*
X-51868000Y-36862000I572445J308224D01*
G01*
X44158000Y-37707000D02*
G75*
G02*
X44753003Y-38666071I571900J-309300D01*
G01*
X251445000Y-26499000D02*
X242941000Y-20321000D01*
X-14190000Y-80200000D02*
X-21400000Y-72218000D01*
X-8999000Y58057000D02*
X-495000Y64236000D01*
X350000Y-19536000D02*
X70000Y-10690000D01*
X62777000Y-51159000D02*
X52958000Y-55549000D01*
X206477000Y-27909000D02*
X211272000Y-37537000D01*
X228544000Y-2464000D02*
G75*
G02*
X227398956Y-2091963I-648200J-46900D01*
G01*
X32002000Y47139000D02*
G75*
G02*
X31045005Y46709009I-635800J135100D01*
G01*
X10145000Y-3370000D02*
G75*
G02*
X10188998Y-3235999I-592000J268600D01*
G01*
X53896000Y-33025000D02*
X63316000Y-38216000D01*
X39183000Y879000D02*
G75*
G02*
X40173989Y1276983I633200J-143900D01*
G01*
X19649000Y-6196000D02*
G75*
G02*
X18471997Y-6368999I-550380J-345860D01*
G01*
X-18472000Y-6369000D02*
G75*
G02*
X-19649000Y-6196000I-626622J-172861D01*
G01*
X166085000Y20434000D02*
X176449000Y17555000D01*
X-62070000Y-42669000D02*
G75*
G02*
X-60982000Y-42585000I571166J-309868D01*
G01*
X157059000Y-20321000D02*
X148555000Y-26499000D01*
X173956000Y51677000D02*
X177204000Y41680000D01*
X232675000Y34444000D02*
G75*
G02*
X232595992Y34559993I-573600J-305800D01*
G01*
X150493000Y-30345000D02*
X157526000Y-22534000D01*
X22965000Y39111000D02*
X12247000Y38200000D01*
X211165000Y26386000D02*
G75*
G02*
X211020000Y26405000I-156400J-630800D01*
G01*
X230375000Y-55880000D02*
X236246000Y-64893000D01*
X-40359000Y-52485000D02*
X-46621000Y-58739000D01*
X77486000Y5249000D02*
X81510000Y-4726000D01*
X25136000Y71004000D02*
G75*
G02*
X24305019Y70297063I-645500J-83100D01*
G01*
X-36546000Y-53970000D02*
X-26118000Y-52647000D01*
X151578000Y33337000D02*
G75*
G02*
X150857003Y34203983I-608800J227000D01*
G01*
X3869000Y75750000D02*
G75*
G02*
X3191000Y74924005I-626170J-177280D01*
G01*
X236270000Y-65942000D02*
G75*
G02*
X236245988Y-64892984I372100J533300D01*
G01*
X206561000Y58093000D02*
G75*
G02*
X206871989Y56959937I423400J-493000D01*
G01*
X-47655000Y-59009000D02*
X-58009000Y-56097000D01*
X220829000Y61259000D02*
G75*
G02*
X220901044Y60192945I-333500J-558000D01*
G01*
X272561000Y25684000D02*
X263849000Y19375000D01*
X262799000Y19294000D02*
G75*
G02*
X263849059Y19375050I554300J-338700D01*
G01*
X27921000Y50121000D02*
G75*
G02*
X28839035Y50855008I285600J583900D01*
G01*
X29914000Y25941000D02*
G75*
G02*
X30962077Y26505006I400000J512500D01*
G01*
X256297000Y57917000D02*
G75*
G02*
X255496038Y58594997I-151700J632900D01*
G01*
X215427000Y-36466000D02*
X208735000Y-28045000D01*
X-12069000Y37104000D02*
X-6605000Y27839000D01*
X182902000Y45848000D02*
X183258000Y56353000D01*
X190531000Y39642000D02*
X183383000Y44861000D01*
X131279000Y44087000D02*
X140398000Y49792000D01*
X212545000Y38103000D02*
X204410000Y45139000D01*
X182656000Y57308000D02*
G75*
G02*
X183258001Y56352976I574200J-305300D01*
G01*
X32596000Y-34560000D02*
G75*
G02*
X32030005Y-33493050I-495400J420800D01*
G01*
X179000Y-20602000D02*
G75*
G02*
X-350000Y-19536000I-498730J416764D01*
G01*
X495000Y64236000D02*
G75*
G02*
X-495000Y64236000I-495000J420489D01*
G01*
X204097000Y46141000D02*
X206872000Y56960000D01*
X214327000Y-65619000D02*
X219653000Y-56557000D01*
X266835000Y-6652000D02*
X259862000Y1214000D01*
X162644000Y52259000D02*
X173155000Y52259000D01*
X266835000Y-6652000D02*
G75*
G02*
X267864037Y-7036992I393000J-517300D01*
G01*
X189544000Y25411000D02*
X199082000Y20440000D01*
X57196000Y8801000D02*
X46685000Y8801000D01*
X234942000Y-45002000D02*
G75*
G02*
X234828974Y-43958971I325400J562900D01*
G01*
X-2339000Y-56036000D02*
X-1961000Y-44873000D01*
X46668000Y35750000D02*
X40782000Y27042000D01*
X-60939000Y20321000D02*
X-52435000Y26499000D01*
X77486000Y5249000D02*
G75*
G02*
X76641041Y5902998I-195000J620900D01*
G01*
X253597000Y19326000D02*
X261389000Y11910000D01*
X-11165000Y-26386000D02*
X-12944000Y-36994000D01*
X11200000Y16010000D02*
G75*
G02*
X12253928Y16561995I405400J508100D01*
G01*
X10456000Y-25411000D02*
X918000Y-20440000D01*
X21956000Y-40812000D02*
X13629000Y-37814000D01*
X-12545000Y-38103000D02*
G75*
G02*
X-12944000Y-36993999I-457367J461724D01*
G01*
X157059000Y-20321000D02*
G75*
G02*
X158248951Y-20112990I553600J340700D01*
G01*
X-31183000Y-23743000D02*
G75*
G02*
X-32361000Y-23705000I-597824J-254552D01*
G01*
X-32675000Y-34444000D02*
X-41551000Y-40074000D01*
X-57996000Y9382000D02*
X-61245000Y19379000D01*
X-6056000Y47119000D02*
G75*
G02*
X-6227000Y45923000I152307J-632001D01*
G01*
X262799000Y19294000D02*
X253223000Y24191000D01*
X189544000Y25411000D02*
G75*
G02*
X188835010Y26385960I-551800J344000D01*
G01*
X22965000Y39111000D02*
G75*
G02*
X23807003Y39737008I649400J5800D01*
G01*
X33878000Y-32567000D02*
X32312000Y-23856000D01*
X139544000Y-26953000D02*
X149397000Y-30614000D01*
X-42000000Y-41109000D02*
G75*
G02*
X-41551000Y-40074000I-71553J645933D01*
G01*
X23396000Y70608000D02*
X20295000Y60309000D01*
X-42664000Y45719000D02*
X-32002000Y47139000D01*
X211165000Y26386000D02*
X212944000Y36994000D01*
X1801000Y66184000D02*
G75*
G02*
X2157006Y65143995I-151660J-632850D01*
G01*
X-66835000Y6652000D02*
G75*
G02*
X-67864000Y7037000I-392973J517309D01*
G01*
X206056000Y-47119000D02*
G75*
G02*
X206227000Y-45923000I-152300J632000D01*
G01*
X210189000Y3236000D02*
X218688000Y5704000D01*
X-6227000Y8690000D02*
X-11200000Y16010000D01*
X-59039000Y34196000D02*
X-65473000Y40273000D01*
X36652000Y72871000D02*
G75*
G02*
X35659990Y73223997I-368400J535100D01*
G01*
X208999000Y-58057000D02*
G75*
G02*
X209305010Y-57116025I552100J340700D01*
G01*
X224436000Y-14885000D02*
G75*
G02*
X224540996Y-14783997I-395300J516000D01*
G01*
X175459000Y-14784000D02*
X167783000Y-22320000D01*
X242646000Y40160000D02*
G75*
G02*
X241551026Y40074020I-574600J302300D01*
G01*
X232217000Y-22320000D02*
G75*
G02*
X233252003Y-22580999I427400J-487800D01*
G01*
X147565000Y-26499000D02*
X139061000Y-20321000D01*
X-41099000Y-40739000D02*
G75*
G02*
X-41405000Y-41680001I-554624J-339898D01*
G01*
X181048000Y-75316000D02*
X170318000Y-76060000D01*
X-23396000Y14412000D02*
X-12757000Y15997000D01*
X236270000Y-65942000D02*
X230611000Y-75571000D01*
X62487000Y-11762000D02*
G75*
G02*
X62532003Y-11620001I-593100J266100D01*
G01*
X181048000Y-75316000D02*
G75*
G02*
X181930003Y-74713992I650000J-5200D01*
G01*
X-22796000Y-41680000D02*
X-26044000Y-51677000D01*
X-42914000Y48456000D02*
X-47709000Y58084000D01*
X241567000Y18143000D02*
X232361000Y23705000D01*
X246685000Y-8801000D02*
G75*
G02*
X245600020Y-8269022I-648000J50800D01*
G01*
X-22796000Y-41680000D02*
G75*
G02*
X-22661000Y-41719000I246809J601185D01*
G01*
X-41751000Y20113000D02*
X-33252000Y22581000D01*
X247800000Y-1941000D02*
G75*
G02*
X248888040Y-2092982I495800J-421200D01*
G01*
X-20717000Y78288000D02*
G75*
G02*
X-21703999Y77932001I-623228J181669D01*
G01*
X-51445000Y26499000D02*
X-42941000Y20321000D01*
X37356000Y-52259000D02*
G75*
G02*
X38157001Y-51676994I648200J-49900D01*
G01*
X61245000Y19379000D02*
X57996000Y9382000D01*
X-23974000Y16974000D02*
G75*
G02*
X-23010000Y16462000I316504J-567598D01*
G01*
X-6952000Y65826000D02*
G75*
G02*
X-6752000Y66906000I440335J476975D01*
G01*
X166748000Y-22581000D02*
G75*
G02*
X167782972Y-22320032I607600J-226900D01*
G01*
X134282000Y-14253000D02*
X125432000Y-14343000D01*
X-20717000Y78288000D02*
X-10193000Y76068000D01*
X-19724000Y-5443000D02*
X-27399000Y2092000D01*
X261545000Y-27097000D02*
G75*
G02*
X260455979Y-26953010I-499000J416200D01*
G01*
X48888000Y2093000D02*
X58769000Y-1492000D01*
X20436000Y60261000D02*
X24305000Y70297000D01*
X240499000Y-63323000D02*
X232824000Y-55787000D01*
X168249000Y24647000D02*
G75*
G02*
X168817017Y23742993I-28400J-648300D01*
G01*
X240174000Y-1277000D02*
G75*
G02*
X239182980Y-879005I-357800J541900D01*
G01*
X142581000Y27354000D02*
X132534000Y31194000D01*
X44316000Y-49168000D02*
G75*
G02*
X44788970Y-50158981I-77400J-645300D01*
G01*
X267410000Y-44724000D02*
X256941000Y-48615000D01*
X225272000Y51901000D02*
G75*
G02*
X225015966Y52969033I209800J615000D01*
G01*
X228544000Y-2464000D02*
X239183000Y-879000D01*
X247800000Y-1941000D02*
X240628000Y3244000D01*
X-41567000Y-18143000D02*
G75*
G02*
X-42616999Y-18154000I-529021J378365D01*
G01*
X229682000Y-76060000D02*
X218952000Y-75316000D01*
X272485000Y37410000D02*
G75*
G02*
X271889946Y38279019I16300J649400D01*
G01*
X232675000Y34444000D02*
X241551000Y40074000D01*
X-36546000Y-53970000D02*
G75*
G02*
X-37445000Y-54602000I-648593J-32797D01*
G01*
X73364000Y-16147000D02*
G75*
G02*
X72632015Y-15337004I-103400J642300D01*
G01*
X172336000Y62368000D02*
X170703000Y71066000D01*
X255493000Y-50142000D02*
G75*
G02*
X255228986Y-49083987I209800J614300D01*
G01*
X210189000Y3236000D02*
G75*
G02*
X210145002Y3370001I-636000J-134600D01*
G01*
X122968000Y23086000D02*
X131157000Y30059000D01*
X-24191000Y58397000D02*
X-28761000Y68134000D01*
X135998000Y7205000D02*
X125864000Y10810000D01*
X9418000Y-27824000D02*
X8954000Y-38570000D01*
X193523000Y-26704000D02*
X188728000Y-17076000D01*
X172336000Y62368000D02*
G75*
G02*
X173020945Y61509019I70700J-646200D01*
G01*
X259499000Y46275000D02*
G75*
G02*
X259749005Y47293989I496700J418300D01*
G01*
X53896000Y-33025000D02*
G75*
G02*
X53274999Y-32022994I-543500J356600D01*
G01*
X-10189000Y-3236000D02*
X-18688000Y-5704000D01*
X124505000Y-13812000D02*
G75*
G02*
X125431963Y-14343003I279600J-586500D01*
G01*
X200070000Y10690000D02*
G75*
G02*
X199930000Y10690000I-70000J-646110D01*
G01*
X147565000Y-26499000D02*
G75*
G02*
X148555000Y-26499000I495000J-420489D01*
G01*
X241751000Y-20113000D02*
X233252000Y-22581000D01*
X75566000Y-27604000D02*
X67398000Y-34602000D01*
X281510000Y4726000D02*
X277486000Y-5249000D01*
X186884000Y-47142000D02*
X180421000Y-55432000D01*
X42016000Y-15866000D02*
X52220000Y-20409000D01*
X-47800000Y1941000D02*
G75*
G02*
X-48888000Y2093000I-495758J421310D01*
G01*
X247957000Y-41158000D02*
G75*
G02*
X248063009Y-41053007I-401400J511300D01*
G01*
X-29615000Y67693000D02*
G75*
G02*
X-30540001Y68272000I-275068J588939D01*
G01*
X211272000Y-17076000D02*
X206477000Y-26704000D01*
X212045000Y37112000D02*
G75*
G02*
X211583039Y38057979I110400J639700D01*
G01*
X202339000Y56036000D02*
G75*
G02*
X201816968Y56946014I72100J646100D01*
G01*
X141466000Y49824000D02*
X149233000Y45582000D01*
X232217000Y-22320000D02*
X224541000Y-14784000D01*
X-41457000Y-62491000D02*
G75*
G02*
X-41394999Y-63557001I-338515J-554492D01*
G01*
X255912000Y-48408000D02*
G75*
G02*
X256941026Y-48614988I439000J-478900D01*
G01*
X36652000Y72871000D02*
X43409000Y64502000D01*
X59862000Y-1214000D02*
X66835000Y6652000D01*
X-51445000Y26499000D02*
G75*
G02*
X-52435000Y26499000I-495000J420489D01*
G01*
X-8266000Y46260000D02*
G75*
G02*
X-8306000Y47358000I328008J561678D01*
G01*
X162470000Y29666000D02*
G75*
G02*
X161678991Y30429002I-153200J632700D01*
G01*
X229682000Y-76060000D02*
G75*
G02*
X230610962Y-75571079I643300J-95300D01*
G01*
X9418000Y-27824000D02*
G75*
G02*
X8939018Y-26843011I79200J646100D01*
G01*
X-30962000Y26505000D02*
G75*
G02*
X-29914000Y25941000I648041J-51513D01*
G01*
X24789000Y37455000D02*
G75*
G02*
X23735071Y36936001I-404100J-509000D01*
G01*
X-40174000Y1277000D02*
G75*
G02*
X-39182999Y879000I357790J-541892D01*
G01*
X239449000Y3403000D02*
X229372000Y-359000D01*
M02*
