%TF.GenerationSoftware,KiCad,Pcbnew,8.0.5*%
%TF.CreationDate,2024-10-17T15:54:22-04:00*%
%TF.ProjectId,orb_generated,6f72625f-6765-46e6-9572-617465642e6b,rev?*%
%TF.SameCoordinates,Original*%
%TF.FileFunction,Soldermask,Top*%
%TF.FilePolarity,Negative*%
%FSLAX46Y46*%
G04 Gerber Fmt 4.6, Leading zero omitted, Abs format (unit mm)*
G04 Created by KiCad (PCBNEW 8.0.5) date 2024-10-17 15:54:22*
%MOMM*%
%LPD*%
G01*
G04 APERTURE LIST*
G04 Aperture macros list*
%AMRoundRect*
0 Rectangle with rounded corners*
0 $1 Rounding radius*
0 $2 $3 $4 $5 $6 $7 $8 $9 X,Y pos of 4 corners*
0 Add a 4 corners polygon primitive as box body*
4,1,4,$2,$3,$4,$5,$6,$7,$8,$9,$2,$3,0*
0 Add four circle primitives for the rounded corners*
1,1,$1+$1,$2,$3*
1,1,$1+$1,$4,$5*
1,1,$1+$1,$6,$7*
1,1,$1+$1,$8,$9*
0 Add four rect primitives between the rounded corners*
20,1,$1+$1,$2,$3,$4,$5,0*
20,1,$1+$1,$4,$5,$6,$7,0*
20,1,$1+$1,$6,$7,$8,$9,0*
20,1,$1+$1,$8,$9,$2,$3,0*%
G04 Aperture macros list end*
%ADD10RoundRect,0.200000X0.247487X0.530330X-0.530330X-0.247487X-0.247487X-0.530330X0.530330X0.247487X0*%
%ADD11RoundRect,0.200000X-0.516651X0.274904X0.219393X-0.542556X0.516651X-0.274904X-0.219393X0.542556X0*%
%ADD12RoundRect,0.200000X0.111499X-0.574515X0.283577X0.511942X-0.111499X0.574515X-0.283577X-0.511942X0*%
%ADD13RoundRect,0.200000X0.550000X0.200000X-0.550000X0.200000X-0.550000X-0.200000X0.550000X-0.200000X0*%
%ADD14RoundRect,0.200000X-0.501555X0.301566X0.190697X-0.553294X0.501555X-0.301566X-0.190697X0.553294X0*%
%ADD15RoundRect,0.200000X-0.421103X-0.406414X0.583797X0.040996X0.421103X0.406414X-0.583797X-0.040996X0*%
%ADD16RoundRect,0.200000X0.020252X-0.584884X0.360171X0.461278X-0.020252X0.584884X-0.360171X-0.461278X0*%
%ADD17RoundRect,0.200000X0.583821X0.040652X-0.473566X0.343853X-0.583821X-0.040652X0.473566X-0.343853X0*%
%ADD18RoundRect,0.200000X0.256705X0.525930X-0.534569X-0.238194X-0.256705X-0.525930X0.534569X0.238194X0*%
%ADD19RoundRect,0.200000X-0.020252X0.584884X-0.360171X-0.461278X0.020252X-0.584884X0.360171X0.461278X0*%
%ADD20RoundRect,0.200000X-0.549882X0.200324X0.292767X-0.506742X0.549882X-0.200324X-0.292767X0.506742X0*%
%ADD21RoundRect,0.200000X-0.384079X-0.441569X0.578003X0.091721X0.384079X0.441569X-0.578003X-0.091721X0*%
%ADD22RoundRect,0.200000X-0.200324X-0.549882X0.506742X0.292767X0.200324X0.549882X-0.506742X-0.292767X0*%
%ADD23RoundRect,0.200000X0.360171X-0.461278X0.020252X0.584884X-0.360171X0.461278X-0.020252X-0.584884X0*%
%ADD24RoundRect,0.200000X0.585149X0.010041X-0.454922X0.368166X-0.585149X-0.010041X0.454922X-0.368166X0*%
%ADD25RoundRect,0.200000X-0.582047X-0.061002X0.485278X-0.327116X0.582047X0.061002X-0.485278X0.327116X0*%
%ADD26RoundRect,0.200000X0.435030X0.391470X-0.584872X-0.020597X-0.435030X-0.391470X0.584872X0.020597X0*%
%ADD27RoundRect,0.200000X0.580852X-0.071493X-0.399255X0.427896X-0.580852X0.071493X0.399255X-0.427896X0*%
%ADD28RoundRect,0.200000X-0.511942X-0.283577X0.574515X-0.111499X0.511942X0.283577X-0.574515X0.111499X0*%
%ADD29RoundRect,0.200000X0.579564X0.081278X-0.496399X0.309981X-0.579564X-0.081278X0.496399X-0.309981X0*%
%ADD30RoundRect,0.200000X-0.435030X-0.391470X0.584872X0.020597X0.435030X0.391470X-0.584872X-0.020597X0*%
%ADD31RoundRect,0.200000X-0.101455X0.576374X-0.292468X-0.506915X0.101455X-0.576374X0.292468X0.506915X0*%
%ADD32RoundRect,0.200000X-0.506742X0.292767X0.200324X-0.549882X0.506742X-0.292767X-0.200324X0.549882X0*%
%ADD33RoundRect,0.200000X0.511942X0.283577X-0.574515X0.111499X-0.511942X-0.283577X0.574515X-0.111499X0*%
%ADD34RoundRect,0.200000X0.051178X0.582993X-0.413702X-0.413946X-0.051178X-0.582993X0.413702X0.413946X0*%
%ADD35RoundRect,0.200000X-0.550000X-0.200000X0.550000X-0.200000X0.550000X0.200000X-0.550000X0.200000X0*%
%ADD36RoundRect,0.200000X-0.292767X-0.506742X0.549882X0.200324X0.292767X0.506742X-0.549882X-0.200324X0*%
%ADD37RoundRect,0.200000X0.200000X-0.550000X0.200000X0.550000X-0.200000X0.550000X-0.200000X-0.550000X0*%
%ADD38RoundRect,0.200000X-0.448427X-0.376050X0.585235X0.000173X0.448427X0.376050X-0.585235X-0.000173X0*%
%ADD39RoundRect,0.200000X-0.237879X0.534709X-0.161147X-0.562612X0.237879X-0.534709X0.161147X0.562612X0*%
%ADD40RoundRect,0.200000X0.391470X-0.435030X-0.020597X0.584872X-0.391470X0.435030X0.020597X-0.584872X0*%
%ADD41RoundRect,0.200000X0.190371X-0.553407X0.209568X0.546426X-0.190371X0.553407X-0.209568X-0.546426X0*%
%ADD42RoundRect,0.200000X0.301270X-0.501733X0.091380X0.578057X-0.301270X0.501733X-0.091380X-0.578057X0*%
%ADD43RoundRect,0.200000X0.237879X-0.534709X0.161147X0.562612X-0.237879X0.534709X-0.161147X-0.562612X0*%
%ADD44RoundRect,0.200000X-0.061002X0.582047X-0.327116X-0.485278X0.061002X-0.582047X0.327116X0.485278X0*%
%ADD45RoundRect,0.200000X0.521370X-0.265845X-0.228828X0.538644X-0.521370X0.265845X0.228828X-0.538644X0*%
%ADD46RoundRect,0.200000X-0.538644X0.228828X0.265845X-0.521370X0.538644X-0.228828X-0.265845X0.521370X0*%
%ADD47RoundRect,0.200000X0.352341X0.467286X-0.570197X-0.131817X-0.352341X-0.467286X0.570197X0.131817X0*%
%ADD48RoundRect,0.200000X0.091721X0.578003X-0.441569X-0.384079X-0.091721X-0.578003X0.441569X0.384079X0*%
%ADD49RoundRect,0.200000X0.081620X0.579515X-0.434799X-0.391727X-0.081620X-0.579515X0.434799X0.391727X0*%
%ADD50RoundRect,0.200000X-0.318887X-0.490725X0.559613X0.171271X0.318887X0.490725X-0.559613X-0.171271X0*%
%ADD51RoundRect,0.200000X0.473364X-0.344132X-0.141749X0.567809X-0.473364X0.344132X0.141749X-0.567809X0*%
%ADD52RoundRect,0.200000X0.151637X0.565249X-0.479297X-0.335818X-0.151637X-0.565249X0.479297X0.335818X0*%
%ADD53RoundRect,0.200000X0.091380X-0.578057X0.301270X0.501733X-0.091380X0.578057X-0.301270X-0.501733X0*%
%ADD54RoundRect,0.200000X0.010386X0.585143X-0.383818X-0.441796X-0.010386X-0.585143X0.383818X0.441796X0*%
%ADD55RoundRect,0.200000X-0.427896X0.399255X0.071493X-0.580852X0.427896X-0.399255X-0.071493X0.580852X0*%
%ADD56RoundRect,0.200000X0.265537X-0.521527X0.131481X0.570274X-0.265537X0.521527X-0.131481X-0.570274X0*%
%ADD57RoundRect,0.200000X0.121846X0.572410X-0.461065X-0.360443X-0.121846X-0.572410X0.461065X0.360443X0*%
%ADD58RoundRect,0.200000X0.582011X-0.061345X-0.406662X0.420863X-0.582011X0.061345X0.406662X-0.420863X0*%
%ADD59RoundRect,0.200000X-0.406662X-0.420863X0.582011X0.061345X0.406662X0.420863X-0.582011X-0.061345X0*%
%ADD60RoundRect,0.200000X-0.454704X0.368434X0.111837X-0.574450X0.454704X-0.368434X-0.111837X0.574450X0*%
%ADD61RoundRect,0.200000X-0.352341X-0.467286X0.570197X0.131817X0.352341X0.467286X-0.570197X-0.131817X0*%
%ADD62RoundRect,0.200000X0.061002X-0.582047X0.327116X0.485278X-0.061002X0.582047X-0.327116X-0.485278X0*%
%ADD63RoundRect,0.200000X0.490913X0.318597X-0.580894X0.071151X-0.490913X-0.318597X0.580894X-0.071151X0*%
%ADD64RoundRect,0.200000X0.151303X-0.565338X0.247175X0.530476X-0.151303X0.565338X-0.247175X-0.530476X0*%
%ADD65RoundRect,0.200000X0.583023X0.050835X-0.479495X0.335536X-0.583023X-0.050835X0.479495X-0.335536X0*%
%ADD66RoundRect,0.200000X-0.256705X-0.525930X0.534569X0.238194X0.256705X0.525930X-0.534569X-0.238194X0*%
%ADD67RoundRect,0.200000X0.506742X-0.292767X-0.200324X0.549882X-0.506742X0.292767X0.200324X-0.549882X0*%
%ADD68RoundRect,0.200000X-0.454922X-0.368166X0.585149X-0.010041X0.454922X0.368166X-0.585149X0.010041X0*%
%ADD69RoundRect,0.200000X0.534709X0.237879X-0.562612X0.161147X-0.534709X-0.237879X0.562612X-0.161147X0*%
%ADD70RoundRect,0.200000X-0.570274X-0.131481X0.521527X-0.265537X0.570274X0.131481X-0.521527X0.265537X0*%
%ADD71RoundRect,0.200000X-0.534709X-0.237879X0.562612X-0.161147X0.534709X0.237879X-0.562612X0.161147X0*%
%ADD72RoundRect,0.200000X0.141414X-0.567893X0.256395X0.526081X-0.141414X0.567893X-0.256395X-0.526081X0*%
%ADD73RoundRect,0.200000X0.570274X0.131481X-0.521527X0.265537X-0.570274X-0.131481X0.521527X-0.265537X0*%
%ADD74RoundRect,0.200000X0.559713X0.170941X-0.538779X0.228511X-0.559713X-0.170941X0.538779X-0.228511X0*%
%ADD75RoundRect,0.200000X-0.553294X0.190697X0.301566X-0.501555X0.553294X-0.190697X-0.301566X0.501555X0*%
%ADD76RoundRect,0.200000X0.399003X-0.428131X-0.030801X0.584424X-0.399003X0.428131X0.030801X-0.584424X0*%
%ADD77RoundRect,0.200000X-0.516813X-0.274599X0.572482X-0.121508X0.516813X0.274599X-0.572482X0.121508X0*%
%ADD78RoundRect,0.200000X0.567893X0.141414X-0.526081X0.256395X-0.567893X-0.141414X0.526081X-0.256395X0*%
%ADD79RoundRect,0.200000X-0.574450X0.111837X0.368434X-0.454704X0.574450X-0.111837X-0.368434X0.454704X0*%
%ADD80RoundRect,0.200000X-0.219073X0.542685X-0.180683X-0.556645X0.219073X-0.542685X0.180683X0.556645X0*%
%ADD81RoundRect,0.200000X-0.161147X0.562612X-0.237879X-0.534709X0.161147X-0.562612X0.237879X0.534709X0*%
%ADD82RoundRect,0.200000X0.309981X-0.496399X0.081278X0.579564X-0.309981X0.496399X-0.081278X-0.579564X0*%
%ADD83RoundRect,0.200000X-0.200000X0.550000X-0.200000X-0.550000X0.200000X-0.550000X0.200000X0.550000X0*%
%ADD84RoundRect,0.200000X0.582047X0.061002X-0.485278X0.327116X-0.582047X-0.061002X0.485278X-0.327116X0*%
%ADD85RoundRect,0.200000X0.020597X0.584872X-0.391470X-0.435030X-0.020597X-0.584872X0.391470X0.435030X0*%
%ADD86RoundRect,0.200000X0.526081X0.256395X-0.567893X0.141414X-0.526081X-0.256395X0.567893X-0.141414X0*%
%ADD87RoundRect,0.200000X-0.071493X-0.580852X0.427896X0.399255X0.071493X0.580852X-0.427896X-0.399255X0*%
%ADD88RoundRect,0.200000X0.434799X-0.391727X-0.081620X0.579515X-0.434799X0.391727X0.081620X-0.579515X0*%
%ADD89RoundRect,0.200000X-0.121846X-0.572410X0.461065X0.360443X0.121846X0.572410X-0.461065X-0.360443X0*%
%ADD90RoundRect,0.200000X0.180683X-0.556645X0.219073X0.542685X-0.180683X0.556645X-0.219073X-0.542685X0*%
%ADD91RoundRect,0.200000X0.181012X0.556538X-0.496216X-0.310274X-0.181012X-0.556538X0.496216X0.310274X0*%
%ADD92RoundRect,0.200000X-0.121508X0.572482X-0.274599X-0.516813X0.121508X-0.572482X0.274599X0.516813X0*%
%ADD93RoundRect,0.200000X0.506915X0.292468X-0.576374X0.101455X-0.506915X-0.292468X0.576374X-0.101455X0*%
%ADD94RoundRect,0.200000X0.121508X-0.572482X0.274599X0.516813X-0.121508X0.572482X-0.274599X-0.516813X0*%
%ADD95RoundRect,0.200000X-0.161478X-0.562516X0.485085X0.327402X0.161478X0.562516X-0.485085X-0.327402X0*%
%ADD96RoundRect,0.200000X-0.020597X-0.584872X0.391470X0.435030X0.020597X0.584872X-0.391470X-0.435030X0*%
%ADD97RoundRect,0.200000X-0.180683X0.556645X-0.219073X-0.542685X0.180683X-0.556645X0.219073X0.542685X0*%
%ADD98RoundRect,0.200000X-0.479297X0.335818X0.151637X-0.565249X0.479297X-0.335818X-0.151637X0.565249X0*%
%ADD99RoundRect,0.200000X-0.572410X0.121846X0.360443X-0.461065X0.572410X-0.121846X-0.360443X0.461065X0*%
%ADD100RoundRect,0.200000X0.131817X0.570197X-0.467286X-0.352341X-0.131817X-0.570197X0.467286X0.352341X0*%
%ADD101RoundRect,0.200000X-0.496216X0.310274X0.181012X-0.556538X0.496216X-0.310274X-0.181012X0.556538X0*%
%ADD102RoundRect,0.200000X0.549882X-0.200324X-0.292767X0.506742X-0.549882X0.200324X0.292767X-0.506742X0*%
%ADD103RoundRect,0.200000X0.327116X-0.485278X0.061002X0.582047X-0.327116X0.485278X-0.061002X-0.582047X0*%
%ADD104RoundRect,0.200000X0.562516X-0.161478X-0.327402X0.485085X-0.562516X0.161478X0.327402X-0.485085X0*%
%ADD105RoundRect,0.200000X-0.327402X-0.485085X0.562516X0.161478X0.327402X0.485085X-0.562516X-0.161478X0*%
%ADD106RoundRect,0.200000X0.219073X-0.542685X0.180683X0.556645X-0.219073X0.542685X-0.180683X-0.556645X0*%
%ADD107RoundRect,0.200000X-0.562516X0.161478X0.327402X-0.485085X0.562516X-0.161478X-0.327402X0.485085X0*%
%ADD108RoundRect,0.200000X-0.584872X0.020597X0.435030X-0.391470X0.584872X-0.020597X-0.435030X0.391470X0*%
%ADD109RoundRect,0.200000X0.209891X0.546302X-0.511774X-0.283878X-0.209891X-0.546302X0.511774X0.283878X0*%
%ADD110RoundRect,0.200000X-0.441796X-0.383818X0.585143X0.010386X0.441796X0.383818X-0.585143X-0.010386X0*%
%ADD111RoundRect,0.200000X-0.473364X0.344132X0.141749X-0.567809X0.473364X-0.344132X-0.141749X0.567809X0*%
%ADD112RoundRect,0.200000X-0.101795X-0.576314X0.448205X0.376314X0.101795X0.576314X-0.448205X-0.376314X0*%
%ADD113RoundRect,0.200000X0.585235X-0.000173X-0.448427X0.376050X-0.585235X0.000173X0.448427X-0.376050X0*%
%ADD114RoundRect,0.200000X0.040996X0.583797X-0.406414X-0.421103X-0.040996X-0.583797X0.406414X0.421103X0*%
%ADD115RoundRect,0.200000X0.071493X0.580852X-0.427896X-0.399255X-0.071493X-0.580852X0.427896X0.399255X0*%
%ADD116RoundRect,0.200000X0.228511X-0.538779X0.170941X0.559713X-0.228511X0.538779X-0.170941X-0.559713X0*%
%ADD117RoundRect,0.200000X0.171271X0.559613X-0.490725X-0.318887X-0.171271X-0.559613X0.490725X0.318887X0*%
%ADD118RoundRect,0.200000X-0.219393X-0.542556X0.516651X0.274904X0.219393X0.542556X-0.516651X-0.274904X0*%
%ADD119RoundRect,0.200000X0.292767X0.506742X-0.549882X-0.200324X-0.292767X-0.506742X0.549882X0.200324X0*%
%ADD120RoundRect,0.200000X0.448427X0.376050X-0.585235X-0.000173X-0.448427X-0.376050X0.585235X0.000173X0*%
%ADD121RoundRect,0.200000X-0.292468X0.506915X-0.101455X-0.576374X0.292468X-0.506915X0.101455X0.576374X0*%
%ADD122RoundRect,0.200000X0.579515X-0.081620X-0.391727X0.434799X-0.579515X0.081620X0.391727X-0.434799X0*%
%ADD123RoundRect,0.200000X-0.335536X0.479495X-0.050835X-0.583023X0.335536X-0.479495X0.050835X0.583023X0*%
%ADD124RoundRect,0.200000X-0.485085X0.327402X0.161478X-0.562516X0.485085X-0.327402X-0.161478X0.562516X0*%
%ADD125RoundRect,0.200000X0.265845X0.521370X-0.538644X-0.228828X-0.265845X-0.521370X0.538644X0.228828X0*%
%ADD126RoundRect,0.200000X-0.344132X-0.473364X0.567809X0.141749X0.344132X0.473364X-0.567809X-0.141749X0*%
%ADD127RoundRect,0.200000X0.101455X-0.576374X0.292468X0.506915X-0.101455X0.576374X-0.292468X-0.506915X0*%
%ADD128RoundRect,0.200000X0.572410X-0.121846X-0.360443X0.461065X-0.572410X0.121846X0.360443X-0.461065X0*%
%ADD129RoundRect,0.200000X0.562612X0.161147X-0.534709X0.237879X-0.562612X-0.161147X0.534709X-0.237879X0*%
%ADD130RoundRect,0.200000X-0.141749X-0.567809X0.473364X0.344132X0.141749X0.567809X-0.473364X-0.344132X0*%
%ADD131RoundRect,0.200000X0.421103X0.406414X-0.583797X-0.040996X-0.421103X-0.406414X0.583797X0.040996X0*%
%ADD132RoundRect,0.200000X-0.181012X-0.556538X0.496216X0.310274X0.181012X0.556538X-0.496216X-0.310274X0*%
%ADD133RoundRect,0.200000X0.274599X-0.516813X0.121508X0.572482X-0.274599X0.516813X-0.121508X-0.572482X0*%
%ADD134RoundRect,0.200000X0.238194X0.534569X-0.525930X-0.256705X-0.238194X-0.534569X0.525930X0.256705X0*%
%ADD135RoundRect,0.200000X-0.360443X-0.461065X0.572410X0.121846X0.360443X0.461065X-0.572410X-0.121846X0*%
%ADD136RoundRect,0.200000X-0.238194X-0.534569X0.525930X0.256705X0.238194X0.534569X-0.525930X-0.256705X0*%
%ADD137RoundRect,0.200000X0.360443X0.461065X-0.572410X-0.121846X-0.360443X-0.461065X0.572410X0.121846X0*%
%ADD138RoundRect,0.200000X0.256395X-0.526081X0.141414X0.567893X-0.256395X0.526081X-0.141414X-0.567893X0*%
%ADD139RoundRect,0.200000X0.559613X-0.171271X-0.318887X0.490725X-0.559613X0.171271X0.318887X-0.490725X0*%
%ADD140RoundRect,0.200000X0.496399X0.309981X-0.579564X0.081278X-0.496399X-0.309981X0.579564X-0.081278X0*%
%ADD141RoundRect,0.200000X-0.585235X0.000173X0.448427X-0.376050X0.585235X-0.000173X-0.448427X0.376050X0*%
%ADD142RoundRect,0.200000X-0.376314X-0.448205X0.576314X0.101795X0.376314X0.448205X-0.576314X-0.101795X0*%
%ADD143RoundRect,0.200000X0.580894X0.071151X-0.490913X0.318597X-0.580894X-0.071151X0.490913X-0.318597X0*%
%ADD144RoundRect,0.200000X0.485085X-0.327402X-0.161478X0.562516X-0.485085X0.327402X0.161478X-0.562516X0*%
%ADD145RoundRect,0.200000X-0.553407X-0.190371X0.546426X-0.209568X0.553407X0.190371X-0.546426X0.209568X0*%
%ADD146RoundRect,0.200000X-0.580852X0.071493X0.399255X-0.427896X0.580852X-0.071493X-0.399255X0.427896X0*%
%ADD147RoundRect,0.200000X0.219393X0.542556X-0.516651X-0.274904X-0.219393X-0.542556X0.516651X0.274904X0*%
%ADD148RoundRect,0.200000X0.578003X-0.091721X-0.384079X0.441569X-0.578003X0.091721X0.384079X-0.441569X0*%
%ADD149RoundRect,0.200000X0.335536X-0.479495X0.050835X0.583023X-0.335536X0.479495X-0.050835X-0.583023X0*%
%ADD150RoundRect,0.200000X0.071151X-0.580894X0.318597X0.490913X-0.071151X0.580894X-0.318597X-0.490913X0*%
%ADD151RoundRect,0.200000X-0.040652X0.583821X-0.343853X-0.473566X0.040652X-0.583821X0.343853X0.473566X0*%
%ADD152RoundRect,0.200000X-0.582011X0.061345X0.406662X-0.420863X0.582011X-0.061345X-0.406662X0.420863X0*%
%ADD153RoundRect,0.200000X0.141749X0.567809X-0.473364X-0.344132X-0.141749X-0.567809X0.473364X0.344132X0*%
%ADD154RoundRect,0.200000X-0.000173X-0.585235X0.376050X0.448427X0.000173X0.585235X-0.376050X-0.448427X0*%
%ADD155RoundRect,0.200000X-0.448205X0.376314X0.101795X-0.576314X0.448205X-0.376314X-0.101795X0.576314X0*%
%ADD156RoundRect,0.200000X-0.360171X0.461278X-0.020252X-0.584884X0.360171X-0.461278X0.020252X0.584884X0*%
%ADD157RoundRect,0.200000X-0.556538X0.181012X0.310274X-0.496216X0.556538X-0.181012X-0.310274X0.496216X0*%
%ADD158RoundRect,0.200000X0.473566X0.343853X-0.583821X0.040652X-0.473566X-0.343853X0.583821X-0.040652X0*%
%ADD159RoundRect,0.200000X-0.467493X-0.352065X0.584442X-0.030457X0.467493X0.352065X-0.584442X0.030457X0*%
%ADD160RoundRect,0.200000X-0.490913X-0.318597X0.580894X-0.071151X0.490913X0.318597X-0.580894X0.071151X0*%
%ADD161RoundRect,0.200000X-0.473566X-0.343853X0.583821X-0.040652X0.473566X0.343853X-0.583821X0.040652X0*%
%ADD162RoundRect,0.200000X0.283577X-0.511942X0.111499X0.574515X-0.283577X0.511942X-0.111499X-0.574515X0*%
%ADD163RoundRect,0.200000X-0.506915X-0.292468X0.576374X-0.101455X0.506915X0.292468X-0.576374X0.101455X0*%
%ADD164RoundRect,0.200000X0.292468X-0.506915X0.101455X0.576374X-0.292468X0.506915X-0.101455X-0.576374X0*%
%ADD165RoundRect,0.200000X-0.579515X0.081620X0.391727X-0.434799X0.579515X-0.081620X-0.391727X0.434799X0*%
%ADD166RoundRect,0.200000X-0.521527X-0.265537X0.570274X-0.131481X0.521527X0.265537X-0.570274X0.131481X0*%
%ADD167RoundRect,0.200000X-0.420863X0.406662X0.061345X-0.582011X0.420863X-0.406662X-0.061345X0.582011X0*%
%ADD168RoundRect,0.200000X-0.274904X-0.516651X0.542556X0.219393X0.274904X0.516651X-0.542556X-0.219393X0*%
%ADD169RoundRect,0.200000X0.448205X-0.376314X-0.101795X0.576314X-0.448205X0.376314X0.101795X-0.576314X0*%
%ADD170RoundRect,0.200000X-0.010386X-0.585143X0.383818X0.441796X0.010386X0.585143X-0.383818X-0.441796X0*%
%ADD171RoundRect,0.200000X0.327402X0.485085X-0.562516X-0.161478X-0.327402X-0.485085X0.562516X0.161478X0*%
%ADD172RoundRect,0.200000X0.584424X-0.030801X-0.428131X0.399003X-0.584424X0.030801X0.428131X-0.399003X0*%
%ADD173RoundRect,0.200000X-0.081278X0.579564X-0.309981X-0.496399X0.081278X-0.579564X0.309981X0.496399X0*%
%ADD174RoundRect,0.200000X-0.327116X0.485278X-0.061002X-0.582047X0.327116X-0.485278X0.061002X0.582047X0*%
%ADD175RoundRect,0.200000X-0.111499X0.574515X-0.283577X-0.511942X0.111499X-0.574515X0.283577X0.511942X0*%
%ADD176RoundRect,0.200000X-0.141414X0.567893X-0.256395X-0.526081X0.141414X-0.567893X0.256395X0.526081X0*%
%ADD177RoundRect,0.200000X-0.530476X-0.247175X0.565338X-0.151303X0.530476X0.247175X-0.565338X0.151303X0*%
%ADD178RoundRect,0.200000X-0.434799X0.391727X0.081620X-0.579515X0.434799X-0.391727X-0.081620X0.579515X0*%
%ADD179RoundRect,0.200000X0.384079X0.441569X-0.578003X-0.091721X-0.384079X-0.441569X0.578003X0.091721X0*%
%ADD180RoundRect,0.200000X-0.309981X0.496399X-0.081278X-0.579564X0.309981X-0.496399X0.081278X0.579564X0*%
%ADD181RoundRect,0.200000X-0.247487X-0.530330X0.530330X0.247487X0.247487X0.530330X-0.530330X-0.247487X0*%
%ADD182RoundRect,0.200000X-0.283878X-0.511774X0.546302X0.209891X0.283878X0.511774X-0.546302X-0.209891X0*%
%ADD183RoundRect,0.200000X-0.283577X0.511942X-0.111499X-0.574515X0.283577X-0.511942X0.111499X0.574515X0*%
%ADD184RoundRect,0.200000X0.496216X-0.310274X-0.181012X0.556538X-0.496216X0.310274X0.181012X-0.556538X0*%
%ADD185RoundRect,0.200000X-0.413946X-0.413702X0.582993X0.051178X0.413946X0.413702X-0.582993X-0.051178X0*%
%ADD186RoundRect,0.200000X-0.511774X0.283878X0.209891X-0.546302X0.511774X-0.283878X-0.209891X0.546302X0*%
%ADD187RoundRect,0.200000X-0.391727X-0.434799X0.579515X0.081620X0.391727X0.434799X-0.579515X-0.081620X0*%
%ADD188RoundRect,0.200000X-0.530330X0.247487X0.247487X-0.530330X0.530330X-0.247487X-0.247487X0.530330X0*%
%ADD189RoundRect,0.200000X-0.171271X-0.559613X0.490725X0.318887X0.171271X0.559613X-0.490725X-0.318887X0*%
%ADD190RoundRect,0.200000X-0.391470X0.435030X0.020597X-0.584872X0.391470X-0.435030X-0.020597X0.584872X0*%
%ADD191RoundRect,0.200000X0.574450X-0.111837X-0.368434X0.454704X-0.574450X0.111837X0.368434X-0.454704X0*%
%ADD192RoundRect,0.200000X-0.399255X-0.427896X0.580852X0.071493X0.399255X0.427896X-0.580852X-0.071493X0*%
%ADD193RoundRect,0.200000X-0.585149X-0.010041X0.454922X-0.368166X0.585149X0.010041X-0.454922X0.368166X0*%
%ADD194RoundRect,0.200000X0.582993X-0.051178X-0.413946X0.413702X-0.582993X0.051178X0.413946X-0.413702X0*%
%ADD195RoundRect,0.200000X-0.542556X0.219393X0.274904X-0.516651X0.542556X-0.219393X-0.274904X0.516651X0*%
%ADD196RoundRect,0.200000X0.343853X-0.473566X0.040652X0.583821X-0.343853X0.473566X-0.040652X-0.583821X0*%
%ADD197RoundRect,0.200000X-0.534569X0.238194X0.256705X-0.525930X0.534569X-0.238194X-0.256705X0.525930X0*%
%ADD198RoundRect,0.200000X0.101795X0.576314X-0.448205X-0.376314X-0.101795X-0.576314X0.448205X0.376314X0*%
%ADD199RoundRect,0.200000X-0.576314X0.101795X0.376314X-0.448205X0.576314X-0.101795X-0.376314X0.448205X0*%
%ADD200RoundRect,0.200000X0.441569X-0.384079X-0.091721X0.578003X-0.441569X0.384079X0.091721X-0.578003X0*%
%ADD201RoundRect,0.200000X-0.071151X0.580894X-0.318597X-0.490913X0.071151X-0.580894X0.318597X0.490913X0*%
%ADD202RoundRect,0.200000X-0.343853X0.473566X-0.040652X-0.583821X0.343853X-0.473566X0.040652X0.583821X0*%
%ADD203RoundRect,0.200000X0.538644X-0.228828X-0.265845X0.521370X-0.538644X0.228828X0.265845X-0.521370X0*%
%ADD204RoundRect,0.200000X-0.525930X0.256705X0.238194X-0.534569X0.525930X-0.256705X-0.238194X0.534569X0*%
%ADD205RoundRect,0.200000X0.516651X-0.274904X-0.219393X0.542556X-0.516651X0.274904X0.219393X-0.542556X0*%
G04 APERTURE END LIST*
D10*
%TO.C,LED549*%
X-66027020Y37140330D03*
X-67285670Y38398980D03*
X-69604980Y36079670D03*
X-68346330Y34821020D03*
%TD*%
D11*
%TO.C,LED232*%
X-42212976Y-39688717D03*
X-43535773Y-40879769D03*
X-41341024Y-43317283D03*
X-40018227Y-42126231D03*
%TD*%
D12*
%TO.C,LED599*%
X9365404Y-27182583D03*
X11123490Y-27461036D03*
X11636596Y-24221417D03*
X9878510Y-23942964D03*
%TD*%
D13*
%TO.C,LED88*%
X-13472000Y40673000D03*
X-13472000Y42453000D03*
X-16752000Y42453000D03*
X-16752000Y40673000D03*
%TD*%
D14*
%TO.C,LED508*%
X178381662Y26214994D03*
X176998342Y25094805D03*
X179062512Y22545766D03*
X180445832Y23665955D03*
%TD*%
D15*
%TO.C,LED66*%
X136279876Y56418388D03*
X137003868Y54792277D03*
X140000298Y56126372D03*
X139276306Y57752483D03*
%TD*%
D16*
%TO.C,LED165*%
X8251772Y-47603707D03*
X9944653Y-48153757D03*
X10958228Y-45034293D03*
X9265347Y-44484243D03*
%TD*%
D17*
%TO.C,LED141*%
X25201152Y35529432D03*
X25691785Y37240478D03*
X22538848Y38144568D03*
X22048215Y36433522D03*
%TD*%
D18*
%TO.C,LED272*%
X153155050Y-68993592D03*
X151918559Y-67713169D03*
X149559124Y-69991648D03*
X150795615Y-71272071D03*
%TD*%
D19*
%TO.C,LED397*%
X130570315Y16528088D03*
X128877435Y17078138D03*
X127863859Y13958672D03*
X129556739Y13408622D03*
%TD*%
D17*
%TO.C,LED170*%
X9562152Y6038432D03*
X10052785Y7749478D03*
X6899848Y8653568D03*
X6409215Y6942522D03*
%TD*%
D20*
%TO.C,LED162*%
X-5380232Y-41248049D03*
X-6524394Y-42611608D03*
X-4011768Y-44719951D03*
X-2867606Y-43356392D03*
%TD*%
D21*
%TO.C,LED592*%
X18292144Y-11970677D03*
X19155105Y-13527499D03*
X22023856Y-11937323D03*
X21160895Y-10380501D03*
%TD*%
D22*
%TO.C,LED576*%
X57689049Y38707768D03*
X59052608Y37563606D03*
X61160951Y40076232D03*
X59797392Y41220394D03*
%TD*%
D23*
%TO.C,LED194*%
X112421435Y18755622D03*
X114114315Y19305672D03*
X113100739Y22425138D03*
X111407859Y21875088D03*
%TD*%
D24*
%TO.C,LED560*%
X-51217105Y39442557D03*
X-50637594Y41125580D03*
X-53738895Y42193443D03*
X-54318406Y40510420D03*
%TD*%
D25*
%TO.C,LED188*%
X49115025Y-21599685D03*
X48684404Y-23326812D03*
X51866975Y-24120315D03*
X52297596Y-22393188D03*
%TD*%
D26*
%TO.C,LED198*%
X220840068Y14687541D03*
X220173270Y16337929D03*
X217132106Y15109219D03*
X217798904Y13458831D03*
%TD*%
D27*
%TO.C,LED404*%
X138069286Y132840D03*
X138877389Y1718831D03*
X135954888Y3207920D03*
X135146785Y1621929D03*
%TD*%
D28*
%TO.C,LED436*%
X31585964Y-68856510D03*
X31864418Y-70614595D03*
X35104036Y-70101490D03*
X34825582Y-68343405D03*
%TD*%
D29*
%TO.C,LED231*%
X-53395879Y-45160527D03*
X-53025796Y-43419424D03*
X-56234121Y-42737473D03*
X-56604204Y-44478576D03*
%TD*%
D30*
%TO.C,LED501*%
X165192106Y52845219D03*
X165858904Y51194831D03*
X168900068Y52423541D03*
X168233270Y54073929D03*
%TD*%
D31*
%TO.C,LED205*%
X185842349Y30689917D03*
X184089391Y30999012D03*
X183519825Y27768843D03*
X185272783Y27459748D03*
%TD*%
D32*
%TO.C,LED491*%
X211578695Y18429774D03*
X210215136Y17285611D03*
X212323479Y14772986D03*
X213687038Y15917149D03*
%TD*%
D33*
%TO.C,LED310*%
X-67288964Y-4564490D03*
X-67567418Y-2806405D03*
X-70807036Y-3319510D03*
X-70528582Y-5077595D03*
%TD*%
D34*
%TO.C,LED350*%
X-27105292Y-13588785D03*
X-28718520Y-12836525D03*
X-30104708Y-15809215D03*
X-28491480Y-16561475D03*
%TD*%
D35*
%TO.C,LED214*%
X221817087Y49442380D03*
X221817087Y47662380D03*
X225097087Y47662380D03*
X225097087Y49442380D03*
%TD*%
D36*
%TO.C,LED382*%
X44070606Y13654608D03*
X45214768Y12291049D03*
X47727394Y14399392D03*
X46583232Y15762951D03*
%TD*%
D37*
%TO.C,LED209*%
X163811087Y2074380D03*
X165591087Y2074380D03*
X165591087Y5354380D03*
X163811087Y5354380D03*
%TD*%
D38*
%TO.C,LED497*%
X160514593Y47821794D03*
X161123389Y46149141D03*
X164205581Y47270966D03*
X163596785Y48943619D03*
%TD*%
D39*
%TO.C,LED248*%
X203714518Y-38299532D03*
X201938855Y-38423698D03*
X202167656Y-41695708D03*
X203943319Y-41571542D03*
%TD*%
D40*
%TO.C,LED356*%
X60375161Y45301019D03*
X62025548Y45967819D03*
X60796839Y49008981D03*
X59146452Y48342181D03*
%TD*%
D41*
%TO.C,LED407*%
X132148601Y34539163D03*
X133928331Y34508097D03*
X133985573Y37787597D03*
X132205843Y37818663D03*
%TD*%
D39*
%TO.C,LED107*%
X223553518Y22759468D03*
X221777855Y22635302D03*
X222006656Y19363292D03*
X223782319Y19487458D03*
%TD*%
D42*
%TO.C,LED384*%
X37418280Y10814312D03*
X39165575Y11153951D03*
X38539720Y14373688D03*
X36792425Y14034049D03*
%TD*%
D27*
%TO.C,LED605*%
X123263286Y-14167160D03*
X124071389Y-12581169D03*
X121148888Y-11092080D03*
X120340785Y-12678071D03*
%TD*%
D43*
%TO.C,LED142*%
X25188569Y42013912D03*
X26964232Y42138078D03*
X26735431Y45410088D03*
X24959768Y45285922D03*
%TD*%
D44*
%TO.C,LED266*%
X190780402Y-54541645D03*
X189053276Y-54111025D03*
X188259772Y-57293595D03*
X189986898Y-57724215D03*
%TD*%
D17*
%TO.C,LED296*%
X142162239Y-34430188D03*
X142652872Y-32719142D03*
X139499935Y-31815052D03*
X139009302Y-33526098D03*
%TD*%
D45*
%TO.C,LED217*%
X-35089428Y55519601D03*
X-33787618Y56733558D03*
X-36024572Y59132399D03*
X-37326382Y57918442D03*
%TD*%
D10*
%TO.C,LED555*%
X-55220020Y26217330D03*
X-56478670Y27475980D03*
X-58797980Y25156670D03*
X-57539330Y23898020D03*
%TD*%
D46*
%TO.C,LED341*%
X-23916442Y-30742618D03*
X-25130398Y-32044427D03*
X-22731558Y-34281382D03*
X-21517602Y-32979573D03*
%TD*%
D30*
%TO.C,LED449*%
X113252106Y15109219D03*
X113918904Y13458831D03*
X116960068Y14687541D03*
X116293270Y16337929D03*
%TD*%
D47*
%TO.C,LED291*%
X139599235Y-11469829D03*
X138629779Y-9976996D03*
X135878939Y-11763411D03*
X136848395Y-13256244D03*
%TD*%
D48*
%TO.C,LED110*%
X218340587Y45711275D03*
X216783763Y46574236D03*
X215193587Y43705485D03*
X216750411Y42842524D03*
%TD*%
D17*
%TO.C,LED282*%
X149556239Y-58290188D03*
X150046872Y-56579142D03*
X146893935Y-55675052D03*
X146403302Y-57386098D03*
%TD*%
D49*
%TO.C,LED277*%
X174716844Y-40736416D03*
X173145197Y-39900757D03*
X171605330Y-42796824D03*
X173176977Y-43632483D03*
%TD*%
D50*
%TO.C,LED631*%
X101567709Y-21588811D03*
X102638940Y-23010384D03*
X105258465Y-21036429D03*
X104187234Y-19614856D03*
%TD*%
D51*
%TO.C,LED94*%
X-8759767Y51457697D03*
X-7284080Y52453060D03*
X-9118233Y55172303D03*
X-10593920Y54176940D03*
%TD*%
D23*
%TO.C,LED132*%
X-16795652Y-7181758D03*
X-15102772Y-6631708D03*
X-16116348Y-3512242D03*
X-17809228Y-4062292D03*
%TD*%
D52*
%TO.C,LED547*%
X231259798Y37612306D03*
X229801707Y38633272D03*
X227920376Y35946454D03*
X229378467Y34925488D03*
%TD*%
D53*
%TO.C,LED210*%
X-51170575Y46537952D03*
X-49423280Y46198312D03*
X-48797425Y49418048D03*
X-50544720Y49757688D03*
%TD*%
D54*
%TO.C,LED514*%
X178920697Y33177504D03*
X177258924Y33815399D03*
X176083477Y30753256D03*
X177745250Y30115361D03*
%TD*%
D55*
%TO.C,LED322*%
X-37228549Y9478302D03*
X-38814540Y8670200D03*
X-37325451Y5747698D03*
X-35739460Y6555800D03*
%TD*%
D56*
%TO.C,LED622*%
X90462586Y-17890861D03*
X92229319Y-17673932D03*
X91829588Y-14418379D03*
X90062855Y-14635308D03*
%TD*%
D57*
%TO.C,LED482*%
X213021917Y24737550D03*
X211512392Y25680807D03*
X209774257Y22899210D03*
X211283782Y21955953D03*
%TD*%
D58*
%TO.C,LED395*%
X20914872Y-76855D03*
X21695173Y1522998D03*
X18747128Y2960855D03*
X17966827Y1361002D03*
%TD*%
D43*
%TO.C,LED208*%
X157788656Y1545292D03*
X159564319Y1669458D03*
X159335518Y4941468D03*
X157559855Y4817302D03*
%TD*%
D59*
%TO.C,LED441*%
X37577827Y-43263002D03*
X38358129Y-44862856D03*
X41306173Y-43424998D03*
X40525871Y-41825144D03*
%TD*%
D60*
%TO.C,LED196*%
X221684303Y1031518D03*
X220158547Y114751D03*
X221847871Y-2696758D03*
X223373627Y-1779991D03*
%TD*%
D40*
%TO.C,LED157*%
X16400161Y-50448981D03*
X18050549Y-49782183D03*
X16821839Y-46741019D03*
X15171451Y-47407817D03*
%TD*%
D34*
%TO.C,LED216*%
X217359795Y53991595D03*
X215746567Y54743855D03*
X214360379Y51771165D03*
X215973607Y51018905D03*
%TD*%
D61*
%TO.C,LED411*%
X122848939Y49538589D03*
X123818395Y48045756D03*
X126569235Y49832171D03*
X125599779Y51325004D03*
%TD*%
D62*
%TO.C,LED581*%
X6021685Y-40539975D03*
X7748811Y-40970595D03*
X8542315Y-37788025D03*
X6815189Y-37357405D03*
%TD*%
D63*
%TO.C,LED62*%
X-30045826Y69177731D03*
X-30446240Y70912109D03*
X-33642174Y70174269D03*
X-33241760Y68439891D03*
%TD*%
D64*
%TO.C,LED186*%
X42464451Y-38777190D03*
X44237678Y-38932328D03*
X44523549Y-35664810D03*
X42750322Y-35509672D03*
%TD*%
D65*
%TO.C,LED558*%
X-59030230Y37273863D03*
X-58569532Y38993210D03*
X-61737770Y39842137D03*
X-62198468Y38122790D03*
%TD*%
D27*
%TO.C,LED612*%
X131125286Y-13574160D03*
X131933389Y-11988169D03*
X129010888Y-10499080D03*
X128202785Y-12085071D03*
%TD*%
D23*
%TO.C,LED301*%
X-35823652Y-13363758D03*
X-34130772Y-12813708D03*
X-35144348Y-9694242D03*
X-36837228Y-10244292D03*
%TD*%
D66*
%TO.C,LED562*%
X46483036Y21339973D03*
X47719528Y20059549D03*
X50078964Y22338027D03*
X48842472Y23618451D03*
%TD*%
D67*
%TO.C,LED511*%
X169763479Y5874986D03*
X171127038Y7019149D03*
X169018695Y9531774D03*
X167655136Y8387611D03*
%TD*%
D68*
%TO.C,LED572*%
X90929681Y15411959D03*
X91509193Y13728936D03*
X94610493Y14796801D03*
X94030981Y16479824D03*
%TD*%
D17*
%TO.C,LED34*%
X13565151Y19900432D03*
X14055787Y21611477D03*
X10902849Y22515568D03*
X10412213Y20804523D03*
%TD*%
D69*
%TO.C,LED336*%
X-15244912Y1378569D03*
X-15369078Y3154233D03*
X-18641088Y2925431D03*
X-18516922Y1149767D03*
%TD*%
D70*
%TO.C,LED51*%
X-31703312Y63447232D03*
X-31920239Y61680500D03*
X-28664688Y61280768D03*
X-28447761Y63047500D03*
%TD*%
D71*
%TO.C,LED158*%
X10074912Y-60070568D03*
X10199078Y-61846232D03*
X13471088Y-61617432D03*
X13346922Y-59841768D03*
%TD*%
D72*
%TO.C,LED444*%
X101525536Y5706394D03*
X103295785Y5520333D03*
X103638638Y8782366D03*
X101868389Y8968427D03*
%TD*%
D73*
%TO.C,LED535*%
X175502399Y-18888852D03*
X175719326Y-17122120D03*
X172463775Y-16722388D03*
X172246848Y-18489120D03*
%TD*%
D74*
%TO.C,LED326*%
X-28464827Y17816388D03*
X-28371668Y19593949D03*
X-31647173Y19765612D03*
X-31740332Y17988051D03*
%TD*%
D46*
%TO.C,LED516*%
X158968645Y37230762D03*
X157754689Y35928953D03*
X160153529Y33691998D03*
X161367485Y34993807D03*
%TD*%
D75*
%TO.C,LED242*%
X-41718424Y-62480254D03*
X-42838614Y-63863574D03*
X-40289576Y-65927746D03*
X-39169386Y-64544426D03*
%TD*%
D40*
%TO.C,LED6*%
X-3399839Y14925019D03*
X-1749451Y15591817D03*
X-2978161Y18632981D03*
X-4628549Y17966183D03*
%TD*%
D56*
%TO.C,LED574*%
X71395499Y22660760D03*
X73162232Y22877688D03*
X72762501Y26133240D03*
X70995768Y25916312D03*
%TD*%
D76*
%TO.C,LED83*%
X-8413451Y27516621D03*
X-6774951Y28212122D03*
X-8056549Y31231379D03*
X-9695049Y30535878D03*
%TD*%
D26*
%TO.C,LED319*%
X-52431019Y-11394839D03*
X-53097817Y-9744451D03*
X-56138981Y-10973161D03*
X-55472183Y-12623549D03*
%TD*%
D77*
%TO.C,LED236*%
X-55573904Y-50728905D03*
X-55326175Y-52491583D03*
X-52078096Y-52035095D03*
X-52325825Y-50272417D03*
%TD*%
D78*
%TO.C,LED299*%
X159298072Y-40601171D03*
X159484133Y-38830922D03*
X156222102Y-38488069D03*
X156036041Y-40258318D03*
%TD*%
D54*
%TO.C,LED543*%
X243273697Y-1161496D03*
X241611924Y-523601D03*
X240436477Y-3585744D03*
X242098250Y-4223639D03*
%TD*%
D79*
%TO.C,LED495*%
X147721717Y37426921D03*
X146804949Y35901164D03*
X149616457Y34211839D03*
X150533225Y35737596D03*
%TD*%
D25*
%TO.C,LED156*%
X-2824975Y-59336685D03*
X-3255596Y-61063812D03*
X-73025Y-61857315D03*
X357596Y-60130188D03*
%TD*%
D19*
%TO.C,LED126*%
X149598315Y10346088D03*
X147905435Y10896138D03*
X146891859Y7776672D03*
X148584739Y7226622D03*
%TD*%
D10*
%TO.C,LED468*%
X223499067Y-21442290D03*
X222240417Y-20183640D03*
X219921107Y-22502950D03*
X221179757Y-23761600D03*
%TD*%
D75*
%TO.C,LED583*%
X12556576Y-31144254D03*
X11436386Y-32527574D03*
X13985424Y-34591746D03*
X15105614Y-33208426D03*
%TD*%
D40*
%TO.C,LED85*%
X632161Y46133019D03*
X2282549Y46799819D03*
X1053839Y49840981D03*
X-596549Y49174181D03*
%TD*%
D80*
%TO.C,LED584*%
X18924222Y-25215938D03*
X17145307Y-25278060D03*
X17259778Y-28556062D03*
X19038693Y-28493940D03*
%TD*%
D42*
%TO.C,LED386*%
X17037278Y13697312D03*
X18784575Y14036951D03*
X18158722Y17256688D03*
X16411425Y16917049D03*
%TD*%
D81*
%TO.C,LED244*%
X-23919767Y-65225079D03*
X-25695431Y-65100911D03*
X-25924233Y-68372921D03*
X-24148569Y-68497089D03*
%TD*%
D82*
%TO.C,LED389*%
X42756423Y4977797D03*
X44497527Y5347881D03*
X43815577Y8556203D03*
X42074473Y8186119D03*
%TD*%
D83*
%TO.C,LED381*%
X31330000Y12758000D03*
X29550000Y12758000D03*
X29550000Y9478000D03*
X31330000Y9478000D03*
%TD*%
D84*
%TO.C,LED146*%
X32027975Y36938685D03*
X32458596Y38665812D03*
X29276025Y39459315D03*
X28845404Y37732188D03*
%TD*%
D85*
%TO.C,LED113*%
X211761636Y34824561D03*
X210111248Y35491361D03*
X208882538Y32450199D03*
X210532926Y31783399D03*
%TD*%
D86*
%TO.C,LED96*%
X-7873954Y60622302D03*
X-8060014Y62392552D03*
X-11322046Y62049698D03*
X-11135986Y60279448D03*
%TD*%
D29*
%TO.C,LED285*%
X156716208Y-55629147D03*
X157086291Y-53888044D03*
X153877966Y-53206093D03*
X153507883Y-54947196D03*
%TD*%
D87*
%TO.C,LED155*%
X4526460Y-66103199D03*
X6112451Y-66911302D03*
X7601540Y-63988801D03*
X6015549Y-63180698D03*
%TD*%
D88*
%TO.C,LED89*%
X-15224890Y31827137D03*
X-13653243Y32662795D03*
X-15193110Y35558863D03*
X-16764757Y34723205D03*
%TD*%
D89*
%TO.C,LED603*%
X125733257Y-38160790D03*
X127242782Y-39104047D03*
X128980917Y-36322450D03*
X127471392Y-35379193D03*
%TD*%
D90*
%TO.C,LED496*%
X147570394Y47566440D03*
X149349309Y47504318D03*
X149463780Y50782320D03*
X147684865Y50844442D03*
%TD*%
D15*
%TO.C,LED228*%
X-22299210Y-60367993D03*
X-21575219Y-61994104D03*
X-18578790Y-60660007D03*
X-19302781Y-59033896D03*
%TD*%
D91*
%TO.C,LED140*%
X15339014Y47034399D03*
X13936354Y48130277D03*
X11916986Y45545601D03*
X13319646Y44449723D03*
%TD*%
D92*
%TO.C,LED131*%
X134649668Y-3683444D03*
X132886992Y-3435716D03*
X132430506Y-6683796D03*
X134193182Y-6931524D03*
%TD*%
D93*
%TO.C,LED487*%
X203214718Y7175684D03*
X202905625Y8928642D03*
X199675456Y8359076D03*
X199984549Y6606118D03*
%TD*%
D50*
%TO.C,LED571*%
X67233622Y17047809D03*
X68304853Y15626238D03*
X70924378Y17600191D03*
X69853147Y19021762D03*
%TD*%
D94*
%TO.C,LED519*%
X156091505Y20629204D03*
X157854182Y20381476D03*
X158310669Y23629556D03*
X156547992Y23877284D03*
%TD*%
D44*
%TO.C,LED506*%
X173243402Y20539355D03*
X171516276Y20969975D03*
X170722772Y17787405D03*
X172449898Y17356785D03*
%TD*%
D95*
%TO.C,LED15*%
X207208094Y55314721D03*
X208648144Y54268464D03*
X210576080Y56922039D03*
X209136030Y57968296D03*
%TD*%
D96*
%TO.C,LED372*%
X-11048548Y-9247182D03*
X-9398161Y-9913981D03*
X-8169452Y-6872818D03*
X-9819839Y-6206019D03*
%TD*%
D57*
%TO.C,LED304*%
X-45073170Y-19184830D03*
X-46582695Y-18241573D03*
X-48320830Y-21023170D03*
X-46811305Y-21966427D03*
%TD*%
D97*
%TO.C,LED342*%
X-17145307Y-25278060D03*
X-18924222Y-25215938D03*
X-19038693Y-28493940D03*
X-17259778Y-28556062D03*
%TD*%
D11*
%TO.C,LED38*%
X69743024Y5150283D03*
X68420227Y3959231D03*
X70614976Y1521717D03*
X71937773Y2712769D03*
%TD*%
D89*
%TO.C,LED135*%
X-6866830Y2307830D03*
X-5357305Y1364573D03*
X-3619170Y4146170D03*
X-5128695Y5089427D03*
%TD*%
D13*
%TO.C,LED315*%
X-49099000Y460000D03*
X-49099000Y2240000D03*
X-52379000Y2240000D03*
X-52379000Y460000D03*
%TD*%
D43*
%TO.C,LED50*%
X45027569Y-19045088D03*
X46803232Y-18920922D03*
X46574431Y-15648912D03*
X44798768Y-15773078D03*
%TD*%
D58*
%TO.C,LED129*%
X145953959Y753525D03*
X146734260Y2353378D03*
X143786215Y3791235D03*
X143005914Y2191382D03*
%TD*%
D98*
%TO.C,LED222*%
X214968467Y62387272D03*
X213510376Y61366306D03*
X215391707Y58679488D03*
X216849798Y59700454D03*
%TD*%
D99*
%TO.C,LED180*%
X143939916Y56869210D03*
X142996660Y55359685D03*
X145778258Y53621550D03*
X146721514Y55131075D03*
%TD*%
D100*
%TO.C,LED527*%
X190327712Y-2342929D03*
X188834878Y-1373472D03*
X187048462Y-4124311D03*
X188541296Y-5093768D03*
%TD*%
D43*
%TO.C,LED414*%
X118126656Y19363292D03*
X119902319Y19487458D03*
X119673518Y22759468D03*
X117897855Y22635302D03*
%TD*%
D101*
%TO.C,LED349*%
X-22671355Y-8125724D03*
X-24074014Y-9221601D03*
X-22054645Y-11806276D03*
X-20651986Y-10710399D03*
%TD*%
D74*
%TO.C,LED73*%
X196348260Y-16051232D03*
X196441419Y-14273671D03*
X193165914Y-14102008D03*
X193072755Y-15879569D03*
%TD*%
D32*
%TO.C,LED548*%
X240314696Y7080773D03*
X238951136Y5936612D03*
X241059478Y3423987D03*
X242423038Y4568148D03*
%TD*%
D55*
%TO.C,LED488*%
X202026538Y-2033318D03*
X200440547Y-2841420D03*
X201929636Y-5763922D03*
X203515627Y-4955820D03*
%TD*%
D102*
%TO.C,LED259*%
X202182319Y-53833571D03*
X203326481Y-52470012D03*
X200813855Y-50361669D03*
X199669693Y-51725228D03*
%TD*%
D103*
%TO.C,LED144*%
X28598188Y30207404D03*
X30325315Y30638025D03*
X29531812Y33820596D03*
X27804685Y33389975D03*
%TD*%
D104*
%TO.C,LED288*%
X143574746Y-28153613D03*
X144621004Y-26713563D03*
X141967428Y-24785627D03*
X140921170Y-26225677D03*
%TD*%
D74*
%TO.C,LED335*%
X-29232827Y2469388D03*
X-29139668Y4246949D03*
X-32415173Y4418612D03*
X-32508332Y2641051D03*
%TD*%
D14*
%TO.C,LED204*%
X190299662Y35912994D03*
X188916342Y34792805D03*
X190980512Y32243766D03*
X192363832Y33363955D03*
%TD*%
D105*
%TO.C,LED626*%
X112539171Y-13580563D03*
X113585428Y-15020612D03*
X116239003Y-13092677D03*
X115192746Y-11652628D03*
%TD*%
D85*
%TO.C,LED202*%
X198393635Y40254561D03*
X196743248Y40921361D03*
X195514539Y37880199D03*
X197164926Y37213399D03*
%TD*%
D106*
%TO.C,LED610*%
X125483865Y-20834682D03*
X127262780Y-20772560D03*
X127148309Y-17494558D03*
X125369394Y-17556680D03*
%TD*%
D107*
%TO.C,LED30*%
X21126341Y31867993D03*
X20080083Y30427943D03*
X22733659Y28500007D03*
X23779917Y29940057D03*
%TD*%
D80*
%TO.C,LED352*%
X54486223Y45967062D03*
X52707307Y45904941D03*
X52821777Y42626938D03*
X54600693Y42689059D03*
%TD*%
D23*
%TO.C,LED80*%
X-32440652Y42348242D03*
X-30747772Y42898292D03*
X-31761348Y46017758D03*
X-33454228Y45467708D03*
%TD*%
D14*
%TO.C,LED433*%
X25847575Y-64852385D03*
X24464255Y-65972576D03*
X26528425Y-68521615D03*
X27911745Y-67401424D03*
%TD*%
D43*
%TO.C,LED9*%
X-1940432Y30687911D03*
X-164767Y30812078D03*
X-393568Y34084089D03*
X-2169233Y33959922D03*
%TD*%
D85*
%TO.C,LED318*%
X-62305452Y1949182D03*
X-63955839Y2615981D03*
X-65184548Y-425182D03*
X-63534161Y-1091981D03*
%TD*%
D17*
%TO.C,LED207*%
X157801239Y-4939188D03*
X158291872Y-3228142D03*
X155138935Y-2324052D03*
X154648302Y-4035098D03*
%TD*%
D19*
%TO.C,LED500*%
X183017315Y52837088D03*
X181324435Y53387138D03*
X180310859Y50267672D03*
X182003739Y49717622D03*
%TD*%
D44*
%TO.C,LED307*%
X-41617685Y-33419026D03*
X-43344811Y-32988405D03*
X-44138315Y-36170974D03*
X-42411189Y-36601595D03*
%TD*%
D103*
%TO.C,LED540*%
X161198275Y-10261216D03*
X162925402Y-9830595D03*
X162131899Y-6648024D03*
X160404772Y-7078645D03*
%TD*%
D108*
%TO.C,LED357*%
X107685904Y49497929D03*
X107019106Y47847541D03*
X110060270Y46618831D03*
X110727068Y48269219D03*
%TD*%
D55*
%TO.C,LED331*%
X-43937549Y13620302D03*
X-45523540Y12812199D03*
X-44034451Y9889698D03*
X-42448460Y10697801D03*
%TD*%
D109*
%TO.C,LED72*%
X202712716Y-20226789D03*
X201369332Y-19059003D03*
X199217458Y-21534451D03*
X200560842Y-22702237D03*
%TD*%
D51*
%TO.C,LED279*%
X173819320Y-51457923D03*
X175295007Y-50462560D03*
X173460854Y-47743317D03*
X171985167Y-48738680D03*
%TD*%
D64*
%TO.C,LED410*%
X132578538Y48466190D03*
X134351765Y48311052D03*
X134637636Y51578570D03*
X132864409Y51733708D03*
%TD*%
D110*
%TO.C,LED245*%
X-35263019Y-65144837D03*
X-34625125Y-66806610D03*
X-31562981Y-65631163D03*
X-32200875Y-63969390D03*
%TD*%
D111*
%TO.C,LED109*%
X209979854Y42289684D03*
X208504167Y41294320D03*
X210338320Y38575076D03*
X211814007Y39570440D03*
%TD*%
D112*
%TO.C,LED17*%
X138251324Y68452098D03*
X139792849Y67562099D03*
X141432850Y70402662D03*
X139891325Y71292661D03*
%TD*%
D67*
%TO.C,LED41*%
X57002392Y-14715394D03*
X58365951Y-13571231D03*
X56257608Y-11058606D03*
X54894049Y-12202769D03*
%TD*%
D84*
%TO.C,LED435*%
X105507061Y-43453935D03*
X105937683Y-41726809D03*
X102755113Y-40933305D03*
X102324491Y-42660431D03*
%TD*%
D113*
%TO.C,LED44*%
X49472698Y-53239D03*
X50081494Y1619414D03*
X46999302Y2741239D03*
X46390506Y1068586D03*
%TD*%
D92*
%TO.C,LED241*%
X205410669Y-57383444D03*
X203647992Y-57135716D03*
X203191505Y-60383796D03*
X204954182Y-60631524D03*
%TD*%
D37*
%TO.C,LED74*%
X194251087Y-9043620D03*
X196031087Y-9043620D03*
X196031087Y-5763620D03*
X194251087Y-5763620D03*
%TD*%
D114*
%TO.C,LED287*%
X169526191Y-60949401D03*
X167900079Y-60225409D03*
X166565983Y-63221839D03*
X168192095Y-63945831D03*
%TD*%
D75*
%TO.C,LED226*%
X-32077424Y-50516254D03*
X-33197614Y-51899574D03*
X-30648576Y-53963746D03*
X-29528386Y-52580426D03*
%TD*%
D101*
%TO.C,LED134*%
X-11285355Y735276D03*
X-12688014Y-360601D03*
X-10668645Y-2945276D03*
X-9265986Y-1849399D03*
%TD*%
D56*
%TO.C,LED628*%
X105707586Y-15966861D03*
X107474319Y-15749932D03*
X107074588Y-12494379D03*
X105307855Y-12711308D03*
%TD*%
D13*
%TO.C,LED122*%
X181453087Y-38738620D03*
X181453087Y-36958620D03*
X178173087Y-36958620D03*
X178173087Y-38738620D03*
%TD*%
D101*
%TO.C,LED306*%
X-49314354Y-37579723D03*
X-50717014Y-38675601D03*
X-48697646Y-41260277D03*
X-47294986Y-40164399D03*
%TD*%
D106*
%TO.C,LED391*%
X23117778Y-6752061D03*
X24896693Y-6689940D03*
X24782222Y-3411939D03*
X23003307Y-3474060D03*
%TD*%
D115*
%TO.C,LED453*%
X-59989459Y-39511801D03*
X-61575451Y-38703698D03*
X-63064541Y-41626199D03*
X-61478549Y-42434302D03*
%TD*%
D38*
%TO.C,LED512*%
X165423593Y34253794D03*
X166032389Y32581141D03*
X169114581Y33702966D03*
X168505785Y35375619D03*
%TD*%
D25*
%TO.C,LED308*%
X-54764975Y-21599685D03*
X-55195596Y-23326812D03*
X-52013025Y-24120315D03*
X-51582404Y-22393188D03*
%TD*%
D82*
%TO.C,LED573*%
X98045510Y37695176D03*
X99786613Y38065260D03*
X99104664Y41273584D03*
X97363561Y40903500D03*
%TD*%
D111*
%TO.C,LED469*%
X228482854Y-1983317D03*
X227007168Y-2978680D03*
X228841320Y-5697923D03*
X230317006Y-4702560D03*
%TD*%
D116*
%TO.C,LED68*%
X127378138Y54854048D03*
X129155698Y54947206D03*
X128984036Y58222712D03*
X127206476Y58129554D03*
%TD*%
D37*
%TO.C,LED152*%
X-890000Y-56253000D03*
X890000Y-56253000D03*
X890000Y-52973000D03*
X-890000Y-52973000D03*
%TD*%
D40*
%TO.C,LED354*%
X47024161Y39832019D03*
X48674549Y40498819D03*
X47445839Y43539981D03*
X45795451Y42873181D03*
%TD*%
D117*
%TO.C,LED90*%
X-5611238Y37775146D03*
X-7032809Y38846378D03*
X-9006762Y36226854D03*
X-7585191Y35155622D03*
%TD*%
D67*
%TO.C,LED446*%
X108443479Y14772986D03*
X109807038Y15917149D03*
X107698695Y18429774D03*
X106335136Y17285611D03*
%TD*%
D41*
%TO.C,LED618*%
X76832514Y1555782D03*
X78612244Y1524717D03*
X78669486Y4804218D03*
X76889756Y4835283D03*
%TD*%
D38*
%TO.C,LED597*%
X722506Y-24073586D03*
X1331302Y-25746239D03*
X4413494Y-24624414D03*
X3804698Y-22951761D03*
%TD*%
D98*
%TO.C,LED14*%
X202393467Y53557272D03*
X200935376Y52536306D03*
X202816707Y49849488D03*
X204274798Y50870454D03*
%TD*%
D24*
%TO.C,LED380*%
X34191894Y17009556D03*
X34771406Y18692580D03*
X31670106Y19760444D03*
X31090594Y18077420D03*
%TD*%
D118*
%TO.C,LED10*%
X202149314Y35638149D03*
X203472112Y34447096D03*
X205666860Y36884611D03*
X204344062Y38075664D03*
%TD*%
D119*
%TO.C,LED128*%
X151557481Y-4131228D03*
X150413319Y-2767669D03*
X147900693Y-4876012D03*
X149044855Y-6239571D03*
%TD*%
D106*
%TO.C,LED45*%
X41577777Y-12988062D03*
X43356693Y-12925940D03*
X43242223Y-9647938D03*
X41463307Y-9710060D03*
%TD*%
D100*
%TO.C,LED332*%
X-35253375Y16177691D03*
X-36746209Y17147148D03*
X-38532625Y14396309D03*
X-37039791Y13426852D03*
%TD*%
D120*
%TO.C,LED257*%
X196305581Y-51525034D03*
X195696785Y-49852381D03*
X192614593Y-50974206D03*
X193223389Y-52646859D03*
%TD*%
D61*
%TO.C,LED452*%
X127479939Y1102589D03*
X128449395Y-390244D03*
X131200235Y1396171D03*
X130230779Y2889004D03*
%TD*%
D105*
%TO.C,LED75*%
X-23779917Y29940057D03*
X-22733659Y28500007D03*
X-20080083Y30427943D03*
X-21126341Y31867993D03*
%TD*%
D121*
%TO.C,LED401*%
X145312783Y30999012D03*
X143559825Y30689917D03*
X144129391Y27459748D03*
X145882349Y27768843D03*
%TD*%
D43*
%TO.C,LED451*%
X120644656Y-797708D03*
X122420320Y-673542D03*
X122191518Y2598468D03*
X120415854Y2474302D03*
%TD*%
D122*
%TO.C,LED447*%
X118295291Y5399623D03*
X119130950Y6971270D03*
X116234883Y8511137D03*
X115399224Y6939490D03*
%TD*%
D76*
%TO.C,LED536*%
X172757636Y-27516999D03*
X174396136Y-26821498D03*
X173114538Y-23802241D03*
X171476038Y-24497742D03*
%TD*%
D43*
%TO.C,LED171*%
X5365569Y-1227088D03*
X7141232Y-1102922D03*
X6912431Y2169088D03*
X5136768Y2044922D03*
%TD*%
D55*
%TO.C,LED200*%
X208735538Y-6175318D03*
X207149547Y-6983421D03*
X208638636Y-9905922D03*
X210224627Y-9097819D03*
%TD*%
D17*
%TO.C,LED292*%
X153798238Y-18801188D03*
X154288874Y-17090143D03*
X151135936Y-16186052D03*
X150645300Y-17897097D03*
%TD*%
D55*
%TO.C,LED557*%
X230213538Y46342683D03*
X228627547Y45534579D03*
X230116636Y42612077D03*
X231702627Y43420181D03*
%TD*%
D99*
%TO.C,LED269*%
X-22217172Y-72137169D03*
X-23160427Y-73646695D03*
X-20378828Y-75384831D03*
X-19435573Y-73875305D03*
%TD*%
D123*
%TO.C,LED561*%
X-54545790Y34911468D03*
X-56265137Y34450770D03*
X-55416210Y31282532D03*
X-53696863Y31743230D03*
%TD*%
D69*
%TO.C,LED525*%
X183342175Y788949D03*
X183218009Y2564613D03*
X179945999Y2335811D03*
X180070165Y560147D03*
%TD*%
D124*
%TO.C,LED274*%
X168541144Y-67882704D03*
X167101095Y-68928961D03*
X169029030Y-71582536D03*
X170469079Y-70536279D03*
%TD*%
D111*
%TO.C,LED550*%
X-64140233Y9412303D03*
X-65615919Y8416940D03*
X-63781767Y5697697D03*
X-62306081Y6693060D03*
%TD*%
D105*
%TO.C,LED0*%
X-12020917Y13755057D03*
X-10974659Y12315007D03*
X-8321083Y14242943D03*
X-9367341Y15682993D03*
%TD*%
D20*
%TO.C,LED366*%
X4011768Y-9893049D03*
X2867606Y-11256608D03*
X5380232Y-13364951D03*
X6524394Y-12001392D03*
%TD*%
D123*
%TO.C,LED459*%
X234980297Y-23671152D03*
X233260950Y-24131850D03*
X234109877Y-27300088D03*
X235829224Y-26839390D03*
%TD*%
D125*
%TO.C,LED363*%
X25073399Y63199572D03*
X23859442Y64501382D03*
X21460601Y62264428D03*
X22674558Y60962618D03*
%TD*%
D101*
%TO.C,LED333*%
X-29885355Y-5069724D03*
X-31288014Y-6165601D03*
X-29268645Y-8750276D03*
X-27865986Y-7654399D03*
%TD*%
D126*
%TO.C,LED419*%
X119444783Y42399147D03*
X120440147Y40923460D03*
X123159391Y42757613D03*
X122164027Y44233300D03*
%TD*%
D51*
%TO.C,LED92*%
X-20681767Y43331696D03*
X-19206080Y44327060D03*
X-21040233Y47046304D03*
X-22515920Y46050940D03*
%TD*%
D46*
%TO.C,LED513*%
X169248645Y28349762D03*
X168034689Y27047953D03*
X170433529Y24810998D03*
X171647485Y26112807D03*
%TD*%
D20*
%TO.C,LED521*%
X159320855Y17079331D03*
X158176693Y15715772D03*
X160689319Y13607429D03*
X161833481Y14970988D03*
%TD*%
D123*
%TO.C,LED286*%
X153941298Y-60268153D03*
X152221949Y-60728851D03*
X153070876Y-63897087D03*
X154790225Y-63436389D03*
%TD*%
D114*
%TO.C,LED25*%
X-1864896Y66936219D03*
X-3491008Y67660211D03*
X-4825104Y64663781D03*
X-3198992Y63939789D03*
%TD*%
D127*
%TO.C,LED18*%
X131305825Y69322842D03*
X133058782Y69013749D03*
X133628349Y72243918D03*
X131875392Y72553011D03*
%TD*%
D19*
%TO.C,LED168*%
X17809228Y-4062292D03*
X16116348Y-3512242D03*
X15102772Y-6631708D03*
X16795652Y-7181758D03*
%TD*%
D128*
%TO.C,LED450*%
X126123258Y7267550D03*
X127066514Y8777075D03*
X124284916Y10515210D03*
X123341660Y9005685D03*
%TD*%
D78*
%TO.C,LED360*%
X55990986Y50779449D03*
X56177046Y52549697D03*
X52915014Y52892551D03*
X52728954Y51122303D03*
%TD*%
D99*
%TO.C,LED406*%
X136258917Y44656210D03*
X135315660Y43146685D03*
X138097257Y41408550D03*
X139040514Y42918075D03*
%TD*%
D129*
%TO.C,LED528*%
X176910009Y-3935853D03*
X177034176Y-2160189D03*
X173762165Y-1931387D03*
X173637998Y-3707051D03*
%TD*%
D61*
%TO.C,LED567*%
X64175852Y9539209D03*
X65145309Y8046375D03*
X67896148Y9832791D03*
X66926691Y11325625D03*
%TD*%
D123*
%TO.C,LED545*%
X-69408790Y31014468D03*
X-71128137Y30553770D03*
X-70279210Y27385532D03*
X-68559863Y27846230D03*
%TD*%
D14*
%TO.C,LED442*%
X37840575Y-55247385D03*
X36457255Y-56367576D03*
X38521425Y-58916615D03*
X39904745Y-57796424D03*
%TD*%
D120*
%TO.C,LED190*%
X107838581Y40778967D03*
X107229785Y42451619D03*
X104147593Y41329793D03*
X104756389Y39657141D03*
%TD*%
D51*
%TO.C,LED251*%
X185741320Y-43331924D03*
X187217007Y-42336560D03*
X185382854Y-39617316D03*
X183907167Y-40612680D03*
%TD*%
D83*
%TO.C,LED5*%
X890000Y1640000D03*
X-890000Y1640000D03*
X-890000Y-1640000D03*
X890000Y-1640000D03*
%TD*%
D130*
%TO.C,LED223*%
X-37817919Y-37369940D03*
X-36342233Y-38365303D03*
X-34508081Y-35646060D03*
X-35983767Y-34650697D03*
%TD*%
D11*
%TO.C,LED585*%
X21779025Y-41798716D03*
X20456228Y-42989768D03*
X22650975Y-45427284D03*
X23973772Y-44236232D03*
%TD*%
D131*
%TO.C,LED143*%
X44930210Y27084993D03*
X44206219Y28711104D03*
X41209790Y27377007D03*
X41933781Y25750896D03*
%TD*%
D38*
%TO.C,LED166*%
X495506Y-43556586D03*
X1104302Y-45229239D03*
X4186494Y-44107414D03*
X3577698Y-42434761D03*
%TD*%
D36*
%TO.C,LED575*%
X99303694Y46390989D03*
X100447855Y45027429D03*
X102960480Y47135771D03*
X101816319Y48499331D03*
%TD*%
D132*
%TO.C,LED11*%
X186536073Y48644981D03*
X187938733Y47549103D03*
X189958101Y50133779D03*
X188555441Y51229657D03*
%TD*%
D67*
%TO.C,LED54*%
X-24011607Y65406607D03*
X-22648049Y66550768D03*
X-24756393Y69063393D03*
X-26119951Y67919232D03*
%TD*%
D133*
%TO.C,LED630*%
X110636992Y-22150524D03*
X112399670Y-21902795D03*
X111943182Y-18654716D03*
X110180504Y-18902445D03*
%TD*%
D38*
%TO.C,LED373*%
X-4186494Y-10505586D03*
X-3577698Y-12178239D03*
X-495506Y-11056414D03*
X-1104302Y-9383761D03*
%TD*%
D85*
%TO.C,LED97*%
X-21753451Y60795183D03*
X-23403839Y61461981D03*
X-24632549Y58420817D03*
X-22982161Y57754019D03*
%TD*%
D134*
%TO.C,LED611*%
X139136539Y-20601149D03*
X137856114Y-19364657D03*
X135577635Y-21724091D03*
X136858060Y-22960583D03*
%TD*%
D135*
%TO.C,LED412*%
X123409660Y21349075D03*
X124352915Y19839549D03*
X127134514Y21577685D03*
X126191259Y23087211D03*
%TD*%
D49*
%TO.C,LED551*%
X-55830243Y12912204D03*
X-57401890Y13747863D03*
X-58941757Y10851796D03*
X-57370110Y10016137D03*
%TD*%
D136*
%TO.C,LED379*%
X25564548Y24315529D03*
X26844973Y23079037D03*
X29123452Y25438471D03*
X27843027Y26674963D03*
%TD*%
D109*
%TO.C,LED325*%
X-34516371Y25248831D03*
X-35859755Y26416617D03*
X-38011629Y23941169D03*
X-36668245Y22773383D03*
%TD*%
D137*
%TO.C,LED206*%
X154052514Y2955685D03*
X153109259Y4465211D03*
X150327660Y2727075D03*
X151270915Y1217549D03*
%TD*%
D138*
%TO.C,LED418*%
X112750389Y40128334D03*
X114520638Y40314394D03*
X114177785Y43576426D03*
X112407536Y43390366D03*
%TD*%
D12*
%TO.C,LED590*%
X24547404Y-29550583D03*
X26305490Y-29829036D03*
X26818596Y-26589417D03*
X25060510Y-26310964D03*
%TD*%
D73*
%TO.C,LED328*%
X-21299688Y21579768D03*
X-21082761Y23346500D03*
X-24338312Y23746232D03*
X-24555239Y21979500D03*
%TD*%
D139*
%TO.C,LED192*%
X100167234Y11876616D03*
X101238465Y13298189D03*
X98618940Y15272144D03*
X97547709Y13850571D03*
%TD*%
D140*
%TO.C,LED101*%
X-26892797Y55069424D03*
X-27262879Y56810526D03*
X-30471203Y56128576D03*
X-30101121Y54387474D03*
%TD*%
D21*
%TO.C,LED392*%
X29916144Y-4938677D03*
X30779105Y-6495499D03*
X33647856Y-4905323D03*
X32784895Y-3348501D03*
%TD*%
D20*
%TO.C,LED499*%
X168712855Y48434331D03*
X167568693Y47070772D03*
X170081319Y44962429D03*
X171225481Y46325988D03*
%TD*%
D141*
%TO.C,LED195*%
X214179389Y-3167381D03*
X213570593Y-4840033D03*
X216652785Y-5961859D03*
X217261581Y-4289207D03*
%TD*%
D46*
%TO.C,LED377*%
X-13452442Y-19490618D03*
X-14666398Y-20792427D03*
X-12267558Y-23029382D03*
X-11053602Y-21727573D03*
%TD*%
D12*
%TO.C,LED570*%
X86643491Y7734798D03*
X88401577Y7456344D03*
X88914683Y10695962D03*
X87156597Y10974416D03*
%TD*%
D116*
%TO.C,LED358*%
X112036138Y54014048D03*
X113813698Y54107206D03*
X113642036Y57382712D03*
X111864476Y57289554D03*
%TD*%
D98*
%TO.C,LED425*%
X18251380Y-62014108D03*
X16793290Y-63035074D03*
X18674620Y-65721892D03*
X20132710Y-64700926D03*
%TD*%
D24*
%TO.C,LED432*%
X144959981Y-72589064D03*
X145539493Y-70906040D03*
X142438193Y-69838176D03*
X141858681Y-71521200D03*
%TD*%
D142*
%TO.C,LED494*%
X143023804Y42742142D03*
X143913805Y41200618D03*
X146754370Y42840618D03*
X145864369Y44382142D03*
%TD*%
D143*
%TO.C,LED212*%
X-39088240Y35076891D03*
X-38687827Y36811269D03*
X-41883760Y37549109D03*
X-42284173Y35814731D03*
%TD*%
D144*
%TO.C,LED268*%
X181535030Y-62654536D03*
X182975079Y-61608279D03*
X181047144Y-58954704D03*
X179607095Y-60000961D03*
%TD*%
D141*
%TO.C,LED313*%
X-51951698Y9676239D03*
X-52560494Y8003587D03*
X-49478302Y6881761D03*
X-48869506Y8554413D03*
%TD*%
D32*
%TO.C,LED484*%
X197691695Y33260774D03*
X196328136Y32116612D03*
X198436479Y29603986D03*
X199800038Y30748148D03*
%TD*%
D145*
%TO.C,LED106*%
X221707870Y35042867D03*
X221676804Y33263136D03*
X224956304Y33205893D03*
X224987370Y34985624D03*
%TD*%
D110*
%TO.C,LED234*%
X-40804019Y-50812837D03*
X-40166125Y-52474610D03*
X-37103981Y-51299163D03*
X-37741875Y-49637390D03*
%TD*%
D51*
%TO.C,LED189*%
X95436320Y6157076D03*
X96912007Y7152440D03*
X95077854Y9871684D03*
X93602167Y8876320D03*
%TD*%
D146*
%TO.C,LED20*%
X122923888Y64509920D03*
X122115785Y62923929D03*
X125038286Y61434840D03*
X125846389Y63020831D03*
%TD*%
D147*
%TO.C,LED616*%
X100526860Y-14569389D03*
X99204062Y-13378336D03*
X97009314Y-15815851D03*
X98332112Y-17006904D03*
%TD*%
D85*
%TO.C,LED489*%
X208471635Y13717562D03*
X206821248Y14384361D03*
X205592539Y11343198D03*
X207242926Y10676399D03*
%TD*%
D78*
%TO.C,LED32*%
X8478985Y42202449D03*
X8665046Y43972698D03*
X5403015Y44315551D03*
X5216954Y42545302D03*
%TD*%
D148*
%TO.C,LED184*%
X67854895Y-4316500D03*
X68717857Y-2759676D03*
X65849105Y-1169500D03*
X64986143Y-2726324D03*
%TD*%
D149*
%TO.C,LED24*%
X10759789Y63982533D03*
X12479138Y64443231D03*
X11630211Y67611467D03*
X9910862Y67150769D03*
%TD*%
D144*
%TO.C,LED29*%
X-3840057Y71597084D03*
X-2400008Y72643341D03*
X-4327943Y75296916D03*
X-5767992Y74250659D03*
%TD*%
D109*
%TO.C,LED280*%
X164384715Y-51371789D03*
X163041333Y-50204003D03*
X160889459Y-52679451D03*
X162232841Y-53847237D03*
%TD*%
D103*
%TO.C,LED602*%
X112216276Y-34944216D03*
X113943402Y-34513594D03*
X113149898Y-31331024D03*
X111422772Y-31761646D03*
%TD*%
D150*
%TO.C,LED371*%
X-11840109Y-30001760D03*
X-10105730Y-30402173D03*
X-9367891Y-27206240D03*
X-11102270Y-26805827D03*
%TD*%
D56*
%TO.C,LED564*%
X56145499Y20783760D03*
X57912232Y21000688D03*
X57512501Y24256240D03*
X55745768Y24039312D03*
%TD*%
D135*
%TO.C,LED445*%
X108342660Y6207075D03*
X109285916Y4697550D03*
X112067514Y6435685D03*
X111124258Y7945210D03*
%TD*%
D151*
%TO.C,LED221*%
X-36176431Y65742152D03*
X-37887477Y66232787D03*
X-38791569Y63079848D03*
X-37080523Y62589213D03*
%TD*%
D152*
%TO.C,LED416*%
X131508215Y23551235D03*
X130727914Y21951382D03*
X133675959Y20513525D03*
X134456260Y22113378D03*
%TD*%
D17*
%TO.C,LED289*%
X146166238Y-20568188D03*
X146656874Y-18857143D03*
X143503936Y-17953052D03*
X143013300Y-19664097D03*
%TD*%
D153*
%TO.C,LED327*%
X-14734080Y19050939D03*
X-16209767Y20046303D03*
X-18043920Y17327061D03*
X-16568233Y16331697D03*
%TD*%
D122*
%TO.C,LED569*%
X74778205Y8375244D03*
X75613863Y9946890D03*
X72717795Y11486756D03*
X71882137Y9915110D03*
%TD*%
D154*
%TO.C,LED227*%
X-37580239Y-59458698D03*
X-35907587Y-60067494D03*
X-34785761Y-56985302D03*
X-36458413Y-56376506D03*
%TD*%
D38*
%TO.C,LED515*%
X160287593Y28338794D03*
X160896389Y26666141D03*
X163978581Y27787966D03*
X163369785Y29460619D03*
%TD*%
D135*
%TO.C,LED48*%
X37566573Y-17863305D03*
X38509828Y-19372831D03*
X41291427Y-17634695D03*
X40348172Y-16125169D03*
%TD*%
D155*
%TO.C,LED112*%
X216981849Y39236663D03*
X215440324Y38346661D03*
X217080325Y35506097D03*
X218621850Y36396099D03*
%TD*%
D146*
%TO.C,LED183*%
X57120801Y-35858460D03*
X56312698Y-37444451D03*
X59235199Y-38933540D03*
X60043302Y-37347549D03*
%TD*%
D53*
%TO.C,LED173*%
X145464512Y66701332D03*
X147211809Y66361692D03*
X147837662Y69581428D03*
X146090365Y69921068D03*
%TD*%
D10*
%TO.C,LED455*%
X234306067Y-32365290D03*
X233047417Y-31106640D03*
X230728107Y-33425950D03*
X231986757Y-34684600D03*
%TD*%
D43*
%TO.C,LED621*%
X61604568Y-45117088D03*
X63380232Y-44992922D03*
X63151432Y-41720912D03*
X61375768Y-41845078D03*
%TD*%
D21*
%TO.C,LED520*%
X146589231Y22497704D03*
X147452191Y20940881D03*
X150320943Y22531056D03*
X149457983Y24087879D03*
%TD*%
D49*
%TO.C,LED86*%
X-6904243Y46511204D03*
X-8475890Y47346863D03*
X-10015757Y44450796D03*
X-8444110Y43615137D03*
%TD*%
D153*
%TO.C,LED320*%
X-42847080Y4914940D03*
X-44322767Y5910303D03*
X-46156920Y3191060D03*
X-44681233Y2195697D03*
%TD*%
D24*
%TO.C,LED393*%
X29208894Y2474556D03*
X29788406Y4157580D03*
X26687106Y5225444D03*
X26107594Y3542420D03*
%TD*%
D65*
%TO.C,LED471*%
X230495857Y-21307757D03*
X230956555Y-19588410D03*
X227788317Y-18739483D03*
X227327619Y-20458830D03*
%TD*%
D13*
%TO.C,LED466*%
X217067087Y-12953620D03*
X217067087Y-11173620D03*
X213787087Y-11173620D03*
X213787087Y-12953620D03*
%TD*%
D80*
%TO.C,LED260*%
X207164310Y-44356558D03*
X205385394Y-44418680D03*
X205499864Y-47696682D03*
X207278780Y-47634560D03*
%TD*%
D99*
%TO.C,LED518*%
X151338916Y17038210D03*
X150395660Y15528685D03*
X153177258Y13790550D03*
X154120514Y15300075D03*
%TD*%
D156*
%TO.C,LED42*%
X52279652Y-15041242D03*
X50586772Y-15591292D03*
X51600348Y-18710758D03*
X53293228Y-18160708D03*
%TD*%
D86*
%TO.C,LED458*%
X237357133Y-7871318D03*
X237171073Y-6101069D03*
X233909041Y-6443922D03*
X234095101Y-8214171D03*
%TD*%
D19*
%TO.C,LED120*%
X133953315Y-39183912D03*
X132260435Y-38633862D03*
X131246859Y-41753328D03*
X132939739Y-42303378D03*
%TD*%
D156*
%TO.C,LED253*%
X200037740Y-26277862D03*
X198344859Y-26827912D03*
X199358434Y-29947378D03*
X201051315Y-29397328D03*
%TD*%
D43*
%TO.C,LED151*%
X-6912431Y-56782088D03*
X-5136768Y-56657922D03*
X-5365569Y-53385912D03*
X-7141232Y-53510078D03*
%TD*%
D101*
%TO.C,LED474*%
X186755732Y15520656D03*
X185353073Y14424779D03*
X187372442Y11840104D03*
X188775101Y12935981D03*
%TD*%
D55*
%TO.C,LED329*%
X-23554549Y16487302D03*
X-25140540Y15679200D03*
X-23651451Y12756698D03*
X-22065460Y13564800D03*
%TD*%
D113*
%TO.C,LED629*%
X109751785Y-29165859D03*
X110360581Y-27493207D03*
X107278389Y-26371381D03*
X106669593Y-28044033D03*
%TD*%
D157*
%TO.C,LED229*%
X-24295399Y-51573986D03*
X-25391277Y-52976646D03*
X-22806601Y-54996014D03*
X-21710723Y-53593354D03*
%TD*%
D119*
%TO.C,LED298*%
X149400481Y-31878228D03*
X148256319Y-30514669D03*
X145743693Y-32623012D03*
X146887855Y-33986571D03*
%TD*%
D158*
%TO.C,LED600*%
X120626873Y-19800097D03*
X120136239Y-18089052D03*
X116983301Y-18993143D03*
X117473935Y-20704188D03*
%TD*%
D19*
%TO.C,LED235*%
X214611315Y-44530912D03*
X212918435Y-43980862D03*
X211904859Y-47100328D03*
X213597739Y-47650378D03*
%TD*%
D42*
%TO.C,LED293*%
X149638365Y-26770308D03*
X151385662Y-26430669D03*
X150759809Y-23210932D03*
X149012512Y-23550571D03*
%TD*%
D159*
%TO.C,LED28*%
X135822535Y77049001D03*
X136342958Y75346779D03*
X139479639Y76305759D03*
X138959216Y78007981D03*
%TD*%
D117*
%TO.C,LED294*%
X161423849Y-23281474D03*
X160002278Y-22210242D03*
X158028325Y-24829766D03*
X159449896Y-25900998D03*
%TD*%
D114*
%TO.C,LED271*%
X183510191Y-67315401D03*
X181884079Y-66591409D03*
X180549983Y-69587839D03*
X182176095Y-70311831D03*
%TD*%
D73*
%TO.C,LED87*%
X1278312Y38928769D03*
X1495239Y40695500D03*
X-1760312Y41095231D03*
X-1977239Y39328500D03*
%TD*%
D28*
%TO.C,LED203*%
X187714052Y42537870D03*
X187992505Y40779785D03*
X191232122Y41292890D03*
X190953669Y43050975D03*
%TD*%
D160*
%TO.C,LED582*%
X13083827Y-40714730D03*
X13484240Y-42449109D03*
X16680173Y-41711270D03*
X16279760Y-39976891D03*
%TD*%
D135*
%TO.C,LED604*%
X115965660Y-6042925D03*
X116908916Y-7552450D03*
X119690514Y-5814315D03*
X118747258Y-4304790D03*
%TD*%
D161*
%TO.C,LED59*%
X189829301Y62613857D03*
X190319935Y60902812D03*
X193472873Y61806903D03*
X192982239Y63517948D03*
%TD*%
D29*
%TO.C,LED23*%
X10823121Y56920473D03*
X11193204Y58661576D03*
X7984879Y59343527D03*
X7614796Y57602424D03*
%TD*%
D19*
%TO.C,LED43*%
X36837228Y-10244292D03*
X35144348Y-9694242D03*
X34130772Y-12813708D03*
X35823652Y-13363758D03*
%TD*%
D34*
%TO.C,LED334*%
X-21835292Y-1066785D03*
X-23448520Y-314525D03*
X-24834708Y-3287215D03*
X-23221480Y-4039475D03*
%TD*%
D162*
%TO.C,LED434*%
X138148597Y-67030655D03*
X139906682Y-66752203D03*
X139393577Y-63512585D03*
X137635492Y-63791037D03*
%TD*%
D41*
%TO.C,LED517*%
X151484601Y27481163D03*
X153264330Y27450097D03*
X153321573Y30729597D03*
X151541844Y30760663D03*
%TD*%
D77*
%TO.C,LED480*%
X203234183Y29627474D03*
X203481912Y27864797D03*
X206729991Y28321286D03*
X206482262Y30083963D03*
%TD*%
D67*
%TO.C,LED258*%
X192484479Y-46286014D03*
X193848038Y-45141851D03*
X191739695Y-42629226D03*
X190376136Y-43773389D03*
%TD*%
D118*
%TO.C,LED309*%
X-71937773Y2712769D03*
X-70614976Y1521717D03*
X-68420227Y3959231D03*
X-69743024Y5150283D03*
%TD*%
D71*
%TO.C,LED483*%
X197999999Y23515811D03*
X198124165Y21740147D03*
X201396175Y21968949D03*
X201272009Y23744613D03*
%TD*%
D38*
%TO.C,LED149*%
X-18118494Y-53974586D03*
X-17509698Y-55647239D03*
X-14427506Y-54525414D03*
X-15036302Y-52852761D03*
%TD*%
D116*
%TO.C,LED606*%
X125066138Y-7287952D03*
X126843698Y-7194794D03*
X126672036Y-3919288D03*
X124894476Y-4012446D03*
%TD*%
D163*
%TO.C,LED507*%
X178127456Y17129076D03*
X178436549Y15376118D03*
X181666718Y15945684D03*
X181357625Y17698642D03*
%TD*%
D164*
%TO.C,LED378*%
X35071304Y24193368D03*
X36824262Y24502462D03*
X36254696Y27732632D03*
X34501738Y27423538D03*
%TD*%
D50*
%TO.C,LED619*%
X92278709Y-9348811D03*
X93349940Y-10770384D03*
X95969465Y-8796429D03*
X94898234Y-7374856D03*
%TD*%
D165*
%TO.C,LED409*%
X127980883Y44439137D03*
X127145223Y42867490D03*
X130041291Y41327623D03*
X130876951Y42899270D03*
%TD*%
D101*
%TO.C,LED481*%
X205355732Y21326656D03*
X203953073Y20230779D03*
X205972442Y17646104D03*
X207375101Y18741981D03*
%TD*%
D166*
%TO.C,LED424*%
X15832761Y-55364500D03*
X16049688Y-57131232D03*
X19305239Y-56731500D03*
X19088312Y-54964768D03*
%TD*%
D116*
%TO.C,LED130*%
X140408138Y-6447952D03*
X142185698Y-6354794D03*
X142014036Y-3079288D03*
X140236476Y-3172446D03*
%TD*%
D167*
%TO.C,LED546*%
X-62331002Y33012173D03*
X-63930855Y32231872D03*
X-62492998Y29283827D03*
X-60893145Y30064128D03*
%TD*%
D16*
%TO.C,LED108*%
X215287859Y19305672D03*
X216980739Y18755622D03*
X217994315Y21875088D03*
X216301435Y22425138D03*
%TD*%
D168*
%TO.C,LED614*%
X99111803Y-29618595D03*
X100302856Y-30941393D03*
X102740371Y-28746645D03*
X101549318Y-27423847D03*
%TD*%
D169*
%TO.C,LED52*%
X189609325Y67562099D03*
X191150850Y68452098D03*
X189510849Y71292661D03*
X187969324Y70402662D03*
%TD*%
D170*
%TO.C,LED429*%
X22256390Y-52537124D03*
X23918163Y-53175019D03*
X25093610Y-50112876D03*
X23431837Y-49474981D03*
%TD*%
D13*
%TO.C,LED505*%
X166341087Y20127380D03*
X166341087Y21907380D03*
X163061087Y21907380D03*
X163061087Y20127380D03*
%TD*%
D32*
%TO.C,LED374*%
X-5062392Y-2160606D03*
X-6425951Y-3304769D03*
X-4317608Y-5817394D03*
X-2954049Y-4673231D03*
%TD*%
D28*
%TO.C,LED476*%
X184142052Y22265870D03*
X184420504Y20507785D03*
X187660122Y21020890D03*
X187381670Y22778975D03*
%TD*%
D125*
%TO.C,LED153*%
X14043399Y-67727428D03*
X12829442Y-66425618D03*
X10430601Y-68662572D03*
X11644558Y-69964382D03*
%TD*%
D129*
%TO.C,LED133*%
X-9061078Y5645767D03*
X-8936911Y7421431D03*
X-12208922Y7650233D03*
X-12333089Y5874569D03*
%TD*%
D54*
%TO.C,LED485*%
X193278697Y27704504D03*
X191616924Y28342399D03*
X190441477Y25280256D03*
X192103250Y24642361D03*
%TD*%
D105*
%TO.C,LED608*%
X121009171Y-25261563D03*
X122055428Y-26701613D03*
X124709003Y-24773677D03*
X123662746Y-23333627D03*
%TD*%
D26*
%TO.C,LED284*%
X136799068Y-46372459D03*
X136132270Y-44722071D03*
X133091106Y-45950781D03*
X133757904Y-47601169D03*
%TD*%
D171*
%TO.C,LED215*%
X-52638083Y54310943D03*
X-53684341Y55750993D03*
X-56337917Y53823057D03*
X-55291659Y52383007D03*
%TD*%
D21*
%TO.C,LED399*%
X142677231Y15651703D03*
X143540192Y14094881D03*
X146408943Y15685057D03*
X145545982Y17241879D03*
%TD*%
D84*
%TO.C,LED4*%
X2824975Y4723685D03*
X3255596Y6450812D03*
X73025Y7244315D03*
X-357596Y5517188D03*
%TD*%
D160*
%TO.C,LED225*%
X-36231175Y-43382730D03*
X-35830760Y-45117109D03*
X-32634825Y-44379270D03*
X-33035240Y-42644891D03*
%TD*%
D26*
%TO.C,LED138*%
X31609981Y49665161D03*
X30943183Y51315549D03*
X27902019Y50086839D03*
X28568817Y48436451D03*
%TD*%
D61*
%TO.C,LED613*%
X56980852Y-50422791D03*
X57950309Y-51915625D03*
X60701148Y-50129209D03*
X59731691Y-48636375D03*
%TD*%
D43*
%TO.C,LED125*%
X165094655Y-30369709D03*
X166870320Y-30245542D03*
X166641519Y-26973531D03*
X164865854Y-27097698D03*
%TD*%
D30*
%TO.C,LED164*%
X-4198981Y-48709161D03*
X-3532183Y-50359549D03*
X-491019Y-49130839D03*
X-1157817Y-47480451D03*
%TD*%
D38*
%TO.C,LED588*%
X31775506Y-29161586D03*
X32384302Y-30834239D03*
X35466494Y-29712414D03*
X34857698Y-28039761D03*
%TD*%
D127*
%TO.C,LED163*%
X-13180261Y-50039537D03*
X-11427305Y-50348632D03*
X-10857739Y-47118463D03*
X-12610695Y-46809368D03*
%TD*%
D149*
%TO.C,LED437*%
X98267876Y-38525087D03*
X99987224Y-38064389D03*
X99138298Y-34896153D03*
X97418950Y-35356851D03*
%TD*%
D84*
%TO.C,LED79*%
X-32174025Y36938685D03*
X-31743404Y38665812D03*
X-34925975Y39459315D03*
X-35356596Y37732188D03*
%TD*%
D75*
%TO.C,LED593*%
X22197576Y-19180254D03*
X21077386Y-20563574D03*
X23626424Y-22627746D03*
X24746614Y-21244426D03*
%TD*%
D100*
%TO.C,LED338*%
X-22347375Y7838691D03*
X-23840209Y8808148D03*
X-25626625Y6057309D03*
X-24133791Y5087852D03*
%TD*%
D28*
%TO.C,LED504*%
X181702052Y37436870D03*
X181980504Y35678785D03*
X185220122Y36191890D03*
X184941670Y37949975D03*
%TD*%
D73*
%TO.C,LED532*%
X189039399Y-20031852D03*
X189256326Y-18265120D03*
X186000775Y-17865388D03*
X185783848Y-19632120D03*
%TD*%
D99*
%TO.C,LED150*%
X-14631171Y-59864170D03*
X-15574427Y-61373695D03*
X-12792829Y-63111830D03*
X-11849573Y-61602305D03*
%TD*%
D172*
%TO.C,LED625*%
X102907964Y-9570668D03*
X103603466Y-7932170D03*
X100584210Y-6650572D03*
X99888708Y-8289070D03*
%TD*%
D90*
%TO.C,LED440*%
X46358307Y-45315940D03*
X48137223Y-45378061D03*
X48251693Y-42100060D03*
X46472777Y-42037939D03*
%TD*%
D83*
%TO.C,LED323*%
X-29550000Y12758000D03*
X-31330000Y12758000D03*
X-31330000Y9478000D03*
X-29550000Y9478000D03*
%TD*%
D173*
%TO.C,LED63*%
X198171614Y69233499D03*
X196430511Y69603584D03*
X195748560Y66395261D03*
X197489663Y66025176D03*
%TD*%
D174*
%TO.C,LED607*%
X136102899Y-26493024D03*
X134375772Y-26923645D03*
X135169275Y-30106216D03*
X136896402Y-29675595D03*
%TD*%
D128*
%TO.C,LED388*%
X40416171Y-6800830D03*
X41359427Y-5291305D03*
X38577829Y-3553170D03*
X37634573Y-5062695D03*
%TD*%
D89*
%TO.C,LED530*%
X168320257Y-431790D03*
X169829782Y-1375047D03*
X171567917Y1406550D03*
X170058392Y2349807D03*
%TD*%
D86*
%TO.C,LED264*%
X177501133Y-73629318D03*
X177315073Y-71859068D03*
X174053041Y-72201922D03*
X174239101Y-73972172D03*
%TD*%
D15*
%TO.C,LED16*%
X16653789Y67921008D03*
X17377781Y66294897D03*
X20374211Y67628992D03*
X19650219Y69255103D03*
%TD*%
D39*
%TO.C,LED297*%
X139512518Y-38299532D03*
X137736855Y-38423698D03*
X137965656Y-41695708D03*
X139741319Y-41571542D03*
%TD*%
D19*
%TO.C,LED12*%
X196735315Y48367088D03*
X195042435Y48917137D03*
X194028859Y45797672D03*
X195721739Y45247623D03*
%TD*%
D175*
%TO.C,LED172*%
X183424682Y72081962D03*
X181666597Y72360416D03*
X181153492Y69120798D03*
X182911577Y68842344D03*
%TD*%
D107*
%TO.C,LED49*%
X39451341Y-29231007D03*
X38405083Y-30671058D03*
X41058659Y-32598993D03*
X42104917Y-31158942D03*
%TD*%
D117*
%TO.C,LED36*%
X6672762Y28544146D03*
X5251191Y29615378D03*
X3277238Y26995854D03*
X4698809Y25924622D03*
%TD*%
D67*
%TO.C,LED364*%
X37162392Y46343606D03*
X38525951Y47487769D03*
X36417608Y50000394D03*
X35054049Y48856231D03*
%TD*%
D50*
%TO.C,LED580*%
X57982622Y29316809D03*
X59053853Y27895238D03*
X61673378Y29869191D03*
X60602147Y31290762D03*
%TD*%
D123*
%TO.C,LED465*%
X220117297Y-27568152D03*
X218397950Y-28028850D03*
X219246877Y-31197088D03*
X220966224Y-30736390D03*
%TD*%
D140*
%TO.C,LED443*%
X115640290Y-101196D03*
X115270208Y1639907D03*
X112061884Y957956D03*
X112431966Y-783147D03*
%TD*%
D21*
%TO.C,LED408*%
X139121231Y35926704D03*
X139984191Y34369881D03*
X142852943Y35960056D03*
X141989983Y37516879D03*
%TD*%
D119*
%TO.C,LED31*%
X18957394Y36337392D03*
X17813232Y37700951D03*
X15300606Y35592608D03*
X16444768Y34229049D03*
%TD*%
D160*
%TO.C,LED176*%
X184861914Y57079650D03*
X185262327Y55345271D03*
X188458260Y56083110D03*
X188057847Y57817489D03*
%TD*%
D32*
%TO.C,LED454*%
X-76358391Y290393D03*
X-77721951Y-853768D03*
X-75613609Y-3366393D03*
X-74250049Y-2222232D03*
%TD*%
D119*
%TO.C,LED211*%
X-43459606Y42676394D03*
X-44603768Y44039951D03*
X-47116394Y41931606D03*
X-45972232Y40568049D03*
%TD*%
D125*
%TO.C,LED118*%
X143240486Y-58550048D03*
X142026529Y-57248238D03*
X139627688Y-59485192D03*
X140841645Y-60787002D03*
%TD*%
D174*
%TO.C,LED84*%
X-14658189Y50884595D03*
X-16385315Y50453975D03*
X-15591811Y47271405D03*
X-13864685Y47702025D03*
%TD*%
D176*
%TO.C,LED116*%
X107020638Y-33298634D03*
X105250390Y-33112573D03*
X104907536Y-36374606D03*
X106677784Y-36560667D03*
%TD*%
D85*
%TO.C,LED509*%
X175749635Y12961562D03*
X174099248Y13628361D03*
X172870539Y10587198D03*
X174520926Y9920399D03*
%TD*%
D175*
%TO.C,LED230*%
X-27456404Y-57925417D03*
X-29214490Y-57646964D03*
X-29727596Y-60886583D03*
X-27969510Y-61165036D03*
%TD*%
D38*
%TO.C,LED510*%
X165196593Y14770794D03*
X165805389Y13098141D03*
X168887581Y14219966D03*
X168278785Y15892619D03*
%TD*%
D107*
%TO.C,LED428*%
X30960341Y-40897007D03*
X29914083Y-42337058D03*
X32567659Y-44264993D03*
X33613917Y-42824942D03*
%TD*%
D87*
%TO.C,LED431*%
X17396459Y-72626199D03*
X18982451Y-73434302D03*
X20471541Y-70511801D03*
X18885549Y-69703698D03*
%TD*%
D29*
%TO.C,LED578*%
X53524121Y35732473D03*
X53894203Y37473576D03*
X50685879Y38155527D03*
X50315797Y36414424D03*
%TD*%
D101*
%TO.C,LED147*%
X-17678354Y-65533723D03*
X-19081014Y-66629601D03*
X-17061646Y-69214277D03*
X-15658986Y-68118399D03*
%TD*%
D36*
%TO.C,LED40*%
X53312606Y2574608D03*
X54456768Y1211049D03*
X56969394Y3319392D03*
X55825232Y4682951D03*
%TD*%
D90*
%TO.C,LED623*%
X105396394Y-879561D03*
X107175310Y-941682D03*
X107289780Y2336321D03*
X105510864Y2398442D03*
%TD*%
D152*
%TO.C,LED589*%
X31025128Y-16799145D03*
X30244827Y-18398998D03*
X33192872Y-19836855D03*
X33973173Y-18237002D03*
%TD*%
D177*
%TO.C,LED111*%
X207860759Y49209057D03*
X208015896Y47435832D03*
X211283415Y47721703D03*
X211128278Y49494928D03*
%TD*%
D84*
%TO.C,LED255*%
X199627062Y-35744935D03*
X200057683Y-34017808D03*
X196875112Y-33224305D03*
X196444491Y-34951432D03*
%TD*%
D38*
%TO.C,LED179*%
X140508593Y62778793D03*
X141117389Y61106141D03*
X144199581Y62227967D03*
X143590785Y63900619D03*
%TD*%
D89*
%TO.C,LED193*%
X105894257Y22899210D03*
X107403782Y21955953D03*
X109141917Y24737550D03*
X107632392Y25680807D03*
%TD*%
D170*
%TO.C,LED426*%
X23608390Y-60305124D03*
X25270163Y-60943020D03*
X26445610Y-57880876D03*
X24783837Y-57242980D03*
%TD*%
D49*
%TO.C,LED470*%
X223642844Y-7137416D03*
X222071197Y-6301757D03*
X220531330Y-9197824D03*
X222102977Y-10033483D03*
%TD*%
D42*
%TO.C,LED396*%
X22339280Y7861312D03*
X24086575Y8200951D03*
X23460720Y11420688D03*
X21713425Y11081049D03*
%TD*%
D177*
%TO.C,LED64*%
X206500759Y64515057D03*
X206655896Y62741832D03*
X209923415Y63027703D03*
X209768278Y64800928D03*
%TD*%
D42*
%TO.C,LED290*%
X146542365Y-13542308D03*
X148289662Y-13202669D03*
X147663809Y-9982932D03*
X145916512Y-10322571D03*
%TD*%
D35*
%TO.C,LED273*%
X10662000Y-74878000D03*
X10662000Y-76658000D03*
X13942000Y-76658000D03*
X13942000Y-74878000D03*
%TD*%
D120*
%TO.C,LED243*%
X201214581Y-65092034D03*
X200605785Y-63419381D03*
X197523593Y-64541206D03*
X198132389Y-66213859D03*
%TD*%
D74*
%TO.C,LED479*%
X197116260Y-704232D03*
X197209419Y1073329D03*
X193933914Y1244992D03*
X193840755Y-532569D03*
%TD*%
D165*
%TO.C,LED413*%
X121183882Y31713137D03*
X120348224Y30141490D03*
X123244292Y28601623D03*
X124079950Y30173270D03*
%TD*%
D88*
%TO.C,LED123*%
X179894197Y-31844483D03*
X181465844Y-31008825D03*
X179925977Y-28112757D03*
X178354330Y-28948415D03*
%TD*%
D178*
%TO.C,LED337*%
X-16875110Y12355863D03*
X-18446757Y11520205D03*
X-16906890Y8624137D03*
X-15335243Y9459795D03*
%TD*%
D179*
%TO.C,LED237*%
X218825943Y-52405943D03*
X217962982Y-50849121D03*
X215094231Y-52439297D03*
X215957192Y-53996119D03*
%TD*%
D85*
%TO.C,LED197*%
X229885635Y4139562D03*
X228235248Y4806361D03*
X227006539Y1765198D03*
X228656926Y1098399D03*
%TD*%
D172*
%TO.C,LED568*%
X62615877Y14924952D03*
X63311377Y16563450D03*
X60292123Y17845048D03*
X59596623Y16206550D03*
%TD*%
D117*
%TO.C,LED124*%
X173707849Y-32512474D03*
X172286278Y-31441242D03*
X170312325Y-34060766D03*
X171733896Y-35131998D03*
%TD*%
D40*
%TO.C,LED276*%
X163647248Y-46126601D03*
X165297636Y-45459801D03*
X164068926Y-42418639D03*
X162418538Y-43085439D03*
%TD*%
D101*
%TO.C,LED477*%
X193969732Y12464656D03*
X192567073Y11368779D03*
X194586442Y8784104D03*
X195989101Y9879981D03*
%TD*%
D29*
%TO.C,LED199*%
X209727208Y-19723147D03*
X210097291Y-17982044D03*
X206888966Y-17300093D03*
X206518883Y-19041196D03*
%TD*%
D180*
%TO.C,LED427*%
X32713577Y-60095796D03*
X30972474Y-60465880D03*
X31654423Y-63674204D03*
X33395526Y-63304120D03*
%TD*%
D105*
%TO.C,LED524*%
X173022170Y-10528563D03*
X174068428Y-11968613D03*
X176722004Y-10040677D03*
X175675746Y-8600627D03*
%TD*%
D34*
%TO.C,LED256*%
X187988795Y-47392405D03*
X186375567Y-46640145D03*
X184989379Y-49612835D03*
X186602607Y-50365095D03*
%TD*%
D107*
%TO.C,LED1*%
X9367341Y15682993D03*
X8321083Y14242943D03*
X10974659Y12315007D03*
X12020917Y13755057D03*
%TD*%
D84*
%TO.C,LED542*%
X164628062Y-3529935D03*
X165058683Y-1802808D03*
X161876112Y-1009305D03*
X161445491Y-2736432D03*
%TD*%
D46*
%TO.C,LED598*%
X4547558Y-29977618D03*
X3333602Y-31279427D03*
X5732442Y-33516382D03*
X6946398Y-32214573D03*
%TD*%
D89*
%TO.C,LED181*%
X157834257Y60635210D03*
X159343782Y59691953D03*
X161081917Y62473550D03*
X159572392Y63416807D03*
%TD*%
D13*
%TO.C,LED365*%
X1640000Y-18193000D03*
X1640000Y-16413000D03*
X-1640000Y-16413000D03*
X-1640000Y-18193000D03*
%TD*%
D80*
%TO.C,LED22*%
X8630223Y52462061D03*
X6851307Y52399940D03*
X6965777Y49121939D03*
X8744693Y49184060D03*
%TD*%
D13*
%TO.C,LED161*%
X1640000Y-38200000D03*
X1640000Y-36420000D03*
X-1640000Y-36420000D03*
X-1640000Y-38200000D03*
%TD*%
D106*
%TO.C,LED591*%
X27157778Y-13464061D03*
X28936693Y-13401940D03*
X28822222Y-10123939D03*
X27043307Y-10186060D03*
%TD*%
D33*
%TO.C,LED105*%
X235508123Y7033890D03*
X235229669Y8791975D03*
X231990051Y8278870D03*
X232268505Y6520785D03*
%TD*%
D181*
%TO.C,LED117*%
X109368105Y-40590950D03*
X110626757Y-41849600D03*
X112946069Y-39530290D03*
X111687417Y-38271640D03*
%TD*%
D118*
%TO.C,LED565*%
X62695227Y22834769D03*
X64018024Y21643716D03*
X66212773Y24081231D03*
X64889976Y25272284D03*
%TD*%
D182*
%TO.C,LED387*%
X23570384Y16504754D03*
X24738169Y15161371D03*
X27213616Y17313246D03*
X26045831Y18656629D03*
%TD*%
D32*
%TO.C,LED498*%
X159638695Y56166774D03*
X158275136Y55022611D03*
X160383479Y52509986D03*
X161747038Y53654149D03*
%TD*%
D13*
%TO.C,LED492*%
X166341087Y40134380D03*
X166341087Y41914380D03*
X163061087Y41914380D03*
X163061087Y40134380D03*
%TD*%
D183*
%TO.C,LED218*%
X-42516510Y50818036D03*
X-44274595Y50539583D03*
X-43761490Y47299964D03*
X-42003405Y47578417D03*
%TD*%
D156*
%TO.C,LED77*%
X-34657347Y33661758D03*
X-36350228Y33111708D03*
X-35336653Y29992242D03*
X-33643772Y30542292D03*
%TD*%
D143*
%TO.C,LED247*%
X206584847Y-33834729D03*
X206985260Y-32100351D03*
X203789327Y-31362511D03*
X203388914Y-33096889D03*
%TD*%
D15*
%TO.C,LED115*%
X144326876Y-63914612D03*
X145050868Y-65540723D03*
X148047298Y-64206628D03*
X147323306Y-62580517D03*
%TD*%
D153*
%TO.C,LED254*%
X194014007Y-29508680D03*
X192538320Y-28513317D03*
X190704167Y-31232560D03*
X192179854Y-32227923D03*
%TD*%
D103*
%TO.C,LED2*%
X2569188Y10362404D03*
X4296315Y10793025D03*
X3502812Y13975596D03*
X1775685Y13544975D03*
%TD*%
D94*
%TO.C,LED595*%
X6390418Y-19915176D03*
X8153095Y-20162904D03*
X8609582Y-16914824D03*
X6846905Y-16667096D03*
%TD*%
D153*
%TO.C,LED531*%
X182745007Y-13612681D03*
X181269320Y-12617317D03*
X179435167Y-15336559D03*
X180910854Y-16331923D03*
%TD*%
D101*
%TO.C,LED502*%
X181998732Y46626656D03*
X180596073Y45530779D03*
X182615442Y42946104D03*
X184018101Y44041981D03*
%TD*%
D25*
%TO.C,LED423*%
X112834112Y27834695D03*
X112403491Y26107568D03*
X115586062Y25314065D03*
X116016683Y27041192D03*
%TD*%
D172*
%TO.C,LED615*%
X96951964Y-23734668D03*
X97647466Y-22096170D03*
X94628210Y-20814572D03*
X93932708Y-22453070D03*
%TD*%
D177*
%TO.C,LED13*%
X201502759Y44547058D03*
X201657896Y42773831D03*
X204925415Y43059702D03*
X204770278Y44832929D03*
%TD*%
D184*
%TO.C,LED65*%
X141463441Y47549103D03*
X142866101Y48644981D03*
X140846733Y51229657D03*
X139444073Y50133779D03*
%TD*%
D39*
%TO.C,LED213*%
X-37466569Y45410088D03*
X-39242232Y45285922D03*
X-39013431Y42013912D03*
X-37237768Y42138078D03*
%TD*%
D153*
%TO.C,LED81*%
X-14057080Y26855939D03*
X-15532767Y27851303D03*
X-17366920Y25132061D03*
X-15891233Y24136697D03*
%TD*%
D36*
%TO.C,LED394*%
X13143606Y7845608D03*
X14287768Y6482049D03*
X16800394Y8590392D03*
X15656232Y9953951D03*
%TD*%
D185*
%TO.C,LED624*%
X96620612Y1266900D03*
X97372872Y-346328D03*
X100345562Y1039860D03*
X99593302Y2653088D03*
%TD*%
D153*
%TO.C,LED486*%
X210858007Y523320D03*
X209382320Y1518683D03*
X207548167Y-1200560D03*
X209023854Y-2195923D03*
%TD*%
D159*
%TO.C,LED345*%
X-17664551Y-33858378D03*
X-17144129Y-35560600D03*
X-14007449Y-34601622D03*
X-14527871Y-32899400D03*
%TD*%
D186*
%TO.C,LED159*%
X11004754Y-51353384D03*
X9661372Y-52521168D03*
X11813246Y-54996616D03*
X13156628Y-53828832D03*
%TD*%
D114*
%TO.C,LED55*%
X-15848896Y73302219D03*
X-17475008Y74026211D03*
X-18809104Y71029781D03*
X-17182992Y70305789D03*
%TD*%
D167*
%TO.C,LED456*%
X227194085Y-25569447D03*
X225594232Y-26349748D03*
X227032089Y-29297793D03*
X228631942Y-28517492D03*
%TD*%
D153*
%TO.C,LED541*%
X170799007Y-5521680D03*
X169323320Y-4526317D03*
X167489167Y-7245560D03*
X168964854Y-8240923D03*
%TD*%
D89*
%TO.C,LED355*%
X35720170Y40036830D03*
X37229695Y39093573D03*
X38967830Y41875170D03*
X37458305Y42818427D03*
%TD*%
D30*
%TO.C,LED57*%
X184865106Y76667219D03*
X185531906Y75016832D03*
X188573068Y76245541D03*
X187906268Y77895928D03*
%TD*%
D187*
%TO.C,LED415*%
X127123223Y29625270D03*
X127958883Y28053623D03*
X130854951Y29593490D03*
X130019291Y31165137D03*
%TD*%
D54*
%TO.C,LED233*%
X-46312390Y-45438876D03*
X-47974163Y-44800981D03*
X-49149610Y-47863124D03*
X-47487837Y-48501019D03*
%TD*%
D94*
%TO.C,LED344*%
X-8609582Y-37698176D03*
X-6846905Y-37945904D03*
X-6390418Y-34697824D03*
X-8153095Y-34450096D03*
%TD*%
D32*
%TO.C,LED167*%
X4317608Y-48795606D03*
X2954049Y-49939769D03*
X5062392Y-52452394D03*
X6425951Y-51308231D03*
%TD*%
D105*
%TO.C,LED70*%
X184781170Y-26713563D03*
X185827428Y-28153613D03*
X188481004Y-26225677D03*
X187434746Y-24785627D03*
%TD*%
D26*
%TO.C,LED219*%
X-32592019Y49665161D03*
X-33258817Y51315549D03*
X-36299981Y50086839D03*
X-35633183Y48436451D03*
%TD*%
D34*
%TO.C,LED478*%
X189535795Y7001595D03*
X187922567Y7753855D03*
X186536379Y4781165D03*
X188149607Y4028905D03*
%TD*%
D99*
%TO.C,LED594*%
X11523829Y-10076170D03*
X10580573Y-11585695D03*
X13362171Y-13323830D03*
X14305427Y-11814305D03*
%TD*%
D175*
%TO.C,LED238*%
X-42638404Y-55557417D03*
X-44396490Y-55278964D03*
X-44909596Y-58518583D03*
X-43151510Y-58797036D03*
%TD*%
D178*
%TO.C,LED526*%
X181607977Y-4909757D03*
X180036330Y-5745415D03*
X181576197Y-8641483D03*
X183147844Y-7805825D03*
%TD*%
D75*
%TO.C,LED53*%
X193618663Y76935125D03*
X192498472Y75551806D03*
X195047511Y73487635D03*
X196167702Y74870954D03*
%TD*%
D30*
%TO.C,LED46*%
X47741019Y-10973161D03*
X48407817Y-12623549D03*
X51448981Y-11394839D03*
X50782183Y-9744451D03*
%TD*%
D92*
%TO.C,LED503*%
X173310669Y41412556D03*
X171547992Y41660284D03*
X171091505Y38412204D03*
X172854182Y38164476D03*
%TD*%
D129*
%TO.C,LED91*%
X-19892078Y36532767D03*
X-19767911Y38308431D03*
X-23039922Y38537233D03*
X-23164089Y36761569D03*
%TD*%
D58*
%TO.C,LED464*%
X217716959Y-40545475D03*
X218497260Y-38945622D03*
X215549215Y-37507765D03*
X214768914Y-39107618D03*
%TD*%
D188*
%TO.C,LED56*%
X144599757Y76555360D03*
X143341107Y75296710D03*
X145660417Y72977400D03*
X146919067Y74236050D03*
%TD*%
D135*
%TO.C,LED187*%
X49260573Y-38199305D03*
X50203829Y-39708830D03*
X52985427Y-37970695D03*
X52042171Y-36461170D03*
%TD*%
D24*
%TO.C,LED19*%
X22262894Y73552556D03*
X22842406Y75235580D03*
X19741106Y76303444D03*
X19161594Y74620420D03*
%TD*%
D40*
%TO.C,LED537*%
X167679248Y-14918601D03*
X169329636Y-14251803D03*
X168100926Y-11210639D03*
X166450538Y-11877437D03*
%TD*%
%TO.C,LED137*%
X14026162Y51499018D03*
X15676548Y52165818D03*
X14447838Y55206982D03*
X12797452Y54540182D03*
%TD*%
D124*
%TO.C,LED21*%
X120266144Y57968296D03*
X118826094Y56922039D03*
X120754030Y54268464D03*
X122194080Y55314721D03*
%TD*%
D30*
%TO.C,LED368*%
X491019Y-5482161D03*
X1157817Y-7132549D03*
X4198981Y-5903839D03*
X3532183Y-4253451D03*
%TD*%
D31*
%TO.C,LED224*%
X-25062738Y-44586462D03*
X-26815696Y-44277368D03*
X-27385262Y-47507538D03*
X-25632304Y-47816632D03*
%TD*%
D25*
%TO.C,LED174*%
X164774112Y65571695D03*
X164343491Y63844568D03*
X167526062Y63051065D03*
X167956683Y64778192D03*
%TD*%
D166*
%TO.C,LED311*%
X-57432240Y-36391500D03*
X-57215312Y-38158232D03*
X-53959760Y-37758500D03*
X-54176688Y-35991768D03*
%TD*%
D67*
%TO.C,LED119*%
X128283479Y-46286014D03*
X129647038Y-45141851D03*
X127538695Y-42629226D03*
X126175136Y-43773389D03*
%TD*%
D161*
%TO.C,LED302*%
X-40055786Y-29035522D03*
X-39565152Y-30746568D03*
X-36412214Y-29842478D03*
X-36902848Y-28131432D03*
%TD*%
D189*
%TO.C,LED362*%
X46091238Y47978853D03*
X47512810Y46907623D03*
X49486762Y49527147D03*
X48065190Y50598377D03*
%TD*%
D100*
%TO.C,LED201*%
X203233712Y-10681929D03*
X201740878Y-9712472D03*
X199954462Y-12463311D03*
X201447296Y-13432768D03*
%TD*%
D34*
%TO.C,LED475*%
X194805795Y19523595D03*
X193192567Y20275855D03*
X191806379Y17303165D03*
X193419607Y16550905D03*
%TD*%
D153*
%TO.C,LED534*%
X182068007Y-21417681D03*
X180592320Y-20422317D03*
X178758167Y-23141559D03*
X180233854Y-24136923D03*
%TD*%
D73*
%TO.C,LED82*%
X-7762688Y20436768D03*
X-7545761Y22203500D03*
X-10801312Y22603232D03*
X-11018239Y20836500D03*
%TD*%
D174*
%TO.C,LED121*%
X180292898Y-43557025D03*
X178565772Y-43987645D03*
X179359276Y-47170215D03*
X181086402Y-46739595D03*
%TD*%
D128*
%TO.C,LED240*%
X210163258Y-53792450D03*
X211106514Y-52282925D03*
X208324916Y-50544790D03*
X207381660Y-52054315D03*
%TD*%
D190*
%TO.C,LED71*%
X193822926Y-21835639D03*
X192172538Y-22502437D03*
X193401248Y-25543601D03*
X195051636Y-24876803D03*
%TD*%
D86*
%TO.C,LED281*%
X176023133Y-58335318D03*
X175837073Y-56565068D03*
X172575041Y-56907922D03*
X172761101Y-58678172D03*
%TD*%
D156*
%TO.C,LED249*%
X197141739Y-38633862D03*
X195448859Y-39183912D03*
X196462435Y-42303378D03*
X198155315Y-41753328D03*
%TD*%
D19*
%TO.C,LED305*%
X-50586772Y-15591292D03*
X-52279652Y-15041242D03*
X-53293228Y-18160708D03*
X-51600348Y-18710758D03*
%TD*%
D99*
%TO.C,LED76*%
X-42921171Y31174830D03*
X-43864427Y29665305D03*
X-41082829Y27927170D03*
X-40139573Y29436695D03*
%TD*%
D41*
%TO.C,LED154*%
X-10924487Y-69156217D03*
X-9144757Y-69187282D03*
X-9087513Y-65907783D03*
X-10867243Y-65876718D03*
%TD*%
D61*
%TO.C,LED361*%
X114449939Y62404589D03*
X115419395Y60911756D03*
X118170235Y62698171D03*
X117200779Y64191004D03*
%TD*%
D141*
%TO.C,LED103*%
X222172389Y42451619D03*
X221563593Y40778967D03*
X224645785Y39657141D03*
X225254581Y41329793D03*
%TD*%
D17*
%TO.C,LED385*%
X21197151Y21667432D03*
X21687787Y23378477D03*
X18534849Y24282568D03*
X18044213Y22571523D03*
%TD*%
D55*
%TO.C,LED533*%
X188352538Y-9042318D03*
X186766547Y-9850420D03*
X188255636Y-12772922D03*
X189841627Y-11964820D03*
%TD*%
D144*
%TO.C,LED99*%
X-16346057Y62669084D03*
X-14906008Y63715341D03*
X-16833943Y66368916D03*
X-18273992Y65322659D03*
%TD*%
D57*
%TO.C,LED252*%
X193182917Y-36322450D03*
X191673392Y-35379193D03*
X189935257Y-38160790D03*
X191444782Y-39104047D03*
%TD*%
D98*
%TO.C,LED461*%
X-61244620Y-46419108D03*
X-62702710Y-47440074D03*
X-60821380Y-50126892D03*
X-59363290Y-49105926D03*
%TD*%
D106*
%TO.C,LED398*%
X135878865Y13838319D03*
X137657780Y13900440D03*
X137543309Y17178441D03*
X135764394Y17116320D03*
%TD*%
D191*
%TO.C,LED627*%
X110927457Y-7688161D03*
X111844224Y-6162403D03*
X109032717Y-4473079D03*
X108115950Y-5998837D03*
%TD*%
D44*
%TO.C,LED339*%
X-27627685Y-36950026D03*
X-29354811Y-36519405D03*
X-30148315Y-39701974D03*
X-28421189Y-40132595D03*
%TD*%
D26*
%TO.C,LED523*%
X164210068Y9196541D03*
X163543270Y10846929D03*
X160502106Y9618219D03*
X161168904Y7967831D03*
%TD*%
D192*
%TO.C,LED620*%
X71756698Y-3294549D03*
X72564801Y-4880540D03*
X75487302Y-3391451D03*
X74679199Y-1805460D03*
%TD*%
D35*
%TO.C,LED239*%
X195162087Y-56881620D03*
X195162087Y-58661620D03*
X198442087Y-58661620D03*
X198442087Y-56881620D03*
%TD*%
D65*
%TO.C,LED552*%
X-63087230Y22453863D03*
X-62626532Y24173210D03*
X-65794770Y25022137D03*
X-66255468Y23302790D03*
%TD*%
D193*
%TO.C,LED191*%
X102306192Y35474823D03*
X101726681Y33791800D03*
X104827982Y32723937D03*
X105407493Y34406960D03*
%TD*%
D194*
%TO.C,LED220*%
X-45691785Y53285292D03*
X-44939525Y54898520D03*
X-47912215Y56284708D03*
X-48664475Y54671480D03*
%TD*%
D86*
%TO.C,LED98*%
X-14186954Y55904302D03*
X-14373015Y57674551D03*
X-17635046Y57331698D03*
X-17448985Y55561449D03*
%TD*%
D42*
%TO.C,LED35*%
X13941278Y26925312D03*
X15688575Y27264951D03*
X15062722Y30484688D03*
X13315425Y30145049D03*
%TD*%
D16*
%TO.C,LED139*%
X30747772Y42898292D03*
X32440652Y42348242D03*
X33454228Y45467708D03*
X31761348Y46017758D03*
%TD*%
D106*
%TO.C,LED367*%
X8697777Y-7228062D03*
X10476693Y-7165940D03*
X10362223Y-3887938D03*
X8583307Y-3950060D03*
%TD*%
D23*
%TO.C,LED472*%
X199845435Y13408622D03*
X201538315Y13958672D03*
X200524739Y17078138D03*
X198831859Y16528088D03*
%TD*%
D195*
%TO.C,LED347*%
X-31665231Y-29158226D03*
X-32856284Y-30481024D03*
X-30418769Y-32675774D03*
X-29227716Y-31352976D03*
%TD*%
D24*
%TO.C,LED383*%
X41896895Y18683557D03*
X42476406Y20366580D03*
X39375105Y21434443D03*
X38795594Y19751420D03*
%TD*%
D153*
%TO.C,LED3*%
X-2788080Y10959940D03*
X-4263767Y11955303D03*
X-6097920Y9236060D03*
X-4622233Y8240697D03*
%TD*%
D34*
%TO.C,LED61*%
X203424795Y60465595D03*
X201811567Y61217855D03*
X200425379Y58245165D03*
X202038607Y57492905D03*
%TD*%
D75*
%TO.C,LED67*%
X134368663Y65249126D03*
X133248473Y63865805D03*
X135797511Y61801634D03*
X136917701Y63184955D03*
%TD*%
D79*
%TO.C,LED400*%
X139825717Y24245921D03*
X138908949Y22720164D03*
X141720457Y21030839D03*
X142637225Y22556596D03*
%TD*%
D37*
%TO.C,LED175*%
X163811087Y56687380D03*
X165591087Y56687380D03*
X165591087Y59967380D03*
X163811087Y59967380D03*
%TD*%
D57*
%TO.C,LED93*%
X-25234170Y41875170D03*
X-26743695Y42818427D03*
X-28481830Y40036830D03*
X-26972305Y39093573D03*
%TD*%
D190*
%TO.C,LED283*%
X150674925Y-47784638D03*
X149024539Y-48451438D03*
X150253249Y-51492602D03*
X151903635Y-50825802D03*
%TD*%
D110*
%TO.C,LED596*%
X13470981Y-19476837D03*
X14108875Y-21138610D03*
X17171019Y-19963163D03*
X16533125Y-18301390D03*
%TD*%
D125*
%TO.C,LED463*%
X213665486Y-30835048D03*
X212451529Y-29533238D03*
X210052688Y-31770192D03*
X211266645Y-33072002D03*
%TD*%
D29*
%TO.C,LED330*%
X-42187879Y21014473D03*
X-41817796Y22755576D03*
X-45026121Y23437527D03*
X-45396204Y21696424D03*
%TD*%
D118*
%TO.C,LED104*%
X233121314Y-244851D03*
X234444111Y-1435903D03*
X236638860Y1001611D03*
X235316063Y2192663D03*
%TD*%
D28*
%TO.C,LED430*%
X29263964Y-53667510D03*
X29542418Y-55425595D03*
X32782036Y-54912490D03*
X32503582Y-53154405D03*
%TD*%
D190*
%TO.C,LED324*%
X-28700161Y29257981D03*
X-30350549Y28591183D03*
X-29121839Y25550019D03*
X-27471451Y26216817D03*
%TD*%
D196*
%TO.C,LED579*%
X49969522Y27443214D03*
X51680568Y27933848D03*
X50776478Y31086786D03*
X49065432Y30596152D03*
%TD*%
D17*
%TO.C,LED136*%
X17807152Y59389432D03*
X18297785Y61100478D03*
X15144848Y62004568D03*
X14654215Y60293522D03*
%TD*%
D76*
%TO.C,LED33*%
X5722549Y33539621D03*
X7361049Y34235122D03*
X6079451Y37254379D03*
X4440951Y36558878D03*
%TD*%
D106*
%TO.C,LED275*%
X156070864Y-48747681D03*
X157849780Y-48685560D03*
X157735310Y-45407559D03*
X155956394Y-45469680D03*
%TD*%
D125*
%TO.C,LED559*%
X-45351601Y35484572D03*
X-46565558Y36786382D03*
X-48964399Y34549428D03*
X-47750442Y33247618D03*
%TD*%
D89*
%TO.C,LED160*%
X3619170Y-58759170D03*
X5128695Y-59702427D03*
X6866830Y-56920830D03*
X5357305Y-55977573D03*
%TD*%
D104*
%TO.C,LED617*%
X91614746Y291387D03*
X92661003Y1731437D03*
X90007428Y3659373D03*
X88961171Y2219323D03*
%TD*%
D101*
%TO.C,LED303*%
X-41271355Y-13931724D03*
X-42674014Y-15027601D03*
X-40654645Y-17612276D03*
X-39251986Y-16516399D03*
%TD*%
D106*
%TO.C,LED421*%
X117302865Y34284319D03*
X119081780Y34346439D03*
X118967309Y37624441D03*
X117188394Y37562321D03*
%TD*%
D93*
%TO.C,LED321*%
X-34974369Y-4644696D03*
X-35283462Y-2891738D03*
X-38513631Y-3461304D03*
X-38204538Y-5214262D03*
%TD*%
D17*
%TO.C,LED353*%
X46383152Y33016432D03*
X46873786Y34727477D03*
X43720848Y35631568D03*
X43230214Y33920523D03*
%TD*%
D39*
%TO.C,LED178*%
X171613518Y60496468D03*
X169837855Y60372302D03*
X170066656Y57100292D03*
X171842319Y57224458D03*
%TD*%
D183*
%TO.C,LED556*%
X-56762510Y48531036D03*
X-58520595Y48252583D03*
X-58007490Y45012964D03*
X-56249405Y45291417D03*
%TD*%
D197*
%TO.C,LED343*%
X-14153472Y-40186549D03*
X-15389963Y-41466973D03*
X-13030528Y-43745451D03*
X-11794037Y-42465027D03*
%TD*%
D135*
%TO.C,LED169*%
X10648573Y758695D03*
X11591828Y-750831D03*
X14373427Y987305D03*
X13430172Y2496831D03*
%TD*%
D38*
%TO.C,LED369*%
X-4413494Y-29988586D03*
X-3804698Y-31661239D03*
X-722506Y-30539414D03*
X-1331302Y-28866761D03*
%TD*%
D137*
%TO.C,LED246*%
X211175514Y-39481315D03*
X210232259Y-37971789D03*
X207450660Y-39709925D03*
X208393915Y-41219451D03*
%TD*%
D80*
%TO.C,LED460*%
X221584309Y-43880559D03*
X219805394Y-43942680D03*
X219919865Y-47220681D03*
X221698780Y-47158560D03*
%TD*%
D172*
%TO.C,LED563*%
X54811877Y13800951D03*
X55507379Y15439450D03*
X52488123Y16721049D03*
X51792621Y15082550D03*
%TD*%
D73*
%TO.C,LED278*%
X166461399Y-37380851D03*
X166678326Y-35614120D03*
X163422775Y-35214389D03*
X163205848Y-36981120D03*
%TD*%
D170*
%TO.C,LED439*%
X37923390Y-65888124D03*
X39585163Y-66526020D03*
X40760610Y-63463876D03*
X39098837Y-62825980D03*
%TD*%
D26*
%TO.C,LED261*%
X201001068Y-46372459D03*
X200334270Y-44722071D03*
X197293106Y-45950781D03*
X197959904Y-47601169D03*
%TD*%
D13*
%TO.C,LED490*%
X217080087Y1474380D03*
X217080087Y3254380D03*
X213800087Y3254380D03*
X213800087Y1474380D03*
%TD*%
D110*
%TO.C,LED587*%
X19011981Y-33808837D03*
X19649875Y-35470610D03*
X22712019Y-34295163D03*
X22074125Y-32633390D03*
%TD*%
D172*
%TO.C,LED601*%
X117022966Y-27608668D03*
X117718464Y-25970170D03*
X114699208Y-24688572D03*
X114003710Y-26327070D03*
%TD*%
D34*
%TO.C,LED100*%
X-20288292Y53327215D03*
X-21901520Y54079475D03*
X-23287708Y51106785D03*
X-21674480Y50354525D03*
%TD*%
D106*
%TO.C,LED522*%
X154338864Y7602318D03*
X156117780Y7664440D03*
X156003310Y10942442D03*
X154224394Y10880320D03*
%TD*%
D54*
%TO.C,LED457*%
X-75735390Y7300124D03*
X-77397163Y7938019D03*
X-78572610Y4875876D03*
X-76910837Y4237981D03*
%TD*%
D134*
%TO.C,LED538*%
X161723539Y-15030149D03*
X160443114Y-13793657D03*
X158164635Y-16153091D03*
X159445060Y-17389583D03*
%TD*%
D129*
%TO.C,LED250*%
X187741009Y-34822853D03*
X187865176Y-33047189D03*
X184593165Y-32818387D03*
X184468998Y-34594051D03*
%TD*%
D106*
%TO.C,LED402*%
X139918865Y7126319D03*
X141697780Y7188440D03*
X141583309Y10466441D03*
X139804394Y10404320D03*
%TD*%
D172*
%TO.C,LED577*%
X68614877Y29070952D03*
X69310377Y30709450D03*
X66291123Y31991048D03*
X65595623Y30352550D03*
%TD*%
D67*
%TO.C,LED102*%
X-27038608Y46343606D03*
X-25675049Y47487769D03*
X-27783392Y50000394D03*
X-29146951Y48856231D03*
%TD*%
D106*
%TO.C,LED448*%
X121458864Y13362318D03*
X123237780Y13424440D03*
X123123310Y16702442D03*
X121344394Y16640320D03*
%TD*%
D162*
%TO.C,LED359*%
X25307510Y67226965D03*
X27065595Y67505417D03*
X26552490Y70745035D03*
X24794405Y70466583D03*
%TD*%
D146*
%TO.C,LED420*%
X115980888Y50801920D03*
X115172785Y49215929D03*
X118095286Y47726840D03*
X118903389Y49312831D03*
%TD*%
D76*
%TO.C,LED300*%
X158621636Y-33539999D03*
X160260136Y-32844498D03*
X158978538Y-29825241D03*
X157340038Y-30520742D03*
%TD*%
D86*
%TO.C,LED544*%
X-69207954Y10158302D03*
X-69394014Y11928551D03*
X-72656046Y11585698D03*
X-72469986Y9815449D03*
%TD*%
D198*
%TO.C,LED148*%
X-17247237Y-46370718D03*
X-18788763Y-45480718D03*
X-20428763Y-48321282D03*
X-18887237Y-49211282D03*
%TD*%
D159*
%TO.C,LED351*%
X-22176551Y-19170378D03*
X-21656129Y-20872600D03*
X-18519449Y-19913622D03*
X-19039871Y-18211400D03*
%TD*%
D62*
%TO.C,LED375*%
X-8542315Y-16824975D03*
X-6815189Y-17255595D03*
X-6021685Y-14073025D03*
X-7748811Y-13642405D03*
%TD*%
D13*
%TO.C,LED553*%
X-49086000Y14888000D03*
X-49086000Y16668000D03*
X-52366000Y16668000D03*
X-52366000Y14888000D03*
%TD*%
D62*
%TO.C,LED493*%
X156158772Y41502405D03*
X157885898Y41071785D03*
X158679402Y44254355D03*
X156952276Y44684975D03*
%TD*%
D91*
%TO.C,LED295*%
X152784101Y-41831221D03*
X151381441Y-40735343D03*
X149362073Y-43320019D03*
X150764733Y-44415897D03*
%TD*%
D109*
%TO.C,LED95*%
X3811628Y56393831D03*
X2468246Y57561617D03*
X316372Y55086169D03*
X1659754Y53918383D03*
%TD*%
D123*
%TO.C,LED554*%
X-48886790Y29421468D03*
X-50606137Y28960769D03*
X-49757210Y25792532D03*
X-48037863Y26253231D03*
%TD*%
D101*
%TO.C,LED529*%
X175369732Y6659656D03*
X173967073Y5563779D03*
X175986442Y2979104D03*
X177389101Y4074981D03*
%TD*%
D196*
%TO.C,LED265*%
X174634609Y-67090405D03*
X176345655Y-66599772D03*
X175441565Y-63446835D03*
X173730519Y-63937468D03*
%TD*%
D51*
%TO.C,LED47*%
X36342233Y-38365303D03*
X37817919Y-37369940D03*
X35983767Y-34650697D03*
X34508081Y-35646060D03*
%TD*%
D99*
%TO.C,LED69*%
X205783916Y-24212790D03*
X204840660Y-25722315D03*
X207622258Y-27460450D03*
X208565514Y-25950925D03*
%TD*%
D199*
%TO.C,LED438*%
X50018719Y-48897237D03*
X49128718Y-50438763D03*
X51969281Y-52078763D03*
X52859282Y-50537237D03*
%TD*%
D200*
%TO.C,LED262*%
X5678677Y-73697856D03*
X7235499Y-72834896D03*
X5645323Y-69966144D03*
X4088501Y-70829104D03*
%TD*%
D201*
%TO.C,LED348*%
X-24343891Y-23770240D03*
X-26078270Y-23369827D03*
X-26816109Y-26565760D03*
X-25081730Y-26966173D03*
%TD*%
D84*
%TO.C,LED609*%
X135425062Y-35744935D03*
X135855683Y-34017808D03*
X132673112Y-33224305D03*
X132242491Y-34951432D03*
%TD*%
D142*
%TO.C,LED263*%
X-15450281Y-73992237D03*
X-14560282Y-75533763D03*
X-11719719Y-73893763D03*
X-12609718Y-72352237D03*
%TD*%
D159*
%TO.C,LED340*%
X-22913551Y-39741378D03*
X-22393129Y-41443600D03*
X-19256449Y-40484622D03*
X-19776871Y-38782400D03*
%TD*%
D163*
%TO.C,LED376*%
X-16965631Y-12231304D03*
X-16656538Y-13984262D03*
X-13426369Y-13414696D03*
X-13735462Y-11661738D03*
%TD*%
D202*
%TO.C,LED26*%
X-9933522Y70804785D03*
X-11644568Y70314152D03*
X-10740478Y67161215D03*
X-9029432Y67651848D03*
%TD*%
D123*
%TO.C,LED467*%
X214458297Y-22078152D03*
X212738950Y-22538851D03*
X213587877Y-25707088D03*
X215307224Y-25246389D03*
%TD*%
D89*
%TO.C,LED185*%
X55559170Y-21023170D03*
X57068695Y-21966427D03*
X58806830Y-19184830D03*
X57297305Y-18241573D03*
%TD*%
D23*
%TO.C,LED473*%
X180817435Y7226622D03*
X182510315Y7776672D03*
X181496739Y10896138D03*
X179803859Y10346088D03*
%TD*%
D20*
%TO.C,LED177*%
X184439855Y65840331D03*
X183295693Y64476772D03*
X185808319Y62368429D03*
X186952481Y63731988D03*
%TD*%
D203*
%TO.C,LED270*%
X192254529Y-65103002D03*
X193468485Y-63801193D03*
X191069645Y-61564238D03*
X189855689Y-62866047D03*
%TD*%
D32*
%TO.C,LED316*%
X-47622392Y-11058606D03*
X-48985951Y-12202769D03*
X-46877608Y-14715394D03*
X-45514049Y-13571231D03*
%TD*%
D86*
%TO.C,LED58*%
X-9351954Y75916302D03*
X-9538014Y77686552D03*
X-12800046Y77343698D03*
X-12613986Y75573448D03*
%TD*%
D73*
%TO.C,LED539*%
X168313399Y-22127851D03*
X168530326Y-20361120D03*
X165274775Y-19961389D03*
X165057848Y-21728120D03*
%TD*%
D65*
%TO.C,LED462*%
X226438857Y-36127757D03*
X226899555Y-34408410D03*
X223731317Y-33559483D03*
X223270619Y-35278830D03*
%TD*%
D73*
%TO.C,LED8*%
X-573688Y23675769D03*
X-356761Y25442500D03*
X-3612312Y25842231D03*
X-3829239Y24075500D03*
%TD*%
D134*
%TO.C,LED7*%
X6536452Y19867471D03*
X5256027Y21103963D03*
X2977548Y18744529D03*
X4257973Y17508037D03*
%TD*%
D60*
%TO.C,LED317*%
X-57146784Y6411138D03*
X-58672540Y5494371D03*
X-56983216Y2682862D03*
X-55457460Y3599629D03*
%TD*%
D204*
%TO.C,LED60*%
X193236060Y56417344D03*
X191955636Y55180852D03*
X194234114Y52821416D03*
X195514538Y54057908D03*
%TD*%
D39*
%TO.C,LED312*%
X-57305569Y-15648912D03*
X-59081232Y-15773078D03*
X-58852431Y-19045088D03*
X-57076768Y-18920922D03*
%TD*%
D138*
%TO.C,LED566*%
X57479303Y7295953D03*
X59249551Y7482014D03*
X58906697Y10744047D03*
X57136449Y10557986D03*
%TD*%
D205*
%TO.C,LED405*%
X125930062Y34447096D03*
X127252860Y35638149D03*
X125058112Y38075664D03*
X123735314Y36884611D03*
%TD*%
D71*
%TO.C,LED346*%
X-36695088Y-18254569D03*
X-36570922Y-20030233D03*
X-33298912Y-19801431D03*
X-33423078Y-18025767D03*
%TD*%
D153*
%TO.C,LED78*%
X-26003080Y34946940D03*
X-27478767Y35942303D03*
X-29312920Y33223060D03*
X-27837233Y32227697D03*
%TD*%
D25*
%TO.C,LED114*%
X216714112Y27834695D03*
X216283491Y26107568D03*
X219466062Y25314065D03*
X219896683Y27041192D03*
%TD*%
D140*
%TO.C,LED182*%
X56604204Y-44478576D03*
X56234121Y-42737473D03*
X53025796Y-43419424D03*
X53395879Y-45160527D03*
%TD*%
D36*
%TO.C,LED422*%
X108630693Y35382988D03*
X109774855Y34019429D03*
X112287481Y36127772D03*
X111143319Y37491331D03*
%TD*%
D12*
%TO.C,LED586*%
X27540405Y-36845583D03*
X29298490Y-37124036D03*
X29811595Y-33884417D03*
X28053510Y-33605964D03*
%TD*%
D120*
%TO.C,LED37*%
X52560494Y8003587D03*
X51951698Y9676239D03*
X48869506Y8554413D03*
X49478302Y6881761D03*
%TD*%
D106*
%TO.C,LED39*%
X61985778Y1415938D03*
X63764693Y1478060D03*
X63650222Y4756062D03*
X61871307Y4693940D03*
%TD*%
D86*
%TO.C,LED267*%
X182336133Y-53617318D03*
X182150072Y-51847069D03*
X178888041Y-52189922D03*
X179074102Y-53960171D03*
%TD*%
D107*
%TO.C,LED127*%
X153726428Y-8600627D03*
X152680170Y-10040677D03*
X155333746Y-11968613D03*
X156380004Y-10528563D03*
%TD*%
D182*
%TO.C,LED390*%
X33666384Y4921754D03*
X34834169Y3578371D03*
X37309616Y5730246D03*
X36141831Y7073629D03*
%TD*%
D41*
%TO.C,LED417*%
X136120601Y27728163D03*
X137900330Y27697097D03*
X137957573Y30976597D03*
X136177844Y31007663D03*
%TD*%
D18*
%TO.C,LED27*%
X15141963Y73706028D03*
X13905472Y74986451D03*
X11546037Y72707972D03*
X12782528Y71427549D03*
%TD*%
D85*
%TO.C,LED314*%
X-40891452Y-7628818D03*
X-42541839Y-6962019D03*
X-43770548Y-10003182D03*
X-42120161Y-10669981D03*
%TD*%
D46*
%TO.C,LED370*%
X-5732442Y-21096618D03*
X-6946398Y-22398427D03*
X-4547558Y-24635382D03*
X-3333602Y-23333573D03*
%TD*%
D66*
%TO.C,LED145*%
X36480037Y31737972D03*
X37716528Y30457547D03*
X40075963Y32736028D03*
X38839472Y34016453D03*
%TD*%
D21*
%TO.C,LED403*%
X131053231Y8619703D03*
X131916192Y7062881D03*
X134784943Y8653057D03*
X133921982Y10209879D03*
%TD*%
M02*
