%TF.GenerationSoftware,KiCad,Pcbnew,8.0.5*%
%TF.CreationDate,2024-10-17T15:54:23-04:00*%
%TF.ProjectId,orb_generated,6f72625f-6765-46e6-9572-617465642e6b,rev?*%
%TF.SameCoordinates,Original*%
%TF.FileFunction,Soldermask,Bot*%
%TF.FilePolarity,Negative*%
%FSLAX46Y46*%
G04 Gerber Fmt 4.6, Leading zero omitted, Abs format (unit mm)*
G04 Created by KiCad (PCBNEW 8.0.5) date 2024-10-17 15:54:23*
%MOMM*%
%LPD*%
G01*
G04 APERTURE LIST*
G04 Aperture macros list*
%AMFreePoly0*
4,1,24,-1.700000,1.080000,-1.580000,1.200000,0.500000,1.200000,0.665788,1.188493,0.881350,1.137792,1.083926,1.048347,1.266617,0.923201,1.423201,0.766616,1.548347,0.583925,1.637793,0.381350,1.688493,0.165788,1.700000,0.000000,1.688493,-0.165788,1.637793,-0.381350,1.548347,-0.583925,1.423201,-0.766616,1.266616,-0.923201,1.083925,-1.048346,0.881350,-1.137793,0.665788,-1.188493,
0.500000,-1.200000,-1.580000,-1.200000,-1.700000,-1.080000,-1.700000,1.080000,-1.700000,1.080000,$1*%
G04 Aperture macros list end*
%ADD10FreePoly0,313.000000*%
%ADD11FreePoly0,154.000000*%
%ADD12FreePoly0,54.000000*%
%ADD13FreePoly0,122.000000*%
%ADD14FreePoly0,357.000000*%
%ADD15FreePoly0,255.000000*%
%ADD16FreePoly0,305.000000*%
%ADD17FreePoly0,18.000000*%
%ADD18FreePoly0,149.000000*%
%ADD19FreePoly0,50.000000*%
%ADD20FreePoly0,118.000000*%
%ADD21FreePoly0,226.000000*%
%ADD22FreePoly0,90.000000*%
%ADD23FreePoly0,174.000000*%
%ADD24FreePoly0,227.000000*%
%ADD25FreePoly0,141.000000*%
%ADD26FreePoly0,237.000000*%
%ADD27FreePoly0,182.000000*%
%ADD28FreePoly0,230.000000*%
%ADD29FreePoly0,29.000000*%
%ADD30FreePoly0,75.000000*%
%ADD31FreePoly0,34.000000*%
%ADD32FreePoly0,286.000000*%
%ADD33FreePoly0,74.000000*%
%ADD34FreePoly0,290.000000*%
%ADD35FreePoly0,335.000000*%
%ADD36FreePoly0,10.000000*%
%ADD37FreePoly0,238.000000*%
%ADD38FreePoly0,330.000000*%
%ADD39FreePoly0,234.000000*%
%ADD40FreePoly0,130.000000*%
%ADD41FreePoly0,177.000000*%
%ADD42FreePoly0,110.000000*%
%ADD43FreePoly0,126.000000*%
%ADD44FreePoly0,358.000000*%
%ADD45FreePoly0,146.000000*%
%ADD46FreePoly0,162.000000*%
%ADD47FreePoly0,270.000000*%
%ADD48FreePoly0,194.000000*%
%ADD49FreePoly0,22.000000*%
%ADD50FreePoly0,170.000000*%
%ADD51FreePoly0,2.000000*%
%ADD52FreePoly0,26.000000*%
%ADD53FreePoly0,311.000000*%
%ADD54FreePoly0,169.000000*%
%ADD55FreePoly0,285.000000*%
%ADD56FreePoly0,106.000000*%
%ADD57FreePoly0,306.000000*%
%ADD58FreePoly0,338.000000*%
%ADD59FreePoly0,138.000000*%
%ADD60FreePoly0,113.000000*%
%ADD61FreePoly0,294.000000*%
%ADD62FreePoly0,278.000000*%
%ADD63FreePoly0,158.000000*%
%ADD64FreePoly0,266.000000*%
%ADD65FreePoly0,58.000000*%
%ADD66FreePoly0,350.000000*%
%ADD67FreePoly0,190.000000*%
%ADD68FreePoly0,322.000000*%
%ADD69FreePoly0,86.000000*%
%ADD70FreePoly0,41.000000*%
%ADD71FreePoly0,127.000000*%
%ADD72FreePoly0,46.000000*%
%ADD73FreePoly0,301.000000*%
%ADD74FreePoly0,125.000000*%
%ADD75FreePoly0,314.000000*%
%ADD76FreePoly0,31.000000*%
%ADD77FreePoly0,214.000000*%
%ADD78FreePoly0,250.000000*%
%ADD79FreePoly0,139.000000*%
%ADD80FreePoly0,38.000000*%
%ADD81FreePoly0,82.000000*%
%ADD82FreePoly0,198.000000*%
%ADD83FreePoly0,121.000000*%
%ADD84FreePoly0,282.000000*%
%ADD85FreePoly0,342.000000*%
%ADD86FreePoly0,242.000000*%
%ADD87FreePoly0,53.000000*%
%ADD88FreePoly0,271.000000*%
%ADD89FreePoly0,27.000000*%
%ADD90FreePoly0,135.000000*%
%ADD91FreePoly0,131.000000*%
%ADD92FreePoly0,166.000000*%
%ADD93FreePoly0,83.000000*%
%ADD94FreePoly0,107.000000*%
%ADD95FreePoly0,218.000000*%
%ADD96FreePoly0,293.000000*%
%ADD97FreePoly0,206.000000*%
%ADD98FreePoly0,14.000000*%
%ADD99FreePoly0,247.000000*%
%ADD100FreePoly0,318.000000*%
%ADD101FreePoly0,269.000000*%
%ADD102FreePoly0,209.000000*%
%ADD103FreePoly0,349.000000*%
%ADD104FreePoly0,151.000000*%
%ADD105FreePoly0,97.000000*%
%ADD106FreePoly0,283.000000*%
%ADD107FreePoly0,137.000000*%
%ADD108FreePoly0,98.000000*%
%ADD109FreePoly0,334.000000*%
%ADD110FreePoly0,202.000000*%
%ADD111FreePoly0,9.000000*%
%ADD112FreePoly0,65.000000*%
%ADD113FreePoly0,78.000000*%
%ADD114FreePoly0,77.000000*%
%ADD115FreePoly0,161.000000*%
%ADD116FreePoly0,43.000000*%
%ADD117FreePoly0,258.000000*%
%ADD118FreePoly0,94.000000*%
%ADD119FreePoly0,42.000000*%
%ADD120FreePoly0,326.000000*%
%ADD121FreePoly0,353.000000*%
%ADD122FreePoly0,114.000000*%
%ADD123FreePoly0,70.000000*%
%ADD124FreePoly0,187.000000*%
%ADD125FreePoly0,310.000000*%
%ADD126FreePoly0,39.000000*%
%ADD127FreePoly0,307.000000*%
%ADD128FreePoly0,178.000000*%
%ADD129FreePoly0,163.000000*%
%ADD130FreePoly0,315.000000*%
%ADD131FreePoly0,142.000000*%
%ADD132FreePoly0,354.000000*%
%ADD133FreePoly0,259.000000*%
%ADD134FreePoly0,185.000000*%
%ADD135FreePoly0,261.000000*%
%ADD136FreePoly0,274.000000*%
%ADD137FreePoly0,150.000000*%
%ADD138FreePoly0,245.000000*%
%ADD139FreePoly0,7.000000*%
%ADD140FreePoly0,210.000000*%
%ADD141FreePoly0,57.000000*%
%ADD142FreePoly0,134.000000*%
%ADD143FreePoly0,173.000000*%
%ADD144FreePoly0,319.000000*%
%ADD145FreePoly0,117.000000*%
%ADD146FreePoly0,55.000000*%
%ADD147FreePoly0,197.000000*%
%ADD148FreePoly0,102.000000*%
%ADD149FreePoly0,225.000000*%
%ADD150FreePoly0,263.000000*%
%ADD151FreePoly0,346.000000*%
%ADD152FreePoly0,262.000000*%
%ADD153FreePoly0,281.000000*%
%ADD154FreePoly0,17.000000*%
%ADD155FreePoly0,347.000000*%
%ADD156FreePoly0,265.000000*%
%ADD157FreePoly0,33.000000*%
%ADD158FreePoly0,222.000000*%
%ADD159FreePoly0,257.000000*%
%ADD160FreePoly0,19.000000*%
%ADD161FreePoly0,79.000000*%
%ADD162FreePoly0,254.000000*%
%ADD163FreePoly0,101.000000*%
%ADD164FreePoly0,246.000000*%
%ADD165FreePoly0,67.000000*%
%ADD166FreePoly0,62.000000*%
%ADD167FreePoly0,331.000000*%
%ADD168FreePoly0,298.000000*%
%ADD169FreePoly0,15.000000*%
%ADD170FreePoly0,195.000000*%
%ADD171FreePoly0,119.000000*%
%ADD172FreePoly0,21.000000*%
%ADD173FreePoly0,297.000000*%
%ADD174FreePoly0,199.000000*%
%ADD175FreePoly0,291.000000*%
%ADD176FreePoly0,109.000000*%
%ADD177FreePoly0,223.000000*%
%ADD178FreePoly0,229.000000*%
%ADD179FreePoly0,133.000000*%
%ADD180FreePoly0,5.000000*%
%ADD181FreePoly0,205.000000*%
%ADD182FreePoly0,186.000000*%
%ADD183FreePoly0,30.000000*%
%ADD184FreePoly0,302.000000*%
%ADD185FreePoly0,147.000000*%
G04 APERTURE END LIST*
D10*
%TO.C,PAD264-86*%
X7384196Y-63043843D03*
%TD*%
D11*
%TO.C,PAD112-52*%
X203833619Y-61460041D03*
%TD*%
D12*
%TO.C,PAD87-67*%
X6010349Y8272936D03*
%TD*%
D13*
%TO.C,PAD41-91*%
X170660257Y-35492719D03*
%TD*%
D14*
%TO.C,PAD213-43*%
X-70710878Y31932095D03*
%TD*%
D15*
%TO.C,PAD8-75*%
X-8518520Y77117556D03*
%TD*%
D16*
%TO.C,PAD172-91*%
X161317597Y-21687840D03*
%TD*%
D17*
%TO.C,PAD221-4*%
X-42214781Y-13716064D03*
%TD*%
D18*
%TO.C,PAD224-5*%
X-11094051Y-31415420D03*
%TD*%
D12*
%TO.C,PAD123-65*%
X28559349Y39307936D03*
%TD*%
D19*
%TO.C,PAD134-87*%
X141202941Y-70241927D03*
%TD*%
D11*
%TO.C,PAD216-17*%
X171732619Y37335959D03*
%TD*%
D20*
%TO.C,PAD117-90*%
X160826197Y-53980430D03*
%TD*%
D21*
%TO.C,PAD197-70*%
X126616304Y61794766D03*
%TD*%
D22*
%TO.C,PAD202-9*%
X0Y-6026000D03*
%TD*%
D23*
%TO.C,PAD113-43*%
X-54090496Y30655510D03*
%TD*%
D17*
%TO.C,PAD98-26*%
X107030306Y18728316D03*
%TD*%
D24*
%TO.C,PAD217-84*%
X60858803Y-38733843D03*
%TD*%
D25*
%TO.C,PAD97-46*%
X-48731007Y-49050427D03*
%TD*%
D26*
%TO.C,PAD154-43*%
X-57583742Y37943792D03*
%TD*%
D27*
%TO.C,PAD201-72*%
X14871279Y51029711D03*
%TD*%
D15*
%TO.C,PAD67-45*%
X-68254520Y11039556D03*
%TD*%
D17*
%TO.C,PAD186-16*%
X158970306Y56465316D03*
%TD*%
D28*
%TO.C,PAD142-69*%
X23498146Y73956307D03*
%TD*%
D29*
%TO.C,PAD188-5*%
X-25512299Y-30681899D03*
%TD*%
D30*
%TO.C,PAD118-88*%
X173219607Y-73403176D03*
%TD*%
D31*
%TO.C,PAD1-18*%
X157687065Y17210685D03*
%TD*%
D32*
%TO.C,PAD26-29*%
X123529926Y43954729D03*
%TD*%
D33*
%TO.C,PAD140-39*%
X207029926Y47992031D03*
%TD*%
D12*
%TO.C,PAD260-3*%
X-3541651Y-59488064D03*
%TD*%
D34*
%TO.C,PAD150-76*%
X151094329Y-3081975D03*
%TD*%
D35*
%TO.C,PAD198-53*%
X-24617754Y-64131498D03*
%TD*%
D36*
%TO.C,PAD247-34*%
X-18027904Y12849661D03*
%TD*%
D37*
%TO.C,PAD248-50*%
X210948257Y-19169521D03*
%TD*%
D38*
%TO.C,PAD34-59*%
X88299740Y11840380D03*
%TD*%
D23*
%TO.C,PAD12-82*%
X113010591Y-35506110D03*
%TD*%
D39*
%TO.C,PAD95-76*%
X158690738Y-4558556D03*
%TD*%
D40*
%TO.C,PAD65-56*%
X200147232Y-14068926D03*
%TD*%
D41*
%TO.C,PAD133-47*%
X235411965Y-28217715D03*
%TD*%
D42*
%TO.C,PAD222-62*%
X108470845Y34424735D03*
%TD*%
%TO.C,PAD106-67*%
X13606758Y6796355D03*
%TD*%
D43*
%TO.C,PAD119-37*%
X-28559349Y39307936D03*
%TD*%
D37*
%TO.C,PAD101-63*%
X47928170Y33561099D03*
%TD*%
D44*
%TO.C,PAD263-67*%
X2258721Y15041711D03*
%TD*%
D45*
%TO.C,PAD174-18*%
X171715109Y17210685D03*
%TD*%
D32*
%TO.C,PAD240-42*%
X-52266163Y55582350D03*
%TD*%
D46*
%TO.C,PAD258-51*%
X202532868Y-42330684D03*
%TD*%
D47*
%TO.C,PAD24-17*%
X164701087Y48101380D03*
%TD*%
D39*
%TO.C,PAD42-79*%
X147416738Y-20075556D03*
%TD*%
D28*
%TO.C,PAD127-82*%
X110420233Y-28214313D03*
%TD*%
D48*
%TO.C,PAD137-23*%
X211430466Y38926344D03*
%TD*%
D43*
%TO.C,PAD225-72*%
X11838652Y43909935D03*
%TD*%
D49*
%TO.C,PAD80-23*%
X196462173Y33504054D03*
%TD*%
D50*
%TO.C,PAD237-79*%
X150627991Y-27618959D03*
%TD*%
D51*
%TO.C,PAD151-72*%
X-101279Y50526289D03*
%TD*%
D39*
%TO.C,PAD176-26*%
X116302738Y25465444D03*
%TD*%
D52*
%TO.C,PAD267-17*%
X157669555Y37335959D03*
%TD*%
D53*
%TO.C,PAD41-89*%
X174523811Y-39453510D03*
%TD*%
D51*
%TO.C,PAD254-57*%
X166959808Y-11327331D03*
%TD*%
D54*
%TO.C,PAD96-42*%
X-43029417Y46663699D03*
%TD*%
D55*
%TO.C,PAD27-58*%
X68254520Y11039556D03*
%TD*%
D56*
%TO.C,PAD26-70*%
X122372248Y47992031D03*
%TD*%
D57*
%TO.C,PAD132-34*%
X-14815651Y20392064D03*
%TD*%
D58*
%TO.C,PAD162-84*%
X47140086Y-41757674D03*
%TD*%
D17*
%TO.C,PAD12-81*%
X126869306Y-42330684D03*
%TD*%
D45*
%TO.C,PAD136-6*%
X7014022Y-41116695D03*
%TD*%
D59*
%TO.C,PAD74-10*%
X22620396Y-53783826D03*
%TD*%
D60*
%TO.C,PAD108-42*%
X-47547536Y40379060D03*
%TD*%
D61*
%TO.C,PAD85-63*%
X40191147Y33696555D03*
%TD*%
D62*
%TO.C,PAD161-28*%
X146909351Y16888817D03*
%TD*%
D63*
%TO.C,PAD185-58*%
X77597914Y505674D03*
%TD*%
D64*
%TO.C,PAD8-71*%
X140240599Y77357496D03*
%TD*%
D65*
%TO.C,PAD101-64*%
X50153830Y37122901D03*
%TD*%
D66*
%TO.C,PAD78-66*%
X14073096Y31333339D03*
%TD*%
D65*
%TO.C,PAD21-35*%
X-46247170Y22883901D03*
%TD*%
D67*
%TO.C,PAD247-33*%
X-22164096Y12120339D03*
%TD*%
D68*
%TO.C,PAD174-22*%
X175369909Y14555490D03*
%TD*%
D47*
%TO.C,PAD19-52*%
X196802087Y-50694620D03*
%TD*%
D69*
%TO.C,PAD51-38*%
X189848576Y61451265D03*
%TD*%
D57*
%TO.C,PAD144-48*%
X210120436Y1404444D03*
%TD*%
D70*
%TO.C,PAD4-30*%
X138251977Y23973104D03*
%TD*%
D71*
%TO.C,PAD227-33*%
X-25203812Y4632135D03*
%TD*%
D72*
%TO.C,PAD184-14*%
X29802783Y-17077386D03*
%TD*%
D73*
%TO.C,PAD65-50*%
X202720667Y-18966671D03*
%TD*%
D74*
%TO.C,PAD149-40*%
X228676576Y35055599D03*
%TD*%
D75*
%TO.C,PAD235-32*%
X-56069217Y14143386D03*
%TD*%
D64*
%TO.C,PAD60-2*%
X-18516489Y-39411886D03*
%TD*%
D76*
%TO.C,PAD138-54*%
X-43180949Y-62751420D03*
%TD*%
D77*
%TO.C,PAD205-17*%
X171715109Y44831075D03*
%TD*%
D57*
%TO.C,PAD252-16*%
X161159436Y63202444D03*
%TD*%
D19*
%TO.C,PAD55-83*%
X93080942Y-21287926D03*
%TD*%
D32*
%TO.C,PAD242-49*%
X211804926Y-37968269D03*
%TD*%
D78*
%TO.C,PAD93-40*%
X226175845Y48457025D03*
%TD*%
D79*
%TO.C,PAD71-21*%
X191150197Y23973104D03*
%TD*%
D78*
%TO.C,PAD193-56*%
X198410845Y266026D03*
%TD*%
D51*
%TO.C,PAD237-91*%
X157563808Y-29411331D03*
%TD*%
D80*
%TO.C,PAD110-15*%
X10668822Y-10841110D03*
%TD*%
D81*
%TO.C,PAD129-7*%
X-17791736Y-13174437D03*
%TD*%
D39*
%TO.C,PAD152-47*%
X231700738Y-20473556D03*
%TD*%
D82*
%TO.C,PAD103-24*%
X206915868Y17430444D03*
%TD*%
D83*
%TO.C,PAD177-35*%
X-38019580Y22681051D03*
%TD*%
D39*
%TO.C,PAD87-9*%
X3541651Y4875064D03*
%TD*%
D84*
%TO.C,PAD130-78*%
X112379702Y7351270D03*
%TD*%
D46*
%TO.C,PAD253-14*%
X42214781Y-13716064D03*
%TD*%
D78*
%TO.C,PAD209-57*%
X178307845Y-3081975D03*
%TD*%
D85*
%TO.C,PAD258-49*%
X206527306Y-43628556D03*
%TD*%
D86*
%TO.C,PAD167-34*%
X-6649891Y21115811D03*
%TD*%
D56*
%TO.C,PAD104-80*%
X120765248Y-26197969D03*
%TD*%
D87*
%TO.C,PAD154-42*%
X-54915189Y41754134D03*
%TD*%
D39*
%TO.C,PAD239-81*%
X136141738Y-35593556D03*
%TD*%
D88*
%TO.C,PAD179-13*%
X17667650Y-18561680D03*
%TD*%
D89*
%TO.C,PAD82-41*%
X-37624886Y59477381D03*
%TD*%
D22*
%TO.C,PAD45-17*%
X164701087Y33121380D03*
%TD*%
D63*
%TO.C,PAD162-11*%
X43245914Y-40184326D03*
%TD*%
D77*
%TO.C,PAD89-54*%
X-29030979Y-53939305D03*
%TD*%
D87*
%TO.C,PAD175-68*%
X25203812Y4632135D03*
%TD*%
D12*
%TO.C,PAD42-76*%
X149885436Y-16677684D03*
%TD*%
D31*
%TO.C,PAD89-2*%
X-25549021Y-51590695D03*
%TD*%
D75*
%TO.C,PAD191-39*%
X202785870Y61794766D03*
%TD*%
D48*
%TO.C,PAD240-39*%
X216860466Y58568344D03*
%TD*%
D61*
%TO.C,PAD135-87*%
X143373234Y-57566065D03*
%TD*%
D22*
%TO.C,PAD130-26*%
X112761087Y14565380D03*
%TD*%
D47*
%TO.C,PAD182-3*%
X0Y-48587000D03*
%TD*%
D60*
%TO.C,PAD242-50*%
X210607551Y-32798560D03*
%TD*%
D90*
%TO.C,PAD126-75*%
X-4201925Y63339924D03*
%TD*%
D91*
%TO.C,PAD36-73*%
X-9822724Y43167890D03*
%TD*%
D92*
%TO.C,PAD17-60*%
X58606379Y7091036D03*
%TD*%
D21*
%TO.C,PAD23-77*%
X139646304Y492766D03*
%TD*%
D93*
%TO.C,PAD229-45*%
X-72003075Y-4434653D03*
%TD*%
D14*
%TO.C,PAD109-69*%
X10593122Y68325095D03*
%TD*%
D57*
%TO.C,PAD153-55*%
X181985436Y-20075556D03*
%TD*%
D94*
%TO.C,PAD114-83*%
X101480107Y-23074380D03*
%TD*%
D30*
%TO.C,PAD152-44*%
X232955607Y-7325176D03*
%TD*%
D57*
%TO.C,PAD104-81*%
X129058436Y-35593556D03*
%TD*%
D80*
%TO.C,PAD77-78*%
X107739909Y-4640730D03*
%TD*%
D67*
%TO.C,PAD116-36*%
X-14073096Y31333339D03*
%TD*%
D95*
%TO.C,PAD54-14*%
X41272178Y-6034890D03*
%TD*%
D34*
%TO.C,PAD102-60*%
X48021242Y15709645D03*
%TD*%
D46*
%TO.C,PAD268-16*%
X170431868Y56465316D03*
%TD*%
D82*
%TO.C,PAD29-12*%
X57670781Y-15013936D03*
%TD*%
D57*
%TO.C,PAD99-9*%
X-3541651Y4875064D03*
%TD*%
D17*
%TO.C,PAD103-25*%
X210910306Y18728316D03*
%TD*%
D50*
%TO.C,PAD121-83*%
X106890990Y-17069959D03*
%TD*%
D96*
%TO.C,PAD108-35*%
X-45906464Y36512940D03*
%TD*%
D97*
%TO.C,PAD105-5*%
X-10806468Y-22832579D03*
%TD*%
D98*
%TO.C,PAD137-40*%
X215505708Y39942416D03*
%TD*%
D99*
%TO.C,PAD194-33*%
X-27440536Y18894940D03*
%TD*%
D17*
%TO.C,PAD205-20*%
X180933306Y46196316D03*
%TD*%
D100*
%TO.C,PAD210-23*%
X198034691Y41549206D03*
%TD*%
D82*
%TO.C,PAD35-37*%
X-26370219Y46045064D03*
%TD*%
D22*
%TO.C,PAD169-18*%
X164701087Y13940380D03*
%TD*%
%TO.C,PAD19-51*%
X196802087Y-46494620D03*
%TD*%
D101*
%TO.C,PAD129-5*%
X-17667650Y-18561680D03*
%TD*%
D46*
%TO.C,PAD165-31*%
X148468868Y46196316D03*
%TD*%
D82*
%TO.C,PAD257-3*%
X5730781Y-52750936D03*
%TD*%
D92*
%TO.C,PAD55-84*%
X62480379Y-46019964D03*
%TD*%
D102*
%TO.C,PAD188-1*%
X-29185701Y-32718101D03*
%TD*%
D92*
%TO.C,PAD39-62*%
X113896466Y39942416D03*
%TD*%
D77*
%TO.C,PAD110-8*%
X7014022Y-13496305D03*
%TD*%
D43*
%TO.C,PAD99-34*%
X-6010349Y8272936D03*
%TD*%
D17*
%TO.C,PAD20-24*%
X192668306Y12801316D03*
%TD*%
D38*
%TO.C,PAD200-2*%
X-25682347Y-43394000D03*
%TD*%
D103*
%TO.C,PAD93-42*%
X-57749583Y49446301D03*
%TD*%
D85*
%TO.C,PAD157-19*%
X158970306Y5576444D03*
%TD*%
D21*
%TO.C,PAD265-60*%
X56069217Y14143386D03*
%TD*%
D22*
%TO.C,PAD135-81*%
X132600087Y-46494620D03*
%TD*%
D46*
%TO.C,PAD233-81*%
X138330868Y-42330684D03*
%TD*%
D104*
%TO.C,PAD198-54*%
X-28762701Y-62017899D03*
%TD*%
D105*
%TO.C,PAD256-59*%
X96101161Y118727D03*
%TD*%
D76*
%TO.C,PAD148-13*%
X11094051Y-31415420D03*
%TD*%
D106*
%TO.C,PAD147-77*%
X131394484Y2871203D03*
%TD*%
D22*
%TO.C,PAD190-8*%
X0Y-25207000D03*
%TD*%
D39*
%TO.C,PAD123-66*%
X26090651Y35910064D03*
%TD*%
D107*
%TO.C,PAD49-39*%
X214795244Y50233577D03*
%TD*%
D81*
%TO.C,PAD193-24*%
X198849351Y7415943D03*
%TD*%
D108*
%TO.C,PAD124-11*%
X37047736Y-44398437D03*
%TD*%
D103*
%TO.C,PAD215-61*%
X56331417Y25331301D03*
%TD*%
D58*
%TO.C,PAD158-30*%
X136834173Y31930706D03*
%TD*%
D43*
%TO.C,PAD153-57*%
X179516738Y-16677684D03*
%TD*%
D45*
%TO.C,PAD200-1*%
X-29616979Y-40935695D03*
%TD*%
D82*
%TO.C,PAD79-7*%
X-9725219Y-3159936D03*
%TD*%
D47*
%TO.C,PAD190-6*%
X0Y-29407000D03*
%TD*%
D98*
%TO.C,PAD164-46*%
X-62480379Y-46019964D03*
%TD*%
D57*
%TO.C,PAD119-36*%
X-26090651Y35910064D03*
%TD*%
D28*
%TO.C,PAD3-68*%
X35446145Y17783306D03*
%TD*%
D109*
%TO.C,PAD32-31*%
X133923554Y52668801D03*
%TD*%
D19*
%TO.C,PAD127-80*%
X113119941Y-24996927D03*
%TD*%
D110*
%TO.C,PAD249-46*%
X-47140086Y-41757674D03*
%TD*%
D12*
%TO.C,PAD250-37*%
X-35642651Y39307936D03*
%TD*%
D111*
%TO.C,PAD159-86*%
X4521146Y-70233486D03*
%TD*%
D57*
%TO.C,PAD189-51*%
X193260436Y-35593556D03*
%TD*%
D112*
%TO.C,PAD262-72*%
X4380497Y43624247D03*
%TD*%
D32*
%TO.C,PAD212-27*%
X127763926Y23090731D03*
%TD*%
D47*
%TO.C,PAD170-37*%
X-32101000Y50209000D03*
%TD*%
D113*
%TO.C,PAD56-46*%
X-56534386Y-51662890D03*
%TD*%
D27*
%TO.C,PAD73-64*%
X61550279Y44639711D03*
%TD*%
D12*
%TO.C,PAD95-19*%
X161159436Y-1160684D03*
%TD*%
D59*
%TO.C,PAD131-44*%
X240804483Y-4852446D03*
%TD*%
D114*
%TO.C,PAD50-10*%
X15676397Y-56522823D03*
%TD*%
D66*
%TO.C,PAD121-80*%
X111027184Y-17799281D03*
%TD*%
D115*
%TO.C,PAD269-30*%
X152507498Y26254073D03*
%TD*%
D46*
%TO.C,PAD48-26*%
X118491868Y18728316D03*
%TD*%
D79*
%TO.C,PAD236-89*%
X185241197Y-51227896D03*
%TD*%
D116*
%TO.C,PAD173-70*%
X114606930Y50233577D03*
%TD*%
D78*
%TO.C,PAD94-36*%
X-18493242Y37386645D03*
%TD*%
D12*
%TO.C,PAD54-60*%
X45419349Y2309936D03*
%TD*%
D43*
%TO.C,PAD264-3*%
X3541651Y-59488064D03*
%TD*%
D81*
%TO.C,PAD156-1*%
X-37047736Y-44398437D03*
%TD*%
D37*
%TO.C,PAD120-87*%
X151109257Y-57776521D03*
%TD*%
D117*
%TO.C,PAD75-46*%
X-53274614Y-37041110D03*
%TD*%
D22*
%TO.C,PAD24-16*%
X164701087Y52301380D03*
%TD*%
D118*
%TO.C,PAD128-2*%
X-19048488Y-55323116D03*
%TD*%
D119*
%TO.C,PAD29-58*%
X64871604Y-1346826D03*
%TD*%
D81*
%TO.C,PAD111-23*%
X202044351Y28501943D03*
%TD*%
D109*
%TO.C,PAD269-18*%
X157669555Y24705801D03*
%TD*%
D84*
%TO.C,PAD207-84*%
X53274614Y-37041110D03*
%TD*%
D120*
%TO.C,PAD76-5*%
X-25245021Y-22604305D03*
%TD*%
%TO.C,PAD165-17*%
X157687065Y44831075D03*
%TD*%
D32*
%TO.C,PAD106-15*%
X15002839Y2499351D03*
%TD*%
D57*
%TO.C,PAD160-57*%
X170711436Y-4558556D03*
%TD*%
D121*
%TO.C,PAD2-60*%
X42843347Y9314075D03*
%TD*%
D12*
%TO.C,PAD239-79*%
X138610436Y-32195684D03*
%TD*%
D72*
%TO.C,PAD265-61*%
X58986783Y17164614D03*
%TD*%
D101*
%TO.C,PAD6-59*%
X94522437Y15962700D03*
%TD*%
D37*
%TO.C,PAD250-35*%
X-38198830Y35520099D03*
%TD*%
D33*
%TO.C,PAD209-22*%
X179703926Y1215029D03*
%TD*%
D81*
%TO.C,PAD47-21*%
X183077351Y21047943D03*
%TD*%
D122*
%TO.C,PAD102-63*%
X46283853Y20010445D03*
%TD*%
D118*
%TO.C,PAD16-13*%
X18223511Y-35222114D03*
%TD*%
D31*
%TO.C,PAD90-11*%
X29616979Y-40935695D03*
%TD*%
D48*
%TO.C,PAD187-48*%
X223307466Y-3376656D03*
%TD*%
D113*
%TO.C,PAD100-89*%
X178014702Y-53093510D03*
%TD*%
D51*
%TO.C,PAD233-90*%
X149829808Y-47315331D03*
%TD*%
D123*
%TO.C,PAD246-32*%
X-53126758Y1625355D03*
%TD*%
D124*
%TO.C,PAD88-32*%
X-42843347Y9314075D03*
%TD*%
D31*
%TO.C,PAD145-6*%
X-7014022Y-41116695D03*
%TD*%
D49*
%TO.C,PAD249-1*%
X-43245914Y-40184326D03*
%TD*%
D85*
%TO.C,PAD253-12*%
X46209219Y-15013936D03*
%TD*%
D125*
%TO.C,PAD177-33*%
X-35446145Y17783306D03*
%TD*%
D43*
%TO.C,PAD85-65*%
X35642651Y39307936D03*
%TD*%
D59*
%TO.C,PAD163-23*%
X209167483Y31525554D03*
%TD*%
D56*
%TO.C,PAD150-28*%
X149698248Y1215029D03*
%TD*%
D126*
%TO.C,PAD180-84*%
X48731007Y-49050427D03*
%TD*%
D127*
%TO.C,PAD208-64*%
X49576812Y51158866D03*
%TD*%
D39*
%TO.C,PAD199-51*%
X200343738Y-35593556D03*
%TD*%
D50*
%TO.C,PAD14-67*%
X18027904Y12849661D03*
%TD*%
D39*
%TO.C,PAD244-67*%
X14815651Y20392064D03*
%TD*%
D56*
%TO.C,PAD37-14*%
X36937161Y-19376351D03*
%TD*%
D46*
%TO.C,PAD168-27*%
X136733868Y12801316D03*
%TD*%
D43*
%TO.C,PAD189-55*%
X190791738Y-32195684D03*
%TD*%
D57*
%TO.C,PAD220-90*%
X152862435Y-40195555D03*
%TD*%
D48*
%TO.C,PAD214-89*%
X186678466Y-43591656D03*
%TD*%
D47*
%TO.C,PAD169-19*%
X164701087Y9740380D03*
%TD*%
D12*
%TO.C,PAD75-0*%
X-55481651Y-21751064D03*
%TD*%
D32*
%TO.C,PAD243-80*%
X116616926Y-11803271D03*
%TD*%
%TO.C,PAD266-61*%
X61736839Y31340351D03*
%TD*%
D51*
%TO.C,PAD33-36*%
X-29842279Y29141289D03*
%TD*%
D21*
%TO.C,PAD4-27*%
X134898304Y20791766D03*
%TD*%
D43*
%TO.C,PAD132-36*%
X-17284349Y23789936D03*
%TD*%
D77*
%TO.C,PAD98-59*%
X101159108Y11920075D03*
%TD*%
D20*
%TO.C,PAD81-66*%
X25451109Y23067189D03*
%TD*%
D128*
%TO.C,PAD215-63*%
X50993279Y26721289D03*
%TD*%
D75*
%TO.C,PAD71-24*%
X194503870Y20791766D03*
%TD*%
D47*
%TO.C,PAD202-8*%
X0Y-10226000D03*
%TD*%
D129*
%TO.C,PAD59-77*%
X141587847Y-7352639D03*
%TD*%
D44*
%TO.C,PAD241-79*%
X134858808Y-25426909D03*
%TD*%
D43*
%TO.C,PAD181-0*%
X-48398349Y-21751064D03*
%TD*%
D61*
%TO.C,PAD43-43*%
X-66145853Y38601555D03*
%TD*%
D130*
%TO.C,PAD117-88*%
X168903012Y-59625544D03*
%TD*%
D123*
%TO.C,PAD61-34*%
X-13606758Y6796355D03*
%TD*%
D105*
%TO.C,PAD217-58*%
X72003075Y-4434653D03*
%TD*%
D131*
%TO.C,PAD9-7*%
X-10668822Y-10841110D03*
%TD*%
%TO.C,PAD210-20*%
X194481264Y44531269D03*
%TD*%
D123*
%TO.C,PAD94-73*%
X-17056758Y41333355D03*
%TD*%
D128*
%TO.C,PAD251-66*%
X29842279Y29141289D03*
%TD*%
D112*
%TO.C,PAD245-91*%
X162095584Y-36103373D03*
%TD*%
D42*
%TO.C,PAD220-79*%
X146207845Y-33672265D03*
%TD*%
D97*
%TO.C,PAD148-6*%
X7031532Y-33621579D03*
%TD*%
D132*
%TO.C,PAD46-82*%
X98096583Y-34088130D03*
%TD*%
D66*
%TO.C,PAD251-63*%
X35114096Y27855339D03*
%TD*%
D63*
%TO.C,PAD158-29*%
X132940001Y33504054D03*
%TD*%
D133*
%TO.C,PAD192-21*%
X185997388Y37459963D03*
%TD*%
D134*
%TO.C,PAD171-91*%
X174191078Y-28222647D03*
%TD*%
D68*
%TO.C,PAD216-21*%
X178397909Y34708490D03*
%TD*%
D135*
%TO.C,PAD124-85*%
X33831486Y-53713146D03*
%TD*%
D47*
%TO.C,PAD45-18*%
X164701087Y28921380D03*
%TD*%
D65*
%TO.C,PAD120-90*%
X153334917Y-54214719D03*
%TD*%
D92*
%TO.C,PAD141-78*%
X121496466Y-1717584D03*
%TD*%
D77*
%TO.C,PAD143-11*%
X42025021Y-32542305D03*
%TD*%
D68*
%TO.C,PAD139-4*%
X-41272178Y-6034890D03*
%TD*%
D136*
%TO.C,PAD128-53*%
X-18755512Y-59512884D03*
%TD*%
D137*
%TO.C,PAD252-71*%
X145935433Y65827380D03*
%TD*%
D138*
%TO.C,PAD262-74*%
X2605503Y39817753D03*
%TD*%
D12*
%TO.C,PAD143-12*%
X48398349Y-21751064D03*
%TD*%
D36*
%TO.C,PAD238-56*%
X186865183Y-8405959D03*
%TD*%
D37*
%TO.C,PAD10-72*%
X11366170Y57929099D03*
%TD*%
D132*
%TO.C,PAD22-62*%
X98114583Y42047870D03*
%TD*%
D108*
%TO.C,PAD179-15*%
X17791736Y-13174437D03*
%TD*%
D139*
%TO.C,PAD223-48*%
X207544434Y-5599695D03*
%TD*%
D65*
%TO.C,PAD10-69*%
X13591830Y61490901D03*
%TD*%
D140*
%TO.C,PAD146-38*%
X196365433Y73446379D03*
%TD*%
D11*
%TO.C,PAD125-8*%
X7031532Y-20991421D03*
%TD*%
D27*
%TO.C,PAD263-34*%
X-2258721Y15041711D03*
%TD*%
D43*
%TO.C,PAD139-32*%
X-45419349Y2309936D03*
%TD*%
D22*
%TO.C,PAD203-25*%
X216641087Y14565380D03*
%TD*%
D141*
%TO.C,PAD58-47*%
X222284829Y-34229412D03*
%TD*%
D47*
%TO.C,PAD37-11*%
X35387000Y-28565000D03*
%TD*%
D10*
%TO.C,PAD229-46*%
X-60858803Y-38733843D03*
%TD*%
D17*
%TO.C,PAD214-51*%
X191071306Y-42330684D03*
%TD*%
D137*
%TO.C,PAD0-2*%
X-12708653Y-50885000D03*
%TD*%
D131*
%TO.C,PAD144-24*%
X205973265Y9749270D03*
%TD*%
D82*
%TO.C,PAD30-65*%
X37831781Y46045064D03*
%TD*%
D98*
%TO.C,PAD35-73*%
X-21977379Y47306036D03*
%TD*%
D52*
%TO.C,PAD28-52*%
X189770555Y-61460041D03*
%TD*%
D23*
%TO.C,PAD230-50*%
X214614591Y-26502110D03*
%TD*%
D85*
%TO.C,PAD38-15*%
X9725219Y-3159936D03*
%TD*%
D63*
%TO.C,PAD231-59*%
X102305001Y4268054D03*
%TD*%
D92*
%TO.C,PAD34-61*%
X72637379Y21870036D03*
%TD*%
D129*
%TO.C,PAD159-53*%
X-10037240Y-70529019D03*
%TD*%
D142*
%TO.C,PAD63-48*%
X220770304Y-10429006D03*
%TD*%
D17*
%TO.C,PAD40-7*%
X-23972781Y-7789064D03*
%TD*%
D85*
%TO.C,PAD48-27*%
X122486306Y17430444D03*
%TD*%
D119*
%TO.C,PAD176-29*%
X120234691Y31525554D03*
%TD*%
D12*
%TO.C,PAD67-43*%
X-66999651Y24187936D03*
%TD*%
D36*
%TO.C,PAD171-55*%
X178774183Y-27618959D03*
%TD*%
D43*
%TO.C,PAD207-12*%
X55481651Y-21751064D03*
%TD*%
D143*
%TO.C,PAD2-68*%
X38674653Y9825925D03*
%TD*%
D66*
%TO.C,PAD59-76*%
X146673183Y-9135281D03*
%TD*%
D144*
%TO.C,PAD183-73*%
X-20540110Y54942276D03*
%TD*%
D145*
%TO.C,PAD235-43*%
X-58941380Y23569113D03*
%TD*%
D59*
%TO.C,PAD261-88*%
X180972483Y-71122446D03*
%TD*%
D24*
%TO.C,PAD77-83*%
X104238891Y-8902463D03*
%TD*%
D129*
%TO.C,PAD32-70*%
X128557847Y53948361D03*
%TD*%
D100*
%TO.C,PAD122-44*%
X229572691Y5061206D03*
%TD*%
D27*
%TO.C,PAD33-35*%
X-34039721Y28994711D03*
%TD*%
D20*
%TO.C,PAD172-76*%
X158051196Y-17401431D03*
%TD*%
D146*
%TO.C,PAD6-62*%
X100725598Y35055599D03*
%TD*%
D62*
%TO.C,PAD64-14*%
X34148264Y-3701563D03*
%TD*%
D39*
%TO.C,PAD5-16*%
X168242738Y63202444D03*
%TD*%
D123*
%TO.C,PAD84-55*%
X183194329Y-33672265D03*
%TD*%
D120*
%TO.C,PAD136-10*%
X10495978Y-43465305D03*
%TD*%
D34*
%TO.C,PAD225-66*%
X18493242Y37386645D03*
%TD*%
D85*
%TO.C,PAD168-28*%
X140728306Y11503444D03*
%TD*%
D47*
%TO.C,PAD195-65*%
X32101000Y50209000D03*
%TD*%
D147*
%TO.C,PAD86-86*%
X19884760Y-66057981D03*
%TD*%
D122*
%TO.C,PAD166-87*%
X149330940Y-71312175D03*
%TD*%
D49*
%TO.C,PAD133-45*%
X-77597914Y505674D03*
%TD*%
D148*
%TO.C,PAD261-53*%
X-15881614Y-75172890D03*
%TD*%
D46*
%TO.C,PAD157-28*%
X154975868Y6874316D03*
%TD*%
D27*
%TO.C,PAD53-90*%
X164802366Y-46811909D03*
%TD*%
D82*
%TO.C,PAD259-19*%
X170431868Y5576444D03*
%TD*%
D120*
%TO.C,PAD9-8*%
X-7014022Y-13496305D03*
%TD*%
D149*
%TO.C,PAD82-42*%
X-44939924Y54162076D03*
%TD*%
D41*
%TO.C,PAD44-87*%
X154107965Y-64610715D03*
%TD*%
D150*
%TO.C,PAD149-44*%
X236704162Y8149033D03*
%TD*%
D151*
%TO.C,PAD39-29*%
X117971708Y38926344D03*
%TD*%
D152*
%TO.C,PAD47-22*%
X182492823Y16888817D03*
%TD*%
D153*
%TO.C,PAD66-30*%
X143404786Y37459963D03*
%TD*%
D154*
%TO.C,PAD83-39*%
X200844327Y53948361D03*
%TD*%
D150*
%TO.C,PAD146-41*%
X-29180926Y70203653D03*
%TD*%
D132*
%TO.C,PAD113-35*%
X-49913504Y30216490D03*
%TD*%
D79*
%TO.C,PAD183-41*%
X-23709890Y57697724D03*
%TD*%
D85*
%TO.C,PAD0-3*%
X-5730781Y-52750936D03*
%TD*%
D24*
%TO.C,PAD173-62*%
X111315890Y46945537D03*
%TD*%
D66*
%TO.C,PAD14-68*%
X22164096Y12120339D03*
%TD*%
D46*
%TO.C,PAD38-9*%
X5730781Y-1862064D03*
%TD*%
D21*
%TO.C,PAD175-15*%
X22137217Y200386D03*
%TD*%
D98*
%TO.C,PAD187-44*%
X227382708Y-2360584D03*
%TD*%
D35*
%TO.C,PAD18-38*%
X182733334Y73563881D03*
%TD*%
D122*
%TO.C,PAD164-47*%
X230846940Y-34887175D03*
%TD*%
D96*
%TO.C,PAD81-68*%
X27440536Y18894940D03*
%TD*%
D117*
%TO.C,PAD228-73*%
X-13313615Y56807890D03*
%TD*%
D155*
%TO.C,PAD185-83*%
X90586264Y-13600017D03*
%TD*%
D46*
%TO.C,PAD56-49*%
X220774868Y-48257684D03*
%TD*%
D12*
%TO.C,PAD244-66*%
X17284349Y23789936D03*
%TD*%
D43*
%TO.C,PAD160-19*%
X168242738Y-1160684D03*
%TD*%
D27*
%TO.C,PAD218-55*%
X194543366Y-25426909D03*
%TD*%
D78*
%TO.C,PAD84-89*%
X181757845Y-37618975D03*
%TD*%
D117*
%TO.C,PAD100-88*%
X177141472Y-57201730D03*
%TD*%
D57*
%TO.C,PAD163-25*%
X213099436Y25465444D03*
%TD*%
D156*
%TO.C,PAD16-10*%
X17426973Y-40697009D03*
%TD*%
D52*
%TO.C,PAD105-8*%
X-7031532Y-20991421D03*
%TD*%
D58*
%TO.C,PAD231-78*%
X106199173Y2694706D03*
%TD*%
D139*
%TO.C,PAD88-33*%
X-38674653Y9825925D03*
%TD*%
D86*
%TO.C,PAD115-55*%
X190152196Y-19352809D03*
%TD*%
D17*
%TO.C,PAD44-88*%
X167001306Y-67480684D03*
%TD*%
D97*
%TO.C,PAD145-2*%
X-12034468Y-43175579D03*
%TD*%
D21*
%TO.C,PAD58-49*%
X218939304Y-40268234D03*
%TD*%
D42*
%TO.C,PAD52-60*%
X53126758Y1625355D03*
%TD*%
D128*
%TO.C,PAD254-76*%
X162442366Y-11327331D03*
%TD*%
D157*
%TO.C,PAD197-71*%
X133110296Y65217123D03*
%TD*%
D123*
%TO.C,PAD118-86*%
X9614242Y-75688645D03*
%TD*%
D158*
%TO.C,PAD15-58*%
X76103396Y8566826D03*
%TD*%
D122*
%TO.C,PAD195-69*%
X21327853Y61280445D03*
%TD*%
D152*
%TO.C,PAD62-4*%
X-34148264Y-3701563D03*
%TD*%
D80*
%TO.C,PAD11-31*%
X134920910Y44531269D03*
%TD*%
D78*
%TO.C,PAD203-48*%
X217827845Y2089025D03*
%TD*%
D80*
%TO.C,PAD72-53*%
X-23556177Y-72292111D03*
%TD*%
D159*
%TO.C,PAD50-86*%
X14731603Y-60615177D03*
%TD*%
D160*
%TO.C,PAD57-21*%
X176894676Y26254073D03*
%TD*%
D161*
%TO.C,PAD192-20*%
X186798786Y41582797D03*
%TD*%
D78*
%TO.C,PAD21-32*%
X-48021242Y15709645D03*
%TD*%
D72*
%TO.C,PAD23-28*%
X142563870Y3513994D03*
%TD*%
D85*
%TO.C,PAD155-14*%
X27967219Y-9086936D03*
%TD*%
D162*
%TO.C,PAD61-7*%
X-15002839Y2499351D03*
%TD*%
D21*
%TO.C,PAD219-78*%
X119920304Y5610766D03*
%TD*%
D34*
%TO.C,PAD73-62*%
X103226329Y48457025D03*
%TD*%
D54*
%TO.C,PAD208-69*%
X26468583Y67108699D03*
%TD*%
D163*
%TO.C,PAD66-31*%
X142603388Y41582797D03*
%TD*%
D106*
%TO.C,PAD142-70*%
X118364484Y64173203D03*
%TD*%
D164*
%TO.C,PAD31-64*%
X57033853Y51481555D03*
%TD*%
D51*
%TO.C,PAD30-64*%
X46582721Y43988289D03*
%TD*%
D136*
%TO.C,PAD206-38*%
X189161575Y77357496D03*
%TD*%
D47*
%TO.C,PAD211-1*%
X-35387000Y-28565000D03*
%TD*%
D95*
%TO.C,PAD260-53*%
X-11830823Y-62967889D03*
%TD*%
D165*
%TO.C,PAD115-56*%
X192141623Y-15180560D03*
%TD*%
D166*
%TO.C,PAD25-57*%
X171350978Y-17401431D03*
%TD*%
D86*
%TO.C,PAD25-91*%
X169379196Y-21109809D03*
%TD*%
D77*
%TO.C,PAD184-13*%
X25245021Y-22604305D03*
%TD*%
D167*
%TO.C,PAD232-11*%
X29185701Y-32718101D03*
%TD*%
D118*
%TO.C,PAD69-71*%
X139553598Y61451265D03*
%TD*%
D10*
%TO.C,PAD49-40*%
X218086284Y46945537D03*
%TD*%
D47*
%TO.C,PAD246-0*%
X-51940000Y-10851000D03*
%TD*%
D168*
%TO.C,PAD126-72*%
X3874890Y57694810D03*
%TD*%
D95*
%TO.C,PAD267-30*%
X151004265Y34708490D03*
%TD*%
D123*
%TO.C,PAD62-33*%
X-33709758Y3448354D03*
%TD*%
D108*
%TO.C,PAD147-27*%
X130552823Y7415943D03*
%TD*%
D46*
%TO.C,PAD122-25*%
X222371868Y18728316D03*
%TD*%
D64*
%TO.C,PAD51-20*%
X189555598Y57261495D03*
%TD*%
D82*
%TO.C,PAD221-0*%
X-46209219Y-15013936D03*
%TD*%
D56*
%TO.C,PAD196-77*%
X135402248Y-13309969D03*
%TD*%
D169*
%TO.C,PAD107-75*%
X-18291556Y66491520D03*
%TD*%
D127*
%TO.C,PAD91-56*%
X189904899Y-917755D03*
%TD*%
D168*
%TO.C,PAD196-79*%
X139249978Y-19352809D03*
%TD*%
D33*
%TO.C,PAD211-4*%
X-36937161Y-19376351D03*
%TD*%
D170*
%TO.C,PAD28-88*%
X182992643Y-62777140D03*
%TD*%
D69*
%TO.C,PAD60-5*%
X-18223511Y-35222114D03*
%TD*%
D27*
%TO.C,PAD78-74*%
X7137279Y33125711D03*
%TD*%
D148*
%TO.C,PAD243-78*%
X115494472Y-7301510D03*
%TD*%
D51*
%TO.C,PAD218-50*%
X198740808Y-25280331D03*
%TD*%
D103*
%TO.C,PAD204-87*%
X138232504Y-63394319D03*
%TD*%
D118*
%TO.C,PAD112-54*%
X-36051489Y-66558114D03*
%TD*%
D110*
%TO.C,PAD90-10*%
X23962914Y-45696674D03*
%TD*%
D123*
%TO.C,PAD248-48*%
X212722329Y-11995265D03*
%TD*%
D113*
%TO.C,PAD228-75*%
X-12440385Y60916110D03*
%TD*%
D120*
%TO.C,PAD236-52*%
X189788065Y-53964925D03*
%TD*%
D116*
%TO.C,PAD68-77*%
X127636930Y-11068423D03*
%TD*%
D48*
%TO.C,PAD92-45*%
X-62681621Y6074964D03*
%TD*%
D65*
%TO.C,PAD7-82*%
X101625917Y-41486719D03*
%TD*%
D113*
%TO.C,PAD134-85*%
X30823614Y-70108890D03*
%TD*%
D100*
%TO.C,PAD206-75*%
X-16271396Y74836826D03*
%TD*%
D82*
%TO.C,PAD20-22*%
X188673868Y11503444D03*
%TD*%
D151*
%TO.C,PAD141-77*%
X125571708Y-2733656D03*
%TD*%
D80*
%TO.C,PAD219-27*%
X123428909Y9749270D03*
%TD*%
D39*
%TO.C,PAD234-25*%
X220182738Y25465444D03*
%TD*%
D82*
%TO.C,PAD109-75*%
X-2300219Y71195064D03*
%TD*%
D97*
%TO.C,PAD83-20*%
X195478620Y52668801D03*
%TD*%
D95*
%TO.C,PAD1-28*%
X154032265Y14555490D03*
%TD*%
D57*
%TO.C,PAD222-26*%
X109219436Y25465444D03*
%TD*%
D19*
%TO.C,PAD3-63*%
X38145855Y21000694D03*
%TD*%
D22*
%TO.C,PAD72-52*%
X196802087Y-65674620D03*
%TD*%
D68*
%TO.C,PAD268-20*%
X182663910Y53739491D03*
%TD*%
D171*
%TO.C,PAD204-82*%
X109055987Y-42195919D03*
%TD*%
D172*
%TO.C,PAD86-85*%
X24283519Y-64544427D03*
%TD*%
D151*
%TO.C,PAD31-70*%
X112541708Y58568344D03*
%TD*%
D132*
%TO.C,PAD230-47*%
X218791583Y-26941130D03*
%TD*%
D46*
%TO.C,PAD155-15*%
X23972781Y-7789064D03*
%TD*%
D173*
%TO.C,PAD63-47*%
X223642467Y-19854733D03*
%TD*%
D31*
%TO.C,PAD15-59*%
X88668066Y3650685D03*
%TD*%
D166*
%TO.C,PAD167-74*%
X-4678109Y24824189D03*
%TD*%
D59*
%TO.C,PAD255-45*%
X-64871604Y-1346826D03*
%TD*%
D17*
%TO.C,PAD79-9*%
X-5730781Y-1862064D03*
%TD*%
D46*
%TO.C,PAD241-80*%
X126598868Y-21113684D03*
%TD*%
D142*
%TO.C,PAD91-22*%
X186838304Y3513994D03*
%TD*%
D88*
%TO.C,PAD156-54*%
X-36607350Y-49897680D03*
%TD*%
D67*
%TO.C,PAD238-57*%
X182728991Y-9135281D03*
%TD*%
D85*
%TO.C,PAD255-0*%
X-57670781Y-15013936D03*
%TD*%
D174*
%TO.C,PAD107-41*%
X-22740589Y65130307D03*
%TD*%
D123*
%TO.C,PAD234-40*%
X220931329Y34424735D03*
%TD*%
D175*
%TO.C,PAD114-82*%
X102992660Y-27474139D03*
%TD*%
D162*
%TO.C,PAD111-24*%
X201638248Y23090731D03*
%TD*%
D124*
%TO.C,PAD223-56*%
X203375740Y-6111545D03*
%TD*%
D176*
%TO.C,PAD27-61*%
X66892306Y15487589D03*
%TD*%
D100*
%TO.C,PAD131-45*%
X-76103396Y8566826D03*
%TD*%
D38*
%TO.C,PAD70-71*%
X133036741Y73446379D03*
%TD*%
D17*
%TO.C,PAD259-22*%
X174426306Y6874316D03*
%TD*%
D136*
%TO.C,PAD69-31*%
X139846576Y57261495D03*
%TD*%
D171*
%TO.C,PAD266-64*%
X57611900Y37413701D03*
%TD*%
D120*
%TO.C,PAD178-41*%
X-36711021Y66884695D03*
%TD*%
D151*
%TO.C,PAD17-58*%
X62681621Y6074964D03*
%TD*%
D110*
%TO.C,PAD80-21*%
X192568001Y31930706D03*
%TD*%
D104*
%TO.C,PAD232-13*%
X25512299Y-30681899D03*
%TD*%
D93*
%TO.C,PAD170-41*%
X-31083074Y55343347D03*
%TD*%
D177*
%TO.C,PAD68-80*%
X124565244Y-13932817D03*
%TD*%
D82*
%TO.C,PAD180-85*%
X39986781Y-58949936D03*
%TD*%
D75*
%TO.C,PAD227-7*%
X-22137217Y200386D03*
%TD*%
D65*
%TO.C,PAD199-50*%
X202899917Y-31805719D03*
%TD*%
D100*
%TO.C,PAD74-85*%
X25741604Y-56594174D03*
%TD*%
D95*
%TO.C,PAD186-31*%
X146738264Y53739491D03*
%TD*%
D158*
%TO.C,PAD11-29*%
X131367483Y41549206D03*
%TD*%
D47*
%TO.C,PAD52-12*%
X51940000Y-10851000D03*
%TD*%
D85*
%TO.C,PAD201-65*%
X26370219Y46045064D03*
%TD*%
D49*
%TO.C,PAD257-10*%
X10025086Y-51189326D03*
%TD*%
D178*
%TO.C,PAD22-61*%
X70137276Y29556110D03*
%TD*%
D34*
%TO.C,PAD256-83*%
X96333329Y-7218975D03*
%TD*%
D120*
%TO.C,PAD181-1*%
X-42025021Y-32542305D03*
%TD*%
D108*
%TO.C,PAD138-49*%
X214592823Y-53643057D03*
%TD*%
%TO.C,PAD161-30*%
X146324823Y21047943D03*
%TD*%
D25*
%TO.C,PAD7-85*%
X38436993Y-67396427D03*
%TD*%
D80*
%TO.C,PAD226-49*%
X207469909Y-51309730D03*
%TD*%
D77*
%TO.C,PAD226-52*%
X203815109Y-53964925D03*
%TD*%
D179*
%TO.C,PAD166-86*%
X17656804Y-73947157D03*
%TD*%
D82*
%TO.C,PAD40-4*%
X-27967219Y-9086936D03*
%TD*%
D180*
%TO.C,PAD116-74*%
X-9489991Y31937027D03*
%TD*%
D22*
%TO.C,PAD182-6*%
X0Y-44387000D03*
%TD*%
D162*
%TO.C,PAD140-23*%
X205872248Y43954729D03*
%TD*%
D98*
%TO.C,PAD92-32*%
X-58606379Y7091036D03*
%TD*%
D142*
%TO.C,PAD76-4*%
X-29802783Y-17077386D03*
%TD*%
D108*
%TO.C,PAD212-29*%
X127357823Y28501943D03*
%TD*%
D109*
%TO.C,PAD224-6*%
X-7031532Y-33621579D03*
%TD*%
D166*
%TO.C,PAD194-36*%
X-25451109Y23067189D03*
%TD*%
D42*
%TO.C,PAD64-68*%
X33709758Y3448354D03*
%TD*%
D48*
%TO.C,PAD151-73*%
X-7473621Y51054964D03*
%TD*%
D138*
%TO.C,PAD245-90*%
X160320590Y-39909867D03*
%TD*%
D109*
%TO.C,PAD125-13*%
X10806468Y-22832579D03*
%TD*%
D74*
%TO.C,PAD13-74*%
X3383490Y25402220D03*
%TD*%
D181*
%TO.C,PAD18-71*%
X146668840Y73563881D03*
%TD*%
D109*
%TO.C,PAD97-54*%
X-43468532Y-54168579D03*
%TD*%
D97*
%TO.C,PAD57-18*%
X171732619Y24705801D03*
%TD*%
D148*
%TO.C,PAD46-84*%
X56534386Y-51662890D03*
%TD*%
D98*
%TO.C,PAD53-89*%
X172174708Y-47340584D03*
%TD*%
D182*
%TO.C,PAD43-40*%
X231287591Y42047870D03*
%TD*%
D168*
%TO.C,PAD13-67*%
X6649891Y21115811D03*
%TD*%
D183*
%TO.C,PAD5-38*%
X183466741Y65827380D03*
%TD*%
D61*
%TO.C,PAD70-69*%
X15370147Y75026555D03*
%TD*%
D184*
%TO.C,PAD36-74*%
X-5959170Y39207099D03*
%TD*%
D159*
%TO.C,PAD178-39*%
X211037690Y64173203D03*
%TD*%
D110*
%TO.C,PAD213-44*%
X242299001Y3208706D03*
%TD*%
D185*
%TO.C,PAD191-38*%
X196291878Y65217123D03*
%TD*%
D85*
%TO.C,PAD96-37*%
X-37831781Y46045064D03*
%TD*%
M02*
