M48
; DRILL file {KiCad 8.0.5} date 2024-10-17T15:54:28-0400
; FORMAT={-:-/ absolute / inch / decimal}
; #@! TF.CreationDate,2024-10-17T15:54:28-04:00
; #@! TF.GenerationSoftware,Kicad,Pcbnew,8.0.5
; #@! TF.FileFunction,Plated,1,2,PTH
FMAT,2
INCH
; #@! TA.AperFunction,Plated,PTH,ViaDrill
T1C0.0118
%
G90
G05
T1
X-2.9997Y0.2285
X-2.9542Y0.1429
X-2.8526Y-0.0697
X-2.8441Y0.3432
X-2.8424Y0.2609
X-2.7982Y-0.0712
X-2.767Y1.3365
X-2.7503Y0.3479
X-2.716Y-0.1855
X-2.6084Y1.307
X-2.6084Y1.0742
X-2.5691Y0.0493
X-2.5666Y0.8863
X-2.5244Y0.2914
X-2.5229Y0.9604
X-2.4972Y-1.7147
X-2.4705Y0.0
X-2.3978Y-1.9144
X-2.3898Y1.0236
X-2.3874Y1.4116
X-2.3714Y1.5213
X-2.3547Y-1.6239
X-2.3547Y-1.6694
X-2.3436Y1.1906
X-2.2803Y-1.7383
X-2.2647Y0.479
X-2.2601Y2.0345
X-2.2525Y-0.6803
X-2.2349Y-0.5091
X-2.2244Y0.3571
X-2.2223Y0.985
X-2.2183Y-1.931
X-2.1784Y-1.3946
X-2.1745Y-0.7617
X-2.1466Y-0.4363
X-2.1412Y0.1764
X-2.1367Y1.7726
X-2.1317Y2.1213
X-2.1151Y0.5697
X-2.1063Y1.5551
X-2.0965Y1.3091
X-2.0557Y2.0877
X-2.044Y1.962
X-2.0193Y1.6779
X-2.0182Y-1.8342
X-2.0097Y0.1559
X-2.0079Y-0.8465
X-2.0054Y-1.986
X-1.9977Y0.0215
X-1.997Y0.5969
X-1.9933Y2.1176
X-1.9874Y0.3777
X-1.9869Y-0.7399
X-1.9488Y-0.9154
X-1.9332Y1.061
X-1.9249Y-1.5699
X-1.8597Y-0.5217
X-1.8594Y1.2774
X-1.835Y-1.857
X-1.8014Y-0.8145
X-1.7815Y1.6634
X-1.7548Y0.9822
X-1.7082Y2.0867
X-1.7053Y0.8583
X-1.7047Y1.3826
X-1.7028Y1.9291
X-1.7011Y0.1238
X-1.694Y-2.3868
X-1.6831Y0.4823
X-1.6536Y1.167
X-1.6433Y-2.3018
X-1.6317Y-2.2043
X-1.6284Y-0.461
X-1.6281Y-1.4426
X-1.6013Y-0.6408
X-1.5846Y1.35
X-1.5652Y-0.1868
X-1.5619Y-1.936
X-1.548Y-0.4392
X-1.548Y-2.1854
X-1.546Y-1.3725
X-1.531Y-1.5994
X-1.5177Y-1.1343
X-1.5127Y-2.5068
X-1.4675Y2.5524
X-1.4552Y-1.334
X-1.4538Y1.9152
X-1.4469Y2.2047
X-1.4407Y-0.1717
X-1.4302Y-0.6552
X-1.4302Y-1.2541
X-1.4291Y0.9646
X-1.4097Y1.6626
X-1.4047Y2.4711
X-1.4016Y0.5384
X-1.3973Y1.809
X-1.3905Y2.3711
X-1.3513Y-1.6803
X-1.3372Y1.5019
X-1.3194Y-2.4886
X-1.3125Y1.5398
X-1.3123Y0.2594
X-1.3123Y-0.6534
X-1.3091Y1.2795
X-1.3033Y0.6886
X-1.2711Y2.6654
X-1.2683Y1.8761
X-1.2274Y2.2711
X-1.225Y-2.4182
X-1.2228Y-2.0567
X-1.2183Y-1.2255
X-1.2153Y0.0918
X-1.2118Y0.1792
X-1.192Y1.8736
X-1.1851Y0.7107
X-1.1541Y-1.5036
X-1.1514Y-0.2886
X-1.1319Y2.126
X-1.1319Y-0.5906
X-1.1059Y1.8738
X-1.0925Y-1.5256
X-1.0894Y2.6855
X-1.0767Y0.3757
X-1.0728Y-0.6201
X-1.0537Y2.4717
X-1.0531Y1.6142
X-1.0462Y-2.3925
X-1.0438Y1.2671
X-1.0382Y1.0393
X-0.9908Y2.5517
X-0.9589Y-2.7566
X-0.9449Y-1.8401
X-0.9426Y0.2753
X-0.935Y-0.8366
X-0.9344Y0.987
X-0.9335Y-1.0593
X-0.9233Y-1.7198
X-0.9055Y0.8268
X-0.8957Y0.2264
X-0.8718Y2.3308
X-0.8473Y1.4234
X-0.8454Y-2.2998
X-0.8448Y0.5889
X-0.8441Y-1.5337
X-0.841Y-2.5346
X-0.841Y-2.6511
X-0.8381Y-2.9044
X-0.836Y-0.2064
X-0.8314Y0.0787
X-0.8267Y1.7645
X-0.8154Y-2.0587
X-0.8129Y-1.2457
X-0.8071Y-0.7087
X-0.8057Y1.9746
X-0.7995Y1.3182
X-0.7703Y1.8031
X-0.7577Y-0.4484
X-0.7451Y-0.1603
X-0.7257Y1.3026
X-0.7232Y-0.0016
X-0.7232Y-0.4164
X-0.6941Y-2.6525
X-0.6912Y-1.9181
X-0.6886Y-0.8231
X-0.6652Y2.5587
X-0.6445Y1.2302
X-0.6153Y1.9195
X-0.6063Y2.1191
X-0.6054Y0.0002
X-0.6054Y-2.8567
X-0.6047Y-1.1377
X-0.6041Y-0.4833
X-0.6Y-1.8362
X-0.5998Y2.7846
X-0.5909Y2.5918
X-0.5888Y1.5906
X-0.5861Y0.6541
X-0.5732Y0.4091
X-0.5728Y0.9745
X-0.5413Y-2.5295
X-0.5348Y-2.0752
X-0.521Y-0.9347
X-0.5192Y-2.908
X-0.5147Y-2.3937
X-0.5114Y-1.2895
X-0.502Y-1.0213
X-0.502Y-1.624
X-0.4952Y-2.566
X-0.4902Y0.8036
X-0.4875Y2.9183
X-0.4788Y-0.8275
X-0.4672Y0.3778
X-0.4429Y-1.7815
X-0.4232Y-0.2461
X-0.4111Y0.2277
X-0.4024Y0.6443
X-0.3958Y1.9848
X-0.3753Y-0.5798
X-0.374Y-0.0098
X-0.3722Y2.3347
X-0.3697Y2.9242
X-0.356Y2.1028
X-0.3543Y-1.4075
X-0.3385Y1.1558
X-0.3248Y-0.1969
X-0.28Y2.9314
X-0.2587Y-2.1646
X-0.2533Y0.7164
X-0.2519Y2.704
X-0.2504Y1.7572
X-0.2433Y1.1952
X-0.2322Y1.3825
X-0.2234Y0.1406
X-0.2129Y-0.7603
X-0.1866Y-1.5856
X-0.1774Y2.7869
X-0.1677Y-1.6817
X-0.1631Y0.6429
X-0.1478Y1.307
X-0.1382Y-1.1187
X-0.128Y0.3543
X-0.1173Y-0.09
X-0.1112Y-2.0751
X-0.1083Y-0.374
X-0.1083Y-1.8799
X-0.1014Y-0.8811
X-0.0978Y0.9279
X-0.0886Y2.5591
X-0.0886Y0.2657
X-0.0571Y-0.1571
X-0.046Y-2.3737
X-0.0295Y1.8701
X-0.017Y1.541
X-0.0162Y0.1451
X-0.0153Y-2.3025
X-0.0137Y-0.7208
X0.0Y-1.4974
X0.0776Y-0.1694
X0.0788Y-1.6775
X0.0831Y-0.8859
X0.0969Y1.4234
X0.1051Y-0.0877
X0.1051Y-2.069
X0.1127Y2.0055
X0.1163Y0.4735
X0.127Y2.1219
X0.1343Y0.1067
X0.1678Y0.5032
X0.1772Y-2.8543
X0.1811Y1.3382
X0.1828Y-2.1621
X0.1844Y-1.3352
X0.194Y-0.4781
X0.198Y1.0914
X0.2042Y-1.4869
X0.2059Y-0.672
X0.2138Y-2.2882
X0.2264Y-0.4331
X0.2264Y-1.9685
X0.2264Y-2.5394
X0.2362Y-1.2303
X0.2371Y0.7098
X0.2453Y1.0513
X0.2569Y1.6716
X0.3012Y-2.5715
X0.3094Y-1.7473
X0.3143Y0.2468
X0.3346Y0.7579
X0.3346Y-0.2067
X0.3531Y-2.8699
X0.3542Y0.827
X0.3598Y2.2763
X0.3642Y-0.9941
X0.374Y1.8012
X0.3762Y2.0003
X0.3937Y2.7657
X0.4035Y2.5787
X0.4385Y2.1219
X0.4543Y0.3049
X0.4551Y2.0055
X0.4613Y-2.3533
X0.4736Y0.0589
X0.4864Y-0.3211
X0.4875Y-2.0194
X0.488Y-2.7915
X0.4958Y-1.1357
X0.4959Y0.6108
X0.5315Y1.1319
X0.5442Y-1.8598
X0.5506Y0.3855
X0.561Y2.7756
X0.5701Y0.6085
X0.5709Y-0.6988
X0.5726Y-2.8783
X0.5769Y-2.0627
X0.5779Y-1.5981
X0.592Y1.7737
X0.6022Y-0.4207
X0.6024Y-0.0021
X0.6398Y2.8248
X0.6544Y2.3768
X0.6616Y-3.0063
X0.6707Y-0.4164
X0.6719Y-1.2942
X0.6742Y-2.6528
X0.6752Y-2.7675
X0.6907Y1.1906
X0.6907Y-0.8563
X0.6946Y-2.1547
X0.696Y2.9323
X0.701Y1.2966
X0.7108Y2.7262
X0.7165Y-0.2801
X0.7353Y-2.5164
X0.7677Y1.3386
X0.7767Y0.8737
X0.7856Y0.0539
X0.8064Y-1.8362
X0.8086Y-0.1006
X0.8158Y1.3955
X0.8168Y-1.1377
X0.8366Y0.3664
X0.8598Y2.5044
X0.8661Y-0.9449
X0.8869Y-0.403
X0.8912Y-1.9132
X0.9102Y-2.2854
X0.9122Y2.8056
X0.9154Y-1.7028
X0.9175Y-1.0213
X0.9214Y2.6069
X0.9239Y-1.263
X0.935Y-0.7972
X0.9449Y-2.4705
X0.9494Y2.4251
X0.9645Y1.216
X0.9657Y0.9946
X0.9674Y0.7029
X0.9843Y1.7224
X1.0136Y0.6865
X1.0293Y1.2997
X1.0397Y1.0926
X1.0514Y1.7362
X1.0531Y-0.4626
X1.081Y0.1236
X1.0827Y-1.378
X1.122Y-2.6969
X1.1626Y1.7753
X1.1848Y1.9258
X1.1937Y1.4772
X1.2106Y-2.0669
X1.2433Y-0.1617
X1.2725Y0.262
X1.284Y-0.6582
X1.2879Y-2.6422
X1.2888Y0.7202
X1.2938Y-1.6021
X1.2939Y0.3696
X1.3021Y1.8726
X1.3079Y-1.3979
X1.3104Y-1.1353
X1.3287Y1.0236
X1.3664Y0.2915
X1.3699Y-0.7948
X1.3813Y-1.7001
X1.3838Y0.5937
X1.3977Y-1.2541
X1.3977Y-2.5346
X1.4075Y1.6339
X1.413Y-0.2281
X1.4217Y1.8738
X1.4261Y-0.1773
X1.4427Y-0.6552
X1.4764Y-2.7362
X1.4785Y1.3266
X1.48Y-2.3413
X1.4866Y-2.4904
X1.5036Y1.2762
X1.5129Y-0.6458
X1.5155Y-0.5556
X1.521Y-2.2646
X1.5256Y1.7126
X1.5406Y-1.6654
X1.5954Y-0.3964
X1.5966Y0.7559
X1.5985Y-1.2237
X1.6202Y-1.3841
X1.624Y-1.1713
X1.6517Y0.9447
X1.6535Y0.2559
X1.7484Y0.6161
X1.7618Y-0.6791
X1.7643Y1.307
X1.811Y1.624
X1.8283Y0.57
X1.8377Y1.9826
X1.8444Y-1.7263
X1.8604Y1.1906
X1.8647Y0.9741
X1.8873Y0.0189
X1.8947Y0.8601
X1.9479Y-0.4033
X1.9534Y0.2247
X1.9613Y-0.441
X1.9764Y0.6085
X1.9882Y-1.4567
X1.9962Y-0.8621
X1.9987Y1.8856
X1.9995Y1.1627
X2.0058Y-1.9812
X2.0195Y1.3931
X2.1046Y0.1655
X2.1046Y-1.8465
X2.1063Y-0.9252
X2.1127Y-0.4818
X2.126Y-1.5846
X2.1276Y-1.9394
X2.1349Y2.0055
X2.1419Y-0.7162
X2.1514Y0.9306
X2.1752Y1.9193
X2.178Y-0.7617
X2.1978Y0.4142
X2.1979Y1.5574
X2.2126Y1.0942
X2.2225Y1.8891
X2.2241Y1.6562
X2.2488Y0.1795
X2.3073Y-1.4684
X2.3164Y1.6682
X2.3184Y-1.6135
X2.3403Y-0.6846
X2.354Y1.1654
X2.3582Y0.5803
X2.3658Y-1.6251
X2.4104Y-1.9157
X2.4475Y0.1203
X2.4581Y1.6577
X2.4686Y-1.9526
X2.4902Y1.1605
X2.5011Y0.9665
X2.5424Y1.1599
X2.571Y0.7293
X2.5787Y0.4429
X2.614Y-0.1118
X2.6776Y0.7407
X2.7559Y0.4626
X2.7854Y-0.1061
X2.7855Y0.3511
X2.8341Y0.9901
X2.8419Y0.9525
X2.8528Y0.1558
X2.899Y-0.0481
X2.9749Y0.2392
X3.0581Y0.1241
X3.4036Y0.3825
X3.4649Y0.3714
X3.5315Y-0.651
X3.5428Y-0.4094
X3.5673Y0.0943
X3.6343Y0.2925
X3.6539Y-0.2879
X3.6658Y0.5561
X3.6846Y-0.7383
X3.7568Y0.093
X3.7617Y-0.8855
X3.7842Y0.5026
X3.8037Y0.6405
X3.8367Y-1.4581
X3.864Y0.0974
X3.8962Y-0.4094
X3.8983Y0.2891
X3.9042Y1.5618
X3.9102Y0.5369
X3.9274Y-0.6779
X3.929Y-0.377
X3.9375Y-1.0992
X3.9646Y1.8884
X3.9838Y-1.1386
X4.015Y-1.5423
X4.0381Y1.4683
X4.0531Y-0.8456
X4.096Y1.3729
X4.0981Y-1.7057
X4.1002Y-0.4942
X4.1017Y0.0384
X4.1221Y1.9671
X4.1395Y-0.7296
X4.1658Y1.5322
X4.2008Y0.9632
X4.2107Y0.6187
X4.2379Y-1.5558
X4.2463Y1.8025
X4.2547Y0.6421
X4.259Y-1.1135
X4.2634Y-1.4571
X4.2764Y1.8932
X4.2993Y-0.2967
X4.3236Y0.309
X4.3364Y0.8712
X4.3368Y0.2588
X4.3372Y-1.228
X4.3386Y-0.8085
X4.3396Y1.4955
X4.3491Y-1.463
X4.3581Y1.6861
X4.3716Y0.5963
X4.3878Y2.1935
X4.3957Y-0.0846
X4.4306Y2.3805
X4.4732Y0.9681
X4.4854Y-0.1696
X4.5009Y-0.5266
X4.5034Y0.2486
X4.5047Y1.1051
X4.505Y0.658
X4.5457Y-1.0185
X4.5641Y2.5317
X4.5839Y0.8715
X4.5946Y-0.1651
X4.5975Y1.9318
X4.6142Y1.4159
X4.6211Y2.0498
X4.6248Y-0.5575
X4.6902Y-0.7752
X4.6931Y0.1368
X4.6931Y0.0911
X4.6936Y-0.545
X4.7563Y1.6829
X4.7619Y0.599
X4.8005Y-0.9555
X4.8116Y1.4451
X4.8206Y-0.8656
X4.8327Y1.2411
X4.8334Y-0.1882
X4.8389Y-0.7586
X4.8626Y2.126
X4.8836Y2.479
X4.9193Y0.8844
X4.9211Y0.3245
X4.9215Y2.3575
X4.9292Y0.4809
X4.9444Y2.2681
X4.947Y1.2355
X4.9587Y-1.4384
X4.9952Y2.0283
X4.9981Y-1.7632
X5.0103Y-1.4662
X5.0628Y1.5588
X5.0633Y1.2238
X5.0745Y2.0189
X5.0779Y0.0541
X5.0789Y1.6886
X5.1014Y-0.4963
X5.161Y1.4853
X5.1654Y2.8136
X5.1726Y-1.7056
X5.1876Y0.4141
X5.1892Y0.7494
X5.1923Y0.5219
X5.1956Y-1.4445
X5.2048Y1.9868
X5.209Y0.8631
X5.2233Y0.3253
X5.2272Y0.0326
X5.2363Y-1.7223
X5.2373Y2.971
X5.2654Y2.1769
X5.2761Y-1.4179
X5.2797Y0.0276
X5.2898Y0.6383
X5.313Y-1.8321
X5.3196Y2.4996
X5.3361Y-0.2923
X5.3918Y1.16
X5.4046Y3.0983
X5.4064Y1.6942
X5.4205Y2.2818
X5.4258Y2.8502
X5.4269Y-1.5774
X5.4347Y2.5257
X5.4431Y-1.0992
X5.4516Y-0.8868
X5.4525Y-0.5308
X5.457Y-2.5858
X5.4804Y0.3529
X5.5099Y2.912
X5.5099Y-1.5762
X5.5127Y-1.0545
X5.5232Y1.4755
X5.5334Y1.6892
X5.534Y-0.1895
X5.5443Y-1.3118
X5.5569Y-2.5048
X5.5573Y1.9394
X5.5599Y-0.1643
X5.56Y1.0029
X5.564Y-1.2166
X5.5747Y-0.7696
X5.5767Y-2.4213
X5.6459Y-2.8558
X5.6603Y0.6812
X5.6624Y1.8048
X5.6636Y2.7338
X5.678Y0.8712
X5.6795Y2.1286
X5.6917Y0.0941
X5.7067Y2.5158
X5.7067Y-2.3636
X5.7073Y2.8354
X5.7166Y2.9415
X5.724Y2.1734
X5.7461Y-0.464
X5.7461Y-2.4673
X5.76Y2.0167
X5.7807Y-1.2124
X5.7815Y0.9876
X5.7815Y-0.8934
X5.782Y-1.1079
X5.8015Y1.104
X5.8142Y-2.3021
X5.8253Y-2.2422
X5.8347Y-1.3203
X5.862Y1.3047
X5.8682Y1.4248
X5.8733Y-1.7815
X5.8952Y1.2204
X5.8998Y-0.4094
X5.915Y0.2891
X5.9155Y-0.3001
X5.9318Y-2.7115
X5.9823Y-2.7672
X5.9901Y0.4992
X5.9912Y-0.7329
X5.9967Y0.2891
X5.9973Y1.1351
X6.007Y0.4055
X6.0197Y-1.7122
X6.0286Y-0.1618
X6.0312Y0.0445
X6.0397Y-2.0258
X6.0709Y-1.5073
X6.0808Y-2.4325
X6.0926Y-2.1972
X6.0985Y-1.6136
X6.0998Y-1.781
X6.1366Y-2.0329
X6.1398Y0.5301
X6.1398Y-0.6215
X6.1496Y1.7014
X6.1496Y0.8844
X6.179Y-0.3807
X6.189Y0.1266
X6.2312Y1.1095
X6.2382Y2.4494
X6.2439Y-0.2969
X6.252Y-1.2449
X6.2528Y-0.4094
X6.2813Y0.7642
X6.2822Y0.3088
X6.2938Y1.4877
X6.294Y1.375
X6.2971Y-1.1514
X6.3414Y-1.6924
X6.3563Y1.1547
X6.3656Y-1.8063
X6.3668Y1.9414
X6.3706Y2.363
X6.3706Y-0.6607
X6.3706Y-0.998
X6.3725Y2.1744
X6.3772Y0.1727
X6.4005Y2.1402
X6.4032Y0.6451
X6.4056Y-0.7986
X6.4067Y0.2051
X6.4103Y-0.0947
X6.4482Y-2.0746
X6.4515Y-1.0733
X6.4843Y1.5696
X6.4843Y0.7948
X6.4884Y-0.9035
X6.4896Y-1.4678
X6.5532Y2.538
X6.5532Y-0.5329
X6.5698Y2.1126
X6.5709Y0.6045
X6.5752Y1.3825
X6.5956Y2.2681
X6.6002Y0.2682
X6.6063Y2.3757
X6.6319Y0.0671
X6.6423Y-0.3868
X6.6792Y0.0301
X6.6884Y1.8294
X6.6885Y1.0255
X6.691Y1.5294
X6.6963Y-0.9536
X6.7003Y1.6672
X6.7019Y0.7687
X6.7056Y-0.3287
X6.7216Y-1.1079
X6.7241Y-2.5048
X6.7304Y2.3116
X6.7605Y-2.7866
X6.7704Y-2.8208
X6.7894Y1.5636
X6.8038Y-2.4701
X6.8385Y-1.9472
X6.8419Y-0.1992
X6.845Y-1.3536
X6.8456Y-0.7586
X6.8477Y0.742
X6.8655Y-2.3141
X6.8717Y-1.7237
X6.8728Y-1.8516
X6.9293Y-2.8945
X6.9294Y0.1882
X6.9455Y-0.2051
X6.9597Y0.4055
X6.963Y-1.5313
X6.9797Y-0.3355
X6.9835Y0.4995
X7.0355Y-1.1923
X7.0428Y-2.408
X7.0445Y0.3686
X7.0692Y-2.5048
X7.0748Y0.6974
X7.0766Y-1.7915
X7.0776Y0.1727
X7.0787Y1.2188
X7.1041Y1.304
X7.1085Y-2.1153
X7.1182Y-1.1473
X7.1511Y-0.9033
X7.1605Y-2.7084
X7.1622Y0.0408
X7.1733Y-0.6422
X7.193Y-1.9502
X7.1954Y0.9876
X7.2028Y-0.2475
X7.2173Y1.4675
X7.2208Y1.9309
X7.225Y-2.7546
X7.2422Y1.8391
X7.2729Y-0.8005
X7.2753Y-1.6588
X7.2891Y-1.6108
X7.3002Y1.7077
X7.3132Y2.7338
X7.3133Y2.0353
X7.3156Y2.8502
X7.3272Y-1.3577
X7.334Y3.0875
X7.3375Y2.2942
X7.3406Y2.6561
X7.3428Y1.104
X7.346Y2.7662
X7.38Y-1.9404
X7.3898Y0.5514
X7.3922Y-0.777
X7.3958Y2.0584
X7.418Y0.9876
X7.4186Y2.5104
X7.44Y0.8881
X7.4428Y-0.9694
X7.4539Y1.6861
X7.461Y0.1794
X7.4696Y-0.2091
X7.4882Y-2.029
X7.4981Y-2.5309
X7.5419Y1.8025
X7.5499Y-0.5001
X7.55Y-0.1771
X7.554Y-2.2812
X7.5586Y-1.7514
X7.5738Y-2.3779
X7.5834Y-1.5313
X7.5865Y-1.7225
X7.5912Y1.3621
X7.5965Y-1.2219
X7.6312Y-0.912
X7.6442Y2.6395
X7.6501Y2.9619
X7.6556Y2.1738
X7.6658Y-0.6511
X7.6693Y-2.0786
X7.6694Y2.4992
X7.6694Y-0.5671
X7.6825Y0.6383
X7.6936Y-0.0172
X7.7006Y0.7247
X7.7465Y-2.4825
X7.754Y1.8293
X7.7544Y-2.2345
X7.7658Y0.6383
X7.7704Y2.6527
X7.7771Y-1.4445
X7.7845Y-0.0867
X7.7935Y0.4112
X7.7968Y-1.3841
X7.8146Y1.4832
X7.8327Y-0.6313
X7.8426Y-1.9601
X7.8524Y-1.842
X7.8622Y-2.6294
X7.8644Y0.9435
X7.8755Y-1.6559
X7.8984Y-2.168
X7.9034Y1.2471
X7.9063Y0.4075
X7.91Y1.5696
X7.9305Y-0.9159
X7.9324Y0.2794
X7.9426Y-1.0948
X7.9897Y1.4906
X7.9902Y-0.5258
X7.9974Y1.7593
X8.0099Y0.4415
X8.0288Y2.2681
X8.0344Y-0.1637
X8.0394Y-0.6805
X8.0394Y-1.5762
X8.0503Y2.3476
X8.0524Y-1.1877
X8.0593Y-1.2997
X8.063Y2.0522
X8.0788Y-2.3242
X8.126Y1.2411
X8.138Y-0.7931
X8.1424Y-1.0144
X8.1642Y0.7673
X8.1772Y0.471
X8.1871Y2.5773
X8.2167Y-0.8017
X8.2191Y-1.9084
X8.2336Y2.3764
X8.2561Y-2.048
X8.2588Y1.9621
X8.2616Y-1.9202
X8.2633Y-1.6921
X8.2637Y1.5936
X8.2768Y-0.0841
X8.28Y-0.0381
X8.2827Y1.3187
X8.2828Y0.8283
X8.315Y2.4002
X8.3248Y1.2978
X8.3351Y0.9525
X8.361Y-0.3787
X8.3624Y2.0545
X8.3625Y0.0306
X8.3839Y-1.2908
X8.419Y-0.3855
X8.4485Y-2.0102
X8.4614Y0.5963
X8.4632Y0.8712
X8.4693Y2.3856
X8.4702Y0.6634
X8.4815Y-0.5258
X8.4818Y0.055
X8.4891Y-0.176
X8.4915Y-1.9228
X8.4922Y-0.9266
X8.509Y-1.5934
X8.5248Y2.2314
X8.5289Y-1.5444
X8.5315Y2.0655
X8.5611Y-2.1372
X8.6056Y1.0622
X8.6136Y1.6861
X8.6348Y0.5537
X8.6406Y1.4776
X8.6473Y1.7758
X8.6909Y0.8991
X8.7281Y-1.7921
X8.7475Y-0.9919
X8.7531Y-1.2243
X8.7579Y1.4651
X8.7582Y-0.4094
X8.7669Y-1.8328
X8.7776Y-0.0211
X8.7874Y0.8155
X8.807Y1.3784
X8.8094Y1.9561
X8.8349Y-1.4625
X8.8563Y1.7899
X8.8709Y-1.333
X8.9239Y1.4053
X8.9628Y1.6861
X8.9628Y-0.8797
X9.004Y-1.3203
X9.0552Y-0.8979
X9.063Y1.4258
X9.0824Y-1.1079
X9.0826Y0.0563
X9.0901Y0.2527
X9.0926Y1.7604
X9.106Y-0.1475
X9.1876Y0.0668
X9.2081Y0.279
X9.2096Y-1.3511
X9.2285Y-0.175
X9.2859Y-0.3048
X9.2993Y-0.9955
X9.4275Y-0.2972
X9.4903Y0.1952
X9.5735Y0.0349
X9.583Y-0.1575
M30
